<?xml version="1.0" standalone="no"?>
<svg width="1024px" height="1024px" version="1.1" xmlns="http://www.w3.org/2000/svg">
<path transform="scale(1, -1) translate(0, -1024)" unicode="&#xe605;" d="M837.984 795.008c-36.352 41.696-88.48 68.416-145.728 68.416-57.376 0-109.344-26.72-145.792-68.416-36.48-41.632-58.464-98.656-58.464-160.704v-154.048h-330.016c-15.968 0-28.928-13.92-28.928-31.040v-354.624c0-17.12 12.96-30.88 28.928-30.88h484.864c15.968 0 28.96 13.76 28.96 30.88v354.624c0 17.12-12.992 31.040-28.96 31.040h-48.32v154.048c0 33.152 11.68 62.272 29.888 82.912 18.24 20.672 41.824 32.48 67.84 32.48s49.664-11.808 67.808-32.48c18.144-20.64 29.888-49.76 29.888-82.912v-193.664h106.528v193.664c0 62.048-22.048 119.040-58.496 160.704zM454.592 198.592c0-31.264-20.192-56.576-45.152-56.576-24.928 0-45.12 25.312-45.12 56.576v118.784c0 31.296 20.192 56.576 45.12 56.576s45.152-25.28 45.152-56.576v-118.784z" />
</svg>