<?xml version="1.0" standalone="no"?>
<svg width="512px" height="512px" version="1.1" xmlns="http://www.w3.org/2000/svg">
<path transform="scale(1, -1) translate(0, -512)" glyph-name="favorite-off-3" unicode="&#51;" d="M500 302c-1 6-7 11-13 12l-149 21-3 5-64 131c-3 5-9 9-15 9-6 0-12-4-15-9l-67-136-5 0-144-21c-6-1-12-6-14-12-1-6 0-12 5-17l108-105-1-6-25-143c-1-6 2-12 7-16 5-4 12-4 18-1l133 70 5-3 128-67c3-2 6-2 8-2 4 0 7 1 10 3 5 4 8 10 7 16l-26 149 108 105c5 5 6 11 4 17z m-148 53l138-20c14-2 26-12 31-26 4-14 1-29-10-39l-100-98 24-137c2-14-4-29-15-37-7-5-15-8-23-8-6 0-12 2-18 5l-123 65-123-65c-13-7-29-6-41 3-11 8-17 23-15 37l24 137-100 98c-11 10-14 25-10 39 5 14 17 24 31 26l138 20 62 125c6 13 19 21 34 21 15 0 28-8 34-21z"/>
</svg>