<?xml version="1.0" standalone="no"?>
<svg width="512px" height="512px" version="1.1" xmlns="http://www.w3.org/2000/svg">
<path transform="scale(1, -1) translate(0, -512)" glyph-name="publish" unicode="&#50;" d="M37 179c0-39 29-71 68-77l14-1 274 0 14 1c39 6 68 38 68 77 0 34-22 63-54 74-2 67-59 122-131 122-51 0-95-28-117-70-10 11-24 18-40 18-31 0-55-24-55-53 0-7 1-14 4-21-27-13-45-39-45-70z m226 91l59-66c3-3 3-9-1-13-1-1-4-2-6-2l-19 0 0-88-80 0 0 88-19 0c-5 0-9 4-9 9 0 2 1 5 2 6l59 66c4 3 9 4 13 0 0 0 1 0 1 0z"/>
</svg>