<?xml version="1.0" standalone="no"?>
<svg width="512px" height="512px" version="1.1" xmlns="http://www.w3.org/2000/svg">
<path transform="scale(1, -1) translate(0, -512)" glyph-name="lab" unicode="&#72;" d="M401 67l-95 163 0 97 24 0c6 0 11 5 11 11 0 6-5 11-11 11l-175 0c-7 0-11-5-11-11 0-6 4-11 11-11l23 0 0-98-89-162c-6-15-4-32 6-46 10-13 26-21 44-21l212 0c17 0 34 8 44 22 10 13 12 30 6 45z m-199 157l0 102 80 0 0-102 25-49-129 0z m0 265c0-13-11-24-24-24-12 0-23 11-23 24 0 13 11 23 23 23 13 0 24-10 24-23z m70-58c0-20-16-35-35-35-20 0-35 15-35 35 0 19 15 34 35 34 19 0 35-15 35-34z"/>
</svg>