<?xml version="1.0" standalone="no"?>
<svg width="512px" height="512px" version="1.1" xmlns="http://www.w3.org/2000/svg">
<path transform="scale(1, -1) translate(0, -512)" glyph-name="team-1" unicode="&#67;" d="M512 161c-16-25-41-28-67-33-1 62-25 109-77 142 27 33 33 69 19 109 27 12 59 2 77-24 19-28 14-62-14-91 2-1 4-3 6-4 29-15 48-40 54-73 0-2 1-3 2-4 0-8 0-15 0-22z m-192 103c16-15 34-28 48-45 20-23 29-53 32-85 1-19-6-32-20-42-20-14-43-20-66-24-45-7-91-6-135 9-48 15-60 38-45 90 11 40 34 70 68 89 2 2 5 3 9 5-24 23-36 51-34 85 2 24 11 45 28 62 34 33 86 32 119-2 38-38 35-90-4-142z m-234-136c-21 2-40 6-57 17-9 6-14 15-13 27 2 38 19 66 50 86 3 2 6 3 10 6-16 16-27 34-24 58 2 13 7 27 14 37 17 25 47 31 75 19-13-39-7-76 19-108-50-33-74-80-74-142z"/>
</svg>