<svg width="24" height="24" viewBox="0 0 24 24" xmlns="http://www.w3.org/2000/svg">
<path d="M19.5755 14.2627C19.5755 14.3937 19.4663 14.5053 19.3381 14.5053H9.97491C9.84671 14.5053 9.7375 14.3937 9.7375 14.2627V4.69766C9.7375 4.5667 9.84671 4.45513 9.97491 4.45513H19.3381C19.4663 4.45513 19.5755 4.5667 19.5755 4.69766V14.2627ZM14.2578 19.4187C14.2578 19.4867 14.2008 19.5449 14.1391 19.5449H4.54322C4.47674 19.5449 4.42451 19.4867 4.42451 19.4187V9.62085C4.42451 9.55294 4.48149 9.49474 4.54322 9.49474H8.3132V14.2627C8.3132 15.194 9.05865 15.9604 9.97503 15.9604H14.2578V19.4187ZM19.3382 3H9.97494C9.05856 3 8.31311 3.76152 8.31311 4.69766V8.03961H4.54313C3.69322 8.03961 3 8.74778 3 9.62086V19.4188C3 20.2918 3.69322 21 4.54313 21H14.139C14.9889 21 15.6821 20.2918 15.6821 19.4188V15.9604H19.3382C20.2545 15.9604 21 15.194 21 14.2627V4.69766C21 3.76152 20.2545 3 19.3382 3Z"/>
</svg>