<svg width="24" height="24" viewBox="0 0 24 24" fill="none" xmlns="http://www.w3.org/2000/svg">
<path d="M19.8011 10.8276L17.1688 8.17285C16.9056 7.90738 16 7.90738 16 8.46015V14.5384C16 15.0932 16.9056 15.0932 17.1688 14.8257L19.8011 12.1728C20.0663 11.9054 20.0663 11.0931 19.8011 10.8276Z" fill="black"/>
<path fill-rule="evenodd" clip-rule="evenodd" d="M5.99999 4H12C13.1034 4 14 4.89454 14 6V16C14 17.1035 13.1034 18 12 18H9.99998V20L4 16V14.6875V6.93748V6V4H5.99999ZM9.99923 16H11.9992V6H6.99924L9.99923 8.00004V16Z" fill="black"/>
</svg>
