<svg width="128" height="128" viewBox="0 0 128 128" fill="none" xmlns="http://www.w3.org/2000/svg">
<path fill-rule="evenodd" clip-rule="evenodd" d="M111.135 68.2994C109.04 79.7611 100.309 105.088 63.9112 117.333C63.9112 117.333 66.4625 113.666 67.7849 107.411C66.5359 107.51 65.2735 107.56 63.9997 107.56C37.5324 107.56 16 85.8271 16 59.1133C16 32.3996 37.5324 10.6667 63.9997 10.6667C90.4676 10.6667 112 32.3996 112 59.1133C112 62.2532 111.703 65.3243 111.135 68.2994Z" fill="url(#paint0_linear)"/>
<path d="M47.1602 53.997C46.7844 53.504 46.2489 53.0963 45.5538 52.7739C44.8774 52.4326 44.1916 52.2619 43.4965 52.2619C43.0832 52.2619 42.6698 52.3188 42.2565 52.4326C41.8431 52.5274 41.4674 52.6886 41.1292 52.9162C40.791 53.1247 40.5092 53.4092 40.2837 53.7695C40.0771 54.1108 39.9737 54.528 39.9737 55.021C39.9737 55.4762 40.0677 55.8649 40.2556 56.1873C40.4434 56.5096 40.6971 56.7846 41.0165 57.0122C41.3547 57.2397 41.7586 57.4388 42.2283 57.6095C42.698 57.7802 43.2147 57.9508 43.7783 58.1215C44.4171 58.3301 45.0747 58.5671 45.7511 58.8326C46.4462 59.0981 47.0756 59.4489 47.6392 59.885C48.2217 60.3212 48.6914 60.8711 49.0484 61.5348C49.4241 62.1985 49.612 63.0234 49.612 64.0095C49.612 65.0904 49.4147 66.0385 49.0202 66.8539C48.6256 67.6504 48.0996 68.3141 47.442 68.845C46.7844 69.376 46.0141 69.7742 45.1311 70.0397C44.248 70.3052 43.318 70.4379 42.341 70.4379C41.0447 70.4379 39.7765 70.2009 38.5365 69.7268C37.2964 69.2338 36.2819 68.5132 35.4928 67.565L38.0292 65.1757C38.5177 65.8584 39.1659 66.3988 39.9737 66.797C40.8004 67.1953 41.6083 67.3944 42.3974 67.3944C42.8107 67.3944 43.2335 67.347 43.6656 67.2522C44.0977 67.1384 44.4829 66.9582 44.821 66.7117C45.178 66.4652 45.4598 66.1618 45.6665 65.8015C45.892 65.4222 46.0047 64.9576 46.0047 64.4077C46.0047 63.8767 45.8826 63.4406 45.6383 63.0993C45.3941 62.739 45.0653 62.4356 44.652 62.189C44.2386 61.9236 43.7501 61.696 43.1865 61.5064C42.6229 61.3167 42.031 61.1176 41.411 60.909C40.8098 60.7194 40.2086 60.4919 39.6074 60.2264C39.0062 59.9609 38.4613 59.6101 37.9728 59.1739C37.5031 58.7378 37.118 58.2068 36.8174 57.581C36.5167 56.9363 36.3664 56.1399 36.3664 55.1917C36.3664 54.1677 36.5731 53.2859 36.9864 52.5464C37.4186 51.8068 37.9728 51.2 38.6492 50.7259C39.3443 50.2329 40.124 49.8726 40.9883 49.645C41.8713 49.3985 42.7638 49.2753 43.6656 49.2753C44.6801 49.2753 45.7041 49.4554 46.7374 49.8157C47.7896 50.176 48.7008 50.7165 49.4711 51.437L47.1602 53.997Z" fill="white"/>
<path d="M53.1691 49.7873H58.7209L63.9064 64.0948H63.991L69.1201 49.7873H74.7002V69.9259H71.1774V53.741H71.121L65.0619 69.9259H62.5819L56.6073 53.741H56.5509V69.9259H53.1691V49.7873Z" fill="white"/>
<path d="M89.2681 53.997C88.8923 53.504 88.3568 53.0963 87.6617 52.7739C86.9853 52.4326 86.2996 52.2619 85.6044 52.2619C85.1911 52.2619 84.7777 52.3188 84.3644 52.4326C83.9511 52.5274 83.5753 52.6886 83.2371 52.9162C82.8989 53.1247 82.6171 53.4092 82.3917 53.7695C82.185 54.1108 82.0816 54.528 82.0816 55.021C82.0816 55.4762 82.1756 55.8649 82.3635 56.1873C82.5513 56.5096 82.805 56.7846 83.1244 57.0122C83.4626 57.2397 83.8665 57.4388 84.3362 57.6095C84.8059 57.7802 85.3226 57.9508 85.8862 58.1215C86.525 58.3301 87.1826 58.5671 87.859 58.8326C88.5541 59.0981 89.1835 59.4489 89.7472 59.885C90.3296 60.3212 90.7993 60.8711 91.1563 61.5348C91.532 62.1985 91.7199 63.0234 91.7199 64.0095C91.7199 65.0904 91.5226 66.0385 91.1281 66.8539C90.7335 67.6504 90.2075 68.3141 89.5499 68.845C88.8923 69.376 88.122 69.7742 87.239 70.0397C86.3559 70.3052 85.4259 70.4379 84.4489 70.4379C83.1526 70.4379 81.8844 70.2009 80.6444 69.7268C79.4044 69.2338 78.3898 68.5132 77.6007 67.565L80.1371 65.1757C80.6256 65.8584 81.2738 66.3988 82.0816 66.797C82.9083 67.1953 83.7162 67.3944 84.5053 67.3944C84.9186 67.3944 85.3414 67.347 85.7735 67.2522C86.2056 67.1384 86.5908 66.9582 86.929 66.7117C87.2859 66.4652 87.5677 66.1618 87.7744 65.8015C87.9999 65.4222 88.1126 64.9576 88.1126 64.4077C88.1126 63.8767 87.9905 63.4406 87.7462 63.0993C87.502 62.739 87.1732 62.4356 86.7599 62.189C86.3465 61.9236 85.858 61.696 85.2944 61.5064C84.7308 61.3167 84.1389 61.1176 83.5189 60.909C82.9177 60.7194 82.3165 60.4919 81.7153 60.2264C81.1141 59.9609 80.5692 59.6101 80.0807 59.1739C79.611 58.7378 79.2259 58.2068 78.9253 57.581C78.6247 56.9363 78.4743 56.1399 78.4743 55.1917C78.4743 54.1677 78.681 53.2859 79.0944 52.5464C79.5265 51.8068 80.0807 51.2 80.7571 50.7259C81.4523 50.2329 82.2319 49.8726 83.0962 49.645C83.9792 49.3985 84.8717 49.2753 85.7735 49.2753C86.788 49.2753 87.812 49.4554 88.8453 49.8157C89.8975 50.176 90.8087 50.7165 91.579 51.437L89.2681 53.997Z" fill="white"/>
<defs>
<linearGradient id="paint0_linear" x1="38.635" y1="92.4705" x2="115.401" y2="41.9329" gradientUnits="userSpaceOnUse">
<stop stop-color="#4063B0"/>
<stop offset="1" stop-color="#3F7BE1"/>
</linearGradient>
</defs>
</svg>
