<svg width="128" height="128" viewBox="0 0 128 128" fill="none" xmlns="http://www.w3.org/2000/svg">
<path fill-rule="evenodd" clip-rule="evenodd" d="M35.8849 103.638C23.8135 108.027 17.7778 110.222 17.7778 110.222C17.7778 110.222 20.1761 104.466 24.9725 92.9549C18.9631 84.8682 15.4075 74.8493 15.4075 64C15.4075 37.163 37.1631 15.4074 64.0001 15.4074C90.837 15.4074 112.593 37.163 112.593 64C112.593 90.8369 90.837 112.593 64.0001 112.593C53.5233 112.593 43.8209 109.277 35.8849 103.638Z" fill="url(#paint0_linear)"/>
<path d="M117.333 62.6264C117.333 91.3232 93.8915 114.586 64.9694 114.586C55.7878 114.586 47.162 112.239 39.6574 108.121L10.6666 117.333L20.1185 89.4554C15.3505 81.6261 12.6044 72.4432 12.6044 62.6264C12.6044 33.9295 36.0486 10.6667 64.9694 10.6667C93.8939 10.6667 117.333 33.9295 117.333 62.6264ZM64.9694 18.9416C40.6921 18.9416 20.9446 38.5387 20.9446 62.6264C20.9446 72.1849 24.0604 81.037 29.3309 88.2382L23.8305 104.462L40.749 99.085C47.7001 103.649 56.0272 106.311 64.9706 106.311C89.2444 106.311 108.996 86.7164 108.996 62.6287C108.996 38.541 89.2456 18.9416 64.9694 18.9416ZM91.4121 74.5932C91.0885 74.0634 90.234 73.7434 88.9517 73.107C87.6669 72.4705 81.3546 69.3878 80.1813 68.9647C79.0044 68.5404 78.1463 68.3271 77.2918 69.6012C76.4373 70.8764 73.9768 73.7434 73.2266 74.5932C72.4776 75.4453 71.7297 75.552 70.445 74.9144C69.1626 74.2779 65.0275 72.9315 60.1244 68.5938C56.3093 65.2184 53.7327 61.0513 52.9837 59.7748C52.2358 58.5007 52.9054 57.8121 53.5466 57.1781C54.125 56.6068 54.8314 55.6907 55.4726 54.9475C56.1161 54.2032 56.3294 53.6735 56.7549 52.8225C57.1851 51.9727 56.9706 51.2296 56.6483 50.5908C56.3283 49.9544 53.7588 43.6871 52.6897 41.1366C51.6207 38.5884 50.5528 39.0127 49.8026 39.0127C49.0548 39.0127 48.1979 38.9061 47.3422 38.9061C46.4865 38.9061 45.0951 39.2249 43.9182 40.499C42.7425 41.7742 39.4275 44.8557 39.4275 51.1218C39.4275 57.389 44.0248 63.4441 44.6684 64.2927C45.3096 65.1413 53.5454 78.4201 66.5943 83.52C79.6444 88.6175 79.6444 86.9167 81.9982 86.7034C84.3496 86.4912 89.5905 83.6231 90.6643 80.6507C91.7309 77.6735 91.7309 75.1241 91.4121 74.5932Z" fill="white"/>
<defs>
<linearGradient id="paint0_linear" x1="64.0001" y1="15.4074" x2="64.0001" y2="112.593" gradientUnits="userSpaceOnUse">
<stop stop-color="#5CFB7A"/>
<stop offset="1" stop-color="#00B824"/>
</linearGradient>
</defs>
</svg>
