<svg width="72" height="72" viewBox="0 0 72 72" xmlns="http://www.w3.org/2000/svg">
<path d="M43.88 60.61C43.5208 60.6073 43.1664 60.5262 42.8417 60.3725C42.517 60.2188 42.2298 59.9961 42 59.72L24.79 39.22C24.0312 38.3186 23.6151 37.1782 23.6151 36C23.6151 34.8217 24.0312 33.6814 24.79 32.78L42 12.28C42.4329 11.7967 43.0367 11.5006 43.6839 11.4543C44.331 11.408 44.9708 11.6151 45.4681 12.0319C45.9654 12.4487 46.2811 13.0424 46.3486 13.6877C46.4162 14.333 46.2302 14.9793 45.83 15.49L28.62 36L45.8 56.51C46.1083 56.8737 46.3057 57.3183 46.3687 57.7909C46.4318 58.2635 46.3578 58.7443 46.1556 59.1761C45.9534 59.6078 45.6315 59.9725 45.2281 60.2267C44.8247 60.4809 44.3568 60.6139 43.88 60.61Z"/>
</svg>
