<svg width="72" height="72" viewBox="0 0 72 72" xmlns="http://www.w3.org/2000/svg">
<path d="M36 47.39C34.8211 47.3886 33.6807 46.9706 32.78 46.21L12.28 29C11.7967 28.5671 11.5006 27.9633 11.4543 27.3161C11.4081 26.669 11.6152 26.0292 12.0319 25.5319C12.4487 25.0346 13.0425 24.7189 13.6878 24.6513C14.333 24.5838 14.9793 24.7698 15.49 25.17L36 42.38L56.51 25.2C56.7529 24.9485 57.0458 24.7508 57.3699 24.6195C57.694 24.4883 58.042 24.4265 58.3914 24.4382C58.7409 24.4498 59.084 24.5346 59.3986 24.6871C59.7133 24.8396 59.9924 25.0564 60.218 25.3235C60.4436 25.5906 60.6107 25.902 60.7085 26.2377C60.8063 26.5734 60.8325 26.9259 60.7856 27.2724C60.7387 27.6188 60.6196 27.9516 60.436 28.2492C60.2525 28.5468 60.0086 28.8025 59.72 29L39.22 46.21C38.3193 46.9706 37.1789 47.3886 36 47.39Z"/>
</svg>
