<svg width="72" height="72" viewBox="0 0 72 72" xmlns="http://www.w3.org/2000/svg">
<path d="M41.37 10.0799H14.5C14.39 10.0799 14.29 10.0799 14.18 10.0799C14.1134 10.0752 14.0465 10.0752 13.98 10.0799C12.9606 10.0826 11.9839 10.4894 11.2641 11.2111C10.5442 11.9328 10.1399 12.9106 10.14 13.9299V51.9299C10.136 52.6302 10.3277 53.3177 10.6934 53.9148C11.0592 54.512 11.5844 54.9952 12.21 55.3099L28 63.3799H28.09C28.5814 63.597 29.1127 63.7094 29.65 63.7099C30.3816 63.713 31.098 63.5009 31.71 63.0999C32.24 62.7709 32.6801 62.3154 32.9907 61.7743C33.3014 61.2333 33.4729 60.6236 33.49 59.9999V56.8699H41.37C42.5263 56.8699 43.6353 56.4106 44.4529 55.5929C45.2706 54.7753 45.7299 53.6663 45.7299 52.5099V14.4499C45.73 13.2927 45.2709 12.1827 44.4535 11.3634C43.6362 10.5442 42.5272 10.0826 41.37 10.0799ZM41.73 52.5099C41.73 52.6054 41.692 52.697 41.6245 52.7645C41.557 52.832 41.4654 52.8699 41.37 52.8699H33.49V19.3999C33.4881 18.61 33.2407 17.8402 32.782 17.197C32.3234 16.5538 31.6762 16.0691 30.93 15.8099L25.93 14.0799H41.37C41.4663 14.0825 41.5579 14.1227 41.6251 14.1918C41.6924 14.2609 41.73 14.3535 41.73 14.4499V52.5099Z"/>
<path d="M59.79 31.0599L54.61 24.8899C54.1771 24.4066 53.5733 24.1105 52.9261 24.0642C52.279 24.0179 51.6392 24.2251 51.1419 24.6418C50.6446 25.0586 50.3289 25.6524 50.2613 26.2976C50.1938 26.9429 50.3798 27.5892 50.78 28.0999L56 34.1799L50.82 40.3499C50.5134 40.7141 50.3172 41.1582 50.2544 41.63C50.1916 42.1018 50.2648 42.5818 50.4654 43.0135C50.666 43.4452 50.9857 43.8106 51.3868 44.0668C51.788 44.323 52.254 44.4594 52.73 44.4599C53.0958 44.4624 53.4577 44.3838 53.7897 44.23C54.1216 44.0761 54.4154 43.8507 54.65 43.5699L59.83 37.3899C60.5655 36.4971 60.9644 35.3744 60.9571 34.2176C60.9498 33.0609 60.5367 31.9434 59.79 31.0599Z"/>
</svg>
