<?xml version="1.0" encoding="UTF-8"?>
<svg width="17px" height="11px" viewBox="0 0 17 11" version="1.1" xmlns="http://www.w3.org/2000/svg" xmlns:xlink="http://www.w3.org/1999/xlink">
    <!-- Generator: Sketch 50 (54983) - http://www.bohemiancoding.com/sketch -->
    <title>AB</title>
    <desc>Created with Sketch.</desc>
    <defs></defs>
    <g id="AB" stroke="none" stroke-width="1" fill="none" fill-rule="evenodd">
        <path d="M4.2781457,2.91086351 C5.24314579,2.91086351 5.95978952,3.1453087 6.42809839,3.61420613 C6.89640726,4.08310355 7.13055818,4.79572409 7.13055818,5.75208914 L7.13055818,9.15041783 C7.13055818,9.40111546 7.05487304,9.59842082 6.90350047,9.74233983 C6.75212791,9.88625884 6.54399376,9.95821727 6.27909177,9.95821727 C6.03311135,9.95821727 5.83207268,9.8839376 5.67596973,9.73537604 C5.51986677,9.58681448 5.44181646,9.39183036 5.44181646,9.15041783 L5.44181646,8.84401114 C5.28098311,9.20612994 5.0279109,9.48932117 4.68259224,9.69359331 C4.33727358,9.89786546 3.9375614,10 3.48344371,10 C3.01986523,10 2.5988666,9.90715042 2.22043519,9.72144847 C1.84200378,9.53574652 1.54399352,9.28041017 1.32639546,8.95543175 C1.1087974,8.63045334 1,8.26833997 1,7.86908078 C1,7.36768552 1.13008385,6.97307479 1.39025544,6.68523677 C1.65042703,6.39739875 2.07379082,6.18848719 2.66035951,6.05849582 C3.24692819,5.92850446 4.0558132,5.86350975 5.08703879,5.86350975 L5.44181646,5.86350975 L5.44181646,5.54317549 C5.44181646,5.08820571 5.34247971,4.75626845 5.14380322,4.54735376 C4.94512673,4.33843907 4.62346485,4.23398329 4.17880795,4.23398329 C3.90444518,4.23398329 3.6253562,4.27344436 3.34153264,4.35236769 C3.05770908,4.43129102 2.72185624,4.54503175 2.33396405,4.69359331 C2.08798363,4.81429958 1.90823141,4.87465181 1.79470199,4.87465181 C1.62440785,4.87465181 1.48486336,4.81429958 1.37606433,4.69359331 C1.2672653,4.57288705 1.2128666,4.41504276 1.2128666,4.22005571 C1.2128666,4.06220905 1.25307434,3.92525592 1.33349101,3.8091922 C1.41390769,3.69312848 1.54872185,3.58403022 1.73793756,3.48189415 C2.06906504,3.3054773 2.4640469,3.16620292 2.92289499,3.06406685 C3.38174307,2.96193078 3.83348879,2.91086351 4.2781457,2.91086351 Z M3.83822138,8.74651811 C4.31126064,8.74651811 4.69678186,8.59099506 4.99479659,8.27994429 C5.29281133,7.96889352 5.44181646,7.56731908 5.44181646,7.07520891 L5.44181646,6.78272981 L5.18637654,6.78272981 C4.55250393,6.78272981 4.06055047,6.81058468 3.71050142,6.86629526 C3.36045237,6.92200585 3.10974532,7.01949791 2.95837275,7.15877437 C2.80700019,7.29805084 2.73131504,7.48839248 2.73131504,7.72980501 C2.73131504,8.02692813 2.83774728,8.27065829 3.05061495,8.46100279 C3.26348262,8.65134728 3.52601547,8.74651811 3.83822138,8.74651811 Z M12.9205298,2.91086351 C13.5260201,2.91086351 14.0605464,3.05478036 14.5241249,3.34261838 C14.9877034,3.63045641 15.349573,4.03899457 15.6097446,4.56824513 C15.8699162,5.09749568 16,5.7149454 16,6.42061281 C16,7.12628022 15.8699162,7.75069366 15.6097446,8.29387187 C15.349573,8.83705007 14.9853382,9.25719443 14.5170293,9.55431755 C14.0487205,9.85144067 13.5165593,10 12.9205298,10 C12.4191082,10 11.9720928,9.89322298 11.5794702,9.67966574 C11.1868476,9.4661085 10.8864722,9.16898983 10.6783349,8.78830084 L10.6783349,9.13649025 C10.6783349,9.38718788 10.5979194,9.58681448 10.4370861,9.73537604 C10.2762527,9.8839376 10.0633883,9.95821727 9.79848628,9.95821727 C9.5335843,9.95821727 9.32308498,9.8839376 9.16698202,9.73537604 C9.01087907,9.58681448 8.93282876,9.38718788 8.93282876,9.13649025 L8.93282876,0.807799443 C8.93282876,0.566386908 9.01560939,0.371402786 9.18117313,0.222841226 C9.34673687,0.0742796657 9.56196651,-1.76716757e-15 9.8268685,0 C10.0917705,-1.76716757e-15 10.304635,0.0696371866 10.4654683,0.208913649 C10.6263017,0.348190111 10.7067171,0.538531755 10.7067171,0.77994429 L10.7067171,4.06685237 C10.9148544,3.69544847 11.2128647,3.409936 11.6007569,3.21030641 C11.9886491,3.01067681 12.428569,2.91086351 12.9205298,2.91086351 Z M12.4522233,8.64902507 C13.0104096,8.64902507 13.4455992,8.45404095 13.7578051,8.06406685 C14.070011,7.67409276 14.2261116,7.12628022 14.2261116,6.42061281 C14.2261116,5.7242305 14.0723762,5.1903454 13.7649007,4.8189415 C13.4574251,4.4475376 13.0198704,4.26183844 12.4522233,4.26183844 C11.8845762,4.26183844 11.4470214,4.44985884 11.1395459,4.82590529 C10.8320704,5.20195174 10.6783349,5.74280056 10.6783349,6.44846797 C10.6783349,7.15413538 10.8320704,7.69730543 11.1395459,8.07799443 C11.4470214,8.45868343 11.8845762,8.64902507 12.4522233,8.64902507 Z" id="ab" fill="#738192"></path>
    </g>
</svg>