<?xml version="1.0" encoding="UTF-8"?>
<svg width="13px" height="20px" viewBox="0 0 13 20" version="1.1" xmlns="http://www.w3.org/2000/svg" xmlns:xlink="http://www.w3.org/1999/xlink">
    <!-- Generator: Sketch 48 (47235) - http://www.bohemiancoding.com/sketch -->
    <title>Attach</title>
    <desc>Created with Sketch.</desc>
    <defs></defs>
    <g id="Novos" stroke="none" stroke-width="1" fill="none" fill-rule="evenodd">
        <g id="Attach" fill="#738192">
            <path d="M4.34167306,17 C3.14219558,17 1.88320345,16.5612309 1.07057123,15.5959388 C-0.194298898,14.0924718 -0.345657159,12.289331 0.655438135,10.6485894 C1.09151157,9.93381444 4.00001485,7.07544298 6.78728458,4.37400885 C7.13224916,4.03974325 7.36736879,3.81180178 7.43423093,3.74443888 C8.06795181,3.10103221 9.98932002,2.43031626 11.5569067,3.79723683 C12.9635833,5.1627009 12.7306679,6.89957121 11.7843114,7.91984596 C11.517965,8.20713961 9.01614518,10.7257836 6.60396474,13.1519402 L5.95150777,13.8084553 C5.65503662,14.1081292 5.07164604,14.4434871 4.43865991,14.44021 C3.96180791,14.4307428 3.5268366,14.225377 3.18040252,13.8463242 C2.24800625,12.7994684 2.93573116,11.6484732 3.42874763,11.1853078 L8.78727092,6.09085235 C9.00659345,5.88220944 9.3563339,5.88912779 9.56610469,6.1068738 C9.77734498,6.3246198 9.76963012,6.67017324 9.54994022,6.87881615 L4.18921268,11.9758205 C4.0812046,12.0806881 3.56357404,12.6261455 4.00185173,13.1184408 C4.14071926,13.2699163 4.2880364,13.3445616 4.46070238,13.3478388 C4.46474349,13.3482029 4.46915199,13.3482029 4.47356048,13.3482029 C4.75717353,13.3482029 5.04703195,13.1621356 5.16495914,13.0430672 L5.81925298,12.3847314 C7.14951576,11.0469408 10.6836577,7.49236468 10.9731487,7.18031062 C11.3816691,6.740085 11.873216,5.63278467 10.8070955,4.59758084 C9.65941779,3.59696876 8.36552509,4.36235689 8.22261644,4.50764227 C8.15428479,4.57682578 7.91218505,4.81168561 7.55803611,5.15505431 C6.18846427,6.48228539 2.02060148,10.5211461 1.59848827,11.2140736 C0.845003336,12.4488172 0.958154657,13.7563856 1.91700189,14.896093 C2.91515819,16.0824081 5.02939798,16.1789009 6.06061797,15.4255289 C6.07200658,15.417154 6.08376256,15.4091433 6.09625329,15.4018608 C6.91366138,14.8964571 10.0998997,11.5803821 12.0422083,9.47538264 C12.2475706,9.2525389 12.5969437,9.23760983 12.8206747,9.44079088 C13.0455078,9.64433606 13.0609375,9.98952538 12.8555752,10.2123691 C12.353007,10.7570982 7.93239064,15.5329454 6.69801259,16.3165397 C6.08155832,16.7604066 5.22778017,17 4.34167306,17" id="6E"></path>
        </g>
    </g>
</svg>