<?xml version="1.0" encoding="UTF-8"?>
<svg width="155px" height="140px" viewBox="0 0 155 140" version="1.1" xmlns="http://www.w3.org/2000/svg" xmlns:xlink="http://www.w3.org/1999/xlink">
    <!-- Generator: Sketch 50 (54983) - http://www.bohemiancoding.com/sketch -->
    <title>BLiPinho</title>
    <desc>Created with Sketch.</desc>
    <defs></defs>
    <g id="BLiPinho" stroke="none" stroke-width="1" fill="none" fill-rule="evenodd">
        <g id="Group-17">
            <g id="Group-15">
                <g id="Group-12-Copy-2" transform="translate(34.535519, 30.346685)" fill="#0DE6EB">
                    <g id="Group-2">
                        <g id="Group">
                            <path d="M46.3871895,0 C35.4395925,0 24.0937199,1.80121697 16.3621973,6.69827561 C3.82149839,14.6348879 0.1523856,30.1345646 0.580531733,44.4061389 C0.948936545,56.7485688 4.16998943,70.0018414 12.7279336,79.1205023 C20.8925808,87.8144445 37.679892,91.723904 49.1253334,91.723904 C49.6430915,91.723904 50.1907203,92.1076861 50.1907203,92.8189621 L50.1907203,105.273968 C50.1907203,106.502071 51.1216892,107.458967 52.3165156,107.458967 C52.3862138,107.458967 52.4509336,107.443616 52.5156533,107.438499 C52.9686917,107.397562 53.3669672,107.223581 53.6855875,106.952375 C59.4556034,101.886452 65.2206409,96.7284216 70.7865406,91.4271126 C76.123432,86.3407215 82.1672623,81.1161689 86.3391978,75.0268274 C95.1410858,62.1829223 96.4454379,44.0223568 93.5280701,28.9678673 C90.720228,14.4813751 80.7085783,5.05057145 66.6743464,2.04683747 C60.899352,0.813617894 53.735372,0 46.3871895,0" id="Fill-20"></path>
                        </g>
                    </g>
                </g>
                <g id="Group-14-Copy" transform="translate(53.530055, 65.895659)" fill="#107D7F">
                    <ellipse id="Oval-2" cx="4.31693989" cy="4.33524075" rx="4.31693989" ry="4.33524075"></ellipse>
                    <ellipse id="Oval-2-Copy" cx="52.6666667" cy="4.33524075" rx="4.31693989" ry="4.33524075"></ellipse>
                </g>
                <path d="M59.4562023,84.9478518 C60.5001102,88.3813312 66.3847945,99.5953771 81.7859093,99.5953771 C97.1801169,99.5953771 101.312055,90.9621568 104.109765,84.9478518 C104.446398,84.2241847 105.061219,79.7658296 104.109765,79.7684309 C97.2526013,81.1384339 89.8854041,81.7339762 82.0081737,81.5550578 C73.7193636,81.5222945 66.2020398,80.9621295 59.4562023,79.8745625 C58.5125192,79.8766435 58.4122945,81.5143724 59.4562023,84.9478518 Z" id="Clip-61" fill="#0E9B9E"></path>
                <path d="M104.901639,0 C100.854879,0 97.5628415,3.30599318 97.5628415,7.36990927 C97.5628415,11.4338254 100.854879,14.7398185 104.901639,14.7398185 C108.9484,14.7398185 112.240437,11.4338254 112.240437,7.36990927 C112.240437,3.30599318 108.948692,0 104.901639,0 Z M104.901639,9.82659459 C103.552719,9.82659459 102.455325,8.72454797 102.455325,7.36990927 C102.455325,6.01527057 103.552719,4.91322395 104.901639,4.91322395 C106.25056,4.91322395 107.347954,6.01527057 107.347954,7.36990927 C107.347954,8.72454797 106.250706,9.82659459 104.901639,9.82659459 Z" id="Shape" fill="#36D9D9" fill-rule="nonzero"></path>
                <path d="M4.17857473,79.8645505 C3.82631685,80.2382993 3.64398696,80.7151234 3.64398696,81.2306152 C3.64398696,81.7461069 3.82620806,82.2358587 4.17857473,82.5966798 L4.30009173,82.7384227 L6.30419752,84.8647973 C8.44178707,87.1330303 8.44178707,90.8058801 6.30419752,93.074113 C5.95193965,93.4478619 5.49034911,93.6412001 5.01679181,93.6412001 C4.77375781,93.6412001 4.5308326,93.5896048 4.29998294,93.4737172 C4.09361073,93.3834543 3.89898772,93.254639 3.72905974,93.0742285 C3.0244352,92.3139185 3.0244352,91.0895968 3.72905974,90.3291714 C4.44565103,89.5816738 4.44565103,88.357352 3.72905974,87.5970421 L1.60343694,85.3417369 C0.570923201,84.2463458 0,82.7900181 0,81.2306152 C0,79.6841399 0.570923201,78.2278123 1.60343694,77.1324212 L3.72905974,74.8641882 C4.44565103,74.1166906 4.44565103,72.8923688 3.72905974,72.1320589 L1.60343694,69.8767536 C0.570923201,68.7813625 0,67.3250349 0,65.765632 C0,64.2191567 0.570923201,62.7628291 1.60343694,61.667438 L3.72905974,59.399205 C4.44565103,58.6517074 4.44565103,57.4273856 3.72905974,56.6670757 L1.60343694,54.4117704 C0.570923201,53.3163793 0,51.8600517 0,50.3006487 C0,48.7541735 0.570923201,47.2978458 1.60343694,46.2024547 L4.30009173,43.341741 L4.44586861,43.1742582 C5.00471626,42.5814311 5.13809123,41.6921905 4.7980177,40.9446929 C4.34872028,39.9910447 4.71327128,38.8311306 5.61208369,38.3543065 C6.51089609,37.8774824 7.60400514,38.2642743 8.05352013,39.2178071 C9.11018497,41.4473724 8.6971142,44.140834 7.03308194,45.9063875 L4.17868351,48.9349304 C3.82642564,49.3086792 3.64409575,49.7855033 3.64409575,50.300995 C3.64409575,50.8164868 3.82631685,51.3062386 4.17868351,51.6670597 L4.30020051,51.8088026 L6.30430631,53.9351772 C6.42582331,54.0641079 6.55941586,54.2058508 6.68071528,54.3733336 C8.4299291,56.6543788 8.3084121,60.0178875 6.30430631,62.1444929 L4.17868351,64.3997981 C3.82642564,64.773547 3.64409575,65.2503711 3.64409575,65.7658628 C3.64409575,66.2813546 3.82631685,66.7711063 4.17868351,67.1319275 L4.30020051,67.2736704 L6.30430631,69.400045 C8.44189586,71.6682779 8.44189586,75.3411277 6.30430631,77.6093607 L4.30020051,79.7357353 L4.17857473,79.8645505 Z" id="Shape" fill="#F26D76" fill-rule="nonzero"></path>
                <path d="M147.01511,97.9427216 L144.24076,95.1014288 C141.463299,92.2586877 141.463299,87.6562857 144.24076,84.8119517 L147.01511,81.9706588 C147.937914,81.0247197 147.937914,79.4861929 147.014262,78.5402538 L144.240619,75.698961 C141.463157,72.8562199 141.463157,68.2538179 144.240619,65.4094838 L147.950075,61.610377 C148.671519,60.8706561 148.850395,59.7464483 148.393377,58.8115152 C147.807539,57.6138857 148.281668,56.15718 149.450939,55.5572067 C150.620351,54.9595504 152.043443,55.443526 152.627725,56.6402867 C153.999912,59.4453755 153.46498,62.8213296 151.298667,65.0396234 L147.589494,68.8387303 C146.661883,69.7903172 146.665276,71.321748 147.589494,72.2682664 L150.364693,75.1104281 C153.13367,77.9479558 153.13367,82.5641154 150.364693,85.3999052 L147.589494,88.2411981 C146.661883,89.192785 146.665276,90.7242158 147.589494,91.6707342 L150.364693,94.5128959 C151.288345,95.4594143 151.288345,96.9957688 150.364693,97.942432 C149.43793,98.8901089 147.940883,98.8909778 147.01511,97.9427216 Z" id="Shape" fill="#F9A926" fill-rule="nonzero" transform="translate(147.769545, 76.977348) rotate(-11.000000) translate(-147.769545, -76.977348) "></path>
                <ellipse id="Oval" fill="#F26D76" fill-rule="nonzero" cx="117.420765" cy="21.6762037" rx="2.59016393" ry="2.60114445"></ellipse>
                <ellipse id="Oval-Copy" fill="#F26D76" fill-rule="nonzero" cx="25.0382514" cy="52.022889" rx="2.59016393" ry="2.60114445"></ellipse>
                <ellipse id="Oval" fill="#36D9D9" fill-rule="nonzero" cx="53.5300546" cy="16.4739148" rx="2.59016393" ry="2.60114445"></ellipse>
                <ellipse id="Oval" fill="#43BFBF" fill-rule="nonzero" cx="140.73224" cy="38.1501186" rx="2.59016393" ry="2.60114445"></ellipse>
                <ellipse id="Oval" fill="#FFC033" fill-rule="nonzero" cx="79.431694" cy="2.60114445" rx="2.59016393" ry="2.60114445"></ellipse>
                <path d="M30.3390976,24.1129564 L27.6286294,22.7174795 L24.9172169,24.1129564 C23.8677431,24.6546705 22.6305383,23.779387 22.8314028,22.6289592 L23.3489291,19.6724815 L21.1559873,17.5789299 C20.3045452,16.7669473 20.7746024,15.3449058 21.9524921,15.1774486 L24.9835708,14.7456914 L26.33932,12.0559516 C26.8679197,11.0086714 28.3907983,11.0116978 28.9178529,12.0559516 L30.2731728,14.7456914 L33.3042516,15.1774486 C34.4805962,15.3447377 34.9532285,16.7660225 34.1007564,17.5789299 L31.9078145,19.6724815 L32.4253409,22.6289592 C32.6259478,23.7782101 31.3921766,24.6538298 30.3390976,24.1129564 Z" id="Shape" fill="#FFC033" fill-rule="nonzero"></path>
            </g>
        </g>
    </g>
</svg>