<?xml version="1.0" encoding="UTF-8"?>
<svg width="13px" height="13px" viewBox="0 0 13 13" version="1.1" xmlns="http://www.w3.org/2000/svg" xmlns:xlink="http://www.w3.org/1999/xlink">
    <!-- Generator: Sketch 50 (54983) - http://www.bohemiancoding.com/sketch -->
    <title>copy</title>
    <desc>Created with Sketch.</desc>
    <defs></defs>
    <g id="copy" stroke="none" stroke-width="1" fill="none" fill-rule="evenodd" opacity="0.721750453">
        <path d="M11.9712477,8.13419563 C11.9712477,8.2287793 11.8923767,8.30935058 11.799789,8.30935058 L5.03745714,8.30935058 C4.94486943,8.30935058 4.86599842,8.2287793 4.86599842,8.13419563 L4.86599842,1.22608461 C4.86599842,1.13150094 4.94486943,1.05092967 5.03745714,1.05092967 L11.799789,1.05092967 C11.8923767,1.05092967 11.9712477,1.13150094 11.9712477,1.22608461 L11.9712477,8.13419563 Z M8.13057241,11.8579898 C8.13057241,11.9070331 8.08942232,11.9490703 8.04484305,11.9490703 L1.11448167,11.9490703 C1.06647323,11.9490703 1.02875231,11.9070331 1.02875231,11.8579898 L1.02875231,4.78172999 C1.02875231,4.73268661 1.0699024,4.69064942 1.11448167,4.69064942 L3.83724611,4.69064942 L3.83724611,8.13419563 C3.83724611,8.80679062 4.37562648,9.36028025 5.03745714,9.36028025 L8.13057241,9.36028025 L8.13057241,11.8579898 Z M11.799789,0 L5.03745714,0 C4.37562648,0 3.83724611,0.549986527 3.83724611,1.22608461 L3.83724611,3.63971975 L1.11448167,3.63971975 C0.500659457,3.63971975 0,4.15117219 0,4.78172999 L0,11.8579898 C0,12.4885476 0.500659457,13 1.11448167,13 L8.04484305,13 C8.65866526,13 9.15932472,12.4885476 9.15932472,11.8579898 L9.15932472,9.36028025 L11.799789,9.36028025 C12.4616196,9.36028025 13,8.80679062 13,8.13419563 L13,1.22608461 C13,0.549986527 12.4616196,0 11.799789,0 Z" id="8H-Copy" fill="#0CC8CC"></path>
    </g>
</svg>