<?xml version="1.0" encoding="UTF-8"?>
<svg width="26px" height="20px" viewBox="0 0 26 20" version="1.1" xmlns="http://www.w3.org/2000/svg" xmlns:xlink="http://www.w3.org/1999/xlink">
    <!-- Generator: Sketch 48 (47235) - http://www.bohemiancoding.com/sketch -->
    <title>Notes</title>
    <desc>Created with Sketch.</desc>
    <defs></defs>
    <g id="Novos" stroke="none" stroke-width="1" fill="none" fill-rule="evenodd">
        <g id="Notes" fill="#8F9CB5">
            <path d="M18.5351845,18.4786054 C18.9645511,18.4786054 19.3111482,18.8183835 19.3111482,19.2393027 C19.3111482,19.6602219 18.9645511,20 18.5351845,20 L0.775963628,20 C0.346597087,20 0,19.6602219 0,19.2393027 C0,18.8183835 0.346597087,18.4786054 0.775963628,18.4786054 L18.5351845,18.4786054 Z M7.3571677,13.4389857 C7.52759609,13.4389857 7.66517081,13.7787639 7.66517081,14.199683 C7.66517081,14.6206022 7.52759609,14.9603803 7.3571677,14.9603803 L0.308003113,14.9603803 C0.137574724,14.9603803 0,14.6206022 0,14.199683 C0,13.7787639 0.137574724,13.4389857 0.308003113,13.4389857 L7.3571677,13.4389857 Z M9.59277109,8.39936609 C9.81498711,8.39936609 9.99436631,8.73914422 9.99436631,9.16006339 C9.99436631,9.58098257 9.81498711,9.9207607 9.59277109,9.9207607 L0.401595217,9.9207607 C0.179379197,9.9207607 0,9.58098257 0,9.16006339 C0,8.73914422 0.179379197,8.39936609 0.401595217,8.39936609 L9.59277109,8.39936609 Z M10.910094,12.6529319 L19.5388095,4.16354992 L21.7528924,6.33914422 L13.1138307,14.8133122 L10.910094,14.8133122 L10.910094,12.6529319 Z M21.902912,1.83581616 L24.1273411,4.01648177 L22.8547608,5.26402536 L20.6355048,3.08843106 L21.902912,1.83581616 Z M10.1341304,16.3347068 L13.4345623,16.3347068 C13.641486,16.3347068 13.8380634,16.2535658 13.98291,16.1115689 L25.772384,4.5540412 C25.9172305,4.41204437 26,4.21426307 26,4.01648177 C26,3.81362916 25.9172305,3.62091918 25.772384,3.47892235 L22.4512597,0.223137876 C22.3064131,0.081141046 22.1098357,0 21.902912,0 C21.6959884,0 21.499411,0.081141046 21.3545644,0.223137876 L9.58578273,11.8009509 C9.44093618,11.948019 9.35816673,12.140729 9.35816673,12.3385103 L9.35816673,15.5740095 C9.35816673,15.9949287 9.70476382,16.3347068 10.1341304,16.3347068 Z" id="7H-Copy"></path>
        </g>
    </g>
</svg>