<?xml version="1.0" encoding="UTF-8"?>
<svg width="22px" height="25px" viewBox="0 0 22 25" version="1.1" xmlns="http://www.w3.org/2000/svg" xmlns:xlink="http://www.w3.org/1999/xlink">
    <!-- Generator: Sketch 50 (54983) - http://www.bohemiancoding.com/sketch -->
    <title>Smile</title>
    <desc>Created with Sketch.</desc>
    <defs></defs>
    <g id="Smile" stroke="none" stroke-width="1" fill="none" fill-rule="evenodd">
        <g id="Group-7">
            <path d="M10.6853353,0 C8.1334185,0 5.48866252,0.417619627 3.68642205,1.55302299 C0.763148555,3.39315947 -0.0921323367,6.98682382 0.00766977551,10.2957475 C0.0935460116,13.1573911 0.844382833,16.2302173 2.83926459,18.3444167 C4.74246766,20.3601433 8.65563885,21.2665677 11.3236046,21.2665677 C11.4442955,21.2665677 11.5719494,21.3555491 11.5719494,21.5204614 L11.5719494,24.4082062 C11.5719494,24.6929469 11.788961,24.9148073 12.0674785,24.9148073 C12.0837254,24.9148073 12.0988117,24.9112481 12.1138981,24.9100616 C12.2195026,24.9005703 12.3123418,24.860232 12.3866132,24.7973518 C13.7316207,23.6227966 15.0754677,22.4268858 16.3728952,21.1977554 C17.6169401,20.0184545 19.0257746,18.8071203 19.998265,17.3952812 C22.0500107,14.4173685 22.354059,10.2067661 21.6740121,6.7163202 C21.0194959,3.35756689 18.6857511,1.17099594 15.4143307,0.474567759 C14.0681627,0.188640684 12.3982181,0 10.6853353,0 M10.6853353,1.20896136 C12.2183422,1.20896136 13.8116945,1.36794156 15.1741094,1.6574279 C18.0730126,2.27436598 19.9692527,4.15484073 20.5146829,6.95241766 C20.8477434,8.66204801 20.9080889,10.4369314 20.6899168,12.084868 C20.448535,13.9012761 19.8903394,15.4531126 19.0315771,16.698853 C18.2958266,17.7678169 17.235139,18.7561042 16.2092662,19.7123583 C15.9934151,19.9128631 15.7787245,20.113368 15.5686759,20.3115001 C14.6159138,21.2155516 13.6515469,22.0863835 12.7533279,22.8812845 L12.7533279,21.5204614 C12.7533279,20.7136962 12.1127376,20.0587927 11.3236046,20.0587927 C8.79141614,20.0587927 5.2554041,19.1630461 3.68990352,17.5056182 C1.74144135,15.440062 1.25403569,12.4241839 1.18904827,10.2589685 C1.12638182,8.16375187 1.44783747,4.38144683 4.30728403,2.58164861 C5.71263703,1.69657974 7.97791288,1.20896136 10.6853353,1.20896136" id="Fill-20" fill="#FFFFFF"></path>
            <g id="Group-26" transform="translate(5.000000, 8.000000)"></g>
            <path d="M13.562273,13.2803548 C13.357123,13.5093 13.0936959,13.7298097 12.7573294,13.8937664 C12.4203416,14.0572477 12.0094202,14.1677402 11.4862938,14.1683343 C10.945647,14.1677402 10.5267732,14.0509508 10.1869274,13.8802221 C9.93219839,13.7517894 9.72195377,13.5910407 9.54786824,13.4195991 C9.28692634,13.1627337 9.10911307,12.8807996 8.99964173,12.6655175 C8.94484393,12.5579952 8.90706948,12.4674626 8.88370897,12.4061571 C8.87202871,12.3755043 8.86395194,12.3522178 8.85923014,12.337723 L8.85438407,12.3227531 L8.66526332,12.3720589 L8.85425981,12.3222778 L8.66526332,12.3720589 L8.85425981,12.3222778 C8.79039118,12.1009364 8.55094592,11.9709592 8.31932891,12.0320271 C8.08783617,12.0929762 7.95189786,12.3220402 8.0157665,12.5433817 C8.02657695,12.5764106 8.19494661,13.1627337 8.71210861,13.7713929 C8.97093812,14.0748315 9.32035175,14.3834976 9.7811006,14.6158883 C10.2412282,14.8485166 10.8114483,15.0005923 11.4862938,14.9999983 C12.1616363,15.0005923 12.7337204,14.8472097 13.1959603,14.6130369 C13.5428888,14.4379122 13.8283095,14.2193034 14.0594295,13.9924968 C14.4062337,13.6519898 14.6327561,13.2940178 14.7756529,13.0184994 C14.9184254,12.7428622 14.977448,12.5487281 14.9831638,12.530075 C15.0491448,12.3093277 14.9153189,12.0791943 14.6844475,12.0161067 C14.4534518,11.953019 14.2127639,12.0808577 14.1467829,12.3017239 C14.1383333,12.3320202 13.9729459,12.8241277 13.562273,13.2803548 Z" id="Fill-11" fill="#FFFFFF"></path>
            <circle id="Oval-2" fill="#FFFFFF" cx="6" cy="9" r="1"></circle>
            <circle id="Oval-2-Copy" fill="#FFFFFF" cx="17" cy="9" r="1"></circle>
        </g>
    </g>
</svg>