<svg xmlns="http://www.w3.org/2000/svg" width="32" height="36" viewBox="0 0 32 36">
  <g fill="#00C8CD">
    <path d="M0.800376364,12.2726011 L21.3950455,12.2726011 L21.3950455,17.181749 C21.3950455,17.4033941 21.4739004,17.5948596 21.6322233,17.7570411 C21.7908967,17.9191331 21.9785712,18 22.1953343,18 C22.4289198,18 22.6207998,17.9234317 22.7703611,17.7699369 L30.775439,9.58814311 C30.9250003,9.43473783 31,9.2386155 31,9.00022388 C31,8.7613845 30.9250003,8.56517261 30.7748257,8.41212555 L22.7955947,0.255765011 C22.5953034,0.0850758967 22.3950122,0 22.194721,0 C21.961486,0 21.7695183,0.0766578606 21.6196942,0.229973582 C21.4697824,0.383557964 21.3948703,0.579322079 21.3948703,0.818071912 L21.3948703,5.72721981 L0.800376364,5.72721981 C0.583613241,5.72721981 0.3960264,5.80808669 0.23761584,5.97008911 C0.07920528,6.13209152 0,6.32373618 0,6.54529172 L0,11.4544396 C0,11.6759952 0.0791176636,11.8677294 0.23761584,12.0296422 C0.396114017,12.1915551 0.583613241,12.2726011 0.800376364,12.2726011 Z"/>
    <path d="M0.800376364,30.2726011 L21.3950455,30.2726011 L21.3950455,35.181749 C21.3950455,35.4033941 21.4739004,35.5948596 21.6322233,35.7570411 C21.7908967,35.9191331 21.9785712,36 22.1953343,36 C22.4289198,36 22.6207998,35.9234317 22.7703611,35.7699369 L30.775439,27.5881431 C30.9250003,27.4347378 31,27.2386155 31,27.0002239 C31,26.7613845 30.9250003,26.5651726 30.7748257,26.4121256 L22.7955947,18.255765 C22.5953034,18.0850759 22.3950122,18 22.194721,18 C21.961486,18 21.7695183,18.0766579 21.6196942,18.2299736 C21.4697824,18.383558 21.3948703,18.5793221 21.3948703,18.8180719 L21.3948703,23.7272198 L0.800376364,23.7272198 C0.583613241,23.7272198 0.3960264,23.8080867 0.23761584,23.9700891 C0.07920528,24.1320915 0,24.3237362 0,24.5452917 L0,29.4544396 C0,29.6759952 0.0791176636,29.8677294 0.23761584,30.0296422 C0.396114017,30.1915551 0.583613241,30.2726011 0.800376364,30.2726011 Z" transform="matrix(-1 0 0 1 31 0)"/>
  </g>
</svg>
