<svg version="1.1" xmlns="http://www.w3.org/2000/svg" xmlns:xlink="http://www.w3.org/1999/xlink">
	<defs>
		<symbol id="ab" viewBox="0 0 72 72"><path d="M6.934 9.493c1.158 0 2.015.284 2.57.852.568.557.85 1.4.85 2.557v4.078c0 .3-.1.54-.273.72-.182.167-.43.25-.75.25a1.04 1.04 0 0 1-.732-.267c-.182-.178-.272-.412-.272-.702v-.368a2.18 2.18 0 0 1-.92 1.02c-.4.245-.885.368-1.43.368-.556 0-1.06-.1-1.516-.334a2.68 2.68 0 0 1-1.073-.919A2.29 2.29 0 0 1 3 15.443c0-.602.153-1.075.46-1.42.318-.345.83-.596 1.533-.752s1.674-.234 2.912-.234h.426v-.384c0-.546-.12-.94-.358-1.187-.238-.256-.624-.384-1.158-.384-.33 0-.664.05-1.005.15-.34.1-.744.223-1.2.4-.295.145-.5.217-.647.217a.67.67 0 0 1-.511-.217c-.125-.145-.187-.334-.187-.568 0-.2.045-.35.136-.485.102-.145.267-.28.494-.4.397-.212.868-.38 1.413-.5.556-.123 1.1-.184 1.635-.184zm-.528 7.003c.568 0 1.027-.184 1.38-.55.363-.38.545-.864.545-1.454v-.35h-.307c-.76 0-1.35.033-1.77.1s-.72.184-.903.35-.272.396-.272.685a1.16 1.16 0 0 0 .375.886c.26.223.58.334.954.334zm10.9-7.003c.727 0 1.368.173 1.924.518s.988.836 1.294 1.47c.318.635.477 1.376.477 2.223s-.16 1.6-.477 2.256a3.5 3.5 0 0 1-1.311 1.504c-.556.357-1.192.535-1.907.535-.602 0-1.14-.128-1.618-.384-.465-.256-.823-.613-1.073-1.07v.418c0 .3-.097.54-.3.72s-.448.267-.766.267-.573-.1-.766-.267c-.182-.178-.272-.418-.272-.72V6.97a.91.91 0 0 1 .29-.702c.204-.178.465-.267.783-.267s.573.084.766.25.3.396.3.685v3.944a2.47 2.47 0 0 1 1.073-1.02c.465-.245.993-.368 1.584-.368zm-.562 6.886c.67 0 1.192-.234 1.567-.702s.562-1.125.562-1.972c0-.836-.187-1.476-.562-1.922-.363-.446-.886-.668-1.567-.668s-1.2.228-1.584.685c-.363.446-.545 1.092-.545 1.94s.182 1.5.545 1.955c.375.457.902.685 1.584.685z"/></symbol>
		<symbol id="add" viewBox="0 0 72 72">
<path d="M13.6599 13.2955L21.3522 13.2551C21.7166 13.2551 22 13.0121 22 12.6478V11.4332C22 11.0688 21.7571 10.8259 21.3927 10.8259L13.6599 10.7854C13.417 10.7854 13.2551 10.6235 13.2551 10.3806V2.60729C13.2551 2.2834 13.0121 2 12.6478 2H11.3927C11.0688 2 10.7854 2.2834 10.7854 2.60729V10.3401C10.7854 10.583 10.6235 10.7449 10.3806 10.7449H2.60729C2.24291 10.7449 2 11.0283 2 11.3927V12.6073C2 12.9717 2.24291 13.2146 2.60729 13.2146L10.3401 13.2551C10.583 13.2551 10.7449 13.417 10.7449 13.6599V21.3927C10.7449 21.7571 11.0283 22 11.3927 22H12.6073C12.9717 22 13.2551 21.7571 13.2551 21.3927V13.7004C13.2551 13.4575 13.417 13.2955 13.6599 13.2955Z"/>
</symbol>
		<symbol id="attach" viewBox="0 0 72 72"><path d="M9.012 22c-1.66 0-3.404-.627-4.53-2.006-1.75-2.148-1.96-4.724-.575-7.068.604-1.02 4.63-5.105 8.5-8.964l.896-.9c.877-.92 3.538-1.877 5.708.075 1.948 1.95 1.625 4.432.315 5.89-.37.4-3.833 4.008-7.173 7.474l-.903.938c-.4.428-1.218.907-2.095.902-.66-.014-1.263-.307-1.742-.848-1.29-1.496-.34-3.14.344-3.8l7.42-7.278a.75.75 0 0 1 1.078.023.79.79 0 0 1-.022 1.103L8.8 14.823c-.15.15-.866.93-.26 1.632.192.216.396.323.635.328.4.001.812-.265.975-.435l.906-.94 7.136-7.435c.566-.63 1.246-2.21-.23-3.7-1.59-1.43-3.38-.336-3.578-.128a121.93 121.93 0 0 1-.92.925c-1.896 1.896-7.667 7.666-8.252 8.656-1.043 1.764-.887 3.632.44 5.26 1.382 1.695 4.31 1.833 5.737.756a.55.55 0 0 1 .049-.034c1.132-.722 5.544-5.46 8.233-8.466a.75.75 0 0 1 1.078-.049c.31.29.333.784.048 1.102-.696.778-6.817 7.6-8.526 8.72-.854.634-2.036.976-3.263.976z"/></symbol>
		<symbol id="clock" viewBox="0 0 72 72">
<path d="M12 3C7.05 3 3 7.05 3 12C3 16.95 7.05 21 12 21C16.95 21 21 16.95 21 12C21 7.05 16.95 3 12 3ZM12 19.2C8.04 19.2 4.8 15.96 4.8 12C4.8 8.04 8.04 4.8 12 4.8C15.96 4.8 19.2 8.04 19.2 12C19.2 15.96 15.96 19.2 12 19.2Z"/>
<path d="M12.45 7.5H11.1V12.9L15.78 15.78L16.5 14.61L12.45 12.18V7.5Z"/>
</symbol>
		<symbol id="copy" viewBox="0 0 72 72">
<path d="M19.5755 14.2627C19.5755 14.3937 19.4663 14.5053 19.3381 14.5053H9.97491C9.84671 14.5053 9.7375 14.3937 9.7375 14.2627V4.69766C9.7375 4.5667 9.84671 4.45513 9.97491 4.45513H19.3381C19.4663 4.45513 19.5755 4.5667 19.5755 4.69766V14.2627ZM14.2578 19.4187C14.2578 19.4867 14.2008 19.5449 14.1391 19.5449H4.54322C4.47674 19.5449 4.42451 19.4867 4.42451 19.4187V9.62085C4.42451 9.55294 4.48149 9.49474 4.54322 9.49474H8.3132V14.2627C8.3132 15.194 9.05865 15.9604 9.97503 15.9604H14.2578V19.4187ZM19.3382 3H9.97494C9.05856 3 8.31311 3.76152 8.31311 4.69766V8.03961H4.54313C3.69322 8.03961 3 8.74778 3 9.62086V19.4188C3 20.2918 3.69322 21 4.54313 21H14.139C14.9889 21 15.6821 20.2918 15.6821 19.4188V15.9604H19.3382C20.2545 15.9604 21 15.194 21 14.2627V4.69766C21 3.76152 20.2545 3 19.3382 3Z"/>
</symbol>
		<symbol id="image" viewBox="0 0 72 72">
<path d="M19 4H5C3.3 4 2 5.3 2 7V17C2 18.7 3.3 20 5 20H19C20.7 20 22 18.7 22 17V7C22 5.3 20.7 4 19 4ZM6.9 6.4C7.2 6.2 7.7 6.1 8.1 6.1C8.4 6.1 8.7 6.1 8.9 6.2C9.5 6.3 9.9 6.7 10 7.3C10.1 7.9 10.1 8.6 9.7 9.1C9.5 9.4 9.3 9.6 9.1 9.8C8.9 10 8.6 10.2 8.4 10.4C8.4 10.4 8.4 10.4 8.3 10.4C8.2 10.4 8.2 10.4 8.2 10.3V9.8C7.7 9.8 7.1 9.7 6.7 9.3C6.4 8.9 6.3 8.4 6.3 7.9C6.2 7.3 6.4 6.7 6.9 6.4ZM21 16.9C21 18 20.1 18.9 19 18.9H5C3.9 18.9 3 18 3 16.9L7.3 14C8.1 13.5 9.2 13.6 9.9 14.3L10.8 15.2L15 10.7C15.8 9.9 17.1 9.9 17.9 10.7L21 14V16.9Z"/>
</symbol>
		<symbol id="line-arrow-down" viewBox="0 0 72 72"><path d="M11 16.64L2.4 9.097a1.12 1.12 0 0 1 0-1.737c.547-.48 1.434-.48 1.98 0L12 14.034l7.61-6.674c.547-.48 1.434-.48 1.98 0a1.12 1.12 0 0 1 0 1.737L13 16.64c-.274.24-.632.36-1 .36s-.717-.12-1-.36z"/></symbol>
		<symbol id="line-arrow-left" viewBox="0 0 72 72"><path d="M7.36 11l7.543-8.6a1.12 1.12 0 0 1 1.737 0c.48.547.48 1.434 0 1.98L9.966 12l6.674 7.61c.48.547.48 1.434 0 1.98a1.12 1.12 0 0 1-1.737 0L7.36 13c-.24-.274-.36-.632-.36-1s.12-.717.36-1z"/></symbol>
		<symbol id="line-arrow-right" viewBox="0 0 72 72"><path d="M16.64 11L9.097 2.4a1.12 1.12 0 0 0-1.737 0c-.48.547-.48 1.434 0 1.98L14.034 12 7.36 19.61c-.48.547-.48 1.434 0 1.98a1.12 1.12 0 0 0 1.737 0L16.64 13c.24-.274.36-.632.36-1s-.12-.717-.36-1z"/></symbol>
		<symbol id="line-arrow-up" viewBox="0 0 72 72"><path d="M13 7.36l8.6 7.543a1.12 1.12 0 0 1 0 1.737c-.547.48-1.434.48-1.98 0L12 9.966 4.39 16.64c-.547.48-1.434.48-1.98 0a1.12 1.12 0 0 1 0-1.737L11 7.36c.274-.24.632-.36 1-.36s.717.12 1 .36z"/></symbol>
		<symbol id="log-out" viewBox="0 0 72 72">
<path d="M19.8011 10.8276L17.1688 8.17285C16.9056 7.90738 16 7.90738 16 8.46015V14.5384C16 15.0932 16.9056 15.0932 17.1688 14.8257L19.8011 12.1728C20.0663 11.9054 20.0663 11.0931 19.8011 10.8276Z"/>
<path d="M5.99999 4H12C13.1034 4 14 4.89454 14 6V16C14 17.1035 13.1034 18 12 18H9.99998V20L4 16V14.6875V6.93748V6V4H5.99999ZM9.99923 16H11.9992V6H6.99924L9.99923 8.00004V16Z"/>
</symbol>
		<symbol id="send" viewBox="0 0 72 72"><path d="M4.66 3.12l15.493 7.547c1.128.55 1.128 2.118 0 2.667L4.66 20.88c-.763.372-1.66-.17-1.66-1l.66-5.512c.062-.514.478-.92 1.006-.98l8.17-.83a.56.56 0 0 0 0-1.112l-8.17-.83c-.528-.06-.944-.466-1.006-.98L3 4.12c0-.83.898-1.37 1.66-1z"/></symbol>
		<symbol id="smile" viewBox="0 0 72 72"><path d="M3 12a9.01 9.01 0 0 1 9-9 9.01 9.01 0 0 1 9 9 9.01 9.01 0 0 1-9 9 9.01 9.01 0 0 1-9-9zm1.125 0c0 4.34 3.526 7.875 7.875 7.875 4.34 0 7.875-3.526 7.875-7.875 0-4.34-3.526-7.875-7.875-7.875-4.34 0-7.875 3.526-7.875 7.875zm3.567 1.52a.5.5 0 0 1 .704.068L8 13.905l.386-.318.002.003.012.015.054.062.218.23c.2.194.468.452.807.7.7.524 1.582 1 2.512 1 .936 0 1.843-.463 2.548-.973a6.78 6.78 0 0 0 .827-.7l.224-.225.07-.074v-.003a.5.5 0 1 1 .753.658l-.377-.33.377.33-.001.001h-.002l-.006.006-.02.022-.07.075-.258.26a8.88 8.88 0 0 1-.933.779c-.772.558-1.9 1.163-3.134 1.163-1.25 0-2.357-.626-3.116-1.202-.386-.293-.698-.584-.914-.803l-.252-.268-.068-.078-.02-.022-.007-.01c-.001-.001-.001-.001.385-.32l-.386.318a.5.5 0 0 1 .068-.704zm7.683-3.5c0-.466-.378-.844-.844-.844s-.844.378-.844.844.378.844.844.844.844-.378.844-.844zm-5.062 0c0-.466-.378-.844-.844-.844s-.844.378-.844.844.378.844.844.844.844-.378.844-.844z"/></symbol>
		<symbol id="tag" viewBox="0 0 72 72"><path d="M14.237 3h5.072c.93 0 1.69.76 1.69 1.69v5.072c0 .93-.538 2.23-1.196 2.886l-7.857 7.857c-.658.658-1.734.658-2.39 0l-6.063-6.063c-.658-.658-.658-1.734 0-2.39l7.857-7.857C12.008 3.538 13.307 3 14.237 3zm1.138 3.938a1.69 1.69 0 0 0 1.688 1.687 1.69 1.69 0 0 0 1.688-1.687 1.69 1.69 0 0 0-1.687-1.688 1.69 1.69 0 0 0-1.687 1.688z"/></symbol>
		<symbol id="triangle-arrow-down" viewBox="0 0 72 72"><path d="M2 8l10 9 10-9H2z"/></symbol>
		<symbol id="triangle-arrow-left" viewBox="0 0 72 72"><path d="M16.5 21.5l-9-10 9-10v20z"/></symbol>
		<symbol id="triangle-arrow-right" viewBox="0 0 72 72"><path d="M7.5 1.5l9 10-9 10v-20z"/></symbol>
		<symbol id="triangle-arrow-up" viewBox="0 0 72 72"><path d="M2 16l10-9 10 9H2z"/></symbol>
		<symbol id="blip-logo-full" width="247" height="88">
<path d="M38.6321 4.3C44.1339 4.3 49.9358 4.9 54.8374 5.9C65.2408 8 72.143 14.7 74.1437 24.6C75.3441 30.6 75.5441 36.9 74.7439 42.7C73.8436 49.1 71.8429 54.6 68.7419 59C66.041 62.8 62.2398 66.3 58.5386 69.6C57.7383 70.3 56.9381 71 56.2378 71.7C52.8367 74.9 49.3356 78 46.0345 80.8V76C46.0345 73.2 43.7338 70.8 40.8328 70.8C31.7299 70.8 18.9257 67.6 13.2238 61.8C6.22155 54.5 4.42096 43.9 4.2209 36.2C4.12086 28.8 5.22122 15.5 15.5246 9.1C20.6262 6 28.8289 4.3 38.6321 4.3ZM38.6321 0C29.4291 0 19.826 1.5 13.3239 5.5C2.82044 12 -0.280569 24.7 0.0195285 36.4C0.319626 46.5 3.02051 57.4 10.2229 64.8C17.1251 71.9 31.2297 75.1 40.8328 75.1C41.233 75.1 41.7331 75.4 41.7331 76V86.2C41.7331 87.2 42.5334 88 43.5337 88C43.6337 88 43.6337 88 43.7338 88C44.1339 88 44.434 87.8 44.7341 87.6C49.6357 83.5 54.4373 79.2 59.1388 74.9C63.6403 70.7 68.7419 66.5 72.2431 61.5C79.6455 51 80.7458 36.1 78.3451 23.8C75.9443 11.9 67.5415 4.2 55.7377 1.8C50.8361 0.7 44.8341 0 38.6321 0Z" fill="#00BCD4"/>
<path d="M102.653 8.20001H117.858C120.659 8.20001 123.26 8.50001 125.56 9.00001C127.861 9.50001 129.862 10.3 131.562 11.4C133.263 12.5 134.563 13.9 135.464 15.6C136.364 17.3 136.864 19.4 136.864 21.8C136.864 24.6 136.064 27.1 134.463 29.3C132.863 31.5 130.462 33.1 127.161 33.9V34.2C131.262 34.8 134.363 36.2 136.664 38.4C138.965 40.6 140.065 43.6 140.065 47.4C140.065 50.1 139.565 52.5 138.565 54.5C137.564 56.5 136.164 58.2 134.263 59.6C132.463 61 130.262 62 127.661 62.6C125.06 63.3 122.259 63.6 119.158 63.6H102.653V8.20001ZM116.758 31.9C121.459 31.9 124.86 31.1 126.961 29.4C129.062 27.8 130.062 25.4 130.062 22.3C130.062 19.3 128.962 17.1 126.761 15.7C124.56 14.4 121.359 13.7 117.058 13.7H109.755V31.8H116.758V31.9ZM118.158 58.1C122.96 58.1 126.661 57.2 129.262 55.4C131.862 53.6 133.163 50.8 133.163 47.1C133.163 43.7 131.862 41.1 129.362 39.5C126.861 37.9 123.06 37.1 118.158 37.1H109.755V58.1H118.158Z" fill="#546E7A"/>
<path d="M148.868 8.20001H155.77V57.7H183.279V63.7H148.868V8.20001Z" fill="#546E7A"/>
<path d="M173.776 24.2H199.785V63.7H192.882V29.9H173.776V24.2Z" fill="#546E7A"/>
<path d="M194.883 17.7C193.483 17.7 192.282 17.3 191.382 16.4C190.482 15.6 189.981 14.4 189.981 13C189.981 11.6 190.482 10.4 191.382 9.50001C192.282 8.60001 193.483 8.20001 194.883 8.20001C196.283 8.20001 197.484 8.60001 198.384 9.50001C199.284 10.4 199.785 11.5 199.785 13C199.785 14.4 199.284 15.6 198.384 16.4C197.484 17.3 196.283 17.7 194.883 17.7Z" fill="#546E7A"/>
<path d="M209.488 8.20001H226.493C229.494 8.20001 232.295 8.50001 234.896 9.00001C237.397 9.60001 239.598 10.5 241.398 11.7C243.199 13 244.599 14.6 245.499 16.7C246.5 18.8 247 21.4 247 24.4C247 27.3 246.5 29.9 245.499 32C244.499 34.1 243.099 35.9 241.298 37.3C239.498 38.7 237.297 39.8 234.796 40.5C232.295 41.2 229.494 41.6 226.493 41.6H216.49V63.6H209.488V8.20001ZM225.493 36C230.395 36 233.996 35.1 236.397 33.3C238.697 31.5 239.898 28.6 239.898 24.6C239.898 20.6 238.697 17.8 236.296 16.3C233.896 14.8 230.295 14 225.493 14H216.49V36H225.493Z" fill="#546E7A"/>
</symbol>
		<symbol id="blip-logo-rounded" width="128" height="128">
<path d="M64 117.333C93.4551 117.333 117.333 93.4552 117.333 64C117.333 34.5448 93.4551 10.6667 64 10.6667C34.5448 10.6667 10.6666 34.5448 10.6666 64C10.6666 93.4552 34.5448 117.333 64 117.333Z" fill="url(#paint0_linear)"/>
<path fill-rule="evenodd" clip-rule="evenodd" d="M63.1124 31.3632C55.9103 31.3632 48.4461 32.5376 43.3597 35.7303C35.1095 40.9048 32.6957 51.0102 32.9773 60.315C33.2197 68.3619 35.3388 77.0027 40.9688 82.9479C46.3401 88.6161 57.3841 91.165 64.9138 91.165C65.2544 91.165 65.6147 91.4152 65.6147 91.879V99.9993C65.6147 100.8 66.2271 101.424 67.0132 101.424C67.059 101.424 67.1016 101.414 67.1442 101.411C67.4422 101.384 67.7042 101.27 67.9138 101.094C71.7098 97.7908 75.5025 94.4278 79.1641 90.9715C82.6751 87.6553 86.6512 84.249 89.3958 80.2789C95.1864 71.905 96.0445 60.0647 94.1252 50.2496C92.278 40.8047 85.6916 34.6561 76.4588 32.6977C72.6596 31.8937 67.9466 31.3632 63.1124 31.3632ZM63.1124 34.7628C67.4389 34.7628 71.9358 35.2099 75.7809 36.0239C83.9623 37.7587 89.314 43.0467 90.8533 50.9135C91.7933 55.721 91.9636 60.712 91.3479 65.346C90.6666 70.4537 89.0913 74.8175 86.6676 78.3205C84.5911 81.3265 81.5976 84.1056 78.7023 86.7946C78.0931 87.3584 77.4872 87.9222 76.8944 88.4794C74.2055 91.0216 71.4838 93.4703 68.9488 95.7056V91.879C68.9488 89.6103 67.1409 87.7687 64.9138 87.7687C57.7673 87.7687 47.7878 85.2499 43.3695 80.5892C37.8705 74.7808 36.4949 66.3001 36.3115 60.2115C36.1346 54.3198 37.0419 43.6839 45.1119 38.6228C49.0782 36.134 55.4714 34.7628 63.1124 34.7628Z" fill="white"/>
<defs>
<linearGradient id="paint0_linear" x1="48.1044" y1="19.6095" x2="105.617" y2="137.433" gradientUnits="userSpaceOnUse">
<stop stop-color="#25DDE0"/>
<stop offset="0.66204" stop-color="#22C6CA"/>
<stop offset="1" stop-color="#0AC8FF"/>
</linearGradient>
</defs>
</symbol>
		<symbol id="business-chat-logo-rounded" width="128" height="128">
<g clip-path="url(#clip0)">
<path d="M64 117.333C93.4552 117.333 117.333 93.4552 117.333 64C117.333 34.5448 93.4552 10.6667 64 10.6667C34.5448 10.6667 10.6667 34.5448 10.6667 64C10.6667 93.4552 34.5448 117.333 64 117.333Z" fill="url(#paint0_linear)"/>
<path fill-rule="evenodd" clip-rule="evenodd" d="M56.2201 85.9657C53.3198 87.4601 48.7154 89.0271 42.407 90.6666C45.325 88.1542 47.3641 85.6701 48.5244 83.2144C40.3449 79.0499 34.9095 71.6819 34.9095 63.2871C34.9095 50.2921 47.9339 39.7575 64.0004 39.7575C80.0669 39.7575 93.0913 50.2921 93.0913 63.2871C93.0913 76.2821 80.0669 86.8166 64.0004 86.8166C61.3057 86.8166 58.6966 86.5202 56.2201 85.9657Z" fill="white"/>
</g>
<defs>
<linearGradient id="paint0_linear" x1="64" y1="10.6667" x2="64" y2="117.333" gradientUnits="userSpaceOnUse">
<stop stop-color="#5CFF78"/>
<stop offset="1" stop-color="#00B705"/>
</linearGradient>
<clipPath id="clip0">
<rect width="106.667" height="106.667" fill="white" transform="translate(10.6667 10.6667)"/>
</clipPath>
</defs>
</symbol>
		<symbol id="dialogflow-logo" width="128" height="128">
<path d="M21.3659 37.0715C21.4961 36.2692 21.6914 35.5311 22.1145 34.8251C24.5879 35.6595 26.7033 37.1678 28.9489 38.4515C40.2746 44.8057 51.5353 51.2561 62.7959 57.7066C63.577 58.1559 64.0977 58.1559 64.8462 57.7387C67.4498 56.2304 70.1185 54.8183 72.7221 53.31C83.7224 47.0521 94.6901 40.7621 105.658 34.5042C106.406 35.5632 106.667 36.7185 106.667 38.0022C106.667 51.4166 106.667 64.831 106.667 78.2775C106.667 80.9411 105.463 83.0271 103.119 84.375C84.178 95.1578 65.2368 105.941 46.2955 116.724C45.9375 116.948 45.547 117.141 45.189 117.333C44.9611 117.333 44.7659 117.333 44.5381 117.333C43.0735 116.691 42.6179 115.568 42.6179 114.028C42.683 107.995 42.6179 101.961 42.683 95.9281C42.683 94.9011 42.3901 94.3235 41.4463 93.7779C36.0763 90.7933 30.7715 87.7125 25.4015 84.6959C23.0257 83.3801 21.6588 81.4867 21.3334 78.8552C21.3334 64.9273 21.3334 50.9994 21.3659 37.0715Z" fill="#F16C00"/>
<path d="M105.658 34.5363C94.6903 40.7942 83.69 47.0842 72.7223 53.3421C70.1187 54.8183 67.45 56.2625 64.8464 57.7708C64.1304 58.188 63.5771 58.188 62.796 57.7387C51.5354 51.2882 40.2748 44.8378 28.9491 38.4836C26.7035 37.1999 24.5881 35.6916 22.1146 34.8572C22.7004 33.4131 23.8395 32.4182 25.1739 31.6801C36.825 25.005 48.5087 18.362 60.1924 11.751C62.6333 10.3711 65.1718 10.2748 67.6127 11.6548C79.4917 18.362 91.3381 25.1333 103.185 31.9047C104.259 32.5145 105.235 33.2847 105.658 34.5363Z" fill="#FF9900"/>
</symbol>
		<symbol id="facebook-messenger-logo">
<!-- Generator: Adobe Illustrator 22.0.1, SVG Export Plug-In . SVG Version: 6.00 Build 0)  -->
<svg version="1.1" id="Layer_1" xmlns="http://www.w3.org/2000/svg" xmlns:xlink="http://www.w3.org/1999/xlink" x="0px" y="0px"
	 viewBox="0 0 1024 1024" style="enable-background:new 0 0 1024 1024;" xml:space="preserve">
<style type="text/css">
	.st0{fill-rule:evenodd;clip-rule:evenodd;fill:url(#Bubble_Solid_1_);}
	.st1{fill-rule:evenodd;clip-rule:evenodd;fill:#FFFFFF;}
</style>
<g id="Messenger_4_">
	<linearGradient id="Bubble_Solid_1_" gradientUnits="userSpaceOnUse" x1="512" y1="11.5" x2="512" y2="1005.4999">
		<stop  offset="0" style="stop-color:#00B2FF"/>
		<stop  offset="1" style="stop-color:#006AFF"/>
	</linearGradient>
	<path id="Bubble_Solid_3_" class="st0" d="M512,11.5c-280,0-497,205.1-497,482.1c0,144.9,59.4,270.1,156.1,356.6
		c8.1,7.3,13,17.4,13.4,28.3l2.7,88.4c0.9,28.2,30,46.5,55.8,35.2l98.6-43.5c8.4-3.7,17.7-4.4,26.5-2
		c45.3,12.5,93.6,19.1,143.9,19.1c280,0,497-205.1,497-482.1S792,11.5,512,11.5z"/>
	<path id="Bolt_4_" class="st1" d="M213.6,634.6l146-231.6c23.2-36.8,73-46,107.8-19.9l116.1,87.1c10.7,8,25.3,7.9,35.9-0.1
		l156.8-119c20.9-15.9,48.3,9.2,34.2,31.4L664.5,614c-23.2,36.8-73,46-107.8,19.9l-116.1-87.1c-10.7-8-25.3-7.9-35.9,0.1L247.8,666
		C226.9,681.9,199.5,656.8,213.6,634.6z"/>
</g>
</symbol>
		<symbol id="infobip-logo" width="128" height="128">
<path d="M64 117.333C93.4551 117.333 117.333 93.4552 117.333 64C117.333 34.5448 93.4551 10.6667 64 10.6667C34.5448 10.6667 10.6666 34.5448 10.6666 64C10.6666 93.4552 34.5448 117.333 64 117.333Z" fill="url(#paint0_linear)"/>
<path fill-rule="evenodd" clip-rule="evenodd" d="M78.8031 29.112C78.2994 32.6062 77.8387 36.1095 77.229 39.5863C77.1648 39.9522 76.2246 40.4017 75.6855 40.4091C71.0127 40.4743 66.3387 40.444 61.6654 40.4485C58.6848 40.4511 58.1405 40.9531 57.7613 43.9021C57.5014 45.9228 57.2158 47.9409 56.9024 49.9542C56.5683 52.0977 57.0042 52.6665 59.2471 52.6794C63.9743 52.7071 68.7015 52.69 73.4291 52.6913C74.0056 52.6916 74.5818 52.6913 75.3688 52.6913C74.9107 56.094 74.5047 59.2703 74.0523 62.4398C72.8235 71.0427 71.578 79.6433 70.3327 88.2439C69.9026 91.2171 69.4934 94.1945 68.9727 97.1522C68.8918 97.6126 68.2682 98.3287 67.888 98.3332C62.5721 98.3987 57.2545 98.3623 51.9372 98.3403C51.794 98.3397 51.6515 98.2204 51.2952 98.0604C51.6854 95.3065 52.0762 92.5065 52.4795 89.7087C54.1568 78.0763 55.8409 66.4454 57.5147 54.8126C57.7865 52.9209 57.3838 52.443 55.3356 52.4311C49.8565 52.3995 44.3771 52.4182 38.8976 52.4169C38.2611 52.4169 37.6246 52.4169 36.7408 52.4169C37.1852 49.2474 37.6008 46.2455 38.0286 43.2453C38.4014 40.629 38.4072 40.6297 41.0015 40.6297C46.4271 40.6294 51.8534 40.5849 57.2783 40.6561C58.8969 40.6774 59.6434 40.0383 59.8488 38.4877C60.2299 35.6142 60.6397 32.7429 61.1301 29.8865C61.2014 29.4731 61.7831 28.8321 62.1329 28.8292C67.5021 28.7834 72.8719 28.8257 78.2414 28.8544C78.3372 28.855 78.4326 28.9382 78.8031 29.112Z" fill="white"/>
<defs>
<linearGradient id="paint0_linear" x1="64" y1="117.333" x2="39.7685" y2="30.5419" gradientUnits="userSpaceOnUse">
<stop stop-color="#EB6405"/>
<stop offset="1" stop-color="#FF8D00"/>
</linearGradient>
</defs>
</symbol>
		<symbol id="mailgun-logo" width="128" height="128">
<g clip-path="url(#clip0)">
<path d="M64 117.333C93.4551 117.333 117.333 93.4552 117.333 64C117.333 34.5448 93.4551 10.6667 64 10.6667C34.5448 10.6667 10.6666 34.5448 10.6666 64C10.6666 93.4552 34.5448 117.333 64 117.333Z" fill="url(#paint0_linear)"/>
<path fill-rule="evenodd" clip-rule="evenodd" d="M44.8069 47.2483C40.8796 47.2483 37.6958 50.432 37.6958 54.3594V72.0487C37.6958 75.9761 40.8796 79.1598 44.8069 79.1598H83.1928C87.1201 79.1598 90.3039 75.9761 90.3039 72.0487V54.3594C90.3039 50.432 87.1201 47.2483 83.1928 47.2483H44.8069ZM32.9551 54.3594C32.9551 47.8138 38.2613 42.5075 44.8069 42.5075H83.1928C89.7384 42.5075 95.0446 47.8138 95.0446 54.3594V72.0487C95.0446 78.5943 89.7384 83.9006 83.1928 83.9006H44.8069C38.2613 83.9006 32.9551 78.5943 32.9551 72.0487V54.3594Z" fill="white"/>
<path fill-rule="evenodd" clip-rule="evenodd" d="M38.7391 50.4677C37.7287 50.4677 37.3548 51.8602 38.1935 52.4248L62.1067 68.9393C63.3192 69.7778 64.8753 69.7884 66.0879 68.9393L89.7868 52.446C90.9549 51.6967 89.7666 49.8563 88.6753 50.6757L64.9743 67.169C64.3135 67.6318 63.8831 67.6275 63.2162 67.169L39.311 50.6481C39.1393 50.5314 38.9453 50.4677 38.7391 50.4677Z" fill="white" stroke="white" stroke-width="0.5"/>
</g>
<defs>
<linearGradient id="paint0_linear" x1="114.883" y1="103.359" x2="32.2587" y2="21.9167" gradientUnits="userSpaceOnUse">
<stop stop-color="#18A1D6"/>
<stop offset="1" stop-color="#0AC1FF"/>
</linearGradient>
<clipPath id="clip0">
<rect width="106.667" height="106.667" fill="white" transform="translate(10.6666 10.6667)"/>
</clipPath>
</defs>
</symbol>
		<symbol id="skype-logo" width="128" height="128">
<rect x="34.4167" y="32.0205" width="56.9964" height="66.4518" fill="white"/>
<path fill-rule="evenodd" clip-rule="evenodd" d="M84.7763 84.8261C82.9048 87.4857 80.1635 89.5751 76.5534 91.0756C72.9457 92.5903 68.6684 93.3417 63.7214 93.3417C57.7884 93.3417 52.8983 92.3129 49.0406 90.2531C46.3123 88.7716 44.0888 86.7888 42.3786 84.3153C40.6731 81.8442 39.8186 79.4359 39.8186 77.0951C39.8186 75.7417 40.3294 74.579 41.3546 73.6154C42.3786 72.6424 43.6859 72.16 45.2693 72.16C46.554 72.16 47.6444 72.5346 48.5297 73.2931C49.421 74.048 50.1795 75.1609 50.8041 76.646C51.5721 78.4036 52.397 79.8756 53.2883 81.0537C54.1736 82.2353 55.4275 83.2119 57.0346 83.9763C58.65 84.7384 60.7703 85.126 63.3931 85.126C66.9997 85.126 69.933 84.358 72.1884 82.8077C74.4414 81.2682 75.5745 79.3351 75.5745 77.0229C75.5745 75.1906 74.9629 73.6972 73.7481 72.5606C72.5297 71.4146 70.9582 70.5423 69.0311 69.9402C67.104 69.3346 64.5285 68.6934 61.3001 68.0166C56.9813 67.0922 53.3665 65.9983 50.458 64.7574C47.5484 63.5117 45.2349 61.8181 43.5294 59.6706C41.8192 57.5183 40.9671 54.8492 40.9671 51.6623C40.9671 48.6187 41.8654 45.92 43.674 43.5603C45.4767 41.1971 48.0841 39.3802 51.5057 38.1108C54.9226 36.8415 58.9392 36.2098 63.5591 36.2098C67.2474 36.2098 70.4403 36.6329 73.1318 37.4697C75.8234 38.3123 78.0539 39.4323 79.8317 40.8261C81.6094 42.2223 82.9108 43.6836 83.7274 45.2172C84.5487 46.7437 84.9588 48.2477 84.9588 49.696C84.9588 51.027 84.448 52.2347 83.4216 53.299C82.3988 54.3669 81.1211 54.9049 79.5911 54.9049C78.1926 54.9049 77.133 54.5814 76.41 53.9402C75.6859 53.299 74.8977 52.2513 74.0539 50.7935C72.9588 48.71 71.6515 47.0815 70.1143 45.9165C68.5831 44.7443 66.1274 44.1624 62.7354 44.1624C59.597 44.1624 57.0595 44.7906 55.1324 46.0634C53.2041 47.3292 52.2406 48.8593 52.2406 50.643C52.2406 51.7429 52.5724 52.704 53.2266 53.5076C53.8773 54.3147 54.7828 54.9986 55.9336 55.5781C57.0773 56.1541 58.24 56.6069 59.4145 56.9387C60.5902 57.2646 62.5303 57.7399 65.242 58.368C68.6269 59.0969 71.693 59.904 74.4414 60.7799C77.1887 61.6617 79.5259 62.7295 81.453 63.9799C83.3801 65.2397 84.8853 66.8314 85.9638 68.755C87.0423 70.6726 87.5851 73.03 87.5851 75.8187C87.5851 79.1586 86.6441 82.1606 84.7763 84.8261ZM110.139 64.1197C110.139 37.8596 88.8497 16.5713 62.5884 16.5713C60.1327 16.5713 57.741 16.8083 55.3848 17.1698C50.6453 13.1236 44.506 10.6596 37.7825 10.6596C22.81 10.6596 10.6666 22.7983 10.6666 37.779C10.6666 43.8886 12.7158 49.51 16.1303 54.0445C15.4323 57.2966 15.04 60.659 15.04 64.1197C15.04 90.3858 36.3247 111.675 62.5884 111.675C65.9638 111.675 69.2539 111.307 72.429 110.637C77.1911 114.797 83.4062 117.326 90.2174 117.326C105.193 117.326 117.333 105.188 117.333 90.214C117.333 82.8077 114.363 76.1055 109.548 71.2166C109.899 68.8889 110.139 66.5351 110.139 64.1197Z" fill="#00AFF0"/>
</symbol>
		<symbol id="sms-logo" width="128" height="128">
<path fill-rule="evenodd" clip-rule="evenodd" d="M111.135 68.2994C109.04 79.7611 100.309 105.088 63.9112 117.333C63.9112 117.333 66.4625 113.666 67.7849 107.411C66.5359 107.51 65.2735 107.56 63.9997 107.56C37.5324 107.56 16 85.8271 16 59.1133C16 32.3996 37.5324 10.6667 63.9997 10.6667C90.4676 10.6667 112 32.3996 112 59.1133C112 62.2532 111.703 65.3243 111.135 68.2994Z" fill="url(#paint0_linear)"/>
<path d="M47.1602 53.997C46.7844 53.504 46.2489 53.0963 45.5538 52.7739C44.8774 52.4326 44.1916 52.2619 43.4965 52.2619C43.0832 52.2619 42.6698 52.3188 42.2565 52.4326C41.8431 52.5274 41.4674 52.6886 41.1292 52.9162C40.791 53.1247 40.5092 53.4092 40.2837 53.7695C40.0771 54.1108 39.9737 54.528 39.9737 55.021C39.9737 55.4762 40.0677 55.8649 40.2556 56.1873C40.4434 56.5096 40.6971 56.7846 41.0165 57.0122C41.3547 57.2397 41.7586 57.4388 42.2283 57.6095C42.698 57.7802 43.2147 57.9508 43.7783 58.1215C44.4171 58.3301 45.0747 58.5671 45.7511 58.8326C46.4462 59.0981 47.0756 59.4489 47.6392 59.885C48.2217 60.3212 48.6914 60.8711 49.0484 61.5348C49.4241 62.1985 49.612 63.0234 49.612 64.0095C49.612 65.0904 49.4147 66.0385 49.0202 66.8539C48.6256 67.6504 48.0996 68.3141 47.442 68.845C46.7844 69.376 46.0141 69.7742 45.1311 70.0397C44.248 70.3052 43.318 70.4379 42.341 70.4379C41.0447 70.4379 39.7765 70.2009 38.5365 69.7268C37.2964 69.2338 36.2819 68.5132 35.4928 67.565L38.0292 65.1757C38.5177 65.8584 39.1659 66.3988 39.9737 66.797C40.8004 67.1953 41.6083 67.3944 42.3974 67.3944C42.8107 67.3944 43.2335 67.347 43.6656 67.2522C44.0977 67.1384 44.4829 66.9582 44.821 66.7117C45.178 66.4652 45.4598 66.1618 45.6665 65.8015C45.892 65.4222 46.0047 64.9576 46.0047 64.4077C46.0047 63.8767 45.8826 63.4406 45.6383 63.0993C45.3941 62.739 45.0653 62.4356 44.652 62.189C44.2386 61.9236 43.7501 61.696 43.1865 61.5064C42.6229 61.3167 42.031 61.1176 41.411 60.909C40.8098 60.7194 40.2086 60.4919 39.6074 60.2264C39.0062 59.9609 38.4613 59.6101 37.9728 59.1739C37.5031 58.7378 37.118 58.2068 36.8174 57.581C36.5167 56.9363 36.3664 56.1399 36.3664 55.1917C36.3664 54.1677 36.5731 53.2859 36.9864 52.5464C37.4186 51.8068 37.9728 51.2 38.6492 50.7259C39.3443 50.2329 40.124 49.8726 40.9883 49.645C41.8713 49.3985 42.7638 49.2753 43.6656 49.2753C44.6801 49.2753 45.7041 49.4554 46.7374 49.8157C47.7896 50.176 48.7008 50.7165 49.4711 51.437L47.1602 53.997Z" fill="white"/>
<path d="M53.1691 49.7873H58.7209L63.9064 64.0948H63.991L69.1201 49.7873H74.7002V69.9259H71.1774V53.741H71.121L65.0619 69.9259H62.5819L56.6073 53.741H56.5509V69.9259H53.1691V49.7873Z" fill="white"/>
<path d="M89.2681 53.997C88.8923 53.504 88.3568 53.0963 87.6617 52.7739C86.9853 52.4326 86.2996 52.2619 85.6044 52.2619C85.1911 52.2619 84.7777 52.3188 84.3644 52.4326C83.9511 52.5274 83.5753 52.6886 83.2371 52.9162C82.8989 53.1247 82.6171 53.4092 82.3917 53.7695C82.185 54.1108 82.0816 54.528 82.0816 55.021C82.0816 55.4762 82.1756 55.8649 82.3635 56.1873C82.5513 56.5096 82.805 56.7846 83.1244 57.0122C83.4626 57.2397 83.8665 57.4388 84.3362 57.6095C84.8059 57.7802 85.3226 57.9508 85.8862 58.1215C86.525 58.3301 87.1826 58.5671 87.859 58.8326C88.5541 59.0981 89.1835 59.4489 89.7472 59.885C90.3296 60.3212 90.7993 60.8711 91.1563 61.5348C91.532 62.1985 91.7199 63.0234 91.7199 64.0095C91.7199 65.0904 91.5226 66.0385 91.1281 66.8539C90.7335 67.6504 90.2075 68.3141 89.5499 68.845C88.8923 69.376 88.122 69.7742 87.239 70.0397C86.3559 70.3052 85.4259 70.4379 84.4489 70.4379C83.1526 70.4379 81.8844 70.2009 80.6444 69.7268C79.4044 69.2338 78.3898 68.5132 77.6007 67.565L80.1371 65.1757C80.6256 65.8584 81.2738 66.3988 82.0816 66.797C82.9083 67.1953 83.7162 67.3944 84.5053 67.3944C84.9186 67.3944 85.3414 67.347 85.7735 67.2522C86.2056 67.1384 86.5908 66.9582 86.929 66.7117C87.2859 66.4652 87.5677 66.1618 87.7744 65.8015C87.9999 65.4222 88.1126 64.9576 88.1126 64.4077C88.1126 63.8767 87.9905 63.4406 87.7462 63.0993C87.502 62.739 87.1732 62.4356 86.7599 62.189C86.3465 61.9236 85.858 61.696 85.2944 61.5064C84.7308 61.3167 84.1389 61.1176 83.5189 60.909C82.9177 60.7194 82.3165 60.4919 81.7153 60.2264C81.1141 59.9609 80.5692 59.6101 80.0807 59.1739C79.611 58.7378 79.2259 58.2068 78.9253 57.581C78.6247 56.9363 78.4743 56.1399 78.4743 55.1917C78.4743 54.1677 78.681 53.2859 79.0944 52.5464C79.5265 51.8068 80.0807 51.2 80.7571 50.7259C81.4523 50.2329 82.2319 49.8726 83.0962 49.645C83.9792 49.3985 84.8717 49.2753 85.7735 49.2753C86.788 49.2753 87.812 49.4554 88.8453 49.8157C89.8975 50.176 90.8087 50.7165 91.579 51.437L89.2681 53.997Z" fill="white"/>
<defs>
<linearGradient id="paint0_linear" x1="38.635" y1="92.4705" x2="115.401" y2="41.9329" gradientUnits="userSpaceOnUse">
<stop stop-color="#4063B0"/>
<stop offset="1" stop-color="#3F7BE1"/>
</linearGradient>
</defs>
</symbol>
		<symbol id="telegram-logo" width="128" height="128">
<g clip-path="url(#clip0)">
<path d="M64.2067 116.92C93.5477 116.92 117.333 93.1343 117.333 63.7933C117.333 34.4523 93.5477 10.6667 64.2067 10.6667C34.8657 10.6667 11.0801 34.4523 11.0801 63.7933C11.0801 93.1343 34.8657 116.92 64.2067 116.92Z" fill="url(#paint0_linear)"/>
<path fill-rule="evenodd" clip-rule="evenodd" d="M48.2892 67.3074L53.6012 82.4847C53.6766 82.7002 53.9125 82.8137 54.128 82.7383C54.2625 82.6912 54.3633 82.5782 54.3947 82.4392L56.9714 71.0284L81.7776 47.049L51.1832 62.3462L48.2892 67.3074Z" fill="url(#paint1_linear)"/>
<path fill-rule="evenodd" clip-rule="evenodd" d="M54.9473 82.8333L67.3072 74.3359L63.1728 68.1343L56.9713 70.615L54.3098 82.4016C54.2595 82.6243 54.3993 82.8456 54.622 82.8959C54.7344 82.9213 54.8523 82.8986 54.9473 82.8333Z" fill="#A9C9DD"/>
<g filter="url(#filter0_f)">
<path fill-rule="evenodd" clip-rule="evenodd" d="M49.116 69.3747L77.2297 49.9431L71.855 49.1163L49.116 65.2403V69.3747Z" fill="#B8CEE1"/>
</g>
<path fill-rule="evenodd" clip-rule="evenodd" d="M38.7805 60.1202L83.897 43.1564C84.7519 42.835 85.7055 43.2674 86.0269 44.1223C86.1389 44.4202 86.1626 44.7441 86.0951 45.055L77.7726 83.4111C77.5789 84.3037 76.6983 84.8703 75.8058 84.6766C75.5768 84.6269 75.361 84.5292 75.1727 84.3898L57.3478 71.1994C56.9807 70.9278 56.9034 70.41 57.175 70.0429C57.2032 70.0048 57.2345 69.9693 57.2688 69.9366L76.4016 51.6734C76.732 51.3581 76.7441 50.8347 76.4288 50.5043C76.1487 50.2109 75.697 50.164 75.3626 50.3937L49.9157 67.8693C49.6762 68.0337 49.368 68.0605 49.1038 67.9397L38.675 63.1722C37.8443 62.7925 37.4788 61.8113 37.8585 60.9806C38.0401 60.5833 38.3716 60.274 38.7805 60.1202Z" fill="url(#paint2_linear)"/>
</g>
<defs>
<filter id="filter0_f" x="45.7175" y="45.7178" width="34.9106" height="27.0553" filterUnits="userSpaceOnUse" color-interpolation-filters="sRGB">
<feFlood flood-opacity="0" result="BackgroundImageFix"/>
<feBlend mode="normal" in="SourceGraphic" in2="BackgroundImageFix" result="shape"/>
<feGaussianBlur stdDeviation="1.69922" result="effect1_foregroundBlur"/>
</filter>
<linearGradient id="paint0_linear" x1="64.2067" y1="10.6667" x2="64.2067" y2="116.92" gradientUnits="userSpaceOnUse">
<stop stop-color="#39B0E3"/>
<stop offset="1" stop-color="#1C93D2"/>
</linearGradient>
<linearGradient id="paint1_linear" x1="62.1022" y1="54.6564" x2="65.3445" y2="60.6451" gradientUnits="userSpaceOnUse">
<stop stop-color="#C1D5E7"/>
<stop offset="1" stop-color="#C8DAEA"/>
</linearGradient>
<linearGradient id="paint2_linear" x1="86.1327" y1="43.0502" x2="32.866" y2="80.6594" gradientUnits="userSpaceOnUse">
<stop stop-color="#F8FCFE"/>
<stop offset="1" stop-color="#E3F1F9"/>
</linearGradient>
<clipPath id="clip0">
<rect width="106.667" height="106.667" fill="white" transform="translate(10.6666 10.6667)"/>
</clipPath>
</defs>
</symbol>
		<symbol id="whatsapp-logo" width="128" height="128">
<path fill-rule="evenodd" clip-rule="evenodd" d="M35.8849 103.638C23.8135 108.027 17.7778 110.222 17.7778 110.222C17.7778 110.222 20.1761 104.466 24.9725 92.9549C18.9631 84.8682 15.4075 74.8493 15.4075 64C15.4075 37.163 37.1631 15.4074 64.0001 15.4074C90.837 15.4074 112.593 37.163 112.593 64C112.593 90.8369 90.837 112.593 64.0001 112.593C53.5233 112.593 43.8209 109.277 35.8849 103.638Z" fill="url(#paint0_linear)"/>
<path d="M117.333 62.6264C117.333 91.3232 93.8915 114.586 64.9694 114.586C55.7878 114.586 47.162 112.239 39.6574 108.121L10.6666 117.333L20.1185 89.4554C15.3505 81.6261 12.6044 72.4432 12.6044 62.6264C12.6044 33.9295 36.0486 10.6667 64.9694 10.6667C93.8939 10.6667 117.333 33.9295 117.333 62.6264ZM64.9694 18.9416C40.6921 18.9416 20.9446 38.5387 20.9446 62.6264C20.9446 72.1849 24.0604 81.037 29.3309 88.2382L23.8305 104.462L40.749 99.085C47.7001 103.649 56.0272 106.311 64.9706 106.311C89.2444 106.311 108.996 86.7164 108.996 62.6287C108.996 38.541 89.2456 18.9416 64.9694 18.9416ZM91.4121 74.5932C91.0885 74.0634 90.234 73.7434 88.9517 73.107C87.6669 72.4705 81.3546 69.3878 80.1813 68.9647C79.0044 68.5404 78.1463 68.3271 77.2918 69.6012C76.4373 70.8764 73.9768 73.7434 73.2266 74.5932C72.4776 75.4453 71.7297 75.552 70.445 74.9144C69.1626 74.2779 65.0275 72.9315 60.1244 68.5938C56.3093 65.2184 53.7327 61.0513 52.9837 59.7748C52.2358 58.5007 52.9054 57.8121 53.5466 57.1781C54.125 56.6068 54.8314 55.6907 55.4726 54.9475C56.1161 54.2032 56.3294 53.6735 56.7549 52.8225C57.1851 51.9727 56.9706 51.2296 56.6483 50.5908C56.3283 49.9544 53.7588 43.6871 52.6897 41.1366C51.6207 38.5884 50.5528 39.0127 49.8026 39.0127C49.0548 39.0127 48.1979 38.9061 47.3422 38.9061C46.4865 38.9061 45.0951 39.2249 43.9182 40.499C42.7425 41.7742 39.4275 44.8557 39.4275 51.1218C39.4275 57.389 44.0248 63.4441 44.6684 64.2927C45.3096 65.1413 53.5454 78.4201 66.5943 83.52C79.6444 88.6175 79.6444 86.9167 81.9982 86.7034C84.3496 86.4912 89.5905 83.6231 90.6643 80.6507C91.7309 77.6735 91.7309 75.1241 91.4121 74.5932Z" fill="white"/>
<defs>
<linearGradient id="paint0_linear" x1="64.0001" y1="15.4074" x2="64.0001" y2="112.593" gradientUnits="userSpaceOnUse">
<stop stop-color="#5CFB7A"/>
<stop offset="1" stop-color="#00B824"/>
</linearGradient>
</defs>
</symbol>
		<symbol id="workplace-logo" width="128" height="128">
<path fill-rule="evenodd" clip-rule="evenodd" d="M35.1365 108.856L13.1473 114.853L17.9378 90.9005C13.3158 83.0032 10.6667 73.811 10.6667 64C10.6667 34.5448 34.5448 10.6667 64 10.6667C93.4552 10.6667 117.333 34.5448 117.333 64C117.333 93.4552 93.4552 117.333 64 117.333C53.3646 117.333 43.4562 114.22 35.1365 108.856Z" fill="url(#paint0_linear)"/>
<path fill-rule="evenodd" clip-rule="evenodd" d="M62.7454 23.0698H68.7314C79.7109 24.0931 90.1173 30.2022 95.9606 39.6056C104.403 52.4476 103.236 70.7945 92.9827 82.2959C90.1385 85.6114 84.3156 84.7724 82.5763 80.7515C79.7003 74.4777 77.4294 67.9397 74.7279 61.5958C72.17 67.7244 69.8982 73.9877 67.2473 80.0853C66.0919 83.3405 62.1721 85.4377 58.9186 83.9333C56.4528 83.0119 55.2966 80.4849 54.3654 78.2237C50.7221 69.0446 46.9875 59.8973 43.2936 50.7287C46.2813 50.7181 49.269 50.7287 52.2673 50.7181C55.255 58.096 58.2231 65.4943 61.2312 72.8616C63.4825 67.3257 65.6825 61.7695 67.8825 56.2132C68.8749 53.7164 70.1746 50.913 72.9683 50.0633C76.0473 48.9071 79.384 51.0973 80.55 53.9415C83.5075 60.6336 85.9733 67.541 88.8485 74.2641C91.7546 69.3104 93.5861 63.6523 93.2697 57.8506C92.9623 45.1007 82.6277 33.4761 69.9904 31.7165C54.9582 29.4447 39.6504 39.7491 35.3221 54.1771C31.0754 66.9473 35.9051 81.9078 46.6499 89.9502C54.4159 96.202 65.0889 98.2186 74.6464 95.4445C74.6358 98.2993 74.6252 101.155 74.6358 104C72.8451 104.316 71.0643 104.654 69.2736 104.93H63.1547C52.8503 103.948 42.8843 99.2509 36.0283 91.4237C29.9298 84.7626 26.5018 76.0131 25.5502 67.0909V61.2272C26.3892 52.1818 29.8784 43.3101 36.0389 36.5568C42.8019 28.8307 52.6155 24.2057 62.7454 23.0698Z" fill="white"/>
<defs>
<linearGradient id="paint0_linear" x1="64" y1="10.6667" x2="64" y2="117.333" gradientUnits="userSpaceOnUse">
<stop stop-color="#03C9FF"/>
<stop offset="1" stop-color="#0780FC"/>
</linearGradient>
</defs>
</symbol>
	</defs>
</svg>
