<svg version="1.1" xmlns="http://www.w3.org/2000/svg" xmlns:xlink="http://www.w3.org/1999/xlink">
	<defs>
		<symbol id="ab" viewBox="0 0 72 72">
<path d="M29.2599 30.8601C30.9266 32.5601 31.7599 35.1401 31.7599 38.6001V50.9201C31.7879 51.3099 31.7348 51.7013 31.604 52.0696C31.4732 52.4379 31.2675 52.7752 30.9999 53.0601C30.7 53.3306 30.3493 53.5389 29.9682 53.6728C29.5871 53.8067 29.1832 53.8635 28.7799 53.8401C27.989 53.8661 27.2198 53.5785 26.6399 53.0401C26.3613 52.7642 26.1436 52.433 26.0006 52.0679C25.8577 51.7028 25.7927 51.3118 25.8099 50.9201V49.8101C25.2541 51.0938 24.3098 52.1709 23.1099 52.8901C21.8 53.6516 20.3048 54.0358 18.7899 54.0001C17.2357 54.0224 15.6978 53.6799 14.2999 53.0001C13.0114 52.373 11.9136 51.4133 11.1199 50.2201C10.363 49.0437 9.97312 47.6687 9.99994 46.2701C9.9061 44.7287 10.3871 43.2073 11.3499 42.0001C12.5876 40.797 14.1658 40.0044 15.8699 39.7301C18.7107 39.1948 21.6 38.9602 24.4899 39.0301H25.7599V37.8501C25.8686 36.5567 25.4906 35.2694 24.6999 34.2401C24.2366 33.8225 23.6916 33.5056 23.0995 33.3093C22.5074 33.1131 21.881 33.0419 21.2599 33.1001C20.245 33.1057 19.2356 33.2504 18.2599 33.5301C17.2599 33.8201 16.0499 34.2301 14.6699 34.7701C14.0849 35.1161 13.4346 35.3374 12.7599 35.4201C12.4787 35.4308 12.1986 35.378 11.9406 35.2654C11.6826 35.1529 11.4534 34.9836 11.2699 34.7701C10.8671 34.2901 10.66 33.6759 10.6899 33.0501C10.6771 32.521 10.8272 32.0009 11.1199 31.5601C11.5005 31.0589 11.9938 30.6547 12.5599 30.3801C13.8868 29.6823 15.3034 29.1708 16.7699 28.8601C18.3511 28.4975 19.9678 28.313 21.5899 28.3101C25.0433 28.3101 27.5999 29.1601 29.2599 30.8601ZM24.1699 47.7601C25.2546 46.5735 25.8262 45.0063 25.7599 43.4001V42.3401H24.8499C23.0949 42.3085 21.34 42.4088 19.5999 42.6401C18.6237 42.73 17.6936 43.0979 16.9199 43.7001C16.6496 43.9702 16.4388 44.2939 16.301 44.6504C16.1632 45.0069 16.1016 45.3883 16.1199 45.7701C16.1055 46.2672 16.1991 46.7616 16.3942 47.219C16.5893 47.6765 16.8812 48.0863 17.2499 48.4201C18.0201 49.1008 19.0228 49.4589 20.0499 49.4201C20.8153 49.4526 21.5787 49.3214 22.2893 49.0351C22.9998 48.7488 23.641 48.3141 24.1699 47.7601Z"/>
<path d="M56.79 29.87C58.4717 30.9541 59.8104 32.494 60.65 34.31C61.5997 36.4094 62.0612 38.6967 62 41C62.0478 43.3354 61.5729 45.6519 60.61 47.78C59.7781 49.6417 58.432 51.2271 56.73 52.35C55.0521 53.4403 53.091 54.014 51.09 54C49.4255 54.0298 47.7818 53.6266 46.32 52.83C44.9584 52.0967 43.8448 50.9762 43.12 49.61V50.87C43.1317 51.2652 43.0613 51.6586 42.9133 52.0252C42.7652 52.3918 42.5428 52.7237 42.26 53C41.6358 53.551 40.8218 53.8379 39.99 53.8C39.1638 53.8412 38.3548 53.5536 37.74 53C37.4606 52.7144 37.2427 52.3744 37.0999 52.0011C36.9572 51.6279 36.8925 51.2293 36.91 50.83V20.69C36.8947 20.294 36.9654 19.8994 37.1173 19.5334C37.2693 19.1674 37.4988 18.8387 37.79 18.57C38.4376 18.0544 39.2387 17.7695 40.0664 17.7605C40.8942 17.7514 41.7013 18.0187 42.36 18.52C42.6481 18.7795 42.8748 19.0999 43.0236 19.458C43.1723 19.8161 43.2394 20.2028 43.22 20.59V32.5C43.9447 31.1683 45.0525 30.0849 46.4 29.39C47.8521 28.6536 49.4621 28.2829 51.09 28.31C53.1005 28.2713 55.0795 28.813 56.79 29.87ZM54.07 47C55.2873 45.246 55.8727 43.1304 55.73 41C55.8686 38.9323 55.2893 36.8801 54.09 35.19C53.5198 34.5177 52.8011 33.987 51.9906 33.6399C51.1802 33.2928 50.3002 33.1388 49.42 33.19C48.541 33.1357 47.6614 33.2883 46.8521 33.6357C46.0428 33.983 45.3262 34.5154 44.76 35.19C43.5564 36.9045 42.9775 38.9801 43.12 41.07C42.9757 43.1758 43.5542 45.2677 44.76 47C45.317 47.6899 46.03 48.2374 46.8403 48.5973C47.6505 48.9572 48.5348 49.1193 49.42 49.07C50.3036 49.1177 51.1859 48.9549 51.9943 48.595C52.8027 48.2351 53.5141 47.6885 54.07 47Z"/>
</symbol>
		<symbol id="arrow-down-outline" viewBox="0 0 72 72">
<path d="M36 47.39C34.8211 47.3886 33.6807 46.9706 32.78 46.21L12.28 29C11.7967 28.5671 11.5006 27.9633 11.4543 27.3161C11.4081 26.669 11.6152 26.0292 12.0319 25.5319C12.4487 25.0346 13.0425 24.7189 13.6878 24.6513C14.333 24.5838 14.9793 24.7698 15.49 25.17L36 42.38L56.51 25.2C56.7529 24.9485 57.0458 24.7508 57.3699 24.6195C57.694 24.4883 58.042 24.4265 58.3914 24.4382C58.7409 24.4498 59.084 24.5346 59.3986 24.6871C59.7133 24.8396 59.9924 25.0564 60.218 25.3235C60.4436 25.5906 60.6107 25.902 60.7085 26.2377C60.8063 26.5734 60.8325 26.9259 60.7856 27.2724C60.7387 27.6188 60.6196 27.9516 60.436 28.2492C60.2525 28.5468 60.0086 28.8025 59.72 29L39.22 46.21C38.3193 46.9706 37.1789 47.3886 36 47.39Z"/>
</symbol>
		<symbol id="arrow-left-outline" viewBox="0 0 72 72">
<path d="M43.88 60.61C43.5208 60.6073 43.1664 60.5262 42.8417 60.3725C42.517 60.2188 42.2298 59.9961 42 59.72L24.79 39.22C24.0312 38.3186 23.6151 37.1782 23.6151 36C23.6151 34.8217 24.0312 33.6814 24.79 32.78L42 12.28C42.4329 11.7967 43.0367 11.5006 43.6839 11.4543C44.331 11.408 44.9708 11.6151 45.4681 12.0319C45.9654 12.4487 46.2811 13.0424 46.3486 13.6877C46.4162 14.333 46.2302 14.9793 45.83 15.49L28.62 36L45.8 56.51C46.1083 56.8737 46.3057 57.3183 46.3687 57.7909C46.4318 58.2635 46.3578 58.7443 46.1556 59.1761C45.9534 59.6078 45.6315 59.9725 45.2281 60.2267C44.8247 60.4809 44.3568 60.6139 43.88 60.61Z"/>
</symbol>
		<symbol id="arrow-right-outline" viewBox="0 0 72 72">
<path d="M27.12 60.61C26.6432 60.614 26.1753 60.4809 25.7719 60.2268C25.3686 59.9726 25.0466 59.6079 24.8444 59.1761C24.6422 58.7443 24.5682 58.2635 24.6313 57.7909C24.6943 57.3183 24.8917 56.8737 25.2 56.51L42.38 36L25.2 15.49C24.8503 14.979 24.7027 14.3563 24.7859 13.7427C24.869 13.129 25.1769 12.5681 25.6499 12.1684C26.123 11.7688 26.7275 11.559 27.3464 11.5796C27.9654 11.6002 28.5546 11.8498 29 12.28L46.18 32.78C46.9388 33.6814 47.3549 34.8218 47.3549 36C47.3549 37.1783 46.9388 38.3186 46.18 39.22L29 59.72C28.7702 59.9962 28.483 60.2189 28.1583 60.3726C27.8336 60.5263 27.4792 60.6073 27.12 60.61Z"/>
</symbol>
		<symbol id="arrow-up-outline" viewBox="0 0 72 72">
<path d="M58.11 47.38C57.5253 47.3798 56.9591 47.1745 56.51 46.8L36 29.62L15.49 46.8C14.979 47.1497 14.3563 47.2973 13.7427 47.2142C13.129 47.131 12.5681 46.8231 12.1684 46.3501C11.7688 45.877 11.559 45.2725 11.5796 44.6536C11.6002 44.0347 11.8498 43.4454 12.28 43L32.78 25.82C33.6814 25.0612 34.8218 24.6451 36 24.6451C37.1783 24.6451 38.3186 25.0612 39.22 25.82L59.72 43C60.1113 43.3304 60.3916 43.773 60.5231 44.268C60.6547 44.7629 60.631 45.2863 60.4554 45.7674C60.2798 46.2484 59.9606 46.6639 59.5412 46.9577C59.1217 47.2515 58.6221 47.4094 58.11 47.41V47.38Z"/>
</symbol>
		<symbol id="attach" viewBox="0 0 72 72">
<path d="M36 62.15C31.6256 62.1447 27.4318 60.4046 24.3386 57.3114C21.2454 54.2182 19.5053 50.0245 19.5 45.65V21.31C19.5 20.7796 19.7107 20.2709 20.0858 19.8958C20.4609 19.5207 20.9696 19.31 21.5 19.31C22.0304 19.31 22.5391 19.5207 22.9142 19.8958C23.2893 20.2709 23.5 20.7796 23.5 21.31V45.65C23.5 47.2915 23.8233 48.917 24.4515 50.4336C25.0797 51.9501 26.0004 53.3281 27.1612 54.4888C28.3219 55.6496 29.6999 56.5703 31.2165 57.1985C32.733 57.8267 34.3585 58.15 36 58.15C37.6415 58.15 39.267 57.8267 40.7835 57.1985C42.3001 56.5703 43.6781 55.6496 44.8388 54.4888C45.9996 53.3281 46.9203 51.9501 47.5485 50.4336C48.1767 48.917 48.5 47.2915 48.5 45.65V21.3C48.4974 19.325 47.7116 17.4316 46.315 16.035C44.9184 14.6384 43.025 13.8527 41.05 13.85H40C38.0232 13.85 36.1273 14.6346 34.7285 16.0315C33.3298 17.4283 32.5427 19.3232 32.54 21.3V43.18C32.6899 44.0533 33.149 44.8435 33.8335 45.4062C34.5179 45.9689 35.382 46.2666 36.2678 46.2447C37.1536 46.2229 38.002 45.883 38.6578 45.2873C39.3137 44.6915 39.7333 43.8796 39.84 43V21.55C39.84 21.0196 40.0507 20.5109 40.4258 20.1358C40.8009 19.7607 41.3096 19.55 41.84 19.55C42.3704 19.55 42.8791 19.7607 43.2542 20.1358C43.6293 20.5109 43.84 21.0196 43.84 21.55V43C43.8612 45.0395 43.0714 47.0039 41.6442 48.4611C40.2171 49.9183 38.2695 50.7488 36.23 50.77C34.1905 50.7912 32.2261 50.0014 30.7689 48.5742C29.3118 47.1471 28.4812 45.1995 28.46 43.16L28.51 21.28C28.5139 19.7751 28.8143 18.2856 29.3938 16.8967C29.9734 15.5079 30.8208 14.2467 31.8878 13.1853C32.9547 12.124 34.2203 11.2831 35.6122 10.7109C37.0041 10.1386 38.4951 9.84607 40 9.85001H41.08C44.1115 9.85796 47.0162 11.0678 49.157 13.2142C51.2978 15.3607 52.5 18.2685 52.5 21.3V45.65C52.4947 50.0245 50.7546 54.2182 47.6614 57.3114C44.5682 60.4046 40.3744 62.1447 36 62.15Z"/>
</symbol>
		<symbol id="attention-outline" viewBox="0 0 72 72">
<path d="M63.62 54.9201L39.46 13.0801C39.1084 12.4739 38.6037 11.9708 37.9965 11.621C37.3892 11.2713 36.7008 11.0872 36 11.0872C35.2993 11.0872 34.6108 11.2713 34.0036 11.621C33.3963 11.9708 32.8916 12.4739 32.54 13.0801L8.38002 54.9201C8.02869 55.5286 7.84386 56.2189 7.84412 56.9215C7.84437 57.6242 8.02972 58.3144 8.38149 58.9226C8.73326 59.5309 9.23905 60.0357 9.84795 60.3864C10.4568 60.737 11.1474 60.9211 11.85 60.9201H60.15C60.8527 60.9211 61.5432 60.737 62.1521 60.3864C62.761 60.0357 63.2668 59.5309 63.6185 58.9226C63.9703 58.3144 64.1557 57.6242 64.1559 56.9215C64.1562 56.2189 63.9713 55.5286 63.62 54.9201ZM11.85 56.9201L36 15.0801L60.15 56.9201H11.85Z"/>
<path d="M36 45.78C35.6781 45.7712 35.3579 45.8299 35.06 45.9521C34.762 46.0744 34.493 46.2576 34.27 46.49C34.0438 46.7182 33.8667 46.9903 33.7497 47.2896C33.6327 47.5888 33.5784 47.9089 33.59 48.23C33.5766 48.5558 33.63 48.881 33.747 49.1854C33.8639 49.4898 34.0419 49.767 34.27 50C34.7343 50.4485 35.3545 50.6992 36 50.6992C36.6455 50.6992 37.2658 50.4485 37.73 50C37.9556 49.7693 38.1322 49.4954 38.2491 49.1946C38.3659 48.8938 38.4207 48.5725 38.41 48.25C38.4217 47.9289 38.3673 47.6088 38.2504 47.3096C38.1334 47.0103 37.9563 46.7382 37.73 46.51C37.5088 46.274 37.2406 46.0871 36.9426 45.9613C36.6445 45.8356 36.3234 45.7738 36 45.78Z"/>
<path d="M34.22 27.93C33.9886 28.1275 33.8052 28.3751 33.6839 28.6541C33.5626 28.9331 33.5066 29.2361 33.52 29.54V29.87L34.73 42.56C34.7467 42.913 34.8926 43.2476 35.14 43.5C35.3645 43.7117 35.6615 43.8295 35.97 43.8295C36.2786 43.8295 36.5755 43.7117 36.8 43.5C37.0474 43.2476 37.1933 42.913 37.21 42.56L38.45 29.9V29.54C38.4635 29.2361 38.4074 28.9331 38.2861 28.6541C38.1648 28.3751 37.9815 28.1275 37.75 27.93C37.2411 27.5343 36.6147 27.3195 35.97 27.3195C35.3253 27.3195 34.699 27.5343 34.19 27.93H34.22Z"/>
</symbol>
		<symbol id="checkball-outline" viewBox="0 0 72 72">
<path d="M36 9.88C30.834 9.88 25.7839 11.4119 21.4885 14.282C17.1931 17.1521 13.8452 21.2315 11.8683 26.0043C9.89132 30.7771 9.37406 36.029 10.3819 41.0958C11.3898 46.1625 13.8774 50.8167 17.5304 54.4696C21.1833 58.1226 25.8375 60.6103 30.9043 61.6181C35.971 62.626 41.2229 62.1087 45.9957 60.1317C50.7685 58.1548 54.8479 54.8069 57.718 50.5115C60.5881 46.2161 62.12 41.1661 62.12 36C62.1121 29.075 59.3576 22.4359 54.4609 17.5391C49.5641 12.6424 42.925 9.88794 36 9.88ZM36 58.12C31.6251 58.12 27.3484 56.8227 23.7108 54.3921C20.0732 51.9615 17.238 48.5069 15.5638 44.465C13.8896 40.4231 13.4515 35.9755 14.305 31.6846C15.1586 27.3937 17.2653 23.4523 20.3588 20.3588C23.4524 17.2653 27.3938 15.1585 31.6846 14.305C35.9755 13.4515 40.4231 13.8896 44.465 15.5638C48.5069 17.238 51.9615 20.0732 54.3921 23.7108C56.8227 27.3484 58.12 31.6251 58.12 36C58.1147 41.865 55.7825 47.4882 51.6354 51.6354C47.4882 55.7825 41.865 58.1147 36 58.12Z"/>
<path d="M46.23 28.49L31.83 42L25.59 36.22C25.1033 35.7691 24.4575 35.53 23.7945 35.5553C23.1316 35.5807 22.5059 35.8683 22.055 36.355C21.6041 36.8416 21.3651 37.4875 21.3904 38.1504C21.4157 38.8134 21.7033 39.4391 22.19 39.89L28.7 45.89C29.5569 46.6799 30.6796 47.1184 31.845 47.1184C33.0104 47.1184 34.1331 46.6799 34.99 45.89L49.65 32.13C50.0976 31.6684 50.3502 31.0522 50.3552 30.4093C50.3603 29.7664 50.1175 29.1462 49.6773 28.6777C49.2371 28.2091 48.6332 27.9282 47.9912 27.8932C47.3493 27.8583 46.7185 28.072 46.23 28.49Z"/>
</symbol>
		<symbol id="clock-outline" viewBox="0 0 72 72">
<path d="M36 62.12C30.834 62.12 25.7839 60.5881 21.4885 57.718C17.1931 54.8479 13.8452 50.7685 11.8683 45.9957C9.89132 41.2229 9.37406 35.971 10.3819 30.9043C11.3898 25.8375 13.8774 21.1833 17.5304 17.5304C21.1833 13.8774 25.8375 11.3898 30.9043 10.3819C35.971 9.37406 41.2229 9.89132 45.9957 11.8683C50.7685 13.8452 54.8479 17.1931 57.718 21.4885C60.5881 25.7839 62.12 30.834 62.12 36C62.1121 42.925 59.3576 49.5641 54.4609 54.4609C49.5641 59.3576 42.925 62.1121 36 62.12ZM36 13.88C31.6251 13.88 27.3484 15.1773 23.7108 17.6079C20.0732 20.0385 17.238 23.4932 15.5638 27.5351C13.8896 31.577 13.4515 36.0246 14.305 40.3154C15.1586 44.6063 17.2653 48.5477 20.3588 51.6412C23.4524 54.7348 27.3938 56.8415 31.6846 57.695C35.9755 58.5485 40.4231 58.1104 44.465 56.4362C48.5069 54.762 51.9615 51.9268 54.3921 48.2892C56.8227 44.6516 58.12 40.3749 58.12 36C58.1147 30.1351 55.7825 24.5118 51.6354 20.3647C47.4882 16.2175 41.865 13.8853 36 13.88Z"/>
<path d="M41.26 46.39C40.9314 46.3911 40.6058 46.3272 40.3021 46.2019C39.9983 46.0766 39.7223 45.8925 39.49 45.66L33.14 39.3C32.9062 39.0682 32.7205 38.7926 32.5935 38.4888C32.4665 38.1851 32.4007 37.8592 32.4 37.53V26C32.4 25.337 32.6634 24.7011 33.1323 24.2322C33.6011 23.7634 34.237 23.5 34.9 23.5C35.5631 23.5 36.1989 23.7634 36.6678 24.2322C37.1366 24.7011 37.4 25.337 37.4 26V36.5L43 42.12C43.3506 42.4696 43.5894 42.9155 43.6862 43.401C43.783 43.8866 43.7335 44.3899 43.5439 44.8473C43.3544 45.3047 43.0332 45.6955 42.6213 45.9701C42.2093 46.2447 41.7251 46.3909 41.23 46.39H41.26Z"/>
</symbol>
		<symbol id="close" viewBox="0 0 72 72">
<path d="M39.54 35.63L55.13 20C55.5145 19.5181 55.7073 18.9111 55.6715 18.2956C55.6357 17.6802 55.3737 17.0997 54.9359 16.6656C54.4982 16.2315 53.9154 15.9745 53.2997 15.944C52.684 15.9134 52.0786 16.1114 51.6 16.5L36 32.09L20.4 16.5C20.1811 16.2256 19.9069 16.0004 19.5952 15.839C19.2836 15.6776 18.9414 15.5837 18.591 15.5633C18.2406 15.5429 17.8899 15.5965 17.5616 15.7207C17.2333 15.8448 16.9348 16.0367 16.6855 16.2838C16.4363 16.5309 16.2419 16.8277 16.1149 17.155C15.988 17.4822 15.9314 17.8325 15.9488 18.183C15.9662 18.5336 16.0572 18.8766 16.216 19.1896C16.3747 19.5027 16.5975 19.7788 16.87 20L32.46 35.6L16.87 51.23C16.5229 51.5802 16.2871 52.0251 16.1922 52.509C16.0974 52.9928 16.1477 53.4939 16.3369 53.9492C16.526 54.4045 16.8456 54.7938 17.2554 55.0679C17.6653 55.3421 18.147 55.4889 18.64 55.49C18.9673 55.492 19.2916 55.4285 19.5939 55.3031C19.8962 55.1777 20.1703 54.993 20.4 54.76L36 39.16L51.6 54.76C51.8298 54.993 52.1039 55.1777 52.4062 55.3031C52.7084 55.4285 53.0328 55.492 53.36 55.49C53.8531 55.4889 54.3348 55.3421 54.7446 55.0679C55.1544 54.7938 55.474 54.4045 55.6632 53.9492C55.8524 53.4939 55.9027 52.9928 55.8078 52.509C55.713 52.0251 55.4771 51.5802 55.13 51.23L39.54 35.63Z"/>
</symbol>
		<symbol id="copy-outline" viewBox="0 0 72 72">
<path d="M58 11.08H30.19C29.0593 11.08 27.9747 11.5285 27.1742 12.3271C26.3737 13.1257 25.9227 14.2092 25.92 15.34V43.14C25.92 44.2724 26.3699 45.3585 27.1707 46.1593C27.9715 46.9601 29.0576 47.41 30.19 47.41H58C59.1317 47.4073 60.2163 46.9566 61.0165 46.1564C61.8167 45.3562 62.2674 44.2716 62.27 43.14V15.34C62.2674 14.2092 61.8164 13.1257 61.0159 12.3271C60.2154 11.5285 59.1308 11.08 58 11.08ZM58.27 43.14C58.27 43.2116 58.2416 43.2802 58.191 43.3309C58.1403 43.3815 58.0717 43.41 58 43.41H30.19C30.1184 43.41 30.0498 43.3815 29.9991 43.3309C29.9485 43.2802 29.92 43.2116 29.92 43.14V15.34C29.9226 15.2701 29.9522 15.204 30.0026 15.1555C30.0529 15.107 30.1201 15.0799 30.19 15.08H58C58.07 15.0799 58.1372 15.107 58.1875 15.1555C58.2379 15.204 58.2675 15.2701 58.27 15.34V43.14Z"/>
<path d="M44.08 50C43.5495 50 43.0408 50.2107 42.6658 50.5858C42.2907 50.9608 42.08 51.4695 42.08 52V56.65C42.0774 56.7198 42.0478 56.786 41.9974 56.8345C41.9471 56.8829 41.8799 56.91 41.81 56.91H14C13.9301 56.91 13.8629 56.8829 13.8125 56.8345C13.7622 56.786 13.7326 56.7198 13.73 56.65V28.86C13.73 28.7884 13.7584 28.7197 13.8091 28.669C13.8597 28.6184 13.9284 28.59 14 28.59H21.24C21.7704 28.59 22.2791 28.3793 22.6542 28.0042C23.0293 27.6291 23.24 27.1204 23.24 26.59C23.24 26.0595 23.0293 25.5508 22.6542 25.1758C22.2791 24.8007 21.7704 24.59 21.24 24.59H14C12.8683 24.5926 11.7838 25.0433 10.9836 25.8435C10.1833 26.6437 9.73262 27.7283 9.72998 28.86V56.66C9.73263 57.7907 10.1837 58.8742 10.9842 59.6728C11.7847 60.4715 12.8692 60.92 14 60.92H41.81C42.9407 60.92 44.0253 60.4715 44.8258 59.6728C45.6263 58.8742 46.0773 57.7907 46.08 56.66V52C46.08 51.4695 45.8693 50.9608 45.4942 50.5858C45.1191 50.2107 44.6104 50 44.08 50Z"/>
</symbol>
		<symbol id="emoji" viewBox="0 0 72 72">
<path d="M36.2 10C31.0339 10 25.9839 11.5319 21.6885 14.402C17.3931 17.2721 14.0452 21.3515 12.0682 26.1243C10.0913 30.8971 9.57401 36.149 10.5819 41.2158C11.5897 46.2825 14.0774 50.9367 17.7303 54.5896C21.3833 58.2426 26.0374 60.7303 31.1042 61.7381C36.171 62.746 41.4229 62.2287 46.1957 60.2517C50.9685 58.2748 55.0479 54.9269 57.918 50.6315C60.7881 46.3361 62.32 41.286 62.32 36.12C62.312 29.195 59.5576 22.5559 54.6608 17.6591C49.7641 12.7624 43.125 10.0079 36.2 10ZM36.2 58.24C31.825 58.24 27.5484 56.9427 23.9108 54.5121C20.2731 52.0815 17.438 48.6269 15.7638 44.585C14.0895 40.5431 13.6515 36.0955 14.505 31.8046C15.3585 27.5137 17.4652 23.5723 20.5588 20.4788C23.6523 17.3853 27.5937 15.2785 31.8846 14.425C36.1754 13.5715 40.623 14.0096 44.6649 15.6838C48.7068 17.358 52.1615 20.1932 54.5921 23.8308C57.0227 27.4684 58.32 31.7451 58.32 36.12C58.312 41.9841 55.979 47.6059 51.8324 51.7524C47.6858 55.899 42.0641 58.2321 36.2 58.24Z"/>
<path d="M28.5901 32.73C28.9745 32.7413 29.3571 32.6725 29.7135 32.5279C30.0699 32.3833 30.3922 32.166 30.6601 31.89C31.1864 31.3193 31.4787 30.5714 31.4787 29.795C31.4787 29.0186 31.1864 28.2707 30.6601 27.7C30.1021 27.1681 29.3609 26.8714 28.5901 26.8714C27.8192 26.8714 27.078 27.1681 26.5201 27.7C25.9937 28.2707 25.7014 29.0186 25.7014 29.795C25.7014 30.5714 25.9937 31.3193 26.5201 31.89C26.7882 32.1655 27.1107 32.3825 27.467 32.527C27.8233 32.6716 28.2057 32.7407 28.5901 32.73Z"/>
<path d="M43.82 32.73C44.2044 32.7407 44.5868 32.6716 44.9431 32.5271C45.2994 32.3825 45.6218 32.1655 45.89 31.89C46.4164 31.3193 46.7087 30.5714 46.7087 29.795C46.7087 29.0186 46.4164 28.2707 45.89 27.7C45.3316 27.1652 44.5882 26.8666 43.815 26.8666C43.0418 26.8666 42.2985 27.1652 41.74 27.7C41.2136 28.2707 40.9214 29.0186 40.9214 29.795C40.9214 30.5714 41.2136 31.3193 41.74 31.89C42.0097 32.1663 42.3339 32.3836 42.6919 32.5282C43.0499 32.6728 43.4341 32.7415 43.82 32.73Z"/>
<path d="M46.67 39.12C46.425 39.0102 46.1605 38.9509 45.8922 38.9455C45.6238 38.9401 45.3571 38.9887 45.108 39.0886C44.8588 39.1884 44.6323 39.3374 44.442 39.5266C44.2516 39.7159 44.1013 39.9415 44 40.19C43.3517 41.73 42.2635 43.0445 40.8715 43.9688C39.4796 44.8931 37.8458 45.3861 36.175 45.3861C34.5041 45.3861 32.8704 44.8931 31.4784 43.9688C30.0865 43.0445 28.9982 41.73 28.35 40.19C28.2546 39.9383 28.1094 39.7084 27.9231 39.5142C27.7367 39.3199 27.5131 39.1653 27.2656 39.0595C27.0181 38.9538 26.7518 38.8991 26.4826 38.8987C26.2134 38.8983 25.947 38.9522 25.6992 39.0573C25.4513 39.1624 25.2273 39.3163 25.0404 39.5101C24.8535 39.7038 24.7076 39.9332 24.6115 40.1846C24.5154 40.4361 24.4711 40.7043 24.4811 40.9733C24.4912 41.2423 24.5554 41.5064 24.67 41.75C25.6305 44.0049 27.2328 45.9276 29.2775 47.279C31.3222 48.6305 33.719 49.351 36.17 49.351C38.6209 49.351 41.0178 48.6305 43.0625 47.279C45.1071 45.9276 46.7094 44.0049 47.67 41.75C47.8833 41.2683 47.8979 40.7218 47.7107 40.2294C47.5234 39.737 47.1494 39.3383 46.67 39.12Z"/>
</symbol>
		<symbol id="image-file" viewBox="0 0 72 72">
<path d="M57.64 25.19C57.6446 25.1468 57.6446 25.1032 57.64 25.06C57.612 24.8962 57.5685 24.7355 57.51 24.58C57.4423 24.4375 57.3584 24.3033 57.26 24.18C57.26 24.18 57.26 24.18 57.26 24.13L46.75 11.84C46.6292 11.6993 46.4875 11.5779 46.33 11.48H46.27C46.1315 11.3923 45.9794 11.3281 45.82 11.29H45.73C45.5799 11.2504 45.4253 11.2303 45.27 11.23H20C18.5121 11.23 17.0852 11.821 16.0331 12.8731C14.9811 13.9252 14.39 15.3521 14.39 16.84V55.34C14.4136 56.8122 15.0151 58.2161 16.0646 59.2488C17.1142 60.2815 18.5276 60.8602 20 60.86H52.1C53.5879 60.86 55.0148 60.2689 56.0669 59.2169C57.119 58.1648 57.71 56.7378 57.71 55.25V25.37C57.692 25.308 57.6686 25.2478 57.64 25.19ZM51.24 23.28L48.07 23.21C47.8931 23.2074 47.7242 23.136 47.5991 23.0109C47.474 22.8858 47.4026 22.7169 47.4 22.54L47.33 18.69L51.24 23.28ZM52.05 56.86H20C19.573 56.86 19.1635 56.6904 18.8616 56.3884C18.5596 56.0865 18.39 55.677 18.39 55.25V50.08L21.49 48.24C21.5897 48.1789 21.6835 48.1086 21.77 48.03C21.8776 47.9614 22.0025 47.925 22.13 47.925C22.2576 47.925 22.3824 47.9614 22.49 48.03L30.41 54.86C30.6007 55.0663 30.8328 55.23 31.091 55.3407C31.3492 55.4513 31.6279 55.5063 31.9088 55.502C32.1897 55.4978 32.4665 55.4344 32.7213 55.316C32.976 55.1976 33.203 55.0269 33.3874 54.815C33.5718 54.603 33.7095 54.3546 33.7915 54.0859C33.8735 53.8172 33.8979 53.5343 33.8633 53.2555C33.8286 52.9767 33.7356 52.7083 33.5903 52.4679C33.445 52.2275 33.2507 52.0203 33.02 51.86L29.89 49.17L37.54 42.58C37.6457 42.5064 37.7713 42.467 37.9 42.467C38.0287 42.467 38.1544 42.5064 38.26 42.58L53.56 55.78C53.4519 56.0947 53.2483 56.3678 52.9777 56.5614C52.707 56.7549 52.3828 56.8593 52.05 56.86ZM53.66 50.58L40.82 39.52C39.9879 38.8216 38.9363 38.4388 37.85 38.4388C36.7637 38.4388 35.7121 38.8216 34.88 39.52L26.78 46.52L25.05 45C24.2427 44.3291 23.2321 43.9511 22.1827 43.9275C21.1332 43.9039 20.1067 44.2361 19.27 44.87L18.34 45.43V16.75C18.3399 16.5343 18.3832 16.3208 18.4672 16.1221C18.5512 15.9234 18.6743 15.7437 18.8291 15.5935C18.9839 15.4433 19.1674 15.3258 19.3685 15.2479C19.5697 15.17 19.7844 15.1333 20 15.14H43.26L43.4 22.62C43.4232 23.8309 43.9159 24.9854 44.7742 25.8399C45.6324 26.6944 46.7891 27.1821 48 27.2L53.68 27.33L53.66 50.58Z"/>
<path d="M29.9 23.3101C29.0964 23.1509 28.2792 23.0705 27.46 23.0701C26.2113 23.0114 24.9694 23.284 23.86 23.8601C23.1881 24.3699 22.6624 25.0479 22.3358 25.8256C22.0093 26.6033 21.8935 27.4533 22 28.2901C21.9774 29.7819 22.496 31.2313 23.46 32.3701C24.6959 33.3644 26.2442 33.8888 27.83 33.8501C27.8466 33.8487 27.8633 33.8507 27.879 33.8562C27.8947 33.8616 27.9092 33.8702 27.9214 33.8815C27.9336 33.8927 27.9434 33.9065 27.95 33.9217C27.9566 33.937 27.96 33.9534 27.96 33.9701V35.4401C27.96 35.4737 27.9667 35.5071 27.9799 35.5381C27.9931 35.5691 28.0124 35.5971 28.0367 35.6205C28.061 35.6438 28.0898 35.662 28.1212 35.674C28.1527 35.6859 28.1863 35.6914 28.22 35.6901C28.2656 35.704 28.3144 35.704 28.36 35.6901C29.05 35.0901 29.75 34.4801 30.41 33.8601C31.0978 33.2825 31.7244 32.6358 32.28 31.9301C33.2676 30.3103 33.58 28.3677 33.15 26.5201C33.0117 25.7125 32.6238 24.9685 32.0409 24.3927C31.4579 23.817 30.7092 23.4383 29.9 23.3101Z"/>
</symbol>
		<symbol id="logout" viewBox="0 0 72 72">
<path d="M41.37 10.0799H14.5C14.39 10.0799 14.29 10.0799 14.18 10.0799C14.1134 10.0752 14.0465 10.0752 13.98 10.0799C12.9606 10.0826 11.9839 10.4894 11.2641 11.2111C10.5442 11.9328 10.1399 12.9106 10.14 13.9299V51.9299C10.136 52.6302 10.3277 53.3177 10.6934 53.9148C11.0592 54.512 11.5844 54.9952 12.21 55.3099L28 63.3799H28.09C28.5814 63.597 29.1127 63.7094 29.65 63.7099C30.3816 63.713 31.098 63.5009 31.71 63.0999C32.24 62.7709 32.6801 62.3154 32.9907 61.7743C33.3014 61.2333 33.4729 60.6236 33.49 59.9999V56.8699H41.37C42.5263 56.8699 43.6353 56.4106 44.4529 55.5929C45.2706 54.7753 45.7299 53.6663 45.7299 52.5099V14.4499C45.73 13.2927 45.2709 12.1827 44.4535 11.3634C43.6362 10.5442 42.5272 10.0826 41.37 10.0799ZM41.73 52.5099C41.73 52.6054 41.692 52.697 41.6245 52.7645C41.557 52.832 41.4654 52.8699 41.37 52.8699H33.49V19.3999C33.4881 18.61 33.2407 17.8402 32.782 17.197C32.3234 16.5538 31.6762 16.0691 30.93 15.8099L25.93 14.0799H41.37C41.4663 14.0825 41.5579 14.1227 41.6251 14.1918C41.6924 14.2609 41.73 14.3535 41.73 14.4499V52.5099Z"/>
<path d="M59.79 31.0599L54.61 24.8899C54.1771 24.4066 53.5733 24.1105 52.9261 24.0642C52.279 24.0179 51.6392 24.2251 51.1419 24.6418C50.6446 25.0586 50.3289 25.6524 50.2613 26.2976C50.1938 26.9429 50.3798 27.5892 50.78 28.0999L56 34.1799L50.82 40.3499C50.5134 40.7141 50.3172 41.1582 50.2544 41.63C50.1916 42.1018 50.2648 42.5818 50.4654 43.0135C50.666 43.4452 50.9857 43.8106 51.3868 44.0668C51.788 44.323 52.254 44.4594 52.73 44.4599C53.0958 44.4624 53.4577 44.3838 53.7897 44.23C54.1216 44.0761 54.4154 43.8507 54.65 43.5699L59.83 37.3899C60.5655 36.4971 60.9644 35.3744 60.9571 34.2176C60.9498 33.0609 60.5367 31.9434 59.79 31.0599Z"/>
</symbol>
		<symbol id="more-info-outline" viewBox="0 0 72 72">
<path d="M36 23C35.2946 22.9652 34.602 23.1972 34.06 23.65C33.8243 23.8682 33.6387 24.1351 33.5161 24.432C33.3935 24.729 33.3369 25.049 33.35 25.37C33.3398 25.6936 33.3978 26.0157 33.5201 26.3155C33.6424 26.6152 33.8263 26.8859 34.06 27.11C34.5985 27.5699 35.2927 27.8061 36 27.77C36.7046 27.8087 37.3966 27.572 37.93 27.11C38.167 26.888 38.3539 26.6179 38.478 26.3178C38.6022 26.0177 38.6608 25.6946 38.65 25.37C38.6641 25.047 38.6059 24.725 38.4796 24.4274C38.3533 24.1298 38.1621 23.8642 37.92 23.65C37.3832 23.202 36.6986 22.9702 36 23Z"/>
<path d="M36 30.9301C35.4212 30.9052 34.854 31.0979 34.41 31.4701C34.1987 31.6629 34.0326 31.9 33.9237 32.1645C33.8148 32.4291 33.7657 32.7144 33.78 33.0001V46.8801C33.7609 47.1752 33.8075 47.4709 33.9165 47.7458C34.0254 48.0208 34.194 48.2681 34.41 48.4701C34.854 48.8413 35.4221 49.0307 36 49.0001C36.5875 49.0195 37.1613 48.82 37.61 48.4401C37.8296 48.24 38.0019 47.9934 38.1144 47.7184C38.2268 47.4434 38.2766 47.1467 38.26 46.8501V33.0001C38.2794 32.7061 38.2308 32.4115 38.1181 32.1393C38.0054 31.867 37.8315 31.6243 37.61 31.4301C37.151 31.075 36.5793 30.8975 36 30.9301Z"/>
<path d="M36 9.88C30.834 9.88 25.7839 11.4119 21.4885 14.282C17.1931 17.1521 13.8452 21.2315 11.8683 26.0043C9.89132 30.7771 9.37406 36.029 10.3819 41.0958C11.3898 46.1625 13.8774 50.8167 17.5304 54.4696C21.1833 58.1226 25.8375 60.6103 30.9043 61.6181C35.971 62.626 41.2229 62.1087 45.9957 60.1317C50.7685 58.1548 54.8479 54.8069 57.718 50.5115C60.5881 46.2161 62.12 41.1661 62.12 36C62.1121 29.075 59.3576 22.4359 54.4609 17.5391C49.5641 12.6424 42.925 9.88794 36 9.88ZM36 58.12C31.6251 58.12 27.3484 56.8227 23.7108 54.3921C20.0732 51.9615 17.238 48.5069 15.5638 44.465C13.8896 40.4231 13.4515 35.9755 14.305 31.6846C15.1586 27.3937 17.2653 23.4523 20.3588 20.3588C23.4524 17.2653 27.3938 15.1585 31.6846 14.305C35.9755 13.4515 40.4231 13.8896 44.465 15.5638C48.5069 17.238 51.9615 20.0732 54.3921 23.7108C56.8227 27.3484 58.12 31.6251 58.12 36C58.1147 41.865 55.7825 47.4882 51.6354 51.6354C47.4882 55.7825 41.865 58.1147 36 58.12Z"/>
</symbol>
		<symbol id="send-solid" viewBox="0 0 72 72">
<path d="M56.22 31.6L20.09 14.3C19.1926 13.8725 18.1882 13.7222 17.205 13.8682C16.2217 14.0143 15.3044 14.4501 14.57 15.12C13.8798 15.7159 13.3856 16.5062 13.1518 17.3876C12.9181 18.269 12.9558 19.2004 13.26 20.06C15.0817 24.4264 17.1483 28.6865 19.45 32.82C19.6295 33.1312 19.8896 33.3883 20.2028 33.5642C20.516 33.7402 20.8708 33.8285 21.23 33.82L38 33.71C38.4767 33.7005 38.9458 33.8309 39.3492 34.085C39.7526 34.3391 40.0727 34.7059 40.27 35.14C40.4443 35.52 40.5213 35.9374 40.4941 36.3546C40.4668 36.7718 40.3362 37.1757 40.114 37.5299C39.8918 37.884 39.585 38.1773 39.2212 38.3833C38.8574 38.5893 38.448 38.7016 38.03 38.71L21 38.88C20.6476 38.8786 20.301 38.9703 19.9955 39.1459C19.6899 39.3216 19.4362 39.5748 19.26 39.88C17.0912 43.7522 15.1318 47.7379 13.39 51.82C13.0693 52.6838 13.019 53.6248 13.2458 54.5179C13.4727 55.411 13.9659 56.2139 14.66 56.82C15.5929 57.67 16.8079 58.1439 18.07 58.15C18.808 58.1509 19.5365 57.9833 20.2 57.66L56.2 40.41C57.0334 40.0093 57.7367 39.3813 58.2289 38.5985C58.7211 37.8156 58.9822 36.9097 58.9822 35.985C58.9822 35.0603 58.7211 34.1543 58.2289 33.3715C57.7367 32.5887 57.0334 31.9607 56.2 31.56L56.22 31.6Z"/>
</symbol>
		<symbol id="tag-solid" viewBox="0 0 72 72">
<path d="M61.75 14.2C61.7368 13.1478 61.3096 12.1432 60.5608 11.4038C59.8121 10.6645 58.8022 10.2499 57.75 10.25L38.75 9.79C38.1958 9.77142 37.6438 9.86654 37.1278 10.0695C36.6119 10.2724 36.1429 10.5789 35.75 10.97L11 35.83C10.2421 36.5909 9.81665 37.6211 9.81665 38.695C9.81665 39.7689 10.2421 40.7991 11 41.56L30.44 61C31.2022 61.7554 32.2318 62.1792 33.305 62.1792C34.3781 62.1792 35.4078 61.7554 36.17 61L60.7 36.5L61.03 36.17C61.4206 35.7767 61.7267 35.3077 61.9296 34.7918C62.1326 34.2759 62.2279 33.7241 62.21 33.17L61.75 14.2ZM36.25 48.2C35.7796 48.6678 35.1433 48.9303 34.48 48.9303C33.8166 48.9303 33.1803 48.6678 32.71 48.2L23.84 39.33C23.6075 39.0976 23.4231 38.8216 23.2973 38.5179C23.1715 38.2142 23.1068 37.8887 23.1068 37.56C23.1068 37.2313 23.1715 36.9058 23.2973 36.6021C23.4231 36.2984 23.6075 36.0224 23.84 35.79C24.0724 35.5576 24.3483 35.3732 24.652 35.2474C24.9557 35.1216 25.2812 35.0568 25.61 35.0568C25.9387 35.0568 26.2642 35.1216 26.5679 35.2474C26.8716 35.3732 27.1475 35.5576 27.38 35.79L36.25 44.66C36.708 45.1273 36.9646 45.7556 36.9646 46.41C36.9646 47.0644 36.708 47.6927 36.25 48.16V48.2ZM42.25 43.2C42.02 43.4349 41.7454 43.6216 41.4423 43.749C41.1392 43.8764 40.8137 43.9421 40.485 43.9421C40.1562 43.9421 39.8307 43.8764 39.5276 43.749C39.2245 43.6216 38.95 43.4349 38.72 43.2L29.8 34.28C29.5464 34.0534 29.3418 33.7774 29.1986 33.4689C29.0554 33.1604 28.9766 32.826 28.9671 32.4861C28.9576 32.1461 29.0175 31.8078 29.1432 31.4918C29.269 31.1758 29.4578 30.8888 29.6983 30.6484C29.9388 30.4079 30.2258 30.219 30.5418 30.0933C30.8578 29.9675 31.1961 29.9076 31.536 29.9171C31.876 29.9266 32.2104 30.0054 32.5189 30.1486C32.8273 30.2918 33.1033 30.4965 33.33 30.75L42.2 39.62C42.4325 39.8514 42.617 40.1264 42.7429 40.4293C42.8688 40.7322 42.9336 41.057 42.9336 41.385C42.9336 41.713 42.8688 42.0378 42.7429 42.3407C42.617 42.6436 42.4325 42.9186 42.2 43.15L42.25 43.2ZM51.17 26.2C50.7183 26.8762 50.0612 27.3892 49.2956 27.6633C48.53 27.9373 47.6966 27.9579 46.9184 27.7219C46.1403 27.4859 45.4587 27.006 44.9742 26.3528C44.4898 25.6997 44.2283 24.9081 44.2283 24.095C44.2283 23.2818 44.4898 22.4903 44.9742 21.8372C45.4587 21.184 46.1403 20.7041 46.9184 20.4681C47.6966 20.2321 48.53 20.2527 49.2956 20.5267C50.0612 20.8008 50.7183 21.3138 51.17 21.99C51.5649 22.6121 51.7704 23.3356 51.7616 24.0724C51.7527 24.8092 51.5298 25.5276 51.12 26.14L51.17 26.2Z"/>
</symbol>
		<symbol id="blip-logo-full" viewBox="0 0 202 73">
<path d="M31.5967 4.32308C36.0909 4.32308 40.8303 4.8132 44.8343 5.63007C53.3325 7.3455 58.9707 12.8185 60.6049 20.9055C61.5855 25.8067 61.7489 30.953 61.0952 35.6908C60.3598 40.9188 58.7255 45.4116 56.1924 49.0058C53.9862 52.1099 50.8811 54.9689 47.8577 57.6646C47.2039 58.2364 46.5502 58.8082 45.9782 59.38C43.2 61.994 40.34 64.5263 37.6435 66.8135V62.8926C37.6435 60.6053 35.7641 58.6448 33.3944 58.6448C25.9584 58.6448 15.4991 56.0309 10.8414 51.293C5.12149 45.3299 3.65065 36.6711 3.48723 30.3812C3.40551 24.3364 4.30436 13.472 12.7208 8.24405C16.8882 5.71176 23.5887 4.32308 31.5967 4.32308ZM31.5967 0.810547C24.079 0.810547 16.2345 2.03585 10.9232 5.30332C2.34324 10.613 -0.189882 20.9872 0.0552589 30.5446C0.300399 38.7949 2.50666 47.6988 8.39003 53.7436C14.0283 59.5434 25.5499 62.1574 33.3944 62.1574C33.7212 62.1574 34.1298 62.4024 34.1298 62.8926V71.2246C34.1298 72.0415 34.7835 72.695 35.6006 72.695C35.6823 72.695 35.6823 72.695 35.7641 72.695C36.0909 72.695 36.336 72.5316 36.5812 72.3682C40.5851 69.0191 44.5074 65.5065 48.3479 61.994C52.025 58.5632 56.1924 55.1323 59.0524 51.048C65.0992 42.4708 65.998 30.2995 64.0369 20.252C62.0758 10.5313 55.2119 4.24139 45.5697 2.28091C41.5657 1.38235 36.6629 0.810547 31.5967 0.810547Z" fill="#00BCD4"/>
<path d="M83.8933 7.50885H96.3138C98.6017 7.50885 100.726 7.75391 102.606 8.16235C104.485 8.57078 106.119 9.22427 107.509 10.1228C108.898 11.0214 109.96 12.165 110.695 13.5537C111.431 14.9424 111.839 16.6578 111.839 18.6183C111.839 20.9055 111.186 22.9477 109.878 24.7448C108.571 26.5419 106.61 27.8489 103.913 28.5024V28.7474C107.263 29.2376 109.796 30.3812 111.676 32.1783C113.555 33.9754 114.454 36.426 114.454 39.5301C114.454 41.7356 114.046 43.6961 113.228 45.3299C112.411 46.9636 111.267 48.3523 109.715 49.4959C108.244 50.6395 106.446 51.4564 104.322 51.9465C102.197 52.5183 99.9092 52.7634 97.376 52.7634H83.8933V7.50885ZM95.4149 26.8686C99.2554 26.8686 102.034 26.2151 103.75 24.8265C105.466 23.5195 106.283 21.559 106.283 19.0267C106.283 16.5761 105.384 14.779 103.586 13.6354C101.789 12.5734 99.1737 12.0016 95.6601 12.0016H89.695V26.7869H95.4149V26.8686ZM96.5589 48.2706C100.481 48.2706 103.505 47.5354 105.629 46.065C107.754 44.5947 108.816 42.3074 108.816 39.285C108.816 36.5077 107.754 34.3838 105.711 33.0768C103.668 31.7698 100.563 31.1163 96.5589 31.1163H89.695V48.2706H96.5589Z" fill="#FFF"/>
<path d="M121.645 7.50891H127.283V47.9439H149.754V52.8451H121.645V7.50891Z" fill="#FFF"/>
<path d="M141.992 20.5788H163.237V52.8451H157.599V25.2349H141.992V20.5788Z" fill="#FFF"/>
<path d="M159.233 15.2692C158.089 15.2692 157.109 14.9424 156.373 14.2072C155.638 13.5537 155.229 12.5735 155.229 11.4299C155.229 10.2863 155.638 9.30602 156.373 8.57084C157.109 7.83566 158.089 7.50891 159.233 7.50891C160.377 7.50891 161.358 7.83566 162.093 8.57084C162.829 9.30602 163.237 10.2046 163.237 11.4299C163.237 12.5735 162.829 13.5537 162.093 14.2072C161.358 14.9424 160.377 15.2692 159.233 15.2692Z" fill="#FFF"/>
<path d="M171.163 7.50891H185.055C187.506 7.50891 189.794 7.75397 191.919 8.16241C193.961 8.65253 195.759 9.38771 197.23 10.368C198.701 11.4299 199.845 12.7369 200.58 14.4523C201.397 16.1677 201.806 18.2916 201.806 20.7422C201.806 23.1111 201.397 25.235 200.58 26.9504C199.763 28.6658 198.619 30.1362 197.148 31.2798C195.677 32.4234 193.88 33.322 191.837 33.8938C189.794 34.4656 187.506 34.7923 185.055 34.7923H176.883V52.7634H171.163V7.50891ZM184.237 30.2179C188.241 30.2179 191.183 29.4827 193.144 28.0123C195.024 26.5419 196.004 24.173 196.004 20.9056C196.004 17.6381 195.024 15.3508 193.063 14.1255C191.101 12.9002 188.16 12.2467 184.237 12.2467H176.883V30.2179H184.237Z" fill="#FFF"/>
</symbol>
	</defs>
</svg>
