<svg xmlns="http://www.w3.org/2000/svg" width="24" height="24"><path d="M9.012 22c-1.66 0-3.404-.627-4.53-2.006-1.75-2.148-1.96-4.724-.575-7.068.604-1.02 4.63-5.105 8.5-8.964l.896-.9c.877-.92 3.538-1.877 5.708.075 1.948 1.95 1.625 4.432.315 5.89-.37.4-3.833 4.008-7.173 7.474l-.903.938c-.4.428-1.218.907-2.095.902-.66-.014-1.263-.307-1.742-.848-1.29-1.496-.34-3.14.344-3.8l7.42-7.278a.75.75 0 0 1 1.078.023.79.79 0 0 1-.022 1.103L8.8 14.823c-.15.15-.866.93-.26 1.632.192.216.396.323.635.328.4.001.812-.265.975-.435l.906-.94 7.136-7.435c.566-.63 1.246-2.21-.23-3.7-1.59-1.43-3.38-.336-3.578-.128a121.93 121.93 0 0 1-.92.925c-1.896 1.896-7.667 7.666-8.252 8.656-1.043 1.764-.887 3.632.44 5.26 1.382 1.695 4.31 1.833 5.737.756a.55.55 0 0 1 .049-.034c1.132-.722 5.544-5.46 8.233-8.466a.75.75 0 0 1 1.078-.049c.31.29.333.784.048 1.102-.696.778-6.817 7.6-8.526 8.72-.854.634-2.036.976-3.263.976z"/></svg>