<svg width="24" height="24" viewBox="0 0 24 24" xmlns="http://www.w3.org/2000/svg">
<path d="M19 4H5C3.3 4 2 5.3 2 7V17C2 18.7 3.3 20 5 20H19C20.7 20 22 18.7 22 17V7C22 5.3 20.7 4 19 4ZM6.9 6.4C7.2 6.2 7.7 6.1 8.1 6.1C8.4 6.1 8.7 6.1 8.9 6.2C9.5 6.3 9.9 6.7 10 7.3C10.1 7.9 10.1 8.6 9.7 9.1C9.5 9.4 9.3 9.6 9.1 9.8C8.9 10 8.6 10.2 8.4 10.4C8.4 10.4 8.4 10.4 8.3 10.4C8.2 10.4 8.2 10.4 8.2 10.3V9.8C7.7 9.8 7.1 9.7 6.7 9.3C6.4 8.9 6.3 8.4 6.3 7.9C6.2 7.3 6.4 6.7 6.9 6.4ZM21 16.9C21 18 20.1 18.9 19 18.9H5C3.9 18.9 3 18 3 16.9L7.3 14C8.1 13.5 9.2 13.6 9.9 14.3L10.8 15.2L15 10.7C15.8 9.9 17.1 9.9 17.9 10.7L21 14V16.9Z"/>
</svg>
