<?xml version="1.0" encoding="UTF-8"?>
<svg width="28px" height="28px" viewBox="0 0 28 28" version="1.1" xmlns="http://www.w3.org/2000/svg" xmlns:xlink="http://www.w3.org/1999/xlink">
    <!-- Generator: Sketch 50 (54983) - http://www.bohemiancoding.com/sketch -->
    <title>Confirm-Circle-White</title>
    <desc>Created with Sketch.</desc>
    <defs></defs>
    <g id="Confirm-Circle-White" stroke="none" stroke-width="1" fill="none" fill-rule="evenodd">
        <path d="M18.1567871,10.2995376 L11.6664125,16.4473936 L9.8980164,14.5081881 C9.50463849,14.0768689 8.82037747,14.0325601 8.36997781,14.4105701 C7.91957815,14.7885802 7.8741051,15.444213 8.26820481,15.8762245 L10.794485,18.645529 C10.990813,18.8608424 11.271591,18.9889228 11.5696921,18.9993077 C11.5834062,19 11.5963985,19 11.6093907,19 C11.8937777,19 12.1673378,18.8926895 12.370162,18.7009151 L19.6783295,11.7776539 C20.1034664,11.3740277 20.1077972,10.7163179 19.6877129,10.3085378 C19.2676286,9.90075775 18.581924,9.89660379 18.1567871,10.2995376 M14,26 C7.38264615,26 2,20.6173538 2,14 C2,7.38338462 7.38264615,2 14,2 C20.6166154,2 26,7.38338462 26,14 C26,20.6173538 20.6166154,26 14,26 Z M0,14 C0,21.7192727 6.28,28 14,28 C21.7192727,28 28,21.7192727 28,14 C28,6.28072727 21.7192727,0 14,0 C6.28,0 0,6.28072727 0,14 Z" id="2B" fill="#FFFFFF"></path>
    </g>
</svg>