<svg width="128" height="128" viewBox="0 0 128 128" fill="none" xmlns="http://www.w3.org/2000/svg">
<path d="M64 117.333C93.4551 117.333 117.333 93.4552 117.333 64C117.333 34.5448 93.4551 10.6667 64 10.6667C34.5448 10.6667 10.6666 34.5448 10.6666 64C10.6666 93.4552 34.5448 117.333 64 117.333Z" fill="url(#paint0_linear)"/>
<path fill-rule="evenodd" clip-rule="evenodd" d="M78.8031 29.112C78.2994 32.6062 77.8387 36.1095 77.229 39.5863C77.1648 39.9522 76.2246 40.4017 75.6855 40.4091C71.0127 40.4743 66.3387 40.444 61.6654 40.4485C58.6848 40.4511 58.1405 40.9531 57.7613 43.9021C57.5014 45.9228 57.2158 47.9409 56.9024 49.9542C56.5683 52.0977 57.0042 52.6665 59.2471 52.6794C63.9743 52.7071 68.7015 52.69 73.4291 52.6913C74.0056 52.6916 74.5818 52.6913 75.3688 52.6913C74.9107 56.094 74.5047 59.2703 74.0523 62.4398C72.8235 71.0427 71.578 79.6433 70.3327 88.2439C69.9026 91.2171 69.4934 94.1945 68.9727 97.1522C68.8918 97.6126 68.2682 98.3287 67.888 98.3332C62.5721 98.3987 57.2545 98.3623 51.9372 98.3403C51.794 98.3397 51.6515 98.2204 51.2952 98.0604C51.6854 95.3065 52.0762 92.5065 52.4795 89.7087C54.1568 78.0763 55.8409 66.4454 57.5147 54.8126C57.7865 52.9209 57.3838 52.443 55.3356 52.4311C49.8565 52.3995 44.3771 52.4182 38.8976 52.4169C38.2611 52.4169 37.6246 52.4169 36.7408 52.4169C37.1852 49.2474 37.6008 46.2455 38.0286 43.2453C38.4014 40.629 38.4072 40.6297 41.0015 40.6297C46.4271 40.6294 51.8534 40.5849 57.2783 40.6561C58.8969 40.6774 59.6434 40.0383 59.8488 38.4877C60.2299 35.6142 60.6397 32.7429 61.1301 29.8865C61.2014 29.4731 61.7831 28.8321 62.1329 28.8292C67.5021 28.7834 72.8719 28.8257 78.2414 28.8544C78.3372 28.855 78.4326 28.9382 78.8031 29.112Z" fill="white"/>
<defs>
<linearGradient id="paint0_linear" x1="64" y1="117.333" x2="39.7685" y2="30.5419" gradientUnits="userSpaceOnUse">
<stop stop-color="#EB6405"/>
<stop offset="1" stop-color="#FF8D00"/>
</linearGradient>
</defs>
</svg>
