<?xml version="1.0" encoding="UTF-8"?>
<svg width="45px" height="45px" viewBox="0 0 45 45" version="1.1" xmlns="http://www.w3.org/2000/svg" xmlns:xlink="http://www.w3.org/1999/xlink">
    <!-- Generator: Sketch 48 (47235) - http://www.bohemiancoding.com/sketch -->
    <title>Workchat</title>
    <desc>Created with Sketch.</desc>
    <defs>
        <linearGradient x1="50%" y1="0%" x2="50%" y2="100%" id="linearGradient-1">
            <stop stop-color="#03C9FF" offset="0%"></stop>
            <stop stop-color="#0780FC" offset="100%"></stop>
        </linearGradient>
    </defs>
    <g id="SDK-/-Publicações" stroke="none" stroke-width="1" fill="none" fill-rule="evenodd">
        <g id="Workchat">
            <path d="M10.864396,40.5824375 L2,43 L3.93115195,33.3442403 C2.06792623,30.1606722 1,26.4550499 1,22.5 C1,10.6258779 10.6258779,1 22.5,1 C34.3741221,1 44,10.6258779 44,22.5 C44,34.3741221 34.3741221,44 22.5,44 C18.2125909,44 14.2182915,42.7450478 10.864396,40.5824375 Z" id="Combined-Shape" fill="url(#linearGradient-1)"></path>
            <g id="Page-1" transform="translate(7.000000, 6.000000)" fill="#FFFFFF">
                <path d="M14.9943222,0 L17.407417,0 C21.8335608,0.41253698 26.0286181,2.8752677 28.3841878,6.66600592 C31.7873714,11.8429341 31.3169806,19.2390154 27.1837216,23.8755367 C26.0371647,25.2120907 23.6898128,24.8738433 22.9886643,23.252951 C21.8292875,20.7238199 20.913817,18.0881852 19.8247851,15.5307846 C18.793607,18.0014045 17.8778078,20.5262623 16.8091562,22.984391 C16.3433674,24.2966202 14.7632357,25.1420745 13.451664,24.5355958 C12.4576307,24.1641482 11.9915132,23.1454612 11.616121,22.2339353 C10.1474236,18.5335936 8.64191013,14.8460719 7.15283243,11.1500035 C8.35724318,11.1457302 9.56165393,11.1500035 10.770338,11.1457302 C11.9747487,14.119941 13.1712703,17.1023697 14.383899,20.0723073 C15.2914803,17.840663 16.1783526,15.6008009 17.065225,13.3609387 C17.4652708,12.3544142 17.9892421,11.224293 19.1154187,10.8817723 C20.3566455,10.4156548 21.7017462,11.2985825 22.1718082,12.4451395 C23.3640565,15.1429013 24.3580899,17.9274437 25.517138,20.6376966 C26.6886773,18.6407546 27.4269705,16.3598032 27.2994292,14.0209979 C27.1755038,8.88121445 23.0093734,4.19505733 17.9149525,3.48569095 C11.8550966,2.56989172 5.68413503,6.72385971 3.93931727,12.5401381 C2.22737098,17.6881394 4.1743483,23.7190684 8.50582224,26.9611818 C11.6365013,29.4814376 15.9390483,30.2943491 19.7919136,29.1760616 C19.7876403,30.3268919 19.783367,31.4780508 19.7876403,32.6249365 C19.0657828,32.7524778 18.3478698,32.8885657 17.6260123,33 L15.159337,33 C11.005369,32.6042275 6.98781763,30.7105019 4.22398422,27.5551693 C1.76552679,24.8698987 0.383610085,21.3427897 0,17.7459932 L0,15.3822056 C0.338247452,11.7357731 1.74481776,8.15935691 4.22825751,5.43694156 C6.95461745,2.32236954 10.9106992,0.457899613 14.9943222,0" id="Fill-1"></path>
            </g>
        </g>
    </g>
</svg>