<svg xmlns="http://www.w3.org/2000/svg" width="128" height="128" fill="none"><path d="M64 117.333c29.455 0 53.333-23.878 53.333-53.333S93.455 10.667 64 10.667 10.667 34.545 10.667 64 34.545 117.333 64 117.333z" fill="url(#A)"/><path fill-rule="evenodd" d="M63.112 31.363c-7.202 0-14.666 1.174-19.753 4.367C35.1 40.905 32.696 51 32.977 60.315c.242 8.047 2.36 16.688 7.992 22.633 5.37 5.668 16.415 8.217 23.945 8.217a.69.69 0 0 1 .701.714V100c0 .8.612 1.425 1.398 1.425.046 0 .088-.01.13-.013a1.38 1.38 0 0 0 .77-.317c3.796-3.303 7.59-6.666 11.25-10.122 3.51-3.316 7.487-6.723 10.232-10.693 5.79-8.374 6.65-20.214 4.73-30.03-1.847-9.445-8.434-15.593-17.666-17.552-3.8-.804-8.512-1.334-13.346-1.334zm0 3.4c4.327 0 8.823.447 12.67 1.26 8.18 1.735 13.533 7.023 15.072 14.9.94 4.807 1.1 9.8.495 14.433-.68 5.108-2.257 9.47-4.68 12.974-2.076 3.006-5.07 5.785-7.965 8.474l-1.808 1.685c-2.69 2.542-5.41 4.99-7.946 7.226V91.88c0-2.27-1.808-4.1-4.035-4.1-7.146 0-17.126-2.52-21.544-7.18-5.5-5.808-6.875-14.29-7.058-20.378-.177-5.892.73-16.528 8.8-21.59 3.966-2.49 10.36-3.86 18-3.86z" fill="#fff"/><defs><linearGradient id="A" x1="48.104" y1="19.61" x2="105.617" y2="137.433" gradientUnits="userSpaceOnUse"><stop stop-color="#25dde0"/><stop offset=".662" stop-color="#22c6ca"/><stop offset="1" stop-color="#0ac8ff"/></linearGradient></defs></svg>