<svg xmlns="http://www.w3.org/2000/svg" width="247" height="88" fill="none"><path d="M38.632 4.3c5.502 0 11.304.6 16.205 1.6C65.24 8 72.143 14.7 74.144 24.6c1.2 6 1.4 12.3.6 18.1-.9 6.4-2.9 11.9-6.002 16.3-2.7 3.8-6.502 7.3-10.203 10.6-.8.7-1.6 1.4-2.3 2.1-3.4 3.2-6.902 6.3-10.203 9.1V76c0-2.8-2.3-5.2-5.202-5.2-9.103 0-21.907-3.2-27.61-9C6.222 54.5 4.42 43.9 4.22 36.2c-.1-7.4 1-20.7 11.304-27.1C20.626 6 28.83 4.3 38.632 4.3zm0-4.3C29.43 0 19.826 1.5 13.324 5.5 2.82 12-.28 24.7.02 36.4c.3 10.1 3 21 10.203 28.4 6.902 7.1 21.007 10.3 30.6 10.3.4 0 .9.3.9.9v10.2c0 1 .8 1.8 1.8 1.8h.2c.4 0 .7-.2 1-.4 4.902-4.1 9.703-8.4 14.405-12.7 4.502-4.2 9.603-8.4 13.104-13.4 7.402-10.5 8.503-25.4 6.102-37.7-2.4-11.9-10.804-19.6-22.607-22C50.836.7 44.834 0 38.632 0z" fill="#00bcd4"/><path d="M102.653 8.2h15.205c2.8 0 5.402.3 7.702.8s4.302 1.3 6.002 2.4 3 2.5 3.902 4.2 1.4 3.8 1.4 6.2c0 2.8-.8 5.3-2.4 7.5s-4 3.8-7.302 4.6v.3c4.1.6 7.202 2 9.503 4.2s3.4 5.2 3.4 9c0 2.7-.5 5.1-1.5 7.1s-2.4 3.7-4.302 5.1c-1.8 1.4-4 2.4-6.602 3-2.6.7-5.402 1-8.503 1h-16.505V8.2zm14.105 23.7c4.7 0 8.102-.8 10.203-2.5 2.1-1.6 3.1-4 3.1-7.1 0-3-1.1-5.2-3.3-6.6-2.2-1.3-5.402-2-9.703-2h-7.303v18.1h7.003v.1zm1.4 26.2c4.802 0 8.503-.9 11.104-2.7s3.9-4.6 3.9-8.3c0-3.4-1.3-6-3.8-7.6s-6.302-2.4-11.204-2.4h-8.403v21h8.403zm30.7-49.9h6.902v49.5h27.5v6h-34.4V8.2zm24.908 16h26v39.5h-6.903V29.9h-19.106v-5.7zm21.107-6.5c-1.4 0-2.6-.4-3.5-1.3-.9-.8-1.4-2-1.4-3.4s.5-2.6 1.4-3.5 2.1-1.3 3.5-1.3 2.6.4 3.5 1.3 1.4 2 1.4 3.5c0 1.4-.5 2.6-1.4 3.4-.9.9-2.1 1.3-3.5 1.3zm14.605-9.5h17.005c3 0 5.802.3 8.403.8 2.5.6 4.702 1.5 6.502 2.7 1.8 1.3 3.2 2.9 4.1 5 1 2.1 1.5 4.7 1.5 7.7 0 2.9-.5 5.5-1.5 7.6s-2.4 3.9-4.2 5.3-4 2.5-6.502 3.2-5.302 1.1-8.303 1.1H216.5v22h-7.002V8.2zM225.493 36c4.902 0 8.503-.9 10.904-2.7 2.3-1.8 3.5-4.7 3.5-8.7s-1.2-6.8-3.602-8.3-6-2.3-10.803-2.3H216.5v22h9.003z" fill="#546e7a"/></svg>