<svg xmlns="http://www.w3.org/2000/svg" width="128" height="128" fill="none"><path d="M21.366 37.072c.13-.802.326-1.54.75-2.246 2.473.834 4.59 2.343 6.834 3.626l33.847 19.255c.78.45 1.302.45 2.05.032l7.876-4.43 32.936-18.806c.748 1.06 1.01 2.214 1.01 3.498v40.275c0 2.664-1.204 4.75-3.548 6.097l-56.823 32.35c-.358.224-.748.417-1.106.61h-.65c-1.465-.642-1.92-1.765-1.92-3.305l.065-18.1c0-1.027-.293-1.605-1.237-2.15l-16.045-9.082c-2.376-1.316-3.743-3.21-4.068-5.84l.032-41.784z" fill="#f16c00"/><path d="M105.658 34.536L72.722 53.342l-7.876 4.43c-.716.417-1.27.417-2.05-.032L28.95 38.484c-2.246-1.284-4.36-2.792-6.835-3.626.586-1.444 1.725-2.44 3.06-3.177l35.02-19.93c2.44-1.38 4.98-1.476 7.42-.096l35.572 20.25c1.074.6 2.05 1.38 2.473 2.632z" fill="#f90"/></svg>