<svg xmlns="http://www.w3.org/2000/svg" width="128" height="128" fill="none"><path d="M64 117.333c29.455 0 53.333-23.878 53.333-53.333S93.455 10.667 64 10.667 10.667 34.545 10.667 64 34.545 117.333 64 117.333z" fill="url(#A)"/><path fill-rule="evenodd" d="M78.803 29.112L77.23 39.586c-.064.366-1.004.815-1.543.823l-14.02.04c-2.98.003-3.525.505-3.904 3.454l-.86 6.052c-.334 2.144.102 2.712 2.345 2.725l16.122.012-1.316 9.75-3.72 25.804-1.36 8.908c-.08.46-.705 1.177-1.085 1.18l-15.95.007c-.143-.001-.286-.12-.642-.28l1.184-8.352 5.035-34.896c.272-1.892-.13-2.37-2.18-2.382l-18.595-.014 1.288-9.172c.373-2.616.38-2.616 2.973-2.616l16.277.026c1.62.02 2.365-.618 2.57-2.168l1.28-8.6c.07-.413.653-1.054 1.003-1.057l16.11.025c.096.001.19.084.562.258z" fill="#fff"/><defs><linearGradient id="A" x1="64" y1="117.333" x2="39.769" y2="30.542" gradientUnits="userSpaceOnUse"><stop stop-color="#eb6405"/><stop offset="1" stop-color="#ff8d00"/></linearGradient></defs></svg>