<svg xmlns="http://www.w3.org/2000/svg" width="128" height="128" fill="none"><g clip-path="url(#B)"><path d="M64 117.333c29.455 0 53.333-23.878 53.333-53.333S93.455 10.667 64 10.667 10.667 34.545 10.667 64 34.545 117.333 64 117.333z" fill="url(#A)"/><g fill-rule="evenodd" fill="#fff"><path d="M44.807 47.248c-3.927 0-7.11 3.184-7.11 7.11v17.69c0 3.927 3.184 7.11 7.11 7.11h38.386c3.927 0 7.11-3.184 7.11-7.11V54.36c0-3.927-3.184-7.11-7.11-7.11H44.807zm-11.852 7.11c0-6.546 5.306-11.852 11.852-11.852h38.386c6.546 0 11.852 5.306 11.852 11.852v17.69c0 6.546-5.306 11.852-11.852 11.852H44.807c-6.546 0-11.852-5.306-11.852-11.852V54.36z"/><path d="M38.74 50.468c-1 0-1.384 1.392-.546 1.957L62.107 68.94c1.213.838 2.77.85 3.98 0l23.7-16.493c1.168-.75-.02-2.6-1.112-1.77l-23.7 16.493c-.66.463-1.09.46-1.758 0L39.31 50.648c-.172-.117-.366-.18-.572-.18z" stroke="#fff" stroke-width=".5"/></g></g><defs><linearGradient id="A" x1="114.883" y1="103.359" x2="32.259" y2="21.917" gradientUnits="userSpaceOnUse"><stop stop-color="#18a1d6"/><stop offset="1" stop-color="#0ac1ff"/></linearGradient><clipPath id="B"><path fill="#fff" d="M10.667 10.667h106.667v106.667H10.667z"/></clipPath></defs></svg>