<svg xmlns="http://www.w3.org/2000/svg" width="128" height="128" fill="none"><path fill="#fff" d="M34.417 32.02h56.996v66.452H34.417z"/><path fill-rule="evenodd" d="M84.776 84.826c-1.872 2.66-4.613 4.75-8.223 6.25-3.608 1.515-7.885 2.266-12.832 2.266-5.933 0-10.823-1.03-14.68-3.09-2.728-1.48-4.952-3.464-6.662-5.938s-2.56-4.88-2.56-7.22c0-1.353.51-2.516 1.536-3.48 1.024-.973 2.33-1.455 3.915-1.455 1.285 0 2.375.375 3.26 1.133.89.755 1.65 1.868 2.274 3.353.768 1.758 1.593 3.23 2.484 4.408.885 1.182 2.14 2.158 3.746 2.923 1.615.762 3.736 1.15 6.358 1.15 3.607 0 6.54-.768 8.795-2.318 2.253-1.54 3.386-3.473 3.386-5.785 0-1.832-.612-3.326-1.826-4.462-1.218-1.146-2.8-2.018-4.717-2.62s-4.503-1.247-7.73-1.924c-4.32-.924-7.934-2.018-10.842-3.26s-5.223-2.94-6.93-5.087-2.562-4.82-2.562-8.008c0-3.044.898-5.742 2.707-8.102 1.803-2.363 4.4-4.18 7.832-5.45s7.434-1.9 12.053-1.9c3.688 0 6.88.423 9.573 1.26 2.692.843 4.922 1.963 6.7 3.356s3.08 2.858 3.896 4.39c.82 1.526 1.23 3.03 1.23 4.48 0 1.33-.51 2.54-1.537 3.603s-2.3 1.606-3.83 1.606c-1.398 0-2.458-.323-3.18-.965s-1.512-1.69-2.356-3.147c-1.095-2.084-2.402-3.712-3.94-4.877-1.53-1.172-3.987-1.754-7.38-1.754-3.138 0-5.676.628-7.603 1.9-1.928 1.266-2.892 2.796-2.892 4.58 0 1.1.332 2.06.986 2.865s1.556 1.49 2.707 2.07a19.55 19.55 0 0 0 3.481 1.361c1.176.326 3.116.8 5.828 1.43 3.385.73 6.45 1.536 9.2 2.412 2.747.882 5.084 1.95 7.012 3.2 1.927 1.26 3.432 2.852 4.51 4.775 1.078 1.918 1.62 4.275 1.62 7.064 0 3.34-.94 6.342-2.81 9.007zM110.14 64.12c0-26.26-21.29-47.548-47.55-47.548-2.456 0-4.847.237-7.204.598-4.74-4.046-10.88-6.5-17.602-6.5-14.972 0-27.116 12.14-27.116 27.12 0 6.1 2.05 11.73 5.464 16.265-.698 3.252-1.1 6.615-1.1 10.075 0 26.266 21.285 47.555 47.548 47.555a47.61 47.61 0 0 0 9.841-1.038c4.762 4.16 10.977 6.69 17.788 6.69 14.976 0 27.116-12.138 27.116-27.112 0-7.406-2.97-14.108-7.785-18.997.35-2.328.59-4.68.59-7.097z" fill="#00aff0"/></svg>