<svg xmlns="http://www.w3.org/2000/svg" width="128" height="128" fill="none"><path fill-rule="evenodd" d="M111.135 68.3c-2.095 11.462-10.826 36.79-47.224 49.034 0 0 2.55-3.667 3.874-9.922a47.9 47.9 0 0 1-3.785.149c-26.467 0-48-21.733-48-48.447s21.532-48.447 48-48.447 48 21.733 48 48.447a48.95 48.95 0 0 1-.865 9.186z" fill="url(#A)"/><path d="M47.16 53.997c-.376-.493-.9-.9-1.606-1.223-.676-.34-1.362-.512-2.057-.512-.413 0-.827.057-1.24.17-.413.095-.8.256-1.127.484a2.6 2.6 0 0 0-.845.853c-.207.34-.3.758-.3 1.252 0 .455.094.844.282 1.166a2.64 2.64 0 0 0 .76.825c.338.227.742.427 1.212.597l1.55.512 1.973.7a7.35 7.35 0 0 1 1.888 1.052 4.99 4.99 0 0 1 1.41 1.65c.376.664.564 1.5.564 2.475 0 1.08-.197 2.03-.592 2.844-.395.797-.92 1.46-1.578 2s-1.428.93-2.3 1.195a9.64 9.64 0 0 1-2.79.398 10.57 10.57 0 0 1-3.805-.711c-1.24-.493-2.255-1.214-3.044-2.162l2.536-2.4c.488.683 1.137 1.223 1.944 1.62.827.398 1.635.597 2.424.597a5.91 5.91 0 0 0 1.268-.142 3.43 3.43 0 0 0 1.155-.54 2.84 2.84 0 0 0 .846-.9c.226-.38.338-.844.338-1.394 0-.53-.122-.967-.366-1.308-.244-.36-.573-.664-.986-.9-.413-.265-.902-.493-1.465-.683l-1.776-.597-1.804-.683a6.2 6.2 0 0 1-1.635-1.052c-.47-.436-.855-.967-1.155-1.593-.3-.645-.45-1.44-.45-2.4 0-1.024.207-1.906.62-2.645a5.69 5.69 0 0 1 1.663-1.82c.695-.493 1.475-.853 2.34-1.08.883-.247 1.776-.37 2.677-.37 1.015 0 2.038.18 3.072.54 1.052.36 1.963.9 2.734 1.62l-2.3 2.56zm6-4.2h5.552l5.185 14.308h.085l5.13-14.308h5.58v20.14H71.18V53.74h-.056l-6.06 16.185h-2.48L56.607 53.74h-.056v16.185h-3.38v-20.14zm36.098 4.2c-.376-.493-.9-.9-1.606-1.223-.676-.34-1.362-.512-2.057-.512-.413 0-.827.057-1.24.17-.413.095-.8.256-1.127.484a2.6 2.6 0 0 0-.845.853c-.207.34-.3.758-.3 1.252 0 .455.094.844.282 1.166s.442.597.76.825c.338.227.742.427 1.212.597l1.55.512 1.973.7c.695.266 1.325.616 1.888 1.052a4.99 4.99 0 0 1 1.41 1.65c.376.664.564 1.5.564 2.475 0 1.08-.197 2.03-.592 2.844-.395.797-.92 1.46-1.578 2s-1.428.93-2.3 1.195a9.64 9.64 0 0 1-2.79.398 10.57 10.57 0 0 1-3.804-.711c-1.24-.493-2.255-1.214-3.044-2.162l2.536-2.4c.5.683 1.137 1.223 1.944 1.62.827.398 1.635.597 2.424.597a5.91 5.91 0 0 0 1.268-.142 3.42 3.42 0 0 0 1.156-.541c.357-.246.64-.55.845-.9.225-.38.338-.844.338-1.394 0-.53-.122-.967-.366-1.308-.244-.36-.573-.664-.986-.9-.413-.265-.902-.493-1.466-.683l-1.775-.597-1.804-.683a6.2 6.2 0 0 1-1.635-1.052c-.47-.436-.855-.967-1.155-1.593-.3-.645-.45-1.44-.45-2.4 0-1.024.207-1.906.62-2.645a5.69 5.69 0 0 1 1.663-1.82c.695-.493 1.475-.853 2.34-1.08.883-.247 1.776-.37 2.677-.37 1.014 0 2.038.18 3.072.54 1.052.36 1.963.9 2.734 1.62l-2.3 2.56z" fill="#fff"/><defs><linearGradient id="A" x1="38.635" y1="92.471" x2="115.401" y2="41.933" gradientUnits="userSpaceOnUse"><stop stop-color="#4063b0"/><stop offset="1" stop-color="#3f7be1"/></linearGradient></defs></svg>