<svg xmlns="http://www.w3.org/2000/svg" width="128" height="128" fill="none"><g clip-path="url(#E)"><path d="M64.207 116.92c29.34 0 53.126-23.786 53.126-53.127S93.548 10.667 64.207 10.667 11.08 34.452 11.08 63.793s23.786 53.127 53.127 53.127z" fill="url(#B)"/><g fill-rule="evenodd"><path d="M48.29 67.307L53.6 82.485c.075.215.31.33.527.254.135-.047.235-.16.267-.3l2.577-11.41 24.806-23.98-30.594 15.297-2.894 4.96z" fill="url(#C)"/><path d="M54.947 82.833l12.36-8.497-4.134-6.202-6.202 2.48-2.66 11.787c-.05.223.09.444.312.494.112.025.23.003.325-.063z" fill="#a9c9dd"/></g><g filter="url(#A)"><path fill-rule="evenodd" d="M49.116 69.375L77.23 49.943l-5.375-.827-22.74 16.124v4.134z" fill="#b8cee1"/></g><path fill-rule="evenodd" d="M38.78 60.12l45.117-16.964c.855-.32 1.808.11 2.13.966.112.298.136.622.068.933L77.773 83.41c-.194.893-1.074 1.46-1.967 1.265-.23-.05-.445-.147-.633-.287L57.348 71.2c-.367-.272-.444-.79-.173-1.156.028-.038.06-.074.094-.106l19.133-18.263c.33-.315.343-.84.027-1.17-.28-.293-.732-.34-1.066-.11L49.916 67.87c-.24.164-.548.19-.812.07l-10.43-4.768c-.83-.38-1.196-1.36-.816-2.192.182-.397.513-.707.922-.86z" fill="url(#D)"/></g><defs><filter id="A" x="45.718" y="45.718" width="34.911" height="27.055" filterUnits="userSpaceOnUse" color-interpolation-filters="sRGB"><feFlood flood-opacity="0"/><feBlend in="SourceGraphic"/><feGaussianBlur stdDeviation="1.699"/></filter><linearGradient id="B" x1="64.207" y1="10.667" x2="64.207" y2="116.92" gradientUnits="userSpaceOnUse"><stop stop-color="#39b0e3"/><stop offset="1" stop-color="#1c93d2"/></linearGradient><linearGradient id="C" x1="62.102" y1="54.656" x2="65.345" y2="60.645" gradientUnits="userSpaceOnUse"><stop stop-color="#c1d5e7"/><stop offset="1" stop-color="#c8daea"/></linearGradient><linearGradient id="D" x1="86.133" y1="43.05" x2="32.866" y2="80.659" gradientUnits="userSpaceOnUse"><stop stop-color="#f8fcfe"/><stop offset="1" stop-color="#e3f1f9"/></linearGradient><clipPath id="E"><path fill="#fff" d="M10.667 10.667h106.667v106.667H10.667z"/></clipPath></defs></svg>