<svg xmlns="http://www.w3.org/2000/svg" width="128" height="128" fill="none"><path fill-rule="evenodd" d="M35.885 103.638l-18.107 6.584 7.195-17.267C18.963 84.868 15.408 74.85 15.408 64c0-26.837 21.756-48.593 48.593-48.593S112.593 37.163 112.593 64 90.837 112.593 64 112.593a48.37 48.37 0 0 1-28.115-8.955z" fill="url(#A)"/><path d="M117.333 62.626c0 28.697-23.442 51.96-52.364 51.96-9.182 0-17.807-2.347-25.312-6.465l-28.99 9.212 9.452-27.878a51.41 51.41 0 0 1-7.514-26.829c0-28.697 23.444-51.96 52.365-51.96s52.364 23.263 52.364 51.96zM64.97 18.942c-24.277 0-44.025 19.597-44.025 43.685 0 9.56 3.116 18.41 8.386 25.612l-5.5 16.224 16.92-5.377c6.95 4.564 15.278 7.226 24.222 7.226 24.274 0 44.025-19.595 44.025-43.682S89.246 18.942 64.97 18.942zm26.443 55.652c-.324-.53-1.178-.85-2.46-1.486s-7.597-3.72-8.77-4.142-2.035-.638-2.89.637-3.315 4.142-4.065 4.992-1.497.96-2.782.32-5.417-1.983-10.32-6.32c-3.815-3.375-6.392-7.543-7.14-8.82s-.078-1.963.563-2.597c.578-.57 1.285-1.487 1.926-2.23s.857-1.274 1.282-2.125.216-1.593-.107-2.232-2.89-6.904-3.96-9.454-2.137-2.124-2.887-2.124-1.605-.107-2.46-.107-2.247.32-3.424 1.593-4.49 4.357-4.49 10.623 4.597 12.322 5.24 13.17S53.545 78.42 66.594 83.52s13.05 3.397 15.404 3.183 7.592-3.08 8.666-6.053c1.067-2.977 1.067-5.527.748-6.058z" fill="#fff"/><defs><linearGradient id="A" x1="64" y1="15.407" x2="64" y2="112.593" gradientUnits="userSpaceOnUse"><stop stop-color="#5cfb7a"/><stop offset="1" stop-color="#00b824"/></linearGradient></defs></svg>