<svg xmlns="http://www.w3.org/2000/svg" width="128" height="128" fill="none"><g fill-rule="evenodd"><path d="M35.137 108.856l-21.99 5.997 4.79-23.952c-4.622-7.897-7.27-17.09-7.27-26.9 0-29.455 23.878-53.333 53.333-53.333S117.333 34.545 117.333 64 93.455 117.333 64 117.333c-10.635 0-20.544-3.113-28.864-8.477z" fill="url(#A)"/><path d="M62.745 23.07h5.986c10.98 1.023 21.386 7.132 27.23 16.536 8.442 12.842 7.275 31.19-2.978 42.7-2.844 3.316-8.667 2.477-10.406-1.544-2.876-6.274-5.147-12.812-7.848-19.156l-7.48 18.5c-1.155 3.255-5.075 5.352-8.33 3.848-2.466-.92-3.622-3.448-4.553-5.7L43.294 50.73l8.974-.01 8.964 22.143 6.65-16.648c.992-2.497 2.292-5.3 5.086-6.15 3.08-1.156 6.416 1.034 7.582 3.878 2.957 6.692 5.423 13.6 8.3 20.323 2.906-4.954 4.738-10.612 4.42-16.413C92.962 45.1 82.628 33.476 70 31.717c-15.032-2.272-30.34 8.033-34.668 22.46-4.247 12.77.583 27.73 11.328 35.773 7.766 6.252 18.44 8.268 27.996 5.494l-.01 8.555-5.362.93h-6.12c-10.304-.982-20.27-5.68-27.126-13.506-6.1-6.66-9.527-15.41-10.478-24.333v-5.864c.84-9.045 4.328-17.917 10.49-24.67 6.763-7.726 16.577-12.35 26.707-13.487z" fill="#fff"/></g><defs><linearGradient id="A" x1="64" y1="10.667" x2="64" y2="117.333" gradientUnits="userSpaceOnUse"><stop stop-color="#03c9ff"/><stop offset="1" stop-color="#0780fc"/></linearGradient></defs></svg>