<?xml version="1.0" standalone="no"?>
<svg width="512px" height="512px" version="1.1" xmlns="http://www.w3.org/2000/svg">
<path transform="scale(1, -1) translate(0, -512)" glyph-name="config" unicode="&#113;" d="M256 171c-47 0-85 38-85 85 0 47 38 85 85 85 47 0 85-38 85-85 0-47-38-85-85-85z m239 25l-40 23c3 12 4 24 4 37 0 13-1 25-4 37l40 23c16 10 22 31 12 47l-33 59c-10 16-30 22-47 13l-40-24c-18 16-40 29-63 38l0 29c0 19-15 34-34 34l-68 0c-19 0-34-15-34-34l0-29c-23-9-45-22-63-38l-40 24c-17 9-37 3-47-13l-33-59c-10-16-4-37 12-47l40-23c-3-12-4-24-4-37 0-13 1-25 4-37l-40-23c-16-10-22-31-12-47l33-59c10-16 30-22 47-13l40 24c18-16 40-29 63-38l0-29c0-19 15-34 34-34l68 0c19 0 34 15 34 34l0 29c23 9 45 22 63 38l40-24c17-9 37-3 47 13l33 59c10 16 4 37-12 47z m-239 111c-28 0-51-23-51-51 0-28 23-51 51-51 28 0 51 23 51 51 0 28-23 51-51 51z"/>
</svg>