<?xml version="1.0" encoding="UTF-8"?>
<svg width="31px" height="24px" viewBox="0 0 31 24" version="1.1" xmlns="http://www.w3.org/2000/svg" xmlns:xlink="http://www.w3.org/1999/xlink">
    <!-- Generator: Sketch 48 (47235) - http://www.bohemiancoding.com/sketch -->
    <title>Code</title>
    <desc>Created with Sketch.</desc>
    <defs></defs>
    <g id="Builder-/-Setup---2" stroke="none" stroke-width="1" fill="none" fill-rule="evenodd">
        <g id="Code">
            <g id="Group-15-Copy-2" transform="translate(2.000000, 4.000000)">
                <rect id="Rectangle-3-Copy" fill="#0CC8CC" x="0" y="0" width="27" height="17" rx="4"></rect>
                <g id="Group-24-Copy" transform="translate(5.000000, 4.000000)" fill="#B0F6F8" fill-rule="nonzero">
                    <path d="M17.4106482,4.06501402 L13.1396131,0.147160525 C12.906621,-0.0665268688 12.5499311,-0.0449319817 12.3427792,0.195227994 C12.1355843,0.435476656 12.1564371,0.803432247 12.3893862,1.0170753 L16.1861819,4.50001575 L12.3893432,7.98291186 C12.1563941,8.19655491 12.1354983,8.5645105 12.3427362,8.80475916 C12.4542663,8.93410677 12.6090927,9 12.7647361,9 C12.8981079,9 13.0321246,8.9514891 13.1396561,8.85282663 L17.4106912,4.93497314 C17.5311643,4.82447117 17.6,4.66621213 17.6,4.50001575 C17.599957,4.33381937 17.5310784,4.17547165 17.4106482,4.06501402 Z" id="Shape"></path>
                    <path d="M5.21068924,7.98291231 L1.41377223,4.50010643 L5.21060325,1.01721186 C5.44350892,0.803524561 5.46444764,0.43552479 5.25721018,0.195276234 C5.05001572,-0.0449723207 4.69328352,-0.0665228556 4.46033486,0.147208786 L0.189308409,4.06506055 C0.0689215035,4.17556247 0,4.33382144 0,4.50001774 C0,4.66621405 0.0689215035,4.82451736 0.189308409,4.93497494 L4.46033486,8.8528267 C4.56786616,8.95148913 4.70179659,9 4.83529707,9 C4.99085415,9 5.1457663,8.93406246 5.25729617,8.80475925 C5.46449064,8.56451069 5.44359491,8.19655527 5.21068924,7.98291231 Z" id="Shape"></path>
                    <path d="M10.1875036,0.0244275887 C9.8810265,-0.0661740968 9.55650577,0.103061383 9.46354548,0.402863527 L7.02508485,8.26818724 C6.93212456,8.56803259 7.10557377,8.88468484 7.41244886,8.97550255 C7.46861421,8.99205021 7.52517758,9 7.58098913,9 C7.83010677,9 8.06042893,8.84204112 8.13645116,8.59706661 L10.5749118,0.731742893 C10.6678721,0.431897544 10.4944671,0.115245301 10.1875036,0.0244275887 Z" id="Shape"></path>
                </g>
            </g>
        </g>
    </g>
</svg>