<?xml version="1.0" encoding="UTF-8"?>
<svg width="25px" height="18px" viewBox="0 0 25 18" version="1.1" xmlns="http://www.w3.org/2000/svg" xmlns:xlink="http://www.w3.org/1999/xlink">
    <!-- Generator: Sketch 49 (51002) - http://www.bohemiancoding.com/sketch -->
    <title>NewBox</title>
    <desc>Created with Sketch.</desc>
    <defs>
        <path d="M14.9499909,15 C14.9827849,14.838445 15,14.6712329 15,14.5 C15,13.1192881 13.8807119,12 12.5,12 C11.1192881,12 10,13.1192881 10,14.5 C10,14.6712329 10.0172151,14.838445 10.0500091,15 L4,15 C2.8954305,15 2,14.1045695 2,13 L2,4 C2,2.8954305 2.8954305,2 4,2 L21,2 C22.1045695,2 23,2.8954305 23,4 L23,13 C23,14.1045695 22.1045695,15 21,15 L14.9499909,15 Z M5.75,9.25 L19.3399963,9.25 C19.7542099,9.25 20.0899963,8.91421356 20.0899963,8.5 C20.0899963,8.08578644 19.7542099,7.75 19.3399963,7.75 L5.75,7.75 C5.33578644,7.75 5,8.08578644 5,8.5 C5,8.91421356 5.33578644,9.25 5.75,9.25 Z" id="path-1"></path>
    </defs>
    <g id="NewBox" stroke="none" stroke-width="1" fill="none" fill-rule="evenodd">
        <g id="Combined-Shape">
            <use fill="#FFF" fill-rule="evenodd" xlink:href="#path-1"></use>
            <path stroke="#FFF" stroke-width="1.5" d="M15.7405276,14.25 L21,14.25 C21.6903559,14.25 22.25,13.6903559 22.25,13 L22.25,4 C22.25,3.30964406 21.6903559,2.75 21,2.75 L4,2.75 C3.30964406,2.75 2.75,3.30964406 2.75,4 L2.75,13 C2.75,13.6903559 3.30964406,14.25 4,14.25 L9.25947241,14.25 C9.38712863,12.5718881 10.7891926,11.25 12.5,11.25 C14.2108074,11.25 15.6128714,12.5718881 15.7405276,14.25 Z M5.75,10 C4.92157288,10 4.25,9.32842712 4.25,8.5 C4.25,7.67157288 4.92157288,7 5.75,7 L19.3399963,7 C20.1684235,7 20.8399963,7.67157288 20.8399963,8.5 C20.8399963,9.32842712 20.1684235,10 19.3399963,10 L5.75,10 Z"></path>
        </g>
        <circle id="Oval-2-Copy-2" fill="#FFF" cx="12.5" cy="14.5" r="1.5"></circle>
    </g>
</svg>