<?xml version="1.0" encoding="UTF-8"?>
<svg width="32px" height="24px" viewBox="0 0 32 24" version="1.1" xmlns="http://www.w3.org/2000/svg" xmlns:xlink="http://www.w3.org/1999/xlink">
    <!-- Generator: Sketch 48 (47235) - http://www.bohemiancoding.com/sketch -->
    <title>Redirect</title>
    <desc>Created with Sketch.</desc>
    <defs>
        <rect id="path-1" x="0" y="0" width="30" height="18.9473684" rx="5"></rect>
    </defs>
    <g id="Builder-/-Setup---2" stroke="none" stroke-width="1" fill="none" fill-rule="evenodd">
        <g id="Redirect">
            <g id="Group-17" transform="translate(1.000000, 2.000000)">
                <g id="Group-18">
                    <g id="Rectangle-3-Copy">
                        <use fill="#B0F6F8" fill-rule="evenodd" xlink:href="#path-1"></use>
                        <rect stroke="#0CC8CC" stroke-width="1" x="0.5" y="0.5" width="29" height="17.9473684" rx="5"></rect>
                    </g>
                </g>
                <g id="Group-19-Copy" transform="translate(5.000000, 3.000000)" fill="#0CC8CC" fill-rule="nonzero" stroke="#0CC8CC" stroke-width="0.5">
                    <g id="return" transform="translate(7.000000, 0.000000)">
                        <path d="M9.0195278,2.60728268 C9.00316845,2.60728268 0.846110089,2.60728268 0.846110089,2.60728268 L2.5646857,0.541477654 C2.67613085,0.407505848 2.66520899,0.202023763 2.54028729,0.0825048259 C2.41541248,-0.036988976 2.22376432,-0.0253261396 2.11231917,0.108670802 L0.176806382,2.43520557 C-0.0589510851,2.71868288 -0.0589276476,3.14608561 0.17682982,3.42948751 L2.11234261,5.75604742 C2.17224877,5.8280604 2.25524084,5.86470785 2.3386079,5.86470785 C2.4104203,5.86470785 2.4824905,5.83748619 2.54031073,5.78221339 C2.66523242,5.66269445 2.67613085,5.45721237 2.56470913,5.32324056 L0.846133527,3.2574104 C0.846133527,3.2574104 9.00316845,3.2574104 9.01955124,3.2574104 C10.3287212,3.2574104 11.3937665,4.39966457 11.3937665,5.80362877 C11.3937665,7.20759297 10.3286978,8.34984714 9.01955124,8.34984714 L7.57627211,8.34984714 C7.40885829,8.34984714 7.27315536,8.49540638 7.27315536,8.67492357 C7.27315536,8.85444076 7.40885829,9 7.57627211,9 L9.01955124,9 C10.6629863,9 12,7.56612465 12,5.80362877 C11.9999766,4.04115803 10.6629629,2.60728268 9.0195278,2.60728268 Z" id="Shape"></path>
                    </g>
                    <g id="return-copy" transform="translate(6.000000, 8.500000) scale(-1, -1) translate(-6.000000, -8.500000) translate(0.000000, 4.000000)">
                        <path d="M9.0195278,2.60728268 C9.00316845,2.60728268 0.846110089,2.60728268 0.846110089,2.60728268 L2.5646857,0.541477654 C2.67613085,0.407505848 2.66520899,0.202023763 2.54028729,0.0825048259 C2.41541248,-0.036988976 2.22376432,-0.0253261396 2.11231917,0.108670802 L0.176806382,2.43520557 C-0.0589510851,2.71868288 -0.0589276476,3.14608561 0.17682982,3.42948751 L2.11234261,5.75604742 C2.17224877,5.8280604 2.25524084,5.86470785 2.3386079,5.86470785 C2.4104203,5.86470785 2.4824905,5.83748619 2.54031073,5.78221339 C2.66523242,5.66269445 2.67613085,5.45721237 2.56470913,5.32324056 L0.846133527,3.2574104 C0.846133527,3.2574104 9.00316845,3.2574104 9.01955124,3.2574104 C10.3287212,3.2574104 11.3937665,4.39966457 11.3937665,5.80362877 C11.3937665,7.20759297 10.3286978,8.34984714 9.01955124,8.34984714 L7.57627211,8.34984714 C7.40885829,8.34984714 7.27315536,8.49540638 7.27315536,8.67492357 C7.27315536,8.85444076 7.40885829,9 7.57627211,9 L9.01955124,9 C10.6629863,9 12,7.56612465 12,5.80362877 C11.9999766,4.04115803 10.6629629,2.60728268 9.0195278,2.60728268 Z" id="Shape"></path>
                    </g>
                </g>
            </g>
        </g>
    </g>
</svg>