<svg width="72" height="72" viewBox="0 0 72 72" xmlns="http://www.w3.org/2000/svg">
<path d="M52.75 10.91H22.51C21.2502 10.91 20.042 11.4105 19.1512 12.3013C18.2604 13.1921 17.76 14.4003 17.76 15.66V17.28H11.66C10.9969 17.28 10.361 17.5434 9.89221 18.0123C9.42337 18.4811 9.15997 19.117 9.15997 19.78C9.15997 20.4431 9.42337 21.079 9.89221 21.5478C10.361 22.0166 10.9969 22.28 11.66 22.28H17.76V32.58H11.66C10.9969 32.58 10.361 32.8434 9.89221 33.3123C9.42337 33.7811 9.15997 34.417 9.15997 35.08C9.15997 35.7431 9.42337 36.379 9.89221 36.8478C10.361 37.3166 10.9969 37.58 11.66 37.58H17.76V47.88H11.66C10.9969 47.88 10.361 48.1434 9.89221 48.6123C9.42337 49.0811 9.15997 49.717 9.15997 50.38C9.15997 51.0431 9.42337 51.679 9.89221 52.1478C10.361 52.6166 10.9969 52.88 11.66 52.88H17.76V56.34C17.76 57.5998 18.2604 58.808 19.1512 59.6988C20.042 60.5896 21.2502 61.09 22.51 61.09H52.75C55.2926 61.0874 57.7303 60.0762 59.5282 58.2783C61.3261 56.4804 62.3373 54.0426 62.34 51.5V20.5C62.3373 17.9574 61.3261 15.5197 59.5282 13.7218C57.7303 11.9239 55.2926 10.9127 52.75 10.91ZM58.34 51.5C58.34 52.9826 57.751 54.4044 56.7027 55.4528C55.6544 56.5011 54.2325 57.09 52.75 57.09H22.51C22.3111 57.09 22.1203 57.011 21.9796 56.8704C21.839 56.7297 21.76 56.5389 21.76 56.34V15.66C21.76 15.4611 21.839 15.2704 21.9796 15.1297C22.1203 14.9891 22.3111 14.91 22.51 14.91H52.75C54.2325 14.91 55.6544 15.499 56.7027 16.5473C57.751 17.5956 58.34 19.0175 58.34 20.5V51.5Z"/>
<path d="M39.24 36.09C40.4148 36.09 41.5632 35.7416 42.5401 35.0889C43.5169 34.4362 44.2782 33.5085 44.7278 32.4231C45.1774 31.3377 45.295 30.1434 45.0659 28.9911C44.8367 27.8389 44.2709 26.7805 43.4402 25.9497C42.6095 25.119 41.5511 24.5533 40.3988 24.3241C39.2466 24.0949 38.0522 24.2125 36.9669 24.6621C35.8815 25.1117 34.9538 25.873 34.3011 26.8499C33.6484 27.8267 33.3 28.9751 33.3 30.15C33.3 30.93 33.4536 31.7024 33.7521 32.4231C34.0507 33.1438 34.4882 33.7986 35.0398 34.3502C35.5914 34.9018 36.2462 35.3393 36.9669 35.6378C37.6875 35.9363 38.4599 36.09 39.24 36.09Z"/>
<path d="M40.38 38.3399H38.1C35.7343 38.3399 33.4654 39.2797 31.7926 40.9525C30.1198 42.6254 29.18 44.8942 29.18 47.2599V49.2599C29.18 49.5464 29.2938 49.8211 29.4963 50.0236C29.6989 50.2261 29.9736 50.3399 30.26 50.3399H48.26C48.5464 50.3399 48.8211 50.2261 49.0237 50.0236C49.2262 49.8211 49.34 49.5464 49.34 49.2599V47.2599C49.34 46.0852 49.108 44.922 48.6572 43.8371C48.2064 42.7523 47.5458 41.7672 46.7133 40.9384C45.8807 40.1095 44.8927 39.4533 43.8058 39.0074C42.719 38.5615 41.5547 38.3347 40.38 38.3399Z"/>
</svg>
