<svg width="72" height="72" viewBox="0 0 72 72" xmlns="http://www.w3.org/2000/svg">
<path d="M58 11.08H30.19C29.0593 11.08 27.9747 11.5285 27.1742 12.3271C26.3737 13.1257 25.9227 14.2092 25.92 15.34V43.14C25.92 44.2724 26.3699 45.3585 27.1707 46.1593C27.9715 46.9601 29.0576 47.41 30.19 47.41H58C59.1317 47.4073 60.2163 46.9566 61.0165 46.1564C61.8167 45.3562 62.2674 44.2716 62.27 43.14V15.34C62.2674 14.2092 61.8164 13.1257 61.0159 12.3271C60.2154 11.5285 59.1308 11.08 58 11.08ZM58.27 43.14C58.27 43.2116 58.2416 43.2802 58.191 43.3309C58.1403 43.3815 58.0717 43.41 58 43.41H30.19C30.1184 43.41 30.0498 43.3815 29.9991 43.3309C29.9485 43.2802 29.92 43.2116 29.92 43.14V15.34C29.9226 15.2701 29.9522 15.204 30.0026 15.1555C30.0529 15.107 30.1201 15.0799 30.19 15.08H58C58.07 15.0799 58.1372 15.107 58.1875 15.1555C58.2379 15.204 58.2675 15.2701 58.27 15.34V43.14Z"/>
<path d="M44.08 50C43.5495 50 43.0408 50.2107 42.6658 50.5858C42.2907 50.9608 42.08 51.4695 42.08 52V56.65C42.0774 56.7198 42.0478 56.786 41.9974 56.8345C41.9471 56.8829 41.8799 56.91 41.81 56.91H14C13.9301 56.91 13.8629 56.8829 13.8125 56.8345C13.7622 56.786 13.7326 56.7198 13.73 56.65V28.86C13.73 28.7884 13.7584 28.7197 13.8091 28.669C13.8597 28.6184 13.9284 28.59 14 28.59H21.24C21.7704 28.59 22.2791 28.3793 22.6542 28.0042C23.0293 27.6291 23.24 27.1204 23.24 26.59C23.24 26.0595 23.0293 25.5508 22.6542 25.1758C22.2791 24.8007 21.7704 24.59 21.24 24.59H14C12.8683 24.5926 11.7838 25.0433 10.9836 25.8435C10.1833 26.6437 9.73262 27.7283 9.72998 28.86V56.66C9.73263 57.7907 10.1837 58.8742 10.9842 59.6728C11.7847 60.4715 12.8692 60.92 14 60.92H41.81C42.9407 60.92 44.0253 60.4715 44.8258 59.6728C45.6263 58.8742 46.0773 57.7907 46.08 56.66V52C46.08 51.4695 45.8693 50.9608 45.4942 50.5858C45.1191 50.2107 44.6104 50 44.08 50Z"/>
</svg>
