<svg width="72" height="72" viewBox="0 0 72 72" xmlns="http://www.w3.org/2000/svg">
<path d="M36 34.35C33.6266 34.35 31.3066 33.6462 29.3332 32.3276C27.3598 31.009 25.8217 29.1349 24.9135 26.9422C24.0052 24.7495 23.7676 22.3367 24.2306 20.0089C24.6936 17.6811 25.8365 15.5429 27.5147 13.8647C29.193 12.1865 31.3311 11.0436 33.6589 10.5806C35.9867 10.1175 38.3995 10.3552 40.5922 11.2634C42.7849 12.1717 44.6591 13.7097 45.9776 15.6831C47.2962 17.6565 48 19.9766 48 22.35C48 25.5326 46.7357 28.5848 44.4853 30.8353C42.2348 33.0857 39.1826 34.35 36 34.35ZM36 14.35C34.4178 14.35 32.871 14.8192 31.5554 15.6982C30.2399 16.5773 29.2145 17.8267 28.609 19.2885C28.0035 20.7503 27.845 22.3589 28.1537 23.9107C28.4624 25.4626 29.2243 26.888 30.3432 28.0068C31.462 29.1257 32.8874 29.8876 34.4393 30.1963C35.9911 30.5049 37.5997 30.3465 39.0615 29.741C40.5233 29.1355 41.7727 28.1101 42.6518 26.7945C43.5308 25.4789 44 23.9322 44 22.35C43.9947 20.2317 43.1495 18.202 41.6498 16.7061C40.1501 15.2101 38.1183 14.37 36 14.37V14.35Z"/>
<path d="M51.09 61.63H20.91C19.8977 61.6273 18.9276 61.224 18.2118 60.5082C17.4959 59.7924 17.0926 58.8223 17.09 57.81V54.48C17.09 49.9713 18.8811 45.6473 22.0692 42.4592C25.2573 39.271 29.5813 37.48 34.09 37.48H37.93C42.4387 37.48 46.7627 39.271 49.9508 42.4592C53.1389 45.6473 54.93 49.9713 54.93 54.48V57.81C54.9287 58.3129 54.8283 58.8107 54.6346 59.2749C54.4409 59.7391 54.1577 60.1606 53.8011 60.5153C53.4446 60.87 53.0216 61.151 52.5564 61.3423C52.0913 61.5335 51.593 61.6313 51.09 61.63ZM21.09 57.63H50.91V54.48C50.91 51.0322 49.5404 47.7256 47.1024 45.2876C44.6644 42.8496 41.3578 41.48 37.91 41.48H34.08C30.6322 41.48 27.3256 42.8496 24.8876 45.2876C22.4496 47.7256 21.08 51.0322 21.08 54.48L21.09 57.63Z"/>
</svg>
