<svg width="72" height="72" viewBox="0 0 72 72" xmlns="http://www.w3.org/2000/svg">
<path d="M30.2 34.35C32.5734 34.35 34.8934 33.6462 36.8668 32.3276C38.8402 31.009 40.3783 29.1349 41.2866 26.9422C42.1948 24.7495 42.4324 22.3367 41.9694 20.0089C41.5064 17.6811 40.3635 15.5429 38.6853 13.8647C37.007 12.1865 34.8689 11.0436 32.5411 10.5806C30.2133 10.1175 27.8005 10.3552 25.6078 11.2634C23.4151 12.1717 21.5409 13.7097 20.2224 15.6831C18.9038 17.6565 18.2 19.9766 18.2 22.35C18.2 25.5326 19.4643 28.5848 21.7147 30.8353C23.9652 33.0857 27.0174 34.35 30.2 34.35ZM30.2 14.35C31.7822 14.35 33.329 14.8192 34.6446 15.6982C35.9602 16.5773 36.9855 17.8267 37.591 19.2885C38.1965 20.7503 38.355 22.3589 38.0463 23.9107C37.7376 25.4626 36.9757 26.888 35.8568 28.0068C34.738 29.1257 33.3126 29.8876 31.7607 30.1963C30.2089 30.5049 28.6003 30.3465 27.1385 29.741C25.6767 29.1355 24.4273 28.1101 23.5482 26.7945C22.6692 25.4789 22.2 23.9322 22.2 22.35C22.2053 20.2317 23.0505 18.202 24.5502 16.7061C26.0499 15.2101 28.0817 14.37 30.2 14.37V14.35Z"/>
<path d="M50.25 51.18L44.84 56.27L42.84 54.44C42.647 54.2614 42.4206 54.1225 42.1739 54.0314C41.9272 53.9403 41.665 53.8986 41.4022 53.9089C41.1394 53.9191 40.8812 53.9809 40.6424 54.0909C40.4035 54.201 40.1886 54.3569 40.01 54.55C39.8314 54.743 39.6926 54.9693 39.6015 55.216C39.5103 55.4627 39.4687 55.725 39.4789 55.9878C39.4891 56.2505 39.551 56.5087 39.661 56.7476C39.771 56.9865 39.927 57.2014 40.12 57.38L43.46 60.48C43.8304 60.8217 44.3161 61.0109 44.82 61.01C45.3287 61.0108 45.8186 60.8177 46.19 60.47L53 54.09C53.3859 53.7253 53.6111 53.2223 53.6261 52.6915C53.6411 52.1608 53.4447 51.6459 53.08 51.26C52.7153 50.8741 52.2123 50.6489 51.6816 50.6339C51.1508 50.6189 50.6359 50.8153 50.25 51.18Z"/>
<path d="M46.57 40.42C45.1739 40.4168 43.7852 40.6224 42.45 41.03C39.4869 38.744 35.8524 37.4997 32.11 37.49H28.28C23.7713 37.49 19.4473 39.2811 16.2592 42.4692C13.0711 45.6573 11.28 49.9813 11.28 54.49V57.82C11.28 58.8314 11.6811 59.8015 12.3953 60.5176C13.1095 61.2337 14.0786 61.6373 15.09 61.64H34.32C35.5623 63.7877 37.3479 65.5708 39.4975 66.81C41.647 68.0492 44.0848 68.7011 46.5659 68.7C49.0471 68.6989 51.4843 68.045 53.6328 66.8039C55.7812 65.5628 57.5653 63.7782 58.8058 61.6294C60.0462 59.4806 60.6995 57.0432 60.6998 54.562C60.7002 52.0808 60.0476 49.6433 58.8078 47.4941C57.5679 45.3449 55.7844 43.5598 53.6363 42.3181C51.4882 41.0764 49.0512 40.4218 46.57 40.42ZM35.68 45.54C35.6 45.63 35.53 45.74 35.45 45.84C35.0224 46.3789 34.6379 46.9507 34.3 47.55C34.24 47.65 34.17 47.75 34.11 47.86C34.05 47.97 33.85 48.39 33.73 48.65C33.61 48.91 33.54 49.06 33.46 49.27C33.38 49.48 33.27 49.75 33.19 50C33.11 50.25 33.02 50.51 32.95 50.78C32.88 51.05 32.82 51.22 32.77 51.45C32.72 51.68 32.65 52.1 32.6 52.45C32.55 52.8 32.53 52.82 32.51 53.01C32.4495 53.5378 32.4195 54.0687 32.42 54.6C32.4212 55.101 32.4479 55.6017 32.5 56.1C32.5 56.2 32.5 56.28 32.5 56.37C32.55 56.79 32.62 57.21 32.71 57.62H15.29V54.48C15.29 51.0322 16.6596 47.7256 19.0976 45.2876C21.5356 42.8496 24.8422 41.48 28.29 41.48H32.12C34.2877 41.4786 36.4205 42.0255 38.32 43.07L38.02 43.32L37.32 43.87L36.75 44.4L36.3 44.86C36.08 45.09 35.88 45.31 35.68 45.54ZM46.57 64.72C44.6281 64.7175 42.7276 64.1586 41.0936 63.1094C39.4595 62.0602 38.1604 60.5647 37.35 58.8C36.9031 57.8319 36.6129 56.7991 36.49 55.74C36.49 55.74 36.49 55.68 36.49 55.65C36.49 55.29 36.49 54.94 36.49 54.58C36.49 54.22 36.49 53.95 36.49 53.64V53.38C36.49 53.14 36.56 52.91 36.6 52.67C36.6047 52.6001 36.6047 52.5299 36.6 52.46C36.729 51.8435 36.9165 51.2408 37.16 50.66C37.16 50.66 37.16 50.66 37.16 50.58C37.28 50.3 37.41 50.03 37.55 49.76C37.8586 49.1937 38.2202 48.658 38.63 48.16C38.82 47.94 39.01 47.72 39.21 47.52L39.32 47.41C39.5035 47.226 39.6972 47.0524 39.9 46.89L40.02 46.77L40.68 46.28L41.12 46L41.37 45.85L41.92 45.55L42.06 45.49C42.27 45.39 42.47 45.29 42.69 45.21C44.0791 44.6569 45.5732 44.4175 47.0655 44.509C48.5578 44.6004 50.0115 45.0204 51.3226 45.739C52.6338 46.4575 53.77 47.4568 54.65 48.6655C55.5301 49.8742 56.1323 51.2623 56.4135 52.7307C56.6947 54.1992 56.6481 55.7116 56.2769 57.1599C55.9057 58.6082 55.2191 59.9566 54.2663 61.1088C53.3134 62.2609 52.1178 63.1883 50.7649 63.8247C49.4119 64.4611 47.9351 64.7907 46.44 64.79L46.57 64.72Z"/>
</svg>
