<svg xmlns="http://www.w3.org/2000/svg" width="24" height="24"><path d="M19.576 14.263c0 .13-.11.243-.237.243H9.975c-.128 0-.237-.112-.237-.243V4.698c0-.13.11-.243.237-.243h9.363c.128 0 .237.112.237.243v9.565zm-5.318 5.156c0 .068-.057.126-.12.126H4.543c-.066 0-.12-.058-.12-.126V9.62c0-.068.057-.126.12-.126h3.77v4.768c0 .93.745 1.698 1.662 1.698h4.283v3.458zM19.338 3H9.975c-.916 0-1.662.762-1.662 1.698V8.04h-3.77C3.693 8.04 3 8.748 3 9.62v9.798c0 .873.693 1.58 1.543 1.58h9.596c.85 0 1.543-.708 1.543-1.58V15.96h3.656c.916 0 1.662-.766 1.662-1.698V4.698C21 3.762 20.255 3 19.338 3z"/></svg>