<svg version="1.1" xmlns="http://www.w3.org/2000/svg" xmlns:xlink="http://www.w3.org/1999/xlink">
	<defs>
		<symbol id="calendar" viewBox="0 0 72 72">
<path d="M50.56 15.13H49.36V12.61C49.36 12.0796 49.1493 11.5708 48.7742 11.1958C48.3991 10.8207 47.8904 10.61 47.36 10.61C46.8295 10.61 46.3208 10.8207 45.9458 11.1958C45.5707 11.5708 45.36 12.0796 45.36 12.61V15.13H25.86V12.61C25.86 12.0796 25.6493 11.5708 25.2742 11.1958C24.8991 10.8207 24.3904 10.61 23.86 10.61C23.3295 10.61 22.8208 10.8207 22.4458 11.1958C22.0707 11.5708 21.86 12.0796 21.86 12.61V15.13H21.44C18.8974 15.1326 16.4596 16.1439 14.6617 17.9418C12.8638 19.7397 11.8526 22.1774 11.85 24.72V51.81C11.8553 54.3509 12.8677 56.786 14.6653 58.5818C16.4629 60.3775 18.8991 61.3873 21.44 61.39H50.56C53.1009 61.3873 55.5371 60.3775 57.3347 58.5818C59.1323 56.786 60.1447 54.3509 60.15 51.81V24.72C60.1473 22.1774 59.1361 19.7397 57.3382 17.9418C55.5403 16.1439 53.1026 15.1326 50.56 15.13ZM56.15 51.81C56.1473 53.2908 55.5572 54.7101 54.5092 55.7562C53.4611 56.8024 52.0408 57.39 50.56 57.39H21.44C19.9591 57.39 18.5388 56.8024 17.4908 55.7562C16.4427 54.7101 15.8526 53.2908 15.85 51.81V29.92H56.15V51.81ZM56.15 25.92H15.85V24.72C15.8526 23.2382 16.4424 21.8179 17.4902 20.7702C18.5379 19.7224 19.9582 19.1326 21.44 19.13H21.86V21.66C21.86 22.1904 22.0707 22.6991 22.4458 23.0742C22.8208 23.4493 23.3295 23.66 23.86 23.66C24.3904 23.66 24.8991 23.4493 25.2742 23.0742C25.6493 22.6991 25.86 22.1904 25.86 21.66V19.13H45.36V21.66C45.36 22.1904 45.5707 22.6991 45.9458 23.0742C46.3208 23.4493 46.8295 23.66 47.36 23.66C47.8904 23.66 48.3991 23.4493 48.7742 23.0742C49.1493 22.6991 49.36 22.1904 49.36 21.66V19.13H50.56C52.0417 19.1326 53.462 19.7224 54.5098 20.7702C55.5575 21.8179 56.1473 23.2382 56.15 24.72V25.92Z"/>
<path d="M27.98 34.85H22.01C20.9054 34.85 20.01 35.7454 20.01 36.85V42.82C20.01 43.9245 20.9054 44.82 22.01 44.82H27.98C29.0846 44.82 29.98 43.9245 29.98 42.82V36.85C29.98 35.7454 29.0846 34.85 27.98 34.85Z"/>
</symbol>
		<symbol id="camera-outline" viewBox="0 0 72 72">
<path d="M54.7 60.8199H17.3C15.134 60.8173 13.0575 59.9557 11.5259 58.4241C9.99427 56.8925 9.13265 54.8159 9.13 52.6499V25.4899C9.13264 23.323 9.99394 21.2454 11.5253 19.7122C13.0566 18.1791 15.1331 17.3152 17.3 17.3099H21.82C22.2392 15.5662 23.2321 14.014 24.6394 12.9023C26.0467 11.7906 27.7866 11.1841 29.58 11.1799H42.05C43.8417 11.1863 45.5793 11.7939 46.9845 12.9054C48.3898 14.0169 49.3812 15.5679 49.8 17.3099H54.7C56.8669 17.3152 58.9434 18.1791 60.4748 19.7122C62.0061 21.2454 62.8674 23.323 62.87 25.4899V52.6499C62.87 54.8167 62.0092 56.8948 60.4771 58.427C58.9449 59.9592 56.8668 60.8199 54.7 60.8199ZM17.3 21.3099C16.1931 21.3126 15.1325 21.7541 14.3508 22.5378C13.569 23.3214 13.13 24.3831 13.13 25.4899V52.6499C13.13 53.7559 13.5693 54.8165 14.3514 55.5986C15.1334 56.3806 16.1941 56.8199 17.3 56.8199H54.7C55.806 56.8199 56.8666 56.3806 57.6486 55.5986C58.4307 54.8165 58.87 53.7559 58.87 52.6499V25.4899C58.87 24.3831 58.431 23.3214 57.6492 22.5378C56.8675 21.7541 55.8069 21.3126 54.7 21.3099H48.18C47.8947 21.3126 47.6116 21.2587 47.3473 21.1513C47.0829 21.0439 46.8424 20.8852 46.6397 20.6844C46.437 20.4836 46.2761 20.2445 46.1663 19.9812C46.0565 19.7178 46 19.4353 46 19.1499C46 18.0891 45.5786 17.0717 44.8284 16.3215C44.0783 15.5714 43.0609 15.1499 42 15.1499H29.58C28.5191 15.1499 27.5017 15.5714 26.7516 16.3215C26.0014 17.0717 25.58 18.0891 25.58 19.1499C25.58 19.7228 25.3524 20.2722 24.9474 20.6773C24.5423 21.0824 23.9929 21.3099 23.42 21.3099H17.3Z"/>
<path d="M36 49.73C33.8659 49.73 31.7798 49.0972 30.0054 47.9116C28.231 46.726 26.848 45.0408 26.0313 43.0692C25.2146 41.0976 25.001 38.9281 25.4173 36.835C25.8336 34.742 26.8613 32.8194 28.3703 31.3103C29.8793 29.8013 31.8019 28.7737 33.8949 28.3574C35.988 27.941 38.1575 28.1547 40.1291 28.9714C42.1007 29.788 43.7859 31.171 44.9715 32.9454C46.1571 34.7198 46.79 36.806 46.79 38.94C46.7873 41.8009 45.6497 44.5438 43.6267 46.5668C41.6038 48.5897 38.8608 49.7274 36 49.73ZM36 32.15C34.657 32.15 33.3443 32.5483 32.2276 33.2944C31.111 34.0404 30.2407 35.1009 29.7268 36.3416C29.2129 37.5823 29.0784 38.9476 29.3404 40.2647C29.6024 41.5818 30.2491 42.7917 31.1987 43.7413C32.1483 44.6909 33.3582 45.3376 34.6753 45.5996C35.9924 45.8616 37.3577 45.7271 38.5984 45.2132C39.8391 44.6993 40.8996 43.829 41.6456 42.7124C42.3917 41.5957 42.79 40.283 42.79 38.94C42.7873 37.14 42.0711 35.4145 40.7983 34.1417C39.5255 32.8689 37.8 32.1527 36 32.15Z"/>
<path d="M51.11 29.72C52.1648 29.72 53.02 28.8649 53.02 27.81C53.02 26.7552 52.1648 25.9 51.11 25.9C50.0551 25.9 49.2 26.7552 49.2 27.81C49.2 28.8649 50.0551 29.72 51.11 29.72Z"/>
</symbol>
		<symbol id="contact-outline" viewBox="0 0 72 72">
<path d="M52.75 10.91H22.51C21.2502 10.91 20.042 11.4105 19.1512 12.3013C18.2604 13.1921 17.76 14.4003 17.76 15.66V17.28H11.66C10.9969 17.28 10.361 17.5434 9.89221 18.0123C9.42337 18.4811 9.15997 19.117 9.15997 19.78C9.15997 20.4431 9.42337 21.079 9.89221 21.5478C10.361 22.0166 10.9969 22.28 11.66 22.28H17.76V32.58H11.66C10.9969 32.58 10.361 32.8434 9.89221 33.3123C9.42337 33.7811 9.15997 34.417 9.15997 35.08C9.15997 35.7431 9.42337 36.379 9.89221 36.8478C10.361 37.3166 10.9969 37.58 11.66 37.58H17.76V47.88H11.66C10.9969 47.88 10.361 48.1434 9.89221 48.6123C9.42337 49.0811 9.15997 49.717 9.15997 50.38C9.15997 51.0431 9.42337 51.679 9.89221 52.1478C10.361 52.6166 10.9969 52.88 11.66 52.88H17.76V56.34C17.76 57.5998 18.2604 58.808 19.1512 59.6988C20.042 60.5896 21.2502 61.09 22.51 61.09H52.75C55.2926 61.0874 57.7303 60.0762 59.5282 58.2783C61.3261 56.4804 62.3373 54.0426 62.34 51.5V20.5C62.3373 17.9574 61.3261 15.5197 59.5282 13.7218C57.7303 11.9239 55.2926 10.9127 52.75 10.91ZM58.34 51.5C58.34 52.9826 57.751 54.4044 56.7027 55.4528C55.6544 56.5011 54.2325 57.09 52.75 57.09H22.51C22.3111 57.09 22.1203 57.011 21.9796 56.8704C21.839 56.7297 21.76 56.5389 21.76 56.34V15.66C21.76 15.4611 21.839 15.2704 21.9796 15.1297C22.1203 14.9891 22.3111 14.91 22.51 14.91H52.75C54.2325 14.91 55.6544 15.499 56.7027 16.5473C57.751 17.5956 58.34 19.0175 58.34 20.5V51.5Z"/>
<path d="M39.24 36.09C40.4148 36.09 41.5632 35.7416 42.5401 35.0889C43.5169 34.4362 44.2782 33.5085 44.7278 32.4231C45.1774 31.3377 45.295 30.1434 45.0659 28.9911C44.8367 27.8389 44.2709 26.7805 43.4402 25.9497C42.6095 25.119 41.5511 24.5533 40.3988 24.3241C39.2466 24.0949 38.0522 24.2125 36.9669 24.6621C35.8815 25.1117 34.9538 25.873 34.3011 26.8499C33.6484 27.8267 33.3 28.9751 33.3 30.15C33.3 30.93 33.4536 31.7024 33.7521 32.4231C34.0507 33.1438 34.4882 33.7986 35.0398 34.3502C35.5914 34.9018 36.2462 35.3393 36.9669 35.6378C37.6875 35.9363 38.4599 36.09 39.24 36.09Z"/>
<path d="M40.38 38.3399H38.1C35.7343 38.3399 33.4654 39.2797 31.7926 40.9525C30.1198 42.6254 29.18 44.8942 29.18 47.2599V49.2599C29.18 49.5464 29.2938 49.8211 29.4963 50.0236C29.6989 50.2261 29.9736 50.3399 30.26 50.3399H48.26C48.5464 50.3399 48.8211 50.2261 49.0237 50.0236C49.2262 49.8211 49.34 49.5464 49.34 49.2599V47.2599C49.34 46.0852 49.108 44.922 48.6572 43.8371C48.2064 42.7523 47.5458 41.7672 46.7133 40.9384C45.8807 40.1095 44.8927 39.4533 43.8058 39.0074C42.719 38.5615 41.5547 38.3347 40.38 38.3399Z"/>
</symbol>
		<symbol id="copy-outline" viewBox="0 0 72 72">
<path d="M58 11.08H30.19C29.0593 11.08 27.9747 11.5285 27.1742 12.3271C26.3737 13.1257 25.9227 14.2092 25.92 15.34V43.14C25.92 44.2724 26.3699 45.3585 27.1707 46.1593C27.9715 46.9601 29.0576 47.41 30.19 47.41H58C59.1317 47.4073 60.2163 46.9566 61.0165 46.1564C61.8167 45.3562 62.2674 44.2716 62.27 43.14V15.34C62.2674 14.2092 61.8164 13.1257 61.0159 12.3271C60.2154 11.5285 59.1308 11.08 58 11.08ZM58.27 43.14C58.27 43.2116 58.2416 43.2802 58.191 43.3309C58.1403 43.3815 58.0717 43.41 58 43.41H30.19C30.1184 43.41 30.0498 43.3815 29.9991 43.3309C29.9485 43.2802 29.92 43.2116 29.92 43.14V15.34C29.9226 15.2701 29.9522 15.204 30.0026 15.1555C30.0529 15.107 30.1201 15.0799 30.19 15.08H58C58.07 15.0799 58.1372 15.107 58.1875 15.1555C58.2379 15.204 58.2675 15.2701 58.27 15.34V43.14Z"/>
<path d="M44.08 50C43.5495 50 43.0408 50.2107 42.6658 50.5858C42.2907 50.9608 42.08 51.4695 42.08 52V56.65C42.0774 56.7198 42.0478 56.786 41.9974 56.8345C41.9471 56.8829 41.8799 56.91 41.81 56.91H14C13.9301 56.91 13.8629 56.8829 13.8125 56.8345C13.7622 56.786 13.7326 56.7198 13.73 56.65V28.86C13.73 28.7884 13.7584 28.7197 13.8091 28.669C13.8597 28.6184 13.9284 28.59 14 28.59H21.24C21.7704 28.59 22.2791 28.3793 22.6542 28.0042C23.0293 27.6291 23.24 27.1204 23.24 26.59C23.24 26.0595 23.0293 25.5508 22.6542 25.1758C22.2791 24.8007 21.7704 24.59 21.24 24.59H14C12.8683 24.5926 11.7838 25.0433 10.9836 25.8435C10.1833 26.6437 9.73262 27.7283 9.72998 28.86V56.66C9.73263 57.7907 10.1837 58.8742 10.9842 59.6728C11.7847 60.4715 12.8692 60.92 14 60.92H41.81C42.9407 60.92 44.0253 60.4715 44.8258 59.6728C45.6263 58.8742 46.0773 57.7907 46.08 56.66V52C46.08 51.4695 45.8693 50.9608 45.4942 50.5858C45.1191 50.2107 44.6104 50 44.08 50Z"/>
</symbol>
		<symbol id="folder-outline" viewBox="0 0 72 72">
<path d="M55.89 58.09H16.11C14.3869 58.0874 12.7351 57.4017 11.5167 56.1833C10.2983 54.9649 9.61263 53.3131 9.60999 51.59V20.87C9.61263 18.6165 10.509 16.456 12.1025 14.8625C13.696 13.269 15.8565 12.3726 18.11 12.37H32.73C34.2082 12.37 35.6259 12.9565 36.6721 14.0008C37.7183 15.0451 38.3073 16.4618 38.31 17.94V20.21H55.89C57.6131 20.2126 59.2648 20.8983 60.4833 22.1167C61.7017 23.3351 62.3873 24.9869 62.39 26.71V51.59C62.3873 53.3131 61.7017 54.9649 60.4833 56.1833C59.2648 57.4017 57.6131 58.0874 55.89 58.09ZM18.11 17.37C17.1817 17.37 16.2915 17.7387 15.6351 18.3951C14.9787 19.0515 14.61 19.9417 14.61 20.87V51.59C14.61 51.9878 14.768 52.3694 15.0493 52.6507C15.3306 52.932 15.7122 53.09 16.11 53.09H55.89C56.2878 53.09 56.6693 52.932 56.9506 52.6507C57.2319 52.3694 57.39 51.9878 57.39 51.59V26.71C57.39 26.3122 57.2319 25.9306 56.9506 25.6493C56.6693 25.368 56.2878 25.21 55.89 25.21H35.81C35.4813 25.2113 35.1556 25.1476 34.8517 25.0224C34.5478 24.8972 34.2717 24.7131 34.0393 24.4807C33.8069 24.2483 33.6228 23.9722 33.4976 23.6683C33.3724 23.3644 33.3087 23.0387 33.31 22.71V17.94C33.3074 17.7879 33.2451 17.6429 33.1366 17.5363C33.0281 17.4297 32.8821 17.37 32.73 17.37H18.11Z"/>
</symbol>
		<symbol id="library" viewBox="0 0 72 72">
<path opacity="0.5" d="M56.5099 19.87V43.58C56.5098 43.8664 56.4481 44.1495 56.329 44.41C56.21 44.6705 56.0364 44.9024 55.8199 45.09C55.6028 45.2788 55.3474 45.4186 55.0713 45.4997C54.7951 45.5808 54.5048 45.6014 54.2199 45.56C49.2699 44.82 44.9099 45.56 39.8199 51.37C43.6999 49.56 50.5499 48.2 60.7499 52.53V23.65C59.5216 22.1967 58.0942 20.9241 56.5099 19.87Z"/>
<path d="M62.32 22.42C60.6786 20.4602 58.7135 18.7962 56.51 17.5V17.38C56.5092 16.9823 56.3899 16.5939 56.1672 16.2644C55.9446 15.9348 55.6287 15.6792 55.26 15.53C54.87 15.37 46 11.92 36 20C31.84 16.56 27.47 15 23 15.3C15 15.9 9.82003 22.41 9.61003 22.69C9.29797 23.0549 9.1276 23.5199 9.13003 24V52.84C9.1303 53.1701 9.21227 53.4951 9.36864 53.7858C9.525 54.0765 9.7509 54.324 10.0262 54.5062C10.3014 54.6884 10.6175 54.7996 10.9462 54.8299C11.275 54.8603 11.6061 54.8088 11.91 54.68C27.34 48.13 34.16 55.36 34.44 55.68L34.49 55.73C34.5552 55.7985 34.6254 55.862 34.7 55.92L34.79 55.99C34.8808 56.0562 34.978 56.1132 35.08 56.16H35.13L35.46 56.27C35.608 56.3015 35.7588 56.3182 35.91 56.32C36.0723 56.3163 36.2335 56.2928 36.39 56.25H36.5C36.5365 56.2558 36.5736 56.2558 36.61 56.25L36.75 56.18L37.05 56.01L37.23 55.86C37.3142 55.7876 37.3912 55.7072 37.46 55.62C37.5124 55.554 37.5592 55.4838 37.6 55.41C37.632 55.3813 37.6591 55.3476 37.68 55.31L39.61 51.61L37.86 54.96C39.6 53.46 46.55 48.72 59.94 54.41C60.244 54.5388 60.5751 54.5903 60.9038 54.5599C61.2325 54.5296 61.5486 54.4184 61.8239 54.2362C62.0992 54.054 62.3251 53.8065 62.4814 53.5158C62.6378 53.2251 62.7198 52.9001 62.72 52.57V23.66C62.7288 23.2136 62.588 22.7771 62.32 22.42ZM23.82 47.94C20.1691 47.9964 16.5543 48.6726 13.13 49.94V24.71C14.36 23.37 18.13 19.71 23.25 19.33C26.84 19.06 30.43 20.48 33.94 23.57V50.38C30.8274 48.7237 27.3455 47.8842 23.82 47.94ZM37.94 47.51V23.58C44.34 18.11 50.06 18.41 52.51 18.9V41.35C48.17 41.09 43.23 42.06 37.94 47.51ZM58.75 49.61C52.21 47.32 47.06 47.3 43.22 48.13C42.6072 48.5981 42.0228 49.1023 41.47 49.64C45.87 45.41 49.81 44.9 54.22 45.56C54.5048 45.6014 54.7952 45.5809 55.0714 45.4998C55.3475 45.4186 55.6029 45.2789 55.82 45.09C56.0365 44.9024 56.2101 44.6705 56.3291 44.41C56.4482 44.1495 56.5098 43.8665 56.51 43.58V22.35C57.305 22.9605 58.0538 23.629 58.75 24.35V49.61Z"/>
</symbol>
		<symbol id="team-outline" viewBox="0 0 72 72">
<path d="M36 35C34.22 35 32.4799 34.4722 30.9999 33.4832C29.5198 32.4943 28.3663 31.0887 27.6851 29.4442C27.0039 27.7996 26.8257 25.99 27.1729 24.2442C27.5202 22.4984 28.3774 20.8947 29.636 19.636C30.8947 18.3774 32.4984 17.5202 34.2442 17.1729C35.99 16.8257 37.7996 17.0039 39.4442 17.6851C41.0887 18.3663 42.4943 19.5198 43.4832 20.9999C44.4722 22.4799 45 24.22 45 26C45 28.387 44.0518 30.6761 42.364 32.364C40.6761 34.0518 38.387 35 36 35ZM36 21C35.0111 21 34.0444 21.2932 33.2222 21.8427C32.3999 22.3921 31.759 23.173 31.3806 24.0866C31.0022 25.0002 30.9032 26.0056 31.0961 26.9755C31.289 27.9454 31.7652 28.8363 32.4645 29.5355C33.1637 30.2348 34.0546 30.711 35.0246 30.9039C35.9945 31.0969 36.9998 30.9978 37.9134 30.6194C38.8271 30.241 39.6079 29.6001 40.1574 28.7779C40.7068 27.9556 41 26.9889 41 26C41 25.3434 40.8707 24.6932 40.6194 24.0866C40.3681 23.48 39.9998 22.9288 39.5355 22.4645C39.0712 22.0002 38.5201 21.6319 37.9134 21.3806C37.3068 21.1293 36.6566 21 36 21Z"/>
<path d="M46.55 54.9999H25.45C24.5835 54.9973 23.7533 54.6519 23.1407 54.0393C22.528 53.4266 22.1826 52.5964 22.18 51.7299V49.4199C22.1853 46.1117 23.5018 42.9404 25.8411 40.6011C28.1804 38.2618 31.3517 36.9452 34.66 36.9399H37.34C40.6483 36.9452 43.8195 38.2618 46.1588 40.6011C48.4982 42.9404 49.8147 46.1117 49.82 49.4199V51.7499C49.8121 52.6129 49.4644 53.438 48.8523 54.0464C48.2402 54.6547 47.413 54.9973 46.55 54.9999ZM26.18 50.9999H45.82V49.3999C45.82 47.1509 44.9266 44.994 43.3363 43.4037C41.7459 41.8134 39.589 40.9199 37.34 40.9199H34.66C32.411 40.9199 30.254 41.8134 28.6637 43.4037C27.0734 44.994 26.18 47.1509 26.18 49.3999V50.9999Z"/>
<path opacity="0.7" d="M53.84 35.52C52.2189 35.5259 50.6325 35.0506 49.2817 34.1543C47.931 33.258 46.8766 31.981 46.2521 30.485C45.6276 28.989 45.4611 27.3413 45.7737 25.7506C46.0863 24.16 46.864 22.6978 48.0082 21.5494C49.1524 20.4011 50.6116 19.618 52.2011 19.2996C53.7907 18.9811 55.4389 19.1416 56.9372 19.7606C58.4355 20.3796 59.7164 21.4293 60.6176 22.7767C61.5189 24.1242 62 25.7089 62 27.33C61.9974 29.4961 61.1378 31.5732 59.6089 33.1077C58.08 34.6422 56.0061 35.5094 53.84 35.52ZM53.84 23.15C53.0096 23.144 52.1962 23.3849 51.503 23.8422C50.8098 24.2994 50.2681 24.9523 49.9467 25.7179C49.6252 26.4836 49.5385 27.3275 49.6976 28.1425C49.8567 28.9576 50.2544 29.7069 50.8401 30.2955C51.4259 30.8841 52.1734 31.2854 52.9876 31.4484C53.8019 31.6113 54.6462 31.5287 55.4134 31.2109C56.1806 30.8932 56.8361 30.3546 57.2966 29.6636C57.7571 28.9726 58.002 28.1604 58 27.33C58 26.2248 57.5624 25.1646 56.7828 24.3813C56.0032 23.598 54.9451 23.1553 53.84 23.15Z"/>
<path opacity="0.7" d="M18.16 35.52C16.5398 35.522 14.9553 35.0433 13.6072 34.1446C12.259 33.2459 11.2077 31.9675 10.5863 30.4711C9.96491 28.9748 9.80129 27.3277 10.1162 25.7384C10.4311 24.149 11.2103 22.6887 12.3553 21.5424C13.5003 20.396 14.9596 19.6149 16.5486 19.2981C18.1375 18.9813 19.7848 19.1429 21.2819 19.7625C22.779 20.3821 24.0587 21.4318 24.9591 22.7789C25.8594 24.1259 26.34 25.7098 26.34 27.33C26.3374 29.4996 25.475 31.5797 23.9418 33.1148C22.4087 34.6498 20.3296 35.5147 18.16 35.52ZM18.16 23.15C17.3305 23.148 16.519 23.3923 15.8284 23.852C15.1379 24.3116 14.5993 24.9659 14.2809 25.7319C13.9625 26.498 13.8787 27.3413 14.0401 28.155C14.2014 28.9687 14.6007 29.7162 15.1873 30.3028C15.7738 30.8894 16.5213 31.2886 17.3351 31.45C18.1488 31.6113 18.9921 31.5275 19.7581 31.2091C20.5241 30.8908 21.1784 30.3522 21.6381 29.6616C22.0977 28.971 22.342 28.1596 22.34 27.33C22.3374 26.2222 21.8961 25.1606 21.1128 24.3772C20.3295 23.5939 19.2678 23.1527 18.16 23.15Z"/>
<path opacity="0.7" d="M63.19 53.41H47.82C47.2896 53.41 46.7809 53.1993 46.4058 52.8242C46.0307 52.4491 45.82 51.9404 45.82 51.41V49.41C45.831 47.3907 45.1219 45.4336 43.82 43.89C43.5195 43.5429 43.3475 43.103 43.3329 42.6442C43.3183 42.1853 43.4621 41.7354 43.74 41.37C44.7926 39.9821 46.1538 38.8583 47.7159 38.0876C49.2781 37.317 50.9982 36.9206 52.74 36.93H55C56.4843 36.9273 57.9546 37.2174 59.3267 37.7836C60.6987 38.3498 61.9457 39.181 62.9962 40.2297C64.0467 41.2783 64.8801 42.5238 65.4487 43.8948C66.0173 45.2659 66.31 46.7357 66.31 48.22V50.28C66.31 51.1084 65.9816 51.903 65.3968 52.4897C64.812 53.0764 64.0184 53.4073 63.19 53.41ZM49.82 49.41H62.31V48.22C62.3087 47.2618 62.1185 46.3133 61.7503 45.4287C61.3821 44.544 60.8431 43.7407 60.1642 43.0645C59.4853 42.3884 58.6797 41.8527 57.7936 41.4882C56.9075 41.1236 55.9582 40.9373 55 40.94H52.66C50.897 40.9341 49.1929 41.5745 47.87 42.74C49.144 44.7313 49.8207 47.046 49.82 49.41Z"/>
<path opacity="0.7" d="M24.18 53.41H8.81C7.98161 53.4073 7.18805 53.0764 6.60322 52.4897C6.01839 51.903 5.69 51.1084 5.69 50.28V48.22C5.69131 46.7365 5.98497 45.2679 6.55418 43.8979C7.1234 42.528 7.95701 41.2837 9.00737 40.2361C10.0577 39.1886 11.3043 38.3583 12.6757 37.7927C14.0471 37.2271 15.5165 36.9374 17 36.94H19.37C21.1119 36.9307 22.832 37.327 24.3941 38.0977C25.9562 38.8683 27.3174 39.9921 28.37 41.38C28.6479 41.7454 28.7917 42.1953 28.7771 42.6542C28.7625 43.113 28.5905 43.5529 28.29 43.9C26.97 45.4365 26.2429 47.3943 26.24 49.42V51.42C26.2388 51.6869 26.1842 51.9509 26.0793 52.1964C25.9745 52.4419 25.8216 52.6639 25.6296 52.8493C25.4376 53.0348 25.2104 53.1799 24.9615 53.2762C24.7125 53.3725 24.4468 53.418 24.18 53.41ZM9.69 49.41H22.18C22.1793 47.046 22.856 44.7313 24.13 42.74C22.8071 41.5745 21.103 40.9342 19.34 40.94H17C15.07 40.9426 13.2199 41.7105 11.8552 43.0752C10.4905 44.4399 9.72265 46.29 9.72 48.22L9.69 49.41Z"/>
<path d="M46.55 54.9999H25.45C24.5835 54.9973 23.7533 54.6519 23.1407 54.0393C22.528 53.4266 22.1826 52.5964 22.18 51.7299V49.4199C22.1853 46.1117 23.5018 42.9404 25.8411 40.6011C28.1804 38.2618 31.3517 36.9452 34.66 36.9399H37.34C40.6483 36.9452 43.8195 38.2618 46.1588 40.6011C48.4982 42.9404 49.8147 46.1117 49.82 49.4199V51.7499C49.8121 52.6129 49.4644 53.438 48.8523 54.0464C48.2402 54.6547 47.413 54.9973 46.55 54.9999ZM26.18 50.9999H45.82V49.3999C45.82 47.1509 44.9266 44.994 43.3363 43.4037C41.7459 41.8134 39.589 40.9199 37.34 40.9199H34.66C32.411 40.9199 30.254 41.8134 28.6637 43.4037C27.0734 44.994 26.18 47.1509 26.18 49.3999V50.9999Z"/>
</symbol>
		<symbol id="user-active-outline" viewBox="0 0 72 72">
<path d="M30.2 34.35C32.5734 34.35 34.8934 33.6462 36.8668 32.3276C38.8402 31.009 40.3783 29.1349 41.2866 26.9422C42.1948 24.7495 42.4324 22.3367 41.9694 20.0089C41.5064 17.6811 40.3635 15.5429 38.6853 13.8647C37.007 12.1865 34.8689 11.0436 32.5411 10.5806C30.2133 10.1175 27.8005 10.3552 25.6078 11.2634C23.4151 12.1717 21.5409 13.7097 20.2224 15.6831C18.9038 17.6565 18.2 19.9766 18.2 22.35C18.2 25.5326 19.4643 28.5848 21.7147 30.8353C23.9652 33.0857 27.0174 34.35 30.2 34.35ZM30.2 14.35C31.7822 14.35 33.329 14.8192 34.6446 15.6982C35.9602 16.5773 36.9855 17.8267 37.591 19.2885C38.1965 20.7503 38.355 22.3589 38.0463 23.9107C37.7376 25.4626 36.9757 26.888 35.8568 28.0068C34.738 29.1257 33.3126 29.8876 31.7607 30.1963C30.2089 30.5049 28.6003 30.3465 27.1385 29.741C25.6767 29.1355 24.4273 28.1101 23.5482 26.7945C22.6692 25.4789 22.2 23.9322 22.2 22.35C22.2053 20.2317 23.0505 18.202 24.5502 16.7061C26.0499 15.2101 28.0817 14.37 30.2 14.37V14.35Z"/>
<path d="M50.25 51.18L44.84 56.27L42.84 54.44C42.647 54.2614 42.4206 54.1225 42.1739 54.0314C41.9272 53.9403 41.665 53.8986 41.4022 53.9089C41.1394 53.9191 40.8812 53.9809 40.6424 54.0909C40.4035 54.201 40.1886 54.3569 40.01 54.55C39.8314 54.743 39.6926 54.9693 39.6015 55.216C39.5103 55.4627 39.4687 55.725 39.4789 55.9878C39.4891 56.2505 39.551 56.5087 39.661 56.7476C39.771 56.9865 39.927 57.2014 40.12 57.38L43.46 60.48C43.8304 60.8217 44.3161 61.0109 44.82 61.01C45.3287 61.0108 45.8186 60.8177 46.19 60.47L53 54.09C53.3859 53.7253 53.6111 53.2223 53.6261 52.6915C53.6411 52.1608 53.4447 51.6459 53.08 51.26C52.7153 50.8741 52.2123 50.6489 51.6816 50.6339C51.1508 50.6189 50.6359 50.8153 50.25 51.18Z"/>
<path d="M46.57 40.42C45.1739 40.4168 43.7852 40.6224 42.45 41.03C39.4869 38.744 35.8524 37.4997 32.11 37.49H28.28C23.7713 37.49 19.4473 39.2811 16.2592 42.4692C13.0711 45.6573 11.28 49.9813 11.28 54.49V57.82C11.28 58.8314 11.6811 59.8015 12.3953 60.5176C13.1095 61.2337 14.0786 61.6373 15.09 61.64H34.32C35.5623 63.7877 37.3479 65.5708 39.4975 66.81C41.647 68.0492 44.0848 68.7011 46.5659 68.7C49.0471 68.6989 51.4843 68.045 53.6328 66.8039C55.7812 65.5628 57.5653 63.7782 58.8058 61.6294C60.0462 59.4806 60.6995 57.0432 60.6998 54.562C60.7002 52.0808 60.0476 49.6433 58.8078 47.4941C57.5679 45.3449 55.7844 43.5598 53.6363 42.3181C51.4882 41.0764 49.0512 40.4218 46.57 40.42ZM35.68 45.54C35.6 45.63 35.53 45.74 35.45 45.84C35.0224 46.3789 34.6379 46.9507 34.3 47.55C34.24 47.65 34.17 47.75 34.11 47.86C34.05 47.97 33.85 48.39 33.73 48.65C33.61 48.91 33.54 49.06 33.46 49.27C33.38 49.48 33.27 49.75 33.19 50C33.11 50.25 33.02 50.51 32.95 50.78C32.88 51.05 32.82 51.22 32.77 51.45C32.72 51.68 32.65 52.1 32.6 52.45C32.55 52.8 32.53 52.82 32.51 53.01C32.4495 53.5378 32.4195 54.0687 32.42 54.6C32.4212 55.101 32.4479 55.6017 32.5 56.1C32.5 56.2 32.5 56.28 32.5 56.37C32.55 56.79 32.62 57.21 32.71 57.62H15.29V54.48C15.29 51.0322 16.6596 47.7256 19.0976 45.2876C21.5356 42.8496 24.8422 41.48 28.29 41.48H32.12C34.2877 41.4786 36.4205 42.0255 38.32 43.07L38.02 43.32L37.32 43.87L36.75 44.4L36.3 44.86C36.08 45.09 35.88 45.31 35.68 45.54ZM46.57 64.72C44.6281 64.7175 42.7276 64.1586 41.0936 63.1094C39.4595 62.0602 38.1604 60.5647 37.35 58.8C36.9031 57.8319 36.6129 56.7991 36.49 55.74C36.49 55.74 36.49 55.68 36.49 55.65C36.49 55.29 36.49 54.94 36.49 54.58C36.49 54.22 36.49 53.95 36.49 53.64V53.38C36.49 53.14 36.56 52.91 36.6 52.67C36.6047 52.6001 36.6047 52.5299 36.6 52.46C36.729 51.8435 36.9165 51.2408 37.16 50.66C37.16 50.66 37.16 50.66 37.16 50.58C37.28 50.3 37.41 50.03 37.55 49.76C37.8586 49.1937 38.2202 48.658 38.63 48.16C38.82 47.94 39.01 47.72 39.21 47.52L39.32 47.41C39.5035 47.226 39.6972 47.0524 39.9 46.89L40.02 46.77L40.68 46.28L41.12 46L41.37 45.85L41.92 45.55L42.06 45.49C42.27 45.39 42.47 45.29 42.69 45.21C44.0791 44.6569 45.5732 44.4175 47.0655 44.509C48.5578 44.6004 50.0115 45.0204 51.3226 45.739C52.6338 46.4575 53.77 47.4568 54.65 48.6655C55.5301 49.8742 56.1323 51.2623 56.4135 52.7307C56.6947 54.1992 56.6481 55.7116 56.2769 57.1599C55.9057 58.6082 55.2191 59.9566 54.2663 61.1088C53.3134 62.2609 52.1178 63.1883 50.7649 63.8247C49.4119 64.4611 47.9351 64.7907 46.44 64.79L46.57 64.72Z"/>
</symbol>
		<symbol id="user-engaged-outline" viewBox="0 0 72 72">
<path d="M65.33 13.87C64.9564 11.8369 63.9662 9.96807 62.4939 8.51718C61.0215 7.06629 59.1383 6.10366 57.1 5.75999C55.3059 5.39876 53.4801 5.21786 51.65 5.21999C49.18 5.21999 45.7 5.54999 43.13 7.14999C39.83 9.14999 38.13 13.07 38.26 18.08C38.34 20.93 39.03 24.93 41.83 27.85C44.09 30.19 47.83 31.15 50.59 31.43V32.82C50.59 33.1522 50.6554 33.4812 50.7826 33.7882C50.9097 34.0951 51.0961 34.374 51.331 34.609C51.5659 34.8439 51.8448 35.0303 52.1518 35.1574C52.4588 35.2845 52.7877 35.35 53.12 35.35H53.39C53.8959 35.2967 54.3737 35.0909 54.76 34.76C55.96 33.76 57.53 32.37 59.08 30.93L59.74 30.32C61.0316 29.2174 62.1986 27.9767 63.22 26.62C65.48 23.38 66.27 18.62 65.33 13.87ZM59.94 24.32C59.075 25.4135 58.1036 26.4185 57.04 27.32L56.35 27.95C55.76 28.5 55.16 29.04 54.58 29.56C54.5324 28.9958 54.2748 28.4701 53.8581 28.0868C53.4415 27.7035 52.8961 27.4905 52.33 27.49C49.74 27.49 46.19 26.57 44.72 25.04C43.0826 23.0634 42.2065 20.5663 42.25 18C42.19 16 42.49 12.28 45.25 10.59C47.2379 9.59593 49.4507 9.13752 51.67 9.25999C53.2243 9.25773 54.7752 9.40846 56.3 9.70999C57.5696 9.90453 58.7467 10.4911 59.6665 11.3876C60.5864 12.2841 61.2029 13.4458 61.43 14.71C62 17.51 61.89 21.55 59.94 24.32Z"/>
<path d="M27.12 39.9099C29.3145 39.906 31.4586 39.2516 33.2814 38.0295C35.1041 36.8075 36.5237 35.0725 37.3608 33.0439C38.1979 31.0153 38.4148 28.7841 37.9843 26.6322C37.5537 24.4803 36.495 22.5044 34.9418 20.954C33.3887 19.4037 31.4108 18.3485 29.2582 17.9218C27.1055 17.4951 24.8747 17.7161 22.8476 18.5568C20.8205 19.3975 19.0881 20.8203 17.8693 22.6452C16.6505 24.4702 16 26.6154 16 28.8099C16.0013 30.2689 16.29 31.7134 16.8495 33.0608C17.4091 34.4082 18.2285 35.6322 19.2611 36.663C20.2937 37.6937 21.5192 38.511 22.8676 39.0681C24.2161 39.6252 25.661 39.9113 27.12 39.9099ZM27.12 21.7199C28.5238 21.7239 29.8949 22.1439 31.0601 22.9269C32.2253 23.7099 33.1322 24.8208 33.6662 26.119C34.2002 27.4173 34.3374 28.8448 34.0604 30.221C33.7834 31.5972 33.1046 32.8604 32.1098 33.851C31.1151 34.8415 29.849 35.515 28.4717 35.7862C27.0943 36.0574 25.6674 35.9142 24.3714 35.3747C23.0754 34.8352 21.9684 33.9236 21.1903 32.7551C20.4123 31.5867 19.998 30.2138 20 28.8099C20.0013 27.8767 20.1866 26.9529 20.5452 26.0913C20.9039 25.2298 21.4289 24.4474 22.0901 23.7889C22.7514 23.1304 23.536 22.6087 24.3991 22.2537C25.2622 21.8987 26.1868 21.7173 27.12 21.7199Z"/>
<path d="M28.87 42.41H25.38C21.231 42.4153 17.2534 44.0659 14.3196 46.9997C11.3858 49.9335 9.7353 53.911 9.73001 58.06V61.06C9.73001 62.029 10.1142 62.9584 10.7985 63.6445C11.4827 64.3306 12.4111 64.7174 13.38 64.72H40.86C41.8307 64.72 42.7616 64.3344 43.448 63.648C44.1344 62.9617 44.52 62.0307 44.52 61.06V58.06C44.5147 53.911 42.8642 49.9335 39.9304 46.9997C36.9966 44.0659 33.019 42.4153 28.87 42.41ZM40.52 60.75H13.73V58.06C13.7327 54.9711 14.9609 52.0094 17.1451 49.8252C19.3294 47.6409 22.2911 46.4127 25.38 46.41H28.87C31.9582 46.4153 34.9183 47.6444 37.102 49.8281C39.2856 52.0117 40.5147 54.9719 40.52 58.06V60.75Z"/>
</symbol>
		<symbol id="user-outline" viewBox="0 0 72 72">
<path d="M36 34.35C33.6266 34.35 31.3066 33.6462 29.3332 32.3276C27.3598 31.009 25.8217 29.1349 24.9135 26.9422C24.0052 24.7495 23.7676 22.3367 24.2306 20.0089C24.6936 17.6811 25.8365 15.5429 27.5147 13.8647C29.193 12.1865 31.3311 11.0436 33.6589 10.5806C35.9867 10.1175 38.3995 10.3552 40.5922 11.2634C42.7849 12.1717 44.6591 13.7097 45.9776 15.6831C47.2962 17.6565 48 19.9766 48 22.35C48 25.5326 46.7357 28.5848 44.4853 30.8353C42.2348 33.0857 39.1826 34.35 36 34.35ZM36 14.35C34.4178 14.35 32.871 14.8192 31.5554 15.6982C30.2399 16.5773 29.2145 17.8267 28.609 19.2885C28.0035 20.7503 27.845 22.3589 28.1537 23.9107C28.4624 25.4626 29.2243 26.888 30.3432 28.0068C31.462 29.1257 32.8874 29.8876 34.4393 30.1963C35.9911 30.5049 37.5997 30.3465 39.0615 29.741C40.5233 29.1355 41.7727 28.1101 42.6518 26.7945C43.5308 25.4789 44 23.9322 44 22.35C43.9947 20.2317 43.1495 18.202 41.6498 16.7061C40.1501 15.2101 38.1183 14.37 36 14.37V14.35Z"/>
<path d="M51.09 61.63H20.91C19.8977 61.6273 18.9276 61.224 18.2118 60.5082C17.4959 59.7924 17.0926 58.8223 17.09 57.81V54.48C17.09 49.9713 18.8811 45.6473 22.0692 42.4592C25.2573 39.271 29.5813 37.48 34.09 37.48H37.93C42.4387 37.48 46.7627 39.271 49.9508 42.4592C53.1389 45.6473 54.93 49.9713 54.93 54.48V57.81C54.9287 58.3129 54.8283 58.8107 54.6346 59.2749C54.4409 59.7391 54.1577 60.1606 53.8011 60.5153C53.4446 60.87 53.0216 61.151 52.5564 61.3423C52.0913 61.5335 51.593 61.6313 51.09 61.63ZM21.09 57.63H50.91V54.48C50.91 51.0322 49.5404 47.7256 47.1024 45.2876C44.6644 42.8496 41.3578 41.48 37.91 41.48H34.08C30.6322 41.48 27.3256 42.8496 24.8876 45.2876C22.4496 47.7256 21.08 51.0322 21.08 54.48L21.09 57.63Z"/>
</symbol>
	</defs>
</svg>
