<?xml version="1.0" standalone="no"?>
<svg width="512px" height="512px" version="1.1" xmlns="http://www.w3.org/2000/svg">
<path transform="scale(1, -1) translate(0, -512)" glyph-name="copy" unicode="&#117;" d="M471 198c0-3-3-6-6-6l-267 0c-3 0-6 3-6 6l0 267c0 3 3 6 6 6l267 0c3 0 6-3 6-6z m-151-143c0-2-1-4-3-4l-273 0c-2 0-3 2-3 4l0 273c0 2 1 3 3 3l107 0 0-133c0-26 21-47 47-47l122 0z m145 457l-267 0c-26 0-47-21-47-47l0-93-107 0c-24 0-44-20-44-44l0-273c0-24 20-44 44-44l273 0c24 0 44 20 44 44l0 96 104 0c26 0 47 21 47 47l0 267c0 26-21 47-47 47z"/>
</svg>