<svg width="202" height="73" viewBox="0 0 202 73" fill="none" xmlns="http://www.w3.org/2000/svg">
<path d="M31.5967 4.32308C36.0909 4.32308 40.8303 4.8132 44.8343 5.63007C53.3325 7.3455 58.9707 12.8185 60.6049 20.9055C61.5855 25.8067 61.7489 30.953 61.0952 35.6908C60.3598 40.9188 58.7255 45.4116 56.1924 49.0058C53.9862 52.1099 50.8811 54.9689 47.8577 57.6646C47.2039 58.2364 46.5502 58.8082 45.9782 59.38C43.2 61.994 40.34 64.5263 37.6435 66.8135V62.8926C37.6435 60.6053 35.7641 58.6448 33.3944 58.6448C25.9584 58.6448 15.4991 56.0309 10.8414 51.293C5.12149 45.3299 3.65065 36.6711 3.48723 30.3812C3.40551 24.3364 4.30436 13.472 12.7208 8.24405C16.8882 5.71176 23.5887 4.32308 31.5967 4.32308ZM31.5967 0.810547C24.079 0.810547 16.2345 2.03585 10.9232 5.30332C2.34324 10.613 -0.189882 20.9872 0.0552589 30.5446C0.300399 38.7949 2.50666 47.6988 8.39003 53.7436C14.0283 59.5434 25.5499 62.1574 33.3944 62.1574C33.7212 62.1574 34.1298 62.4024 34.1298 62.8926V71.2246C34.1298 72.0415 34.7835 72.695 35.6006 72.695C35.6823 72.695 35.6823 72.695 35.7641 72.695C36.0909 72.695 36.336 72.5316 36.5812 72.3682C40.5851 69.0191 44.5074 65.5065 48.3479 61.994C52.025 58.5632 56.1924 55.1323 59.0524 51.048C65.0992 42.4708 65.998 30.2995 64.0369 20.252C62.0758 10.5313 55.2119 4.24139 45.5697 2.28091C41.5657 1.38235 36.6629 0.810547 31.5967 0.810547Z" fill="#00BCD4"/>
<path d="M83.8933 7.50885H96.3138C98.6017 7.50885 100.726 7.75391 102.606 8.16235C104.485 8.57078 106.119 9.22427 107.509 10.1228C108.898 11.0214 109.96 12.165 110.695 13.5537C111.431 14.9424 111.839 16.6578 111.839 18.6183C111.839 20.9055 111.186 22.9477 109.878 24.7448C108.571 26.5419 106.61 27.8489 103.913 28.5024V28.7474C107.263 29.2376 109.796 30.3812 111.676 32.1783C113.555 33.9754 114.454 36.426 114.454 39.5301C114.454 41.7356 114.046 43.6961 113.228 45.3299C112.411 46.9636 111.267 48.3523 109.715 49.4959C108.244 50.6395 106.446 51.4564 104.322 51.9465C102.197 52.5183 99.9092 52.7634 97.376 52.7634H83.8933V7.50885ZM95.4149 26.8686C99.2554 26.8686 102.034 26.2151 103.75 24.8265C105.466 23.5195 106.283 21.559 106.283 19.0267C106.283 16.5761 105.384 14.779 103.586 13.6354C101.789 12.5734 99.1737 12.0016 95.6601 12.0016H89.695V26.7869H95.4149V26.8686ZM96.5589 48.2706C100.481 48.2706 103.505 47.5354 105.629 46.065C107.754 44.5947 108.816 42.3074 108.816 39.285C108.816 36.5077 107.754 34.3838 105.711 33.0768C103.668 31.7698 100.563 31.1163 96.5589 31.1163H89.695V48.2706H96.5589Z" fill="#FFF"/>
<path d="M121.645 7.50891H127.283V47.9439H149.754V52.8451H121.645V7.50891Z" fill="#FFF"/>
<path d="M141.992 20.5788H163.237V52.8451H157.599V25.2349H141.992V20.5788Z" fill="#FFF"/>
<path d="M159.233 15.2692C158.089 15.2692 157.109 14.9424 156.373 14.2072C155.638 13.5537 155.229 12.5735 155.229 11.4299C155.229 10.2863 155.638 9.30602 156.373 8.57084C157.109 7.83566 158.089 7.50891 159.233 7.50891C160.377 7.50891 161.358 7.83566 162.093 8.57084C162.829 9.30602 163.237 10.2046 163.237 11.4299C163.237 12.5735 162.829 13.5537 162.093 14.2072C161.358 14.9424 160.377 15.2692 159.233 15.2692Z" fill="#FFF"/>
<path d="M171.163 7.50891H185.055C187.506 7.50891 189.794 7.75397 191.919 8.16241C193.961 8.65253 195.759 9.38771 197.23 10.368C198.701 11.4299 199.845 12.7369 200.58 14.4523C201.397 16.1677 201.806 18.2916 201.806 20.7422C201.806 23.1111 201.397 25.235 200.58 26.9504C199.763 28.6658 198.619 30.1362 197.148 31.2798C195.677 32.4234 193.88 33.322 191.837 33.8938C189.794 34.4656 187.506 34.7923 185.055 34.7923H176.883V52.7634H171.163V7.50891ZM184.237 30.2179C188.241 30.2179 191.183 29.4827 193.144 28.0123C195.024 26.5419 196.004 24.173 196.004 20.9056C196.004 17.6381 195.024 15.3508 193.063 14.1255C191.101 12.9002 188.16 12.2467 184.237 12.2467H176.883V30.2179H184.237Z" fill="#FFF"/>
</svg>
