<svg width="247" height="88" viewBox="0 0 247 88" fill="none" xmlns="http://www.w3.org/2000/svg">
<path d="M38.6321 4.3C44.1339 4.3 49.9358 4.9 54.8374 5.9C65.2408 8 72.143 14.7 74.1437 24.6C75.3441 30.6 75.5441 36.9 74.7439 42.7C73.8436 49.1 71.8429 54.6 68.7419 59C66.041 62.8 62.2398 66.3 58.5386 69.6C57.7383 70.3 56.9381 71 56.2378 71.7C52.8367 74.9 49.3356 78 46.0345 80.8V76C46.0345 73.2 43.7338 70.8 40.8328 70.8C31.7299 70.8 18.9257 67.6 13.2238 61.8C6.22155 54.5 4.42096 43.9 4.2209 36.2C4.12086 28.8 5.22122 15.5 15.5246 9.1C20.6262 6 28.8289 4.3 38.6321 4.3ZM38.6321 0C29.4291 0 19.826 1.5 13.3239 5.5C2.82044 12 -0.280569 24.7 0.0195285 36.4C0.319626 46.5 3.02051 57.4 10.2229 64.8C17.1251 71.9 31.2297 75.1 40.8328 75.1C41.233 75.1 41.7331 75.4 41.7331 76V86.2C41.7331 87.2 42.5334 88 43.5337 88C43.6337 88 43.6337 88 43.7338 88C44.1339 88 44.434 87.8 44.7341 87.6C49.6357 83.5 54.4373 79.2 59.1388 74.9C63.6403 70.7 68.7419 66.5 72.2431 61.5C79.6455 51 80.7458 36.1 78.3451 23.8C75.9443 11.9 67.5415 4.2 55.7377 1.8C50.8361 0.7 44.8341 0 38.6321 0Z" fill="#00BCD4"/>
<path d="M102.653 8.20001H117.858C120.659 8.20001 123.26 8.50001 125.56 9.00001C127.861 9.50001 129.862 10.3 131.562 11.4C133.263 12.5 134.563 13.9 135.464 15.6C136.364 17.3 136.864 19.4 136.864 21.8C136.864 24.6 136.064 27.1 134.463 29.3C132.863 31.5 130.462 33.1 127.161 33.9V34.2C131.262 34.8 134.363 36.2 136.664 38.4C138.965 40.6 140.065 43.6 140.065 47.4C140.065 50.1 139.565 52.5 138.565 54.5C137.564 56.5 136.164 58.2 134.263 59.6C132.463 61 130.262 62 127.661 62.6C125.06 63.3 122.259 63.6 119.158 63.6H102.653V8.20001ZM116.758 31.9C121.459 31.9 124.86 31.1 126.961 29.4C129.062 27.8 130.062 25.4 130.062 22.3C130.062 19.3 128.962 17.1 126.761 15.7C124.56 14.4 121.359 13.7 117.058 13.7H109.755V31.8H116.758V31.9ZM118.158 58.1C122.96 58.1 126.661 57.2 129.262 55.4C131.862 53.6 133.163 50.8 133.163 47.1C133.163 43.7 131.862 41.1 129.362 39.5C126.861 37.9 123.06 37.1 118.158 37.1H109.755V58.1H118.158Z" fill="#546E7A"/>
<path d="M148.868 8.20001H155.77V57.7H183.279V63.7H148.868V8.20001Z" fill="#546E7A"/>
<path d="M173.776 24.2H199.785V63.7H192.882V29.9H173.776V24.2Z" fill="#546E7A"/>
<path d="M194.883 17.7C193.483 17.7 192.282 17.3 191.382 16.4C190.482 15.6 189.981 14.4 189.981 13C189.981 11.6 190.482 10.4 191.382 9.50001C192.282 8.60001 193.483 8.20001 194.883 8.20001C196.283 8.20001 197.484 8.60001 198.384 9.50001C199.284 10.4 199.785 11.5 199.785 13C199.785 14.4 199.284 15.6 198.384 16.4C197.484 17.3 196.283 17.7 194.883 17.7Z" fill="#546E7A"/>
<path d="M209.488 8.20001H226.493C229.494 8.20001 232.295 8.50001 234.896 9.00001C237.397 9.60001 239.598 10.5 241.398 11.7C243.199 13 244.599 14.6 245.499 16.7C246.5 18.8 247 21.4 247 24.4C247 27.3 246.5 29.9 245.499 32C244.499 34.1 243.099 35.9 241.298 37.3C239.498 38.7 237.297 39.8 234.796 40.5C232.295 41.2 229.494 41.6 226.493 41.6H216.49V63.6H209.488V8.20001ZM225.493 36C230.395 36 233.996 35.1 236.397 33.3C238.697 31.5 239.898 28.6 239.898 24.6C239.898 20.6 238.697 17.8 236.296 16.3C233.896 14.8 230.295 14 225.493 14H216.49V36H225.493Z" fill="#546E7A"/>
</svg>
