<svg width="128" height="128" viewBox="0 0 128 128" fill="none" xmlns="http://www.w3.org/2000/svg">
<path d="M21.3659 37.0715C21.4961 36.2692 21.6914 35.5311 22.1145 34.8251C24.5879 35.6595 26.7033 37.1678 28.9489 38.4515C40.2746 44.8057 51.5353 51.2561 62.7959 57.7066C63.577 58.1559 64.0977 58.1559 64.8462 57.7387C67.4498 56.2304 70.1185 54.8183 72.7221 53.31C83.7224 47.0521 94.6901 40.7621 105.658 34.5042C106.406 35.5632 106.667 36.7185 106.667 38.0022C106.667 51.4166 106.667 64.831 106.667 78.2775C106.667 80.9411 105.463 83.0271 103.119 84.375C84.178 95.1578 65.2368 105.941 46.2955 116.724C45.9375 116.948 45.547 117.141 45.189 117.333C44.9611 117.333 44.7659 117.333 44.5381 117.333C43.0735 116.691 42.6179 115.568 42.6179 114.028C42.683 107.995 42.6179 101.961 42.683 95.9281C42.683 94.9011 42.3901 94.3235 41.4463 93.7779C36.0763 90.7933 30.7715 87.7125 25.4015 84.6959C23.0257 83.3801 21.6588 81.4867 21.3334 78.8552C21.3334 64.9273 21.3334 50.9994 21.3659 37.0715Z" fill="#F16C00"/>
<path d="M105.658 34.5363C94.6903 40.7942 83.69 47.0842 72.7223 53.3421C70.1187 54.8183 67.45 56.2625 64.8464 57.7708C64.1304 58.188 63.5771 58.188 62.796 57.7387C51.5354 51.2882 40.2748 44.8378 28.9491 38.4836C26.7035 37.1999 24.5881 35.6916 22.1146 34.8572C22.7004 33.4131 23.8395 32.4182 25.1739 31.6801C36.825 25.005 48.5087 18.362 60.1924 11.751C62.6333 10.3711 65.1718 10.2748 67.6127 11.6548C79.4917 18.362 91.3381 25.1333 103.185 31.9047C104.259 32.5145 105.235 33.2847 105.658 34.5363Z" fill="#FF9900"/>
</svg>
