<svg width="72" height="72" viewBox="0 0 72 72" fill="none" xmlns="http://www.w3.org/2000/svg">
<path d="M50.56 15.13H49.36V12.61C49.36 12.0796 49.1493 11.5708 48.7742 11.1958C48.3991 10.8207 47.8904 10.61 47.36 10.61C46.8295 10.61 46.3208 10.8207 45.9458 11.1958C45.5707 11.5708 45.36 12.0796 45.36 12.61V15.13H25.86V12.61C25.86 12.0796 25.6493 11.5708 25.2742 11.1958C24.8991 10.8207 24.3904 10.61 23.86 10.61C23.3295 10.61 22.8208 10.8207 22.4458 11.1958C22.0707 11.5708 21.86 12.0796 21.86 12.61V15.13H21.44C18.8974 15.1326 16.4596 16.1439 14.6617 17.9418C12.8638 19.7397 11.8526 22.1774 11.85 24.72V51.81C11.8553 54.3509 12.8677 56.786 14.6653 58.5818C16.4629 60.3775 18.8991 61.3873 21.44 61.39H50.56C53.1009 61.3873 55.5371 60.3775 57.3347 58.5818C59.1323 56.786 60.1447 54.3509 60.15 51.81V24.72C60.1473 22.1774 59.1361 19.7397 57.3382 17.9418C55.5403 16.1439 53.1026 15.1326 50.56 15.13ZM56.15 51.81C56.1473 53.2908 55.5572 54.7101 54.5092 55.7562C53.4611 56.8024 52.0408 57.39 50.56 57.39H21.44C19.9591 57.39 18.5388 56.8024 17.4908 55.7562C16.4427 54.7101 15.8526 53.2908 15.85 51.81V29.92H56.15V51.81ZM56.15 25.92H15.85V24.72C15.8526 23.2382 16.4424 21.8179 17.4902 20.7702C18.5379 19.7224 19.9582 19.1326 21.44 19.13H21.86V21.66C21.86 22.1904 22.0707 22.6991 22.4458 23.0742C22.8208 23.4493 23.3295 23.66 23.86 23.66C24.3904 23.66 24.8991 23.4493 25.2742 23.0742C25.6493 22.6991 25.86 22.1904 25.86 21.66V19.13H45.36V21.66C45.36 22.1904 45.5707 22.6991 45.9458 23.0742C46.3208 23.4493 46.8295 23.66 47.36 23.66C47.8904 23.66 48.3991 23.4493 48.7742 23.0742C49.1493 22.6991 49.36 22.1904 49.36 21.66V19.13H50.56C52.0417 19.1326 53.462 19.7224 54.5098 20.7702C55.5575 21.8179 56.1473 23.2382 56.15 24.72V25.92Z" fill="black"/>
<path d="M27.98 34.85H22.01C20.9054 34.85 20.01 35.7454 20.01 36.85V42.82C20.01 43.9245 20.9054 44.82 22.01 44.82H27.98C29.0846 44.82 29.98 43.9245 29.98 42.82V36.85C29.98 35.7454 29.0846 34.85 27.98 34.85Z" fill="black"/>
</svg>
