<svg width="72" height="72" viewBox="0 0 72 72" fill="none" xmlns="http://www.w3.org/2000/svg">
<path d="M36 35C34.22 35 32.4799 34.4722 30.9999 33.4832C29.5198 32.4943 28.3663 31.0887 27.6851 29.4442C27.0039 27.7996 26.8257 25.99 27.1729 24.2442C27.5202 22.4984 28.3774 20.8947 29.636 19.636C30.8947 18.3774 32.4984 17.5202 34.2442 17.1729C35.99 16.8257 37.7996 17.0039 39.4442 17.6851C41.0887 18.3663 42.4943 19.5198 43.4832 20.9999C44.4722 22.4799 45 24.22 45 26C45 28.387 44.0518 30.6761 42.364 32.364C40.6761 34.0518 38.387 35 36 35ZM36 21C35.0111 21 34.0444 21.2932 33.2222 21.8427C32.3999 22.3921 31.759 23.173 31.3806 24.0866C31.0022 25.0002 30.9032 26.0056 31.0961 26.9755C31.289 27.9454 31.7652 28.8363 32.4645 29.5355C33.1637 30.2348 34.0546 30.711 35.0246 30.9039C35.9945 31.0969 36.9998 30.9978 37.9134 30.6194C38.8271 30.241 39.6079 29.6001 40.1574 28.7779C40.7068 27.9556 41 26.9889 41 26C41 25.3434 40.8707 24.6932 40.6194 24.0866C40.3681 23.48 39.9998 22.9288 39.5355 22.4645C39.0712 22.0002 38.5201 21.6319 37.9134 21.3806C37.3068 21.1293 36.6566 21 36 21Z" fill="black"/>
<path d="M46.55 54.9999H25.45C24.5835 54.9973 23.7533 54.6519 23.1407 54.0393C22.528 53.4266 22.1826 52.5964 22.18 51.7299V49.4199C22.1853 46.1117 23.5018 42.9404 25.8411 40.6011C28.1804 38.2618 31.3517 36.9452 34.66 36.9399H37.34C40.6483 36.9452 43.8195 38.2618 46.1588 40.6011C48.4982 42.9404 49.8147 46.1117 49.82 49.4199V51.7499C49.8121 52.6129 49.4644 53.438 48.8523 54.0464C48.2402 54.6547 47.413 54.9973 46.55 54.9999ZM26.18 50.9999H45.82V49.3999C45.82 47.1509 44.9266 44.994 43.3363 43.4037C41.7459 41.8134 39.589 40.9199 37.34 40.9199H34.66C32.411 40.9199 30.254 41.8134 28.6637 43.4037C27.0734 44.994 26.18 47.1509 26.18 49.3999V50.9999Z" fill="black"/>
<path opacity="0.7" d="M53.84 35.52C52.2189 35.5259 50.6325 35.0506 49.2817 34.1543C47.931 33.258 46.8766 31.981 46.2521 30.485C45.6276 28.989 45.4611 27.3413 45.7737 25.7506C46.0863 24.16 46.864 22.6978 48.0082 21.5494C49.1524 20.4011 50.6116 19.618 52.2011 19.2996C53.7907 18.9811 55.4389 19.1416 56.9372 19.7606C58.4355 20.3796 59.7164 21.4293 60.6176 22.7767C61.5189 24.1242 62 25.7089 62 27.33C61.9974 29.4961 61.1378 31.5732 59.6089 33.1077C58.08 34.6422 56.0061 35.5094 53.84 35.52ZM53.84 23.15C53.0096 23.144 52.1962 23.3849 51.503 23.8422C50.8098 24.2994 50.2681 24.9523 49.9467 25.7179C49.6252 26.4836 49.5385 27.3275 49.6976 28.1425C49.8567 28.9576 50.2544 29.7069 50.8401 30.2955C51.4259 30.8841 52.1734 31.2854 52.9876 31.4484C53.8019 31.6113 54.6462 31.5287 55.4134 31.2109C56.1806 30.8932 56.8361 30.3546 57.2966 29.6636C57.7571 28.9726 58.002 28.1604 58 27.33C58 26.2248 57.5624 25.1646 56.7828 24.3813C56.0032 23.598 54.9451 23.1553 53.84 23.15Z" fill="black"/>
<path opacity="0.7" d="M18.16 35.52C16.5398 35.522 14.9553 35.0433 13.6072 34.1446C12.259 33.2459 11.2077 31.9675 10.5863 30.4711C9.96491 28.9748 9.80129 27.3277 10.1162 25.7384C10.4311 24.149 11.2103 22.6887 12.3553 21.5424C13.5003 20.396 14.9596 19.6149 16.5486 19.2981C18.1375 18.9813 19.7848 19.1429 21.2819 19.7625C22.779 20.3821 24.0587 21.4318 24.9591 22.7789C25.8594 24.1259 26.34 25.7098 26.34 27.33C26.3374 29.4996 25.475 31.5797 23.9418 33.1148C22.4087 34.6498 20.3296 35.5147 18.16 35.52ZM18.16 23.15C17.3305 23.148 16.519 23.3923 15.8284 23.852C15.1379 24.3116 14.5993 24.9659 14.2809 25.7319C13.9625 26.498 13.8787 27.3413 14.0401 28.155C14.2014 28.9687 14.6007 29.7162 15.1873 30.3028C15.7738 30.8894 16.5213 31.2886 17.3351 31.45C18.1488 31.6113 18.9921 31.5275 19.7581 31.2091C20.5241 30.8908 21.1784 30.3522 21.6381 29.6616C22.0977 28.971 22.342 28.1596 22.34 27.33C22.3374 26.2222 21.8961 25.1606 21.1128 24.3772C20.3295 23.5939 19.2678 23.1527 18.16 23.15Z" fill="black"/>
<path opacity="0.7" d="M63.19 53.41H47.82C47.2896 53.41 46.7809 53.1993 46.4058 52.8242C46.0307 52.4491 45.82 51.9404 45.82 51.41V49.41C45.831 47.3907 45.1219 45.4336 43.82 43.89C43.5195 43.5429 43.3475 43.103 43.3329 42.6442C43.3183 42.1853 43.4621 41.7354 43.74 41.37C44.7926 39.9821 46.1538 38.8583 47.7159 38.0876C49.2781 37.317 50.9982 36.9206 52.74 36.93H55C56.4843 36.9273 57.9546 37.2174 59.3267 37.7836C60.6987 38.3498 61.9457 39.181 62.9962 40.2297C64.0467 41.2783 64.8801 42.5238 65.4487 43.8948C66.0173 45.2659 66.31 46.7357 66.31 48.22V50.28C66.31 51.1084 65.9816 51.903 65.3968 52.4897C64.812 53.0764 64.0184 53.4073 63.19 53.41ZM49.82 49.41H62.31V48.22C62.3087 47.2618 62.1185 46.3133 61.7503 45.4287C61.3821 44.544 60.8431 43.7407 60.1642 43.0645C59.4853 42.3884 58.6797 41.8527 57.7936 41.4882C56.9075 41.1236 55.9582 40.9373 55 40.94H52.66C50.897 40.9341 49.1929 41.5745 47.87 42.74C49.144 44.7313 49.8207 47.046 49.82 49.41Z" fill="black"/>
<path opacity="0.7" d="M24.18 53.41H8.81C7.98161 53.4073 7.18805 53.0764 6.60322 52.4897C6.01839 51.903 5.69 51.1084 5.69 50.28V48.22C5.69131 46.7365 5.98497 45.2679 6.55418 43.8979C7.1234 42.528 7.95701 41.2837 9.00737 40.2361C10.0577 39.1886 11.3043 38.3583 12.6757 37.7927C14.0471 37.2271 15.5165 36.9374 17 36.94H19.37C21.1119 36.9307 22.832 37.327 24.3941 38.0977C25.9562 38.8683 27.3174 39.9921 28.37 41.38C28.6479 41.7454 28.7917 42.1953 28.7771 42.6542C28.7625 43.113 28.5905 43.5529 28.29 43.9C26.97 45.4365 26.2429 47.3943 26.24 49.42V51.42C26.2388 51.6869 26.1842 51.9509 26.0793 52.1964C25.9745 52.4419 25.8216 52.6639 25.6296 52.8493C25.4376 53.0348 25.2104 53.1799 24.9615 53.2762C24.7125 53.3725 24.4468 53.418 24.18 53.41ZM9.69 49.41H22.18C22.1793 47.046 22.856 44.7313 24.13 42.74C22.8071 41.5745 21.103 40.9342 19.34 40.94H17C15.07 40.9426 13.2199 41.7105 11.8552 43.0752C10.4905 44.4399 9.72265 46.29 9.72 48.22L9.69 49.41Z" fill="black"/>
<path d="M46.55 54.9999H25.45C24.5835 54.9973 23.7533 54.6519 23.1407 54.0393C22.528 53.4266 22.1826 52.5964 22.18 51.7299V49.4199C22.1853 46.1117 23.5018 42.9404 25.8411 40.6011C28.1804 38.2618 31.3517 36.9452 34.66 36.9399H37.34C40.6483 36.9452 43.8195 38.2618 46.1588 40.6011C48.4982 42.9404 49.8147 46.1117 49.82 49.4199V51.7499C49.8121 52.6129 49.4644 53.438 48.8523 54.0464C48.2402 54.6547 47.413 54.9973 46.55 54.9999ZM26.18 50.9999H45.82V49.3999C45.82 47.1509 44.9266 44.994 43.3363 43.4037C41.7459 41.8134 39.589 40.9199 37.34 40.9199H34.66C32.411 40.9199 30.254 41.8134 28.6637 43.4037C27.0734 44.994 26.18 47.1509 26.18 49.3999V50.9999Z" fill="black"/>
</svg>
