<?xml version="1.0" encoding="UTF-8"?>
<svg width="24px" height="24px" viewBox="0 0 24 24" version="1.1" xmlns="http://www.w3.org/2000/svg" xmlns:xlink="http://www.w3.org/1999/xlink">
    <!-- Generator: Sketch 49 (51002) - http://www.bohemiancoding.com/sketch -->
    <title>Anchor</title>
    <desc>Created with Sketch.</desc>
    <defs></defs>
    <g id="Anchor" stroke="none" stroke-width="1" fill="none" fill-rule="evenodd">
        <g id="Group" transform="translate(8.000000, 0.000000)" fill="#A2AEC5" fill-rule="nonzero">
            <path d="M7.99998828,4 C6.01829498,4 4.37310266,5.44175 4.05560173,7.33334375 L-1.72388396,7.33334375 L-0.195285728,5.80475 C0.0650587844,5.54440625 0.0650587844,5.12228125 -0.195285728,4.8619375 C-0.455630241,4.60159375 -0.877756478,4.60159375 -1.13810099,4.8619375 L-3.8047963,7.52859375 C-3.8049213,7.52871875 -3.8049838,7.52884375 -3.8051088,7.5289375 C-3.8205151,7.544375 -3.83510889,7.5605625 -3.84895268,7.5774375 C-3.85529645,7.58515625 -3.86079647,7.59328125 -3.86673398,7.60121875 C-3.87382776,7.6106875 -3.88117153,7.61996875 -3.8877653,7.62984375 C-3.89410906,7.63934375 -3.89960908,7.6491875 -3.9054216,7.6589375 C-3.91076536,7.667875 -3.91635913,7.67659375 -3.92129664,7.68578125 C-3.92660916,7.69571875 -3.93110917,7.70590625 -3.93589044,7.7160625 C-3.9404217,7.72565625 -3.94520296,7.73509375 -3.94929673,7.74490625 C-3.95335924,7.75475 -3.95667175,7.7648125 -3.96023426,7.7748125 C-3.96401552,7.78534375 -3.96804678,7.79571875 -3.97129679,7.80646875 C-3.97432805,7.81646875 -3.97654681,7.82665625 -3.97907806,7.83675 C-3.98185932,7.84771875 -3.98492183,7.8585625 -3.98714059,7.86971875 C-3.98945309,7.8814375 -3.99085935,7.89325 -3.99254685,7.90503125 C-3.99392186,7.91475 -3.99579686,7.9243125 -3.99676562,7.9341875 C-4.00107813,7.9779375 -4.00107813,8.02203125 -3.99676562,8.06578125 C-3.99579686,8.075625 -3.99395311,8.08521875 -3.99254685,8.0949375 C-3.99085935,8.10671875 -3.98948434,8.11853125 -3.98717184,8.13025 C-3.98495308,8.1414375 -3.98189057,8.15228125 -3.97910931,8.16325 C-3.97657806,8.17334375 -3.9743593,8.18353125 -3.97132804,8.19353125 C-3.96807803,8.20428125 -3.96404677,8.2146875 -3.96026551,8.2251875 C-3.95667175,8.2351875 -3.95339049,8.24525 -3.94932798,8.25509375 C-3.94523421,8.2649375 -3.94045295,8.274375 -3.93592169,8.28396875 C-3.93114042,8.29409375 -3.92667166,8.30428125 -3.92135914,8.31421875 C-3.91642163,8.3234375 -3.91079661,8.3321875 -3.90545285,8.341125 C-3.89964033,8.35084375 -3.89414031,8.3606875 -3.88779655,8.37015625 C-3.88117153,8.38003125 -3.87382776,8.38934375 -3.86670273,8.39884375 C-3.86076522,8.40675 -3.85529645,8.41484375 -3.84898393,8.4225625 C-3.83504639,8.4395625 -3.82035885,8.45590625 -3.80482755,8.4714375 L-1.13816349,11.1380937 C-0.877818978,11.3984375 -0.455692741,11.3984375 -0.195348229,11.1380937 C0.0649962842,10.87775 0.0649962842,10.455625 -0.195348229,10.1952812 L-1.72394646,8.6666875 L4.05560173,8.6666875 C4.37310266,10.55825 6.01829498,12 7.99998828,12 C10.2088385,12 12,10.2088437 12,8 C12,5.79115625 10.2088385,4 7.99998828,4 Z M7.99998828,10.6666563 C6.52751522,10.6666563 5.33332422,9.47246875 5.33332422,8 C5.33332422,6.52753125 6.52751522,5.33334375 7.99998828,5.33334375 C9.47246135,5.33334375 10.6666523,6.52753125 10.6666523,8 C10.6666523,9.47246875 9.47246135,10.6666563 7.99998828,10.6666563 Z" id="Shape" transform="translate(4.000000, 8.000000) rotate(-270.000000) translate(-4.000000, -8.000000) "></path>
            <path d="M7.99998828,12 C6.01829498,12 4.37310266,13.44175 4.05560173,15.3333438 L-1.72388396,15.3333438 L-0.195285728,13.80475 C0.0650587844,13.5444063 0.0650587844,13.1222813 -0.195285728,12.8619375 C-0.455630241,12.6015937 -0.877756478,12.6015937 -1.13810099,12.8619375 L-3.8047963,15.5285937 C-3.8049213,15.5287187 -3.8049838,15.5288438 -3.8051088,15.5289375 C-3.8205151,15.544375 -3.83510889,15.5605625 -3.84895268,15.5774375 C-3.85529645,15.5851563 -3.86079647,15.5932813 -3.86673398,15.6012187 C-3.87382776,15.6106875 -3.88117153,15.6199687 -3.8877653,15.6298437 C-3.89410906,15.6393437 -3.89960908,15.6491875 -3.9054216,15.6589375 C-3.91076536,15.667875 -3.91635913,15.6765937 -3.92129664,15.6857812 C-3.92660916,15.6957188 -3.93110917,15.7059062 -3.93589044,15.7160625 C-3.9404217,15.7256563 -3.94520296,15.7350938 -3.94929673,15.7449062 C-3.95335924,15.75475 -3.95667175,15.7648125 -3.96023426,15.7748125 C-3.96401552,15.7853437 -3.96804678,15.7957187 -3.97129679,15.8064688 C-3.97432805,15.8164687 -3.97654681,15.8266562 -3.97907806,15.83675 C-3.98185932,15.8477187 -3.98492183,15.8585625 -3.98714059,15.8697188 C-3.98945309,15.8814375 -3.99085935,15.89325 -3.99254685,15.9050313 C-3.99392186,15.91475 -3.99579686,15.9243125 -3.99676562,15.9341875 C-4.00107813,15.9779375 -4.00107813,16.0220312 -3.99676562,16.0657813 C-3.99579686,16.075625 -3.99395311,16.0852187 -3.99254685,16.0949375 C-3.99085935,16.1067187 -3.98948434,16.1185312 -3.98717184,16.13025 C-3.98495308,16.1414375 -3.98189057,16.1522812 -3.97910931,16.16325 C-3.97657806,16.1733437 -3.9743593,16.1835312 -3.97132804,16.1935312 C-3.96807803,16.2042812 -3.96404677,16.2146875 -3.96026551,16.2251875 C-3.95667175,16.2351875 -3.95339049,16.24525 -3.94932798,16.2550937 C-3.94523421,16.2649375 -3.94045295,16.274375 -3.93592169,16.2839687 C-3.93114042,16.2940937 -3.92667166,16.3042812 -3.92135914,16.3142187 C-3.91642163,16.3234375 -3.91079661,16.3321875 -3.90545285,16.341125 C-3.89964033,16.3508437 -3.89414031,16.3606875 -3.88779655,16.3701562 C-3.88117153,16.3800312 -3.87382776,16.3893437 -3.86670273,16.3988437 C-3.86076522,16.40675 -3.85529645,16.4148437 -3.84898393,16.4225625 C-3.83504639,16.4395625 -3.82035885,16.4559062 -3.80482755,16.4714375 L-1.13816349,19.1380937 C-0.877818978,19.3984375 -0.455692741,19.3984375 -0.195348229,19.1380937 C0.0649962842,18.87775 0.0649962842,18.455625 -0.195348229,18.1952812 L-1.72394646,16.6666875 L4.05560173,16.6666875 C4.37310266,18.55825 6.01829498,20 7.99998828,20 C10.2088385,20 12,18.2088437 12,16 C12,13.7911563 10.2088385,12 7.99998828,12 Z M7.99998828,18.6666563 C6.52751522,18.6666563 5.33332422,17.4724688 5.33332422,16 C5.33332422,14.5275313 6.52751522,13.3333438 7.99998828,13.3333438 C9.47246135,13.3333438 10.6666523,14.5275313 10.6666523,16 C10.6666523,17.4724688 9.47246135,18.6666563 7.99998828,18.6666563 Z" id="Shape" transform="translate(4.000000, 16.000000) rotate(-90.000000) translate(-4.000000, -16.000000) "></path>
        </g>
    </g>
</svg>