<?xml version="1.0" encoding="UTF-8"?>
<svg width="32px" height="24px" viewBox="0 0 32 24" version="1.1" xmlns="http://www.w3.org/2000/svg" xmlns:xlink="http://www.w3.org/1999/xlink">
    <!-- Generator: Sketch 48 (47235) - http://www.bohemiancoding.com/sketch -->
    <title>Contact</title>
    <desc>Created with Sketch.</desc>
    <defs>
        <rect id="path-1" x="0" y="0" width="27" height="18" rx="4"></rect>
    </defs>
    <g id="Builder-/-Setup---2" stroke="none" stroke-width="1" fill="none" fill-rule="evenodd">
        <g id="Contact">
            <g id="Group-16" transform="translate(3.000000, 3.000000)">
                <g id="Rectangle-42">
                    <use fill="#0CC8CC" fill-rule="evenodd" xlink:href="#path-1"></use>
                    <rect stroke="#0CC8CC" stroke-width="1" x="0.5" y="0.5" width="26" height="17" rx="4"></rect>
                </g>
                <g id="user-shape" transform="translate(3.000000, 4.000000)" fill="#B0F6F8" fill-rule="nonzero">
                    <path d="M4.4999772,5 C5.19023231,5 5.77938105,4.7557772 6.26758302,4.26753684 C6.7558306,3.77929647 7,3.19012893 7,2.49994299 C7,1.80987107 6.7558306,1.22068072 6.26758302,0.732326342 C5.77922143,0.244108781 5.19004989,0 4.4999772,0 C3.8099045,0 3.22064175,0.244108781 2.73243978,0.732326342 C2.24414659,1.22068072 2,1.80984827 2,2.49994299 C2,3.19012893 2.24414659,3.77929647 2.73243978,4.26753684 C3.22077857,4.7557772 3.8098817,5 4.4999772,5 Z" id="Shape"></path>
                    <path d="M8.97743272,7.82153938 C8.96247743,7.61927615 8.93261161,7.40086808 8.8879472,7.16646249 C8.84319325,6.9320569 8.78666312,6.71480654 8.71846875,6.51439565 C8.65027438,6.31413211 8.5586396,6.11879412 8.44358678,5.92846588 C8.32857875,5.73815869 8.19648854,5.57593133 8.04724899,5.44165751 C7.89800944,5.30742579 7.71588167,5.20032669 7.50084329,5.12021285 C7.28553625,5.04012007 7.04795297,5 6.78800392,5 C6.74969776,5 6.66018985,5.04306697 6.51954736,5.12922197 C6.3790392,5.21537697 6.22028468,5.31155146 6.04344051,5.4177665 C5.86661874,5.52379208 5.63637879,5.62002972 5.35312365,5.70603738 C5.06973418,5.79219237 4.78533724,5.8352804 4.49973134,5.8352804 C4.21423738,5.8352804 3.92981806,5.79219237 3.64647337,5.70603738 C3.36315106,5.62002972 3.13297827,5.52379208 2.95613411,5.4177665 C2.77931233,5.31155146 2.62060259,5.21539802 2.48000488,5.12922197 C2.33934,5.04306697 2.24989925,5 2.21154832,5 C1.95162165,5 1.71403838,5.04012007 1.49886567,5.12021285 C1.28364818,5.20032669 1.10149802,5.30750999 0.952325633,5.44165751 C0.803198026,5.57593133 0.671085428,5.73815869 0.556077393,5.92846588 C0.441069359,6.11879412 0.349456962,6.31421631 0.281262593,6.51439565 C0.213090612,6.71480654 0.156605257,6.9320569 0.111873691,7.16646249 C0.0670973487,7.40086808 0.0372763049,7.61912881 0.0223433947,7.82153938 C0.0074328728,8.02394995 0,8.23128607 0,8.44363194 C0,8.92431495 0.155575401,9.30402422 0.466614262,9.5824861 C0.777720287,9.86084273 1.19109548,10 1.70669506,10 L7.29328255,10 C7.80883736,10 8.22216777,9.86084273 8.53331857,9.5824861 C8.84453654,9.30402422 9,8.9243781 9,8.44363194 C8.99995522,8.23128607 8.99252235,8.02394995 8.97743272,7.82153938 Z" id="Shape"></path>
                </g>
                <g id="Group-28" transform="translate(12.000000, 5.000000)" stroke="#B0F6F8">
                    <path d="M0.00107985555,1.33226763e-15 C0.667026619,4.4408921e-16 4.33333333,0 11,0" id="Path-13"></path>
                    <path d="M1.12836042,4 C1.04278681,4 4.33333333,4 11,4" id="Path-13-Copy"></path>
                    <path d="M2.16071429,8 C0.275793651,8 3.22222222,8 11,8" id="Path-13-Copy-2"></path>
                </g>
            </g>
        </g>
    </g>
</svg>