<?xml version="1.0" encoding="UTF-8"?>
<svg width="24px" height="24px" viewBox="0 0 24 24" version="1.1" xmlns="http://www.w3.org/2000/svg" xmlns:xlink="http://www.w3.org/1999/xlink">
    <!-- Generator: Sketch 48 (47235) - http://www.bohemiancoding.com/sketch -->
    <title>Import</title>
    <desc>Created with Sketch.</desc>
    <defs></defs>
    <g id="Builder-/-Setup---2" stroke="none" stroke-width="1" fill="none" fill-rule="evenodd">
        <g id="Import">
            <g id="Group-Copy-3" transform="translate(3.000000, 4.000000)">
                <path d="M11.7206935,5.36000604 L11.7206935,1 C11.7206935,0.44771525 11.2729783,-1.01453063e-16 10.7206935,0 L7.28827741,0 C6.73599266,5.91980459e-16 6.28827741,0.44771525 6.28827741,1 L6.28827741,5.36000604 L5.10397414,5.36000604 C4.55168939,5.36000604 4.10397414,5.80772129 4.10397414,6.36000604 C4.10397414,6.62754821 4.21118151,6.88393365 4.40162739,7.07184102 L8.30213872,10.9203614 C8.69154929,11.3045815 9.31742164,11.3045815 9.70683222,10.9203614 L13.6073435,7.07184102 C14.0004792,6.68394562 14.0047272,6.05079489 13.6168318,5.65765929 C13.4289244,5.46721341 13.172539,5.36000604 12.9049968,5.36000604 L11.7206935,5.36000604 Z M1,16 L17.6666667,16 C18.2189514,16 18.6666667,15.5522847 18.6666667,15 L18.6666667,13.4444444 C18.6666667,12.8921597 18.2189514,12.4444444 17.6666667,12.4444444 L1,12.4444444 C0.44771525,12.4444444 -6.76353751e-17,12.8921597 0,13.4444444 L0,15 C6.76353751e-17,15.5522847 0.44771525,16 1,16 Z" id="Shape" fill="#8CA0B3"></path>
                <circle id="Oval" fill="#FFFFFF" cx="16" cy="14.2222222" r="1"></circle>
            </g>
        </g>
    </g>
</svg>