<?xml version="1.0" encoding="UTF-8"?>
<svg width="22px" height="24px" viewBox="0 0 22 24" version="1.1" xmlns="http://www.w3.org/2000/svg" xmlns:xlink="http://www.w3.org/1999/xlink">
    <!-- Generator: Sketch 47.1 (45422) - http://www.bohemiancoding.com/sketch -->
    <title>Artboard 5</title>
    <desc>Created with Sketch.</desc>
    <defs></defs>
    <g id="Builder-/-Setup---2" stroke="none" stroke-width="1" fill="none" fill-rule="evenodd" opacity="0.816576087">
        <g id="Artboard-5" fill="#0CC8CC">
            <path d="M11,7.5 C12.375,7.5 13.5,6.375 13.5,5 C13.5,3.625 12.375,2.5 11,2.5 C9.625,2.5 8.5,3.625 8.5,5 C8.5,6.375 9.625,7.5 11,7.5 L11,7.5 Z M11,10.5 C9.625,10.5 8.5,11.625 8.5,13 C8.5,14.375 9.625,15.5 11,15.5 C12.375,15.5 13.5,14.375 13.5,13 C13.5,11.625 12.375,10.5 11,10.5 L11,10.5 Z M11,17.5 C9.625,17.5 8.5,18.625 8.5,20 C8.5,21.375 9.625,22.5 11,22.5 C12.375,22.5 13.5,21.375 13.5,20 C13.5,18.625 12.375,17.5 11,17.5 L11,17.5 Z" id="Shape" transform="translate(11.000000, 12.500000) rotate(90.000000) translate(-11.000000, -12.500000) "></path>
        </g>
    </g>
</svg>