<?xml version="1.0" encoding="UTF-8"?>
<svg width="24px" height="24px" viewBox="0 0 24 24" version="1.1" xmlns="http://www.w3.org/2000/svg" xmlns:xlink="http://www.w3.org/1999/xlink">
    <!-- Generator: Sketch 48 (47235) - http://www.bohemiancoding.com/sketch -->
    <title>Restore</title>
    <desc>Created with Sketch.</desc>
    <defs></defs>
    <g id="Builder-/-Setup---2" stroke="none" stroke-width="1" fill="none" fill-rule="evenodd">
        <g id="Restore" fill="#8CA0B3">
            <g id="Group-2-Copy" transform="translate(4.000000, 4.000000)">
                <path d="M8,0 C3.6,0 0,3.6 0,8 C0,12.4 3.6,16 8,16 C11.7,16 14.8,13.4 16,10 L14,10 C12.8,12.3 10.6,14 8,14 C4.7,14 2,11.3 2,8 C2,4.7 4.7,2 8,2 C9.7,2 11.1,2.7 12,4 L10.7071068,5.29289322 C10.3165825,5.68341751 10.3165825,6.31658249 10.7071068,6.70710678 C10.8946432,6.89464316 11.1489971,7 11.4142136,7 L15,7 C15.5522847,7 16,6.55228475 16,6 L16,2.41421356 C16,1.86192881 15.5522847,1.41421356 15,1.41421356 C14.7347835,1.41421356 14.4804296,1.5195704 14.2928932,1.70710678 L14,2 C12.2,1 10.2,0 8,0 Z" id="Icon-/Testing"></path>
                <path d="M10.4,10 L7.6,10 C7.272,10 7,9.7073808 7,9.34683214 L7,4.65316786 C7,4.2926192 7.272,4 7.6,4 C7.932,4 8.2,4.2926192 8.2,4.65316786 L8.2,8.69366427 L10.4,8.69366427 C10.732,8.69366427 11,8.98584803 11,9.34683214 C11,9.7073808 10.732,10 10.4,10" id="Path"></path>
            </g>
        </g>
    </g>
</svg>