<?xml version="1.0" encoding="UTF-8"?>
<svg width="32px" height="24px" viewBox="0 0 32 24" version="1.1" xmlns="http://www.w3.org/2000/svg" xmlns:xlink="http://www.w3.org/1999/xlink">
    <!-- Generator: Sketch 48 (47235) - http://www.bohemiancoding.com/sketch -->
    <title>.JS</title>
    <desc>Created with Sketch.</desc>
    <defs>
        <rect id="path-1" x="0" y="0" width="30" height="18.9473684" rx="5"></rect>
    </defs>
    <g id="Builder-/-Setup---2" stroke="none" stroke-width="1" fill="none" fill-rule="evenodd">
        <g id=".JS">
            <g id="Group-17" transform="translate(1.000000, 2.000000)">
                <g id="Group-18">
                    <g id="Rectangle-3-Copy">
                        <use fill="#B0F6F8" fill-rule="evenodd" xlink:href="#path-1"></use>
                        <rect stroke="#0CC8CC" stroke-width="1" x="0.5" y="0.5" width="29" height="17.9473684" rx="5"></rect>
                    </g>
                </g>
            </g>
            <path d="M10.365,14.987 C10.156999,14.987 9.99883388,14.9306672 9.8905,14.818 C9.78216612,14.7053328 9.728,14.5406677 9.728,14.324 L9.728,14.077 C9.728,13.868999 9.78216612,13.7086672 9.8905,13.596 C9.99883388,13.4833328 10.156999,13.427 10.365,13.427 L10.495,13.427 C10.7116678,13.427 10.8741661,13.4833328 10.9825,13.596 C11.0908339,13.7086672 11.145,13.868999 11.145,14.077 L11.145,14.324 C11.145,14.7660022 10.9283355,14.987 10.495,14.987 L10.365,14.987 Z M12.185,17.561 C12.0203325,17.561 11.8838339,17.5046672 11.7755,17.392 C11.6671661,17.2793328 11.613,17.1450008 11.613,16.989 L11.613,16.872 C11.613,16.5859986 11.7906649,16.3996671 12.146,16.313 C12.7006694,16.1569992 12.978,15.7236702 12.978,15.013 L12.978,8.812 C12.978,8.6386658 13.0364994,8.49133394 13.1535,8.37 C13.2705006,8.24866606 13.4199991,8.188 13.602,8.188 C13.7753342,8.188 13.9204994,8.24866606 14.0375,8.37 C14.1545006,8.49133394 14.213,8.6386658 14.213,8.812 L14.213,15.325 C14.213,15.7756689 14.1198343,16.1699983 13.9335,16.508 C13.7471657,16.8460017 13.4980016,17.1059991 13.186,17.288 C12.8739984,17.4700009 12.5403351,17.561 12.185,17.561 Z M13.589,7.265 C13.3376654,7.265 13.1578339,7.21950046 13.0495,7.1285 C12.9411661,7.03749954 12.887,6.89233433 12.887,6.693 L12.887,6.485 C12.887,6.27699896 12.9454994,6.1296671 13.0625,6.043 C13.1795006,5.9563329 13.3593321,5.913 13.602,5.913 C13.8446679,5.913 14.0201661,5.95849954 14.1285,6.0495 C14.2368339,6.14050045 14.291,6.28566567 14.291,6.485 L14.291,6.693 C14.291,6.90100104 14.2346672,7.0483329 14.122,7.135 C14.0093328,7.2216671 13.8316679,7.265 13.589,7.265 Z M15.799,13.934 C15.7209996,13.8126661 15.682,13.6956672 15.682,13.583 C15.682,13.4096658 15.7729991,13.2623339 15.955,13.141 C16.0416671,13.080333 16.1413328,13.05 16.254,13.05 C16.4100008,13.05 16.5529994,13.1149993 16.683,13.245 C16.9430013,13.5396681 17.2224985,13.7606659 17.5215,13.908 C17.8205015,14.0553341 18.1779979,14.129 18.594,14.129 C18.923335,14.1203333 19.2136654,14.0445007 19.465,13.9015 C19.7163346,13.7584993 19.842,13.5266683 19.842,13.206 C19.842,12.9113319 19.7141679,12.6860008 19.4585,12.53 C19.2028321,12.3739992 18.8280025,12.2310006 18.334,12.101 C17.8486642,11.9709993 17.4456683,11.8345007 17.125,11.6915 C16.8043317,11.5484993 16.5335011,11.3405014 16.3125,11.0675 C16.0914989,10.7944986 15.981,10.4370022 15.981,9.995 C15.981,9.60499805 16.0914989,9.26266814 16.3125,8.968 C16.5335011,8.67333186 16.8281648,8.44366749 17.1965,8.279 C17.5648352,8.11433251 17.9656645,8.032 18.399,8.032 C18.8150021,8.032 19.2288313,8.10999922 19.6405,8.266 C20.0521687,8.42200078 20.3879987,8.66033173 20.648,8.981 C20.7520005,9.10233394 20.804,9.22799935 20.804,9.358 C20.804,9.49666736 20.7346674,9.63099935 20.596,9.761 C20.5093329,9.83900039 20.4010007,9.878 20.271,9.878 C20.1149992,9.878 19.9893338,9.82600052 19.894,9.722 C19.7119991,9.51399896 19.4888347,9.35366723 19.2245,9.241 C18.9601653,9.12833277 18.6676683,9.072 18.347,9.072 C18.017665,9.072 17.7381678,9.13916599 17.5085,9.2735 C17.2788322,9.407834 17.164,9.63533173 17.164,9.956 C17.1726667,10.2593349 17.3048321,10.4846659 17.5605,10.632 C17.8161679,10.7793341 18.2083307,10.9223326 18.737,11.061 C19.1963356,11.1823339 19.5776652,11.3123326 19.881,11.451 C20.1843348,11.5896674 20.439999,11.7954986 20.648,12.0685 C20.856001,12.3415014 20.96,12.6989978 20.96,13.141 C20.96,13.5483354 20.8430012,13.9014985 20.609,14.2005 C20.3749988,14.4995015 20.0695019,14.7291659 19.6925,14.8895 C19.3154981,15.0498341 18.9146688,15.13 18.49,15.13 C17.9439973,15.13 17.439169,15.0346676 16.9755,14.844 C16.511831,14.6533324 16.1196683,14.3500021 15.799,13.934 Z" id=".js" fill="#0CC8CC"></path>
        </g>
    </g>
</svg>