<svg xmlns="http://www.w3.org/2000/svg" width="32" height="24" viewBox="0 0 32 24">
  <g fill="none" fill-rule="evenodd">
    <rect width="29" height="17.947" x=".5" y=".5" fill="#B0F6F8" stroke="#0CC8CC" rx="5" transform="translate(1 2)"/>
    <path fill="#0CC8CC" d="M6.792 16.392C6.92000064 16.392 7.02199962 16.4259997 7.098 16.494 7.17400038 16.5620003 7.212 16.6559994 7.212 16.776 7.212 16.9040006 7.17400038 16.9999997 7.098 17.064 7.02199962 17.1280003 6.92000064 17.16 6.792 17.16L5.964 17.16C5.57199804 17.16 5.27200104 17.0540011 5.064 16.842 4.85599896 16.6299989 4.752 16.328002 4.752 15.936L4.752 13.212C4.752 12.8839984 4.69000062 12.6440008 4.566 12.492 4.44199938 12.3399992 4.22400156 12.2560001 3.912 12.24 3.77599932 12.232 3.67200036 12.1920004 3.6 12.12 3.52799964 12.0479996 3.492 11.9560006 3.492 11.844 3.492 11.7319994 3.52799964 11.6400004 3.6 11.568 3.67200036 11.4959996 3.77599932 11.456 3.912 11.448 4.22400156 11.4319999 4.44199938 11.3500007 4.566 11.202 4.69000062 11.0539993 4.752 10.8160016 4.752 10.488L4.752 7.764C4.752 7.37199804 4.85599896 7.07000106 5.064 6.858 5.27200104 6.64599894 5.57199804 6.54 5.964 6.54L6.792 6.54C6.92000064 6.54 7.02199962 6.57199968 7.098 6.636 7.17400038 6.70000032 7.212 6.79599936 7.212 6.924 7.212 7.0440006 7.17400038 7.13799966 7.098 7.206 7.02199962 7.27400034 6.92000064 7.308 6.792 7.308L6.228 7.308C5.88399828 7.308 5.712 7.4879982 5.712 7.848L5.712 10.584C5.712 10.9360018 5.62600086 11.2199989 5.454 11.436 5.28199914 11.6520011 5.0760012 11.7879997 4.836 11.844 5.0760012 11.9000003 5.28199914 12.0359989 5.454 12.252 5.62600086 12.4680011 5.712 12.7519982 5.712 13.104L5.712 15.852C5.712 16.2120018 5.88399828 16.392 6.228 16.392L6.792 16.392zM11.004 16.392C11.1320006 16.392 11.2339996 16.4259997 11.31 16.494 11.3860004 16.5620003 11.424 16.6559994 11.424 16.776 11.424 16.9040006 11.3860004 16.9999997 11.31 17.064 11.2339996 17.1280003 11.1320006 17.16 11.004 17.16L10.176 17.16C9.78399804 17.16 9.48400104 17.0540011 9.276 16.842 9.06799896 16.6299989 8.964 16.328002 8.964 15.936L8.964 13.212C8.964 12.8839984 8.90200062 12.6440008 8.778 12.492 8.65399938 12.3399992 8.43600156 12.2560001 8.124 12.24 7.98799932 12.232 7.88400036 12.1920004 7.812 12.12 7.73999964 12.0479996 7.704 11.9560006 7.704 11.844 7.704 11.7319994 7.73999964 11.6400004 7.812 11.568 7.88400036 11.4959996 7.98799932 11.456 8.124 11.448 8.43600156 11.4319999 8.65399938 11.3500007 8.778 11.202 8.90200062 11.0539993 8.964 10.8160016 8.964 10.488L8.964 7.764C8.964 7.37199804 9.06799896 7.07000106 9.276 6.858 9.48400104 6.64599894 9.78399804 6.54 10.176 6.54L11.004 6.54C11.1320006 6.54 11.2339996 6.57199968 11.31 6.636 11.3860004 6.70000032 11.424 6.79599936 11.424 6.924 11.424 7.0440006 11.3860004 7.13799966 11.31 7.206 11.2339996 7.27400034 11.1320006 7.308 11.004 7.308L10.44 7.308C10.0959983 7.308 9.924 7.4879982 9.924 7.848L9.924 10.584C9.924 10.9360018 9.83800086 11.2199989 9.666 11.436 9.49399914 11.6520011 9.2880012 11.7879997 9.048 11.844 9.2880012 11.9000003 9.49399914 12.0359989 9.666 12.252 9.83800086 12.4680011 9.924 12.7519982 9.924 13.104L9.924 15.852C9.924 16.2120018 10.0959983 16.392 10.44 16.392L11.004 16.392zM24.012 11.448C24.1480007 11.456 24.2519996 11.4959996 24.324 11.568 24.3960004 11.6400004 24.432 11.7319994 24.432 11.844 24.432 11.9560006 24.3960004 12.0479996 24.324 12.12 24.2519996 12.1920004 24.1480007 12.232 24.012 12.24 23.6999984 12.2560001 23.4840006 12.3379993 23.364 12.486 23.2439994 12.6340007 23.184 12.8759983 23.184 13.212L23.172 15.936C23.172 16.328002 23.068001 16.6299989 22.86 16.842 22.651999 17.0540011 22.352002 17.16 21.96 17.16L21.132 17.16C21.0039994 17.16 20.9020004 17.1280003 20.826 17.064 20.7499996 16.9999997 20.712 16.9040006 20.712 16.776 20.712 16.6559994 20.7499996 16.5620003 20.826 16.494 20.9020004 16.4259997 21.0039994 16.392 21.132 16.392L21.684 16.392C22.0360018 16.392 22.212 16.2120018 22.212 15.852L22.212 13.104C22.212 12.7519982 22.2979991 12.4680011 22.47 12.252 22.6420009 12.0359989 22.8479988 11.9000003 23.088 11.844 22.8479988 11.7879997 22.6420009 11.6520011 22.47 11.436 22.2979991 11.2199989 22.212 10.9360018 22.212 10.584L22.212 7.848C22.212 7.4879982 22.0360018 7.308 21.684 7.308L21.132 7.308C21.0039994 7.308 20.9020004 7.27400034 20.826 7.206 20.7499996 7.13799966 20.712 7.0440006 20.712 6.924 20.712 6.79599936 20.7499996 6.70000032 20.826 6.636 20.9020004 6.57199968 21.0039994 6.54 21.132 6.54L21.96 6.54C22.352002 6.54 22.651999 6.64599894 22.86 6.858 23.068001 7.07000106 23.172 7.37199804 23.172 7.764L23.172 10.488C23.172 10.8160016 23.2339994 11.0539993 23.358 11.202 23.4820006 11.3500007 23.6999984 11.4319999 24.012 11.448zM28.224 11.448C28.3600007 11.456 28.4639996 11.4959996 28.536 11.568 28.6080004 11.6400004 28.644 11.7319994 28.644 11.844 28.644 11.9560006 28.6080004 12.0479996 28.536 12.12 28.4639996 12.1920004 28.3600007 12.232 28.224 12.24 27.9119984 12.2560001 27.6960006 12.3379993 27.576 12.486 27.4559994 12.6340007 27.396 12.8759983 27.396 13.212L27.384 15.936C27.384 16.328002 27.280001 16.6299989 27.072 16.842 26.863999 17.0540011 26.564002 17.16 26.172 17.16L25.344 17.16C25.2159994 17.16 25.1140004 17.1280003 25.038 17.064 24.9619996 16.9999997 24.924 16.9040006 24.924 16.776 24.924 16.6559994 24.9619996 16.5620003 25.038 16.494 25.1140004 16.4259997 25.2159994 16.392 25.344 16.392L25.896 16.392C26.2480018 16.392 26.424 16.2120018 26.424 15.852L26.424 13.104C26.424 12.7519982 26.5099991 12.4680011 26.682 12.252 26.8540009 12.0359989 27.0599988 11.9000003 27.3 11.844 27.0599988 11.7879997 26.8540009 11.6520011 26.682 11.436 26.5099991 11.2199989 26.424 10.9360018 26.424 10.584L26.424 7.848C26.424 7.4879982 26.2480018 7.308 25.896 7.308L25.344 7.308C25.2159994 7.308 25.1140004 7.27400034 25.038 7.206 24.9619996 7.13799966 24.924 7.0440006 24.924 6.924 24.924 6.79599936 24.9619996 6.70000032 25.038 6.636 25.1140004 6.57199968 25.2159994 6.54 25.344 6.54L26.172 6.54C26.564002 6.54 26.863999 6.64599894 27.072 6.858 27.280001 7.07000106 27.384 7.37199804 27.384 7.764L27.384 10.488C27.384 10.8160016 27.4459994 11.0539993 27.57 11.202 27.6940006 11.3500007 27.9119984 11.4319999 28.224 11.448zM18.7 14.256C18.7960005 14.3520005 18.844 14.4679993 18.844 14.604 18.844 14.7240006 18.8000004 14.8279996 18.712 14.916 18.6239996 15.0040004 18.5200006 15.048 18.4 15.048 18.2719994 15.048 18.1560005 14.9920006 18.052 14.88L16.108 12.66 14.176 14.88C14.0719995 14.9920006 13.9560006 15.048 13.828 15.048 13.7079994 15.048 13.6020005 15.0040004 13.51 14.916 13.4179995 14.8279996 13.372 14.7200006 13.372 14.592 13.372 14.4719994 13.4199995 14.3600005 13.516 14.256L15.508 12.012 13.6 9.84C13.5039995 9.72799944 13.456 9.61600056 13.456 9.504 13.456 9.37599936 13.5019995 9.26800044 13.594 9.18 13.6860005 9.09199956 13.7879994 9.048 13.9 9.048 14.0280006 9.048 14.1439995 9.10399944 14.248 9.216L16.108 11.352 17.968 9.216C18.0720005 9.10399944 18.1879994 9.048 18.316 9.048 18.4360006 9.048 18.5399996 9.09199956 18.628 9.18 18.7160004 9.26800044 18.76 9.3719994 18.76 9.492 18.76 9.62800068 18.7120005 9.74399952 18.616 9.84L16.708 12.012 18.7 14.256z"/>
  </g>
</svg>
