<?xml version="1.0" standalone="no"?>
<svg width="1024px" height="1024px" version="1.1" xmlns="http://www.w3.org/2000/svg">
<path transform="scale(1, -1) translate(0, -1024)" unicode="&#xe604;" d="M124.064 895.136h-59.68v-680.192h356.832l-0.736-147.296-89.184-0.48v-34.592h360.672v34.592l-90.816 0.48v147.296h357.728v680.192h-834.816zM909.056 274.848h-785.504v556.832h785.504v-556.832zM498.272 398.88c0-12.288-0.928-23.328-2.752-33.248-1.92-9.888-5.312-18.432-10.4-25.632-5.056-7.136-11.904-12.672-20.512-16.608-8.608-3.904-19.648-5.952-33.152-5.952-8.096 0-16.192 1.6-24.32 4.64l4.544 27.2c7.104-2.72 13.472-4.16 19.264-4.16 8.096 0 14.592 1.504 19.488 4.416 4.864 2.912 8.608 6.624 11.136 11.264s4.256 9.984 5.056 16.128c0.8 6.112 1.312 12.672 1.312 19.392v301.344h30.336v-298.784zM483.104 793.792c-7.904 0-14.624-2.784-20.064-8.288-5.472-5.504-8.192-12.32-8.192-20.288 0-8 2.72-14.816 8.192-20.32 5.44-5.504 12.16-8.256 20.064-8.256 7.872 0 14.624 2.752 20.096 8.256 5.408 5.536 8.16 12.32 8.16 20.32 0 7.936-2.752 14.784-8.16 20.288-5.536 5.504-12.256 8.288-20.096 8.288v0zM539.264 500.736c6.4-12.64 15.84-22.208 28.32-28.864 12.48-6.688 25.632-9.984 39.424-9.984 6.432 0 12.864 0.992 19.328 3.040 6.368 2.080 12.096 4.928 17.152 8.736 5.056 3.744 9.184 8.256 12.416 13.536 3.2 5.312 4.768 11.36 4.768 18.208 0 10.88-3.424 19.104-10.336 24.544-6.912 5.472-15.424 9.728-25.568 12.832-10.112 3.040-21.216 5.696-33.376 7.872-12.192 2.272-23.328 5.632-33.44 10.304-10.144 4.608-18.656 11.008-25.536 19.168-6.912 8.192-10.4 19.808-10.4 34.816 0 11.584 2.4 21.664 7.136 30.208 4.704 8.512 10.88 15.584 18.432 21.28 7.648 5.568 16.128 9.728 25.568 12.48 9.472 2.752 19.104 4.096 28.832 4.096 19.264 0 35.84-3.584 49.888-10.752 13.984-7.168 24.896-18.432 32.64-33.76l-27.328-16.384c-5.728 10.912-12.832 19.232-21.504 24.832-8.608 5.6-19.776 8.416-33.664 8.416-5.408 0-11.008-0.864-16.928-2.56s-11.232-4.064-15.936-7.136c-4.736-3.104-8.672-7.040-11.904-11.808-3.2-4.768-4.8-10.24-4.8-16.384 0-10.592 3.488-18.432 10.4-23.552 6.88-5.12 15.424-9.152 25.536-12.032 10.112-2.848 21.28-5.376 33.44-7.392 12.096-2.048 23.296-5.376 33.408-9.984 10.048-4.608 18.592-11.264 25.504-20 6.976-8.672 10.432-21.056 10.432-37.088 0-12.288-2.368-22.912-6.848-32-4.576-9.024-10.816-16.608-18.72-22.72-7.936-6.176-16.992-10.784-27.136-13.824-10.048-3.072-20.736-4.608-31.872-4.608-20.256 0-38.72 3.904-55.424 11.776-16.672 7.84-29.568 19.936-38.688 36.32l26.784 18.368zM346.624 372.672c-7.872 0-14.656-2.816-20.064-8.288-5.44-5.504-8.192-12.32-8.192-20.32s2.752-14.816 8.192-20.288c5.408-5.472 12.192-8.288 20.064-8.288s14.656 2.816 20.096 8.288c5.408 5.504 8.16 12.32 8.16 20.288 0 8-2.752 14.816-8.16 20.32-5.44 5.472-12.256 8.288-20.096 8.288v0z" />
</svg>