<?xml version="1.0" standalone="no"?>
<svg width="1024px" height="1024px" version="1.1" xmlns="http://www.w3.org/2000/svg">
<path transform="scale(1, -1) translate(0, -1024)" unicode="&#xe603;" d="M852 960h-680c-94.6 0-172-77.4-172-172v-680c0-94.6 77.4-172 172-172h680c94.6 0 172 77.4 172 172v680c0 94.6-77.4 172-172 172zM384 128h-128v448h128v-448zM320 640c-35.346 0-64 28.654-64 64s28.654 64 64 64 64-28.654 64-64-28.654-64-64-64zM832 128h-128v256c0 35.346-28.654 64-64 64s-64-28.654-64-64v-256h-128v448h128v-79.472c26.398 36.264 66.752 79.472 112 79.472 79.53 0 144-71.634 144-160v-288z" />
</svg>