<?xml version="1.0" standalone="no"?>
<svg width="512px" height="512px" version="1.1" xmlns="http://www.w3.org/2000/svg">
<path transform="scale(1, -1) translate(0, -512)" glyph-name="botgroup" unicode="&#107;" d="M179 417c34 0 62-28 62-62 0-34-28-62-62-62-34 0-62 28-62 62 0 34 28 62 62 62z m0-155c51 0 93 41 93 93 0 51-42 93-93 93-51 0-93-42-93-93 0-52 42-93 93-93z m190 150c25 0 45-20 45-45 0-25-20-45-45-45-24 0-44 20-44 45 0 25 20 45 44 45z m0-121c42 0 76 34 76 76 0 42-34 76-76 76-41 0-76-34-76-76 0-42 35-76 76-76z m112-136l-123 0 0 0c0 43-29 88-83 88-1 0-2 0-3 0 6 5 13 8 21 8 6 0 25 1 47 1 35 0 81 0 104 0 29 0 37-26 37-40z m-154-78l-296 0 0 73c0 18 7 36 20 48 6 6 16 13 30 13 8 0 33 0 63 0 45 0 102 0 131 0 35 0 52-29 52-56z m117 206c-23 0-69 0-104 0-22 0-41 0-46 0-1 0-1 0-1 0-25 0-47-16-58-40-29 0-62-1-91-1-30 0-55 0-62 0 0 0 0 0 0 0-20 1-39-7-53-22-18-17-29-44-29-70l0-88c0-9 7-16 16-16l326 0c9 0 16 7 16 16l0 61 138 0c9 0 16 7 16 16l0 73c0 35-24 71-68 71z"/>
</svg>