<?xml version="1.0" standalone="no"?>
<svg width="512px" height="512px" version="1.1" xmlns="http://www.w3.org/2000/svg">
<path transform="scale(1, -1) translate(0, -512)" glyph-name="talk" unicode="&#86;" d="M387 289c11 0 20-9 20-20 0-11-9-21-20-21l-265 0c-10 0-19 10-19 21 0 11 9 20 19 20z m0 104c11 0 20-9 20-20 0-11-9-21-20-21l-265 0c-10 0-19 10-19 21 0 11 9 20 19 20z m86-218c0-1-2-4-6-4l-230 0c-1 0-1 0-1 0-1 0-2 0-2 0-1 0-2 0-2 0-1 0-1-1-2-1-1 0-1 0-2-1 0 0-1 0-1 0-1-1-2-1-2-2 0 0-1 0-1 0l-111-97 0 81c0 11-8 20-19 20l-49 0c-4 0-6 3-6 4l0 292c0 2 2 4 6 4l422 0c4 0 6-2 6-4z m-6 337l-422 0c-25 0-45-20-45-45l0-292c0-24 20-44 45-44l30 0 0-104c0-8 4-16 11-19 2-1 5-2 8-2 4 0 9 2 12 5l138 120 223 0c25 0 45 20 45 44l0 292c0 25-20 45-45 45z"/>
</svg>