<svg width="128" height="128" viewBox="0 0 128 128" fill="none" xmlns="http://www.w3.org/2000/svg">
<path d="M64 117.333C93.4551 117.333 117.333 93.4552 117.333 64C117.333 34.5448 93.4551 10.6667 64 10.6667C34.5448 10.6667 10.6666 34.5448 10.6666 64C10.6666 93.4552 34.5448 117.333 64 117.333Z" fill="url(#paint0_linear)"/>
<path fill-rule="evenodd" clip-rule="evenodd" d="M63.1124 31.3632C55.9103 31.3632 48.4461 32.5376 43.3597 35.7303C35.1095 40.9048 32.6957 51.0102 32.9773 60.315C33.2197 68.3619 35.3388 77.0027 40.9688 82.9479C46.3401 88.6161 57.3841 91.165 64.9138 91.165C65.2544 91.165 65.6147 91.4152 65.6147 91.879V99.9993C65.6147 100.8 66.2271 101.424 67.0132 101.424C67.059 101.424 67.1016 101.414 67.1442 101.411C67.4422 101.384 67.7042 101.27 67.9138 101.094C71.7098 97.7908 75.5025 94.4278 79.1641 90.9715C82.6751 87.6553 86.6512 84.249 89.3958 80.2789C95.1864 71.905 96.0445 60.0647 94.1252 50.2496C92.278 40.8047 85.6916 34.6561 76.4588 32.6977C72.6596 31.8937 67.9466 31.3632 63.1124 31.3632ZM63.1124 34.7628C67.4389 34.7628 71.9358 35.2099 75.7809 36.0239C83.9623 37.7587 89.314 43.0467 90.8533 50.9135C91.7933 55.721 91.9636 60.712 91.3479 65.346C90.6666 70.4537 89.0913 74.8175 86.6676 78.3205C84.5911 81.3265 81.5976 84.1056 78.7023 86.7946C78.0931 87.3584 77.4872 87.9222 76.8944 88.4794C74.2055 91.0216 71.4838 93.4703 68.9488 95.7056V91.879C68.9488 89.6103 67.1409 87.7687 64.9138 87.7687C57.7673 87.7687 47.7878 85.2499 43.3695 80.5892C37.8705 74.7808 36.4949 66.3001 36.3115 60.2115C36.1346 54.3198 37.0419 43.6839 45.1119 38.6228C49.0782 36.134 55.4714 34.7628 63.1124 34.7628Z" fill="white"/>
<defs>
<linearGradient id="paint0_linear" x1="48.1044" y1="19.6095" x2="105.617" y2="137.433" gradientUnits="userSpaceOnUse">
<stop stop-color="#25DDE0"/>
<stop offset="0.66204" stop-color="#22C6CA"/>
<stop offset="1" stop-color="#0AC8FF"/>
</linearGradient>
</defs>
</svg>
