<svg width="128" height="128" viewBox="0 0 128 128" fill="none" xmlns="http://www.w3.org/2000/svg">
<g clip-path="url(#clip0)">
<path d="M64 117.333C93.4551 117.333 117.333 93.4552 117.333 64C117.333 34.5448 93.4551 10.6667 64 10.6667C34.5448 10.6667 10.6666 34.5448 10.6666 64C10.6666 93.4552 34.5448 117.333 64 117.333Z" fill="url(#paint0_linear)"/>
<path fill-rule="evenodd" clip-rule="evenodd" d="M44.8069 47.2483C40.8796 47.2483 37.6958 50.432 37.6958 54.3594V72.0487C37.6958 75.9761 40.8796 79.1598 44.8069 79.1598H83.1928C87.1201 79.1598 90.3039 75.9761 90.3039 72.0487V54.3594C90.3039 50.432 87.1201 47.2483 83.1928 47.2483H44.8069ZM32.9551 54.3594C32.9551 47.8138 38.2613 42.5075 44.8069 42.5075H83.1928C89.7384 42.5075 95.0446 47.8138 95.0446 54.3594V72.0487C95.0446 78.5943 89.7384 83.9006 83.1928 83.9006H44.8069C38.2613 83.9006 32.9551 78.5943 32.9551 72.0487V54.3594Z" fill="white"/>
<path fill-rule="evenodd" clip-rule="evenodd" d="M38.7391 50.4677C37.7287 50.4677 37.3548 51.8602 38.1935 52.4248L62.1067 68.9393C63.3192 69.7778 64.8753 69.7884 66.0879 68.9393L89.7868 52.446C90.9549 51.6967 89.7666 49.8563 88.6753 50.6757L64.9743 67.169C64.3135 67.6318 63.8831 67.6275 63.2162 67.169L39.311 50.6481C39.1393 50.5314 38.9453 50.4677 38.7391 50.4677Z" fill="white" stroke="white" stroke-width="0.5"/>
</g>
<defs>
<linearGradient id="paint0_linear" x1="114.883" y1="103.359" x2="32.2587" y2="21.9167" gradientUnits="userSpaceOnUse">
<stop stop-color="#18A1D6"/>
<stop offset="1" stop-color="#0AC1FF"/>
</linearGradient>
<clipPath id="clip0">
<rect width="106.667" height="106.667" fill="white" transform="translate(10.6666 10.6667)"/>
</clipPath>
</defs>
</svg>
