<svg width="128" height="128" viewBox="0 0 128 128" fill="none" xmlns="http://www.w3.org/2000/svg">
<rect x="34.4167" y="32.0205" width="56.9964" height="66.4518" fill="white"/>
<path fill-rule="evenodd" clip-rule="evenodd" d="M84.7763 84.8261C82.9048 87.4857 80.1635 89.5751 76.5534 91.0756C72.9457 92.5903 68.6684 93.3417 63.7214 93.3417C57.7884 93.3417 52.8983 92.3129 49.0406 90.2531C46.3123 88.7716 44.0888 86.7888 42.3786 84.3153C40.6731 81.8442 39.8186 79.4359 39.8186 77.0951C39.8186 75.7417 40.3294 74.579 41.3546 73.6154C42.3786 72.6424 43.6859 72.16 45.2693 72.16C46.554 72.16 47.6444 72.5346 48.5297 73.2931C49.421 74.048 50.1795 75.1609 50.8041 76.646C51.5721 78.4036 52.397 79.8756 53.2883 81.0537C54.1736 82.2353 55.4275 83.2119 57.0346 83.9763C58.65 84.7384 60.7703 85.126 63.3931 85.126C66.9997 85.126 69.933 84.358 72.1884 82.8077C74.4414 81.2682 75.5745 79.3351 75.5745 77.0229C75.5745 75.1906 74.9629 73.6972 73.7481 72.5606C72.5297 71.4146 70.9582 70.5423 69.0311 69.9402C67.104 69.3346 64.5285 68.6934 61.3001 68.0166C56.9813 67.0922 53.3665 65.9983 50.458 64.7574C47.5484 63.5117 45.2349 61.8181 43.5294 59.6706C41.8192 57.5183 40.9671 54.8492 40.9671 51.6623C40.9671 48.6187 41.8654 45.92 43.674 43.5603C45.4767 41.1971 48.0841 39.3802 51.5057 38.1108C54.9226 36.8415 58.9392 36.2098 63.5591 36.2098C67.2474 36.2098 70.4403 36.6329 73.1318 37.4697C75.8234 38.3123 78.0539 39.4323 79.8317 40.8261C81.6094 42.2223 82.9108 43.6836 83.7274 45.2172C84.5487 46.7437 84.9588 48.2477 84.9588 49.696C84.9588 51.027 84.448 52.2347 83.4216 53.299C82.3988 54.3669 81.1211 54.9049 79.5911 54.9049C78.1926 54.9049 77.133 54.5814 76.41 53.9402C75.6859 53.299 74.8977 52.2513 74.0539 50.7935C72.9588 48.71 71.6515 47.0815 70.1143 45.9165C68.5831 44.7443 66.1274 44.1624 62.7354 44.1624C59.597 44.1624 57.0595 44.7906 55.1324 46.0634C53.2041 47.3292 52.2406 48.8593 52.2406 50.643C52.2406 51.7429 52.5724 52.704 53.2266 53.5076C53.8773 54.3147 54.7828 54.9986 55.9336 55.5781C57.0773 56.1541 58.24 56.6069 59.4145 56.9387C60.5902 57.2646 62.5303 57.7399 65.242 58.368C68.6269 59.0969 71.693 59.904 74.4414 60.7799C77.1887 61.6617 79.5259 62.7295 81.453 63.9799C83.3801 65.2397 84.8853 66.8314 85.9638 68.755C87.0423 70.6726 87.5851 73.03 87.5851 75.8187C87.5851 79.1586 86.6441 82.1606 84.7763 84.8261ZM110.139 64.1197C110.139 37.8596 88.8497 16.5713 62.5884 16.5713C60.1327 16.5713 57.741 16.8083 55.3848 17.1698C50.6453 13.1236 44.506 10.6596 37.7825 10.6596C22.81 10.6596 10.6666 22.7983 10.6666 37.779C10.6666 43.8886 12.7158 49.51 16.1303 54.0445C15.4323 57.2966 15.04 60.659 15.04 64.1197C15.04 90.3858 36.3247 111.675 62.5884 111.675C65.9638 111.675 69.2539 111.307 72.429 110.637C77.1911 114.797 83.4062 117.326 90.2174 117.326C105.193 117.326 117.333 105.188 117.333 90.214C117.333 82.8077 114.363 76.1055 109.548 71.2166C109.899 68.8889 110.139 66.5351 110.139 64.1197Z" fill="#00AFF0"/>
</svg>
