<svg width="128" height="128" viewBox="0 0 128 128" fill="none" xmlns="http://www.w3.org/2000/svg">
<path fill-rule="evenodd" clip-rule="evenodd" d="M35.1365 108.856L13.1473 114.853L17.9378 90.9005C13.3158 83.0032 10.6667 73.811 10.6667 64C10.6667 34.5448 34.5448 10.6667 64 10.6667C93.4552 10.6667 117.333 34.5448 117.333 64C117.333 93.4552 93.4552 117.333 64 117.333C53.3646 117.333 43.4562 114.22 35.1365 108.856Z" fill="url(#paint0_linear)"/>
<path fill-rule="evenodd" clip-rule="evenodd" d="M62.7454 23.0698H68.7314C79.7109 24.0931 90.1173 30.2022 95.9606 39.6056C104.403 52.4476 103.236 70.7945 92.9827 82.2959C90.1385 85.6114 84.3156 84.7724 82.5763 80.7515C79.7003 74.4777 77.4294 67.9397 74.7279 61.5958C72.17 67.7244 69.8982 73.9877 67.2473 80.0853C66.0919 83.3405 62.1721 85.4377 58.9186 83.9333C56.4528 83.0119 55.2966 80.4849 54.3654 78.2237C50.7221 69.0446 46.9875 59.8973 43.2936 50.7287C46.2813 50.7181 49.269 50.7287 52.2673 50.7181C55.255 58.096 58.2231 65.4943 61.2312 72.8616C63.4825 67.3257 65.6825 61.7695 67.8825 56.2132C68.8749 53.7164 70.1746 50.913 72.9683 50.0633C76.0473 48.9071 79.384 51.0973 80.55 53.9415C83.5075 60.6336 85.9733 67.541 88.8485 74.2641C91.7546 69.3104 93.5861 63.6523 93.2697 57.8506C92.9623 45.1007 82.6277 33.4761 69.9904 31.7165C54.9582 29.4447 39.6504 39.7491 35.3221 54.1771C31.0754 66.9473 35.9051 81.9078 46.6499 89.9502C54.4159 96.202 65.0889 98.2186 74.6464 95.4445C74.6358 98.2993 74.6252 101.155 74.6358 104C72.8451 104.316 71.0643 104.654 69.2736 104.93H63.1547C52.8503 103.948 42.8843 99.2509 36.0283 91.4237C29.9298 84.7626 26.5018 76.0131 25.5502 67.0909V61.2272C26.3892 52.1818 29.8784 43.3101 36.0389 36.5568C42.8019 28.8307 52.6155 24.2057 62.7454 23.0698Z" fill="white"/>
<defs>
<linearGradient id="paint0_linear" x1="64" y1="10.6667" x2="64" y2="117.333" gradientUnits="userSpaceOnUse">
<stop stop-color="#03C9FF"/>
<stop offset="1" stop-color="#0780FC"/>
</linearGradient>
</defs>
</svg>
