<svg xmlns="http://www.w3.org/2000/svg" width="8" height="10" viewBox="0 0 8 10">
  <path fill="#0CC8CC" d="M5.63739262,4.55787516 C6.1154567,4.96384308 6.63509157,5.32852613 7.05772793,5.78265974 C7.65357592,6.42257528 7.91685758,7.23451112 7.9930707,8.10149346 C8.04156995,8.60379275 7.833716,8.9684758 7.42493657,9.23682748 C6.82908859,9.62215297 6.15702749,9.78729246 5.47110947,9.88362383 C4.13391573,10.0762866 2.796722,10.0487633 1.4941706,9.65655703 C0.0807637534,9.22994667 -0.251802563,8.61755438 0.170833797,7.20698787 C0.496471649,6.11981954 1.16853275,5.3078837 2.17316016,4.77118034 C2.24937327,4.72989547 2.33251485,4.6886106 2.45029876,4.6335641 C1.74359534,4.014291 1.37638669,3.26428246 1.43874288,2.34913444 C1.48724213,1.68169565 1.7713092,1.11746905 2.27015867,0.66333544 C3.26092915,-0.238050962 4.7921199,-0.217408525 5.76210499,0.704620314 C6.87065938,1.75050377 6.8083032,3.14730866 5.63739262,4.55787516 Z"/>
</svg>
