<?xml version="1.0" encoding="UTF-8"?>
<svg width="19px" height="20px" viewBox="0 0 19 20" version="1.1" xmlns="http://www.w3.org/2000/svg" xmlns:xlink="http://www.w3.org/1999/xlink">
    <!-- Generator: Sketch 48 (47235) - http://www.bohemiancoding.com/sketch -->
    <title>Image</title>
    <desc>Created with Sketch.</desc>
    <defs></defs>
    <g id="Novos" stroke="none" stroke-width="1" fill="none" fill-rule="evenodd">
        <g id="Image">
            <g id="Group-27" transform="translate(0.000000, 3.000000)">
                <rect id="Rectangle-15" fill="#738192" x="0" y="0" width="19" height="14" rx="3"></rect>
                <path d="M6.74850941,2 C6.33092303,2 5.89814478,2.06704762 5.6032327,2.24933333 C5.12487885,2.5447619 4.9849238,3.12171429 5.00125505,3.65295238 C5.01530753,4.11238095 5.13817174,4.60571429 5.46460693,4.94514286 C5.77604016,5.2687619 6.41637727,5.41428571 6.85295348,5.41428571 C6.87270291,5.41428571 6.89359172,5.42857143 6.89359172,5.45504762 L6.89359172,5.91866667 C6.89359172,5.96438095 6.92910271,6 6.9746783,6 C6.97733688,6 6.97980555,5.99942857 6.98227423,5.9992381 C6.99955498,5.99771429 7.01474684,5.9912381 7.02690034,5.98114286 C7.24699248,5.79257143 7.46689472,5.60057143 7.67920103,5.4032381 C7.88277202,5.21390476 8.11330857,5.01942857 8.27244336,4.7927619 C8.60818357,4.31466667 8.65793693,3.63866667 8.54665652,3.07828571 C8.43955387,2.53904762 8.05766837,2.188 7.52234503,2.07619048 C7.30206299,2.03028571 7.02879932,2 6.74850941,2" id="Fill-20" fill="#FFFFFF"></path>
                <path d="M1,11.0783107 L1,11.0783107 C1,12.1298373 1.85182932,12.9825859 2.90335536,12.9837199 L15.996117,12.9978406 C17.1006859,12.9990319 17.9970816,12.1045677 17.9982729,10.9999988 C17.9982736,10.9992798 17.998274,10.9985608 17.998274,10.9978418 L17.998274,8.40742112 L15.1447214,5.41517324 C14.3824182,4.61581875 13.1164445,4.58578274 12.31709,5.34808594 C12.2942002,5.36991474 12.2718315,5.39228347 12.2500027,5.41517324 L8.28034549,9.5777733 L7.50140953,8.76097761 C6.83374588,8.06086256 5.76068409,7.93900712 4.95303717,8.4715879 L1,11.0783107 Z" id="Path-7-Copy" fill="#FFFFFF"></path>
            </g>
        </g>
    </g>
</svg>