<?xml version="1.0" standalone="no"?>
<svg width="512px" height="512px" version="1.1" xmlns="http://www.w3.org/2000/svg">
<path transform="scale(1, -1) translate(0, -512)" glyph-name="line" unicode="&#74;" d="M458 363c-30 0-55-25-55-55 0-11 4-22 9-30l-59-60c-8 6-18 9-29 9-12 0-22-4-31-10l-59 61c5 8 9 19 9 30 0 30-25 55-55 55-30 0-54-25-54-55 0-11 3-22 9-30l-59-60c-9 6-19 9-30 9-30 0-54-25-54-55 0-30 24-55 54-55 30 0 55 25 55 55 0 11-4 21-9 30l59 59c8-5 18-8 29-8 11 0 21 3 30 8l60-60c-6-8-9-18-9-29 0-30 25-55 55-55 30 0 54 25 54 55 0 11-3 21-9 30l59 59c9-5 19-8 30-8 30 0 54 24 54 55 0 30-24 55-54 55z m-404-223c-17 0-32 14-32 32 0 18 15 32 32 32 18 0 32-14 32-32 0-18-14-32-32-32z m134 135c-17 0-32 15-32 33 0 17 15 32 32 32 18 0 32-15 32-32 0-18-14-33-32-33z m136-135c-18 0-32 14-32 32 0 18 14 32 32 32 17 0 32-14 32-32 0-18-15-32-32-32z m134 135c-18 0-32 15-32 33 0 17 14 32 32 32 17 0 32-15 32-32 0-18-15-33-32-33z"/>
</svg>