<svg xmlns="http://www.w3.org/2000/svg" width="27" height="18" viewBox="0 0 27 18">
  <g fill="none" fill-rule="evenodd" stroke="#0CC8CC">
    <rect width="26" height="17" x=".5" y=".5" fill="#0CC8CC" rx="4"/>
    <path fill="#B0F6F8" fill-rule="nonzero" stroke-width=".3" d="M10.6666667,3 C9.19391091,3 8,4.19390625 8,5.66665625 C8,7.13940625 9.19391091,8.3333125 10.6666667,8.3333125 L12.0000156,8.3333125 L12.0000156,9.66665625 L10.6666667,9.66665625 C9.19391091,9.66665625 8,10.8605625 8,12.3333437 C8,13.806125 9.19391091,15 10.6666667,15 C12.1394224,15 13.3333333,13.8060937 13.3333333,12.3333437 L13.3333333,5.66665625 C13.3333646,4.19390625 12.1394537,3 10.6666667,3 Z M12.0000156,12.3333437 C12.0000156,13.0697187 11.4030445,13.6666875 10.6666667,13.6666875 C9.93028879,13.6666875 9.33331771,13.0697187 9.33331771,12.3333437 C9.33331771,11.5969687 9.93028879,11 10.6666667,11 L12.0000156,11 L12.0000156,12.3333437 Z M15.9999937,9.66666667 L17.3333333,9.66666667 C18.8060891,9.66666667 20,10.8606088 20,12.3333646 C20,13.8061203 18.8060891,15 17.3333333,15 C15.8605776,15 14.6666667,13.8060891 14.6666667,12.3333333 L14.6666667,11 L13.3333333,11 L13.3333333,9.66666667 L14.6666667,9.66666667 L14.6666792,8.33332708 L13.3333333,8.33332708 L13.3333333,6.9999875 L14.6666792,6.9999875 L14.6666792,5.66664792 C14.6666792,4.19390252 15.8605873,3 17.3333396,3 C18.8060919,3 20,4.19393377 20,5.66667917 C20,7.13942456 18.8060919,8.33332708 17.3333396,8.33332708 L15.9999937,8.33332708 L15.9999937,9.66666667 Z M12.0000156,7 L10.6666667,7 C9.93028879,7 9.33331771,6.40303125 9.33331771,5.66665625 C9.33331771,4.93028125 9.93025754,4.3333125 10.6666667,4.3333125 C11.4030758,4.3333125 12.0000156,4.93028125 12.0000156,5.66665625 L12.0000156,7 Z M17.3333333,13.6666823 C18.0697112,13.6666823 18.6666823,13.0697425 18.6666823,12.3333646 C18.6666823,11.5969867 18.0697112,11.0000156 17.3333333,11.0000156 L15.9999844,11.0000156 L15.9999844,12.3333333 C15.9999844,13.0697112 16.5969555,13.6666823 17.3333333,13.6666823 Z M17.3333396,6.9999875 C18.0697157,6.9999875 18.6666854,6.40305187 18.6666854,5.66664792 C18.6666854,4.93024397 18.0697157,4.33330833 17.3333396,4.33330833 C16.5969634,4.33330833 15.9999937,4.93027522 15.9999937,5.66664792 L15.9999937,6.9999875 L17.3333396,6.9999875 Z"/>
  </g>
</svg>
