<?xml version="1.0" encoding="UTF-8"?>
<svg width="209px" height="381px" viewBox="0 0 209 381" version="1.1" xmlns="http://www.w3.org/2000/svg" xmlns:xlink="http://www.w3.org/1999/xlink">
    <!-- Generator: Sketch 50 (54983) - http://www.bohemiancoding.com/sketch -->
    <title>Detail</title>
    <desc>Created with Sketch.</desc>
    <defs></defs>
    <g id="Detail" stroke="none" stroke-width="1" fill="none" fill-rule="evenodd">
        <g id="Group-13-Copy" transform="translate(-13.000000, 9.000000)">
            <rect id="Rectangle-22-Copy-3" fill="#E4EDEF" x="18" y="0" width="59" height="7" rx="3.5"></rect>
            <rect id="Rectangle-22-Copy-6" fill="#E4EDEF" opacity="0.504185268" x="18" y="26" width="200" height="7" rx="3.5"></rect>
            <rect id="Rectangle-22-Copy-7" fill="#E4EDEF" opacity="0.504185268" x="18" y="41" width="200" height="7" rx="3.5"></rect>
            <rect id="Rectangle-22-Copy-8" fill="#E4EDEF" opacity="0.504185268" x="18" y="56" width="200" height="7" rx="3.5"></rect>
            <rect id="Rectangle-22-Copy-9" fill="#E4EDEF" opacity="0.504185268" x="18" y="71" width="200" height="7" rx="3.5"></rect>
            <rect id="Rectangle-22-Copy-10" fill="#E4EDEF" opacity="0.504185268" x="18" y="86" width="200" height="7" rx="3.5"></rect>
            <g id="Group-5" opacity="0.8" transform="translate(0.000000, 137.000000)">
                <rect id="Rectangle-22-Copy-11" fill="#E4EDEF" opacity="0.504185268" x="18" y="45" width="200" height="7" rx="3.5"></rect>
                <rect id="Rectangle-22-Copy-12" fill="#E4EDEF" opacity="0.504185268" x="18" y="60" width="200" height="7" rx="3.5"></rect>
                <rect id="Rectangle-22-Copy-13" fill="#E4EDEF" opacity="0.504185268" x="18" y="75" width="200" height="7" rx="3.5"></rect>
                <rect id="Rectangle-22-Copy-4" fill="#E4EDEF" x="18" y="19" width="59" height="7" rx="3.5"></rect>
                <path d="M219.523401,1 L0.5,1" id="Line-Copy-5" stroke="#E3ECEC" stroke-linecap="square"></path>
            </g>
            <g id="Group-4" opacity="0.6390625" transform="translate(0.000000, 266.000000)">
                <rect id="Rectangle-22-Copy-16" fill="#E4EDEF" opacity="0.504185268" x="18" y="42" width="200" height="7" rx="3.5"></rect>
                <rect id="Rectangle-22-Copy-17" fill="#E4EDEF" opacity="0.504185268" x="18" y="57" width="200" height="7" rx="3.5"></rect>
                <rect id="Rectangle-22-Copy-18" fill="#E4EDEF" opacity="0.504185268" x="18" y="72" width="200" height="7" rx="3.5"></rect>
                <rect id="Rectangle-22-Copy-5" fill="#E4EDEF" x="18" y="18" width="59" height="7" rx="3.5"></rect>
                <path d="M219.523401,1 L0.5,1" id="Line-Copy-7" stroke="#E3ECEC" stroke-linecap="square"></path>
            </g>
        </g>
    </g>
</svg>