<?xml version="1.0" encoding="UTF-8"?>
<svg width="18px" height="20px" viewBox="0 0 18 20" version="1.1" xmlns="http://www.w3.org/2000/svg" xmlns:xlink="http://www.w3.org/1999/xlink">
    <!-- Generator: Sketch 48 (47235) - http://www.bohemiancoding.com/sketch -->
    <title>Emoji</title>
    <desc>Created with Sketch.</desc>
    <defs></defs>
    <g id="Novos" stroke="none" stroke-width="1" fill="none" fill-rule="evenodd">
        <g id="Smiley" transform="translate(-2.000000, 0.000000)">
            <path d="M2.5,10 C2.5,5.581722 6.09071231,2 10.5,2 C14.918278,2 18.5,5.59071231 18.5,10 C18.5,14.418278 14.9092877,18 10.5,18 C6.081722,18 2.5,14.4092877 2.5,10 Z M3.5,10 C3.5,13.8581267 6.63400675,17 10.5,17 C14.3581267,17 17.5,13.8659932 17.5,10 C17.5,6.14187327 14.3659932,3 10.5,3 C6.64187327,3 3.5,6.13400675 3.5,10 Z" id="Head" fill="#738192"></path>
            <path d="M6.95312556,11.6933862 C6.95312556,11.6933862 8.56226599,13.6490644 10.5012198,13.6490643 C12.4401737,13.6490643 14.0979801,11.7501883 14.0979801,11.7501883" id="Mouth" stroke="#738192" stroke-linecap="round"></path>
            <rect id="Right-eye" fill="#738192" x="12" y="7.5" width="1.5" height="1.5" rx="0.75"></rect>
            <rect id="Left-eye" fill="#738192" x="7.5" y="7.5" width="1.5" height="1.5" rx="0.75"></rect>
        </g>
        <g id="Emoji"></g>
    </g>
</svg>