<svg xmlns="http://www.w3.org/2000/svg" width="24" height="24"><path d="M6.934 9.493c1.158 0 2.015.284 2.57.852.568.557.85 1.4.85 2.557v4.078c0 .3-.1.54-.273.72-.182.167-.43.25-.75.25a1.04 1.04 0 0 1-.732-.267c-.182-.178-.272-.412-.272-.702v-.368a2.18 2.18 0 0 1-.92 1.02c-.4.245-.885.368-1.43.368-.556 0-1.06-.1-1.516-.334a2.68 2.68 0 0 1-1.073-.919A2.29 2.29 0 0 1 3 15.443c0-.602.153-1.075.46-1.42.318-.345.83-.596 1.533-.752s1.674-.234 2.912-.234h.426v-.384c0-.546-.12-.94-.358-1.187-.238-.256-.624-.384-1.158-.384-.33 0-.664.05-1.005.15-.34.1-.744.223-1.2.4-.295.145-.5.217-.647.217a.67.67 0 0 1-.511-.217c-.125-.145-.187-.334-.187-.568 0-.2.045-.35.136-.485.102-.145.267-.28.494-.4.397-.212.868-.38 1.413-.5.556-.123 1.1-.184 1.635-.184zm-.528 7.003c.568 0 1.027-.184 1.38-.55.363-.38.545-.864.545-1.454v-.35h-.307c-.76 0-1.35.033-1.77.1s-.72.184-.903.35-.272.396-.272.685a1.16 1.16 0 0 0 .375.886c.26.223.58.334.954.334zm10.9-7.003c.727 0 1.368.173 1.924.518s.988.836 1.294 1.47c.318.635.477 1.376.477 2.223s-.16 1.6-.477 2.256a3.5 3.5 0 0 1-1.311 1.504c-.556.357-1.192.535-1.907.535-.602 0-1.14-.128-1.618-.384-.465-.256-.823-.613-1.073-1.07v.418c0 .3-.097.54-.3.72s-.448.267-.766.267-.573-.1-.766-.267c-.182-.178-.272-.418-.272-.72V6.97a.91.91 0 0 1 .29-.702c.204-.178.465-.267.783-.267s.573.084.766.25.3.396.3.685v3.944a2.47 2.47 0 0 1 1.073-1.02c.465-.245.993-.368 1.584-.368zm-.562 6.886c.67 0 1.192-.234 1.567-.702s.562-1.125.562-1.972c0-.836-.187-1.476-.562-1.922-.363-.446-.886-.668-1.567-.668s-1.2.228-1.584.685c-.363.446-.545 1.092-.545 1.94s.182 1.5.545 1.955c.375.457.902.685 1.584.685z"/></svg>