<svg width="24" height="24" viewBox="0 0 24 24" fill="none" xmlns="http://www.w3.org/2000/svg">
<path d="M13.6599 13.2955L21.3522 13.2551C21.7166 13.2551 22 13.0121 22 12.6478V11.4332C22 11.0688 21.7571 10.8259 21.3927 10.8259L13.6599 10.7854C13.417 10.7854 13.2551 10.6235 13.2551 10.3806V2.60729C13.2551 2.2834 13.0121 2 12.6478 2H11.3927C11.0688 2 10.7854 2.2834 10.7854 2.60729V10.3401C10.7854 10.583 10.6235 10.7449 10.3806 10.7449H2.60729C2.24291 10.7449 2 11.0283 2 11.3927V12.6073C2 12.9717 2.24291 13.2146 2.60729 13.2146L10.3401 13.2551C10.583 13.2551 10.7449 13.417 10.7449 13.6599V21.3927C10.7449 21.7571 11.0283 22 11.3927 22H12.6073C12.9717 22 13.2551 21.7571 13.2551 21.3927V13.7004C13.2551 13.4575 13.417 13.2955 13.6599 13.2955Z" fill="black"/>
</svg>
