<svg width="72" height="72" viewBox="0 0 72 72" fill="none" xmlns="http://www.w3.org/2000/svg">
<path d="M58.11 47.38C57.5253 47.3798 56.9591 47.1745 56.51 46.8L36 29.62L15.49 46.8C14.979 47.1497 14.3563 47.2973 13.7427 47.2142C13.129 47.131 12.5681 46.8231 12.1684 46.3501C11.7688 45.877 11.559 45.2725 11.5796 44.6536C11.6002 44.0347 11.8498 43.4454 12.28 43L32.78 25.82C33.6814 25.0612 34.8218 24.6451 36 24.6451C37.1783 24.6451 38.3186 25.0612 39.22 25.82L59.72 43C60.1113 43.3304 60.3916 43.773 60.5231 44.268C60.6547 44.7629 60.631 45.2863 60.4554 45.7674C60.2798 46.2484 59.9606 46.6639 59.5412 46.9577C59.1217 47.2515 58.6221 47.4094 58.11 47.41V47.38Z" fill="black"/>
</svg>
