<svg width="72" height="72" viewBox="0 0 72 72" fill="none" xmlns="http://www.w3.org/2000/svg">
<path d="M36 9.88C30.834 9.88 25.7839 11.4119 21.4885 14.282C17.1931 17.1521 13.8452 21.2315 11.8683 26.0043C9.89132 30.7771 9.37406 36.029 10.3819 41.0958C11.3898 46.1625 13.8774 50.8167 17.5304 54.4696C21.1833 58.1226 25.8375 60.6103 30.9043 61.6181C35.971 62.626 41.2229 62.1087 45.9957 60.1317C50.7685 58.1548 54.8479 54.8069 57.718 50.5115C60.5881 46.2161 62.12 41.1661 62.12 36C62.1121 29.075 59.3576 22.4359 54.4609 17.5391C49.5641 12.6424 42.925 9.88794 36 9.88ZM36 58.12C31.6251 58.12 27.3484 56.8227 23.7108 54.3921C20.0732 51.9615 17.238 48.5069 15.5638 44.465C13.8896 40.4231 13.4515 35.9755 14.305 31.6846C15.1586 27.3937 17.2653 23.4523 20.3588 20.3588C23.4524 17.2653 27.3938 15.1585 31.6846 14.305C35.9755 13.4515 40.4231 13.8896 44.465 15.5638C48.5069 17.238 51.9615 20.0732 54.3921 23.7108C56.8227 27.3484 58.12 31.6251 58.12 36C58.1147 41.865 55.7825 47.4882 51.6354 51.6354C47.4882 55.7825 41.865 58.1147 36 58.12Z" fill="black"/>
<path d="M46.23 28.49L31.83 42L25.59 36.22C25.1033 35.7691 24.4575 35.53 23.7945 35.5553C23.1316 35.5807 22.5059 35.8683 22.055 36.355C21.6041 36.8416 21.3651 37.4875 21.3904 38.1504C21.4157 38.8134 21.7033 39.4391 22.19 39.89L28.7 45.89C29.5569 46.6799 30.6796 47.1184 31.845 47.1184C33.0104 47.1184 34.1331 46.6799 34.99 45.89L49.65 32.13C50.0976 31.6684 50.3502 31.0522 50.3552 30.4093C50.3603 29.7664 50.1175 29.1462 49.6773 28.6777C49.2371 28.2091 48.6332 27.9282 47.9912 27.8932C47.3493 27.8583 46.7185 28.072 46.23 28.49Z" fill="black"/>
</svg>
