<svg width="72" height="72" viewBox="0 0 72 72" fill="none" xmlns="http://www.w3.org/2000/svg">
<path d="M36 62.12C30.834 62.12 25.7839 60.5881 21.4885 57.718C17.1931 54.8479 13.8452 50.7685 11.8683 45.9957C9.89132 41.2229 9.37406 35.971 10.3819 30.9043C11.3898 25.8375 13.8774 21.1833 17.5304 17.5304C21.1833 13.8774 25.8375 11.3898 30.9043 10.3819C35.971 9.37406 41.2229 9.89132 45.9957 11.8683C50.7685 13.8452 54.8479 17.1931 57.718 21.4885C60.5881 25.7839 62.12 30.834 62.12 36C62.1121 42.925 59.3576 49.5641 54.4609 54.4609C49.5641 59.3576 42.925 62.1121 36 62.12ZM36 13.88C31.6251 13.88 27.3484 15.1773 23.7108 17.6079C20.0732 20.0385 17.238 23.4932 15.5638 27.5351C13.8896 31.577 13.4515 36.0246 14.305 40.3154C15.1586 44.6063 17.2653 48.5477 20.3588 51.6412C23.4524 54.7348 27.3938 56.8415 31.6846 57.695C35.9755 58.5485 40.4231 58.1104 44.465 56.4362C48.5069 54.762 51.9615 51.9268 54.3921 48.2892C56.8227 44.6516 58.12 40.3749 58.12 36C58.1147 30.1351 55.7825 24.5118 51.6354 20.3647C47.4882 16.2175 41.865 13.8853 36 13.88Z" fill="black"/>
<path d="M41.26 46.39C40.9314 46.3911 40.6058 46.3272 40.3021 46.2019C39.9983 46.0766 39.7223 45.8925 39.49 45.66L33.14 39.3C32.9062 39.0682 32.7205 38.7926 32.5935 38.4888C32.4665 38.1851 32.4007 37.8592 32.4 37.53V26C32.4 25.337 32.6634 24.7011 33.1323 24.2322C33.6011 23.7634 34.237 23.5 34.9 23.5C35.5631 23.5 36.1989 23.7634 36.6678 24.2322C37.1366 24.7011 37.4 25.337 37.4 26V36.5L43 42.12C43.3506 42.4696 43.5894 42.9155 43.6862 43.401C43.783 43.8866 43.7335 44.3899 43.5439 44.8473C43.3544 45.3047 43.0332 45.6955 42.6213 45.9701C42.2093 46.2447 41.7251 46.3909 41.23 46.39H41.26Z" fill="black"/>
</svg>
