<svg width="72" height="72" viewBox="0 0 72 72" fill="none" xmlns="http://www.w3.org/2000/svg">
<path d="M36.2 10C31.0339 10 25.9839 11.5319 21.6885 14.402C17.3931 17.2721 14.0452 21.3515 12.0682 26.1243C10.0913 30.8971 9.57401 36.149 10.5819 41.2158C11.5897 46.2825 14.0774 50.9367 17.7303 54.5896C21.3833 58.2426 26.0374 60.7303 31.1042 61.7381C36.171 62.746 41.4229 62.2287 46.1957 60.2517C50.9685 58.2748 55.0479 54.9269 57.918 50.6315C60.7881 46.3361 62.32 41.286 62.32 36.12C62.312 29.195 59.5576 22.5559 54.6608 17.6591C49.7641 12.7624 43.125 10.0079 36.2 10ZM36.2 58.24C31.825 58.24 27.5484 56.9427 23.9108 54.5121C20.2731 52.0815 17.438 48.6269 15.7638 44.585C14.0895 40.5431 13.6515 36.0955 14.505 31.8046C15.3585 27.5137 17.4652 23.5723 20.5588 20.4788C23.6523 17.3853 27.5937 15.2785 31.8846 14.425C36.1754 13.5715 40.623 14.0096 44.6649 15.6838C48.7068 17.358 52.1615 20.1932 54.5921 23.8308C57.0227 27.4684 58.32 31.7451 58.32 36.12C58.312 41.9841 55.979 47.6059 51.8324 51.7524C47.6858 55.899 42.0641 58.2321 36.2 58.24Z" fill="black"/>
<path d="M28.5901 32.73C28.9745 32.7413 29.3571 32.6725 29.7135 32.5279C30.0699 32.3833 30.3922 32.166 30.6601 31.89C31.1864 31.3193 31.4787 30.5714 31.4787 29.795C31.4787 29.0186 31.1864 28.2707 30.6601 27.7C30.1021 27.1681 29.3609 26.8714 28.5901 26.8714C27.8192 26.8714 27.078 27.1681 26.5201 27.7C25.9937 28.2707 25.7014 29.0186 25.7014 29.795C25.7014 30.5714 25.9937 31.3193 26.5201 31.89C26.7882 32.1655 27.1107 32.3825 27.467 32.527C27.8233 32.6716 28.2057 32.7407 28.5901 32.73Z" fill="black"/>
<path d="M43.82 32.73C44.2044 32.7407 44.5868 32.6716 44.9431 32.5271C45.2994 32.3825 45.6218 32.1655 45.89 31.89C46.4164 31.3193 46.7087 30.5714 46.7087 29.795C46.7087 29.0186 46.4164 28.2707 45.89 27.7C45.3316 27.1652 44.5882 26.8666 43.815 26.8666C43.0418 26.8666 42.2985 27.1652 41.74 27.7C41.2136 28.2707 40.9214 29.0186 40.9214 29.795C40.9214 30.5714 41.2136 31.3193 41.74 31.89C42.0097 32.1663 42.3339 32.3836 42.6919 32.5282C43.0499 32.6728 43.4341 32.7415 43.82 32.73Z" fill="black"/>
<path d="M46.67 39.12C46.425 39.0102 46.1605 38.9509 45.8922 38.9455C45.6238 38.9401 45.3571 38.9887 45.108 39.0886C44.8588 39.1884 44.6323 39.3374 44.442 39.5266C44.2516 39.7159 44.1013 39.9415 44 40.19C43.3517 41.73 42.2635 43.0445 40.8715 43.9688C39.4796 44.8931 37.8458 45.3861 36.175 45.3861C34.5041 45.3861 32.8704 44.8931 31.4784 43.9688C30.0865 43.0445 28.9982 41.73 28.35 40.19C28.2546 39.9383 28.1094 39.7084 27.9231 39.5142C27.7367 39.3199 27.5131 39.1653 27.2656 39.0595C27.0181 38.9538 26.7518 38.8991 26.4826 38.8987C26.2134 38.8983 25.947 38.9522 25.6992 39.0573C25.4513 39.1624 25.2273 39.3163 25.0404 39.5101C24.8535 39.7038 24.7076 39.9332 24.6115 40.1846C24.5154 40.4361 24.4711 40.7043 24.4811 40.9733C24.4912 41.2423 24.5554 41.5064 24.67 41.75C25.6305 44.0049 27.2328 45.9276 29.2775 47.279C31.3222 48.6305 33.719 49.351 36.17 49.351C38.6209 49.351 41.0178 48.6305 43.0625 47.279C45.1071 45.9276 46.7094 44.0049 47.67 41.75C47.8833 41.2683 47.8979 40.7218 47.7107 40.2294C47.5234 39.737 47.1494 39.3383 46.67 39.12Z" fill="black"/>
</svg>
