<svg width="72" height="72" viewBox="0 0 72 72" fill="none" xmlns="http://www.w3.org/2000/svg">
<path fill-rule="evenodd" clip-rule="evenodd" d="M57.64 25.19C57.6446 25.1468 57.6446 25.1032 57.64 25.06C57.612 24.8962 57.5685 24.7355 57.51 24.58C57.4423 24.4375 57.3584 24.3033 57.26 24.18C57.26 24.18 57.26 24.18 57.26 24.13L46.75 11.84C46.6292 11.6993 46.4875 11.5779 46.33 11.48H46.27C46.1315 11.3923 45.9794 11.3281 45.82 11.29H45.73C45.5799 11.2504 45.4253 11.2303 45.27 11.23H20C18.5121 11.23 17.0852 11.821 16.0331 12.8731C14.9811 13.9252 14.39 15.3521 14.39 16.84V55.34C14.4136 56.8122 15.0151 58.2161 16.0646 59.2488C17.1142 60.2815 18.5276 60.8602 20 60.86H52.1C53.5879 60.86 55.0148 60.2689 56.0669 59.2169C57.119 58.1648 57.71 56.7378 57.71 55.25V25.37C57.692 25.308 57.6686 25.2478 57.64 25.19ZM51.24 23.28L48.07 23.21C47.8931 23.2074 47.7242 23.136 47.5991 23.0109C47.474 22.8858 47.4026 22.7169 47.4 22.54L47.33 18.69L51.24 23.28ZM52.05 56.86H20C19.573 56.86 19.1635 56.6904 18.8616 56.3884C18.5596 56.0865 18.39 55.677 18.39 55.25V50.08L21.49 48.24C21.5897 48.1789 21.6835 48.1086 21.77 48.03C21.8776 47.9614 22.0025 47.925 22.13 47.925C22.2576 47.925 22.3824 47.9614 22.49 48.03L30.41 54.86C30.6007 55.0663 30.8328 55.23 31.091 55.3407C31.3492 55.4513 31.6279 55.5063 31.9088 55.502C32.1897 55.4978 32.4665 55.4344 32.7213 55.316C32.976 55.1976 33.203 55.0269 33.3874 54.815C33.5718 54.603 33.7095 54.3546 33.7915 54.0859C33.8735 53.8172 33.8979 53.5343 33.8633 53.2555C33.8286 52.9767 33.7356 52.7083 33.5903 52.4679C33.445 52.2275 33.2507 52.0203 33.02 51.86L29.89 49.17L37.54 42.58C37.6457 42.5064 37.7713 42.467 37.9 42.467C38.0287 42.467 38.1544 42.5064 38.26 42.58L53.56 55.78C53.4519 56.0947 53.2483 56.3678 52.9777 56.5614C52.707 56.7549 52.3828 56.8593 52.05 56.86ZM53.66 50.58L40.82 39.52C39.9879 38.8216 38.9363 38.4388 37.85 38.4388C36.7637 38.4388 35.7121 38.8216 34.88 39.52L26.78 46.52L25.05 45C24.2427 44.3291 23.2321 43.9511 22.1827 43.9275C21.1332 43.9039 20.1067 44.2361 19.27 44.87L18.34 45.43V16.75C18.3399 16.5343 18.3832 16.3208 18.4672 16.1221C18.5512 15.9234 18.6743 15.7437 18.8291 15.5935C18.9839 15.4433 19.1674 15.3258 19.3685 15.2479C19.5697 15.17 19.7844 15.1333 20 15.14H43.26L43.4 22.62C43.4232 23.8309 43.9159 24.9854 44.7742 25.8399C45.6324 26.6944 46.7891 27.1821 48 27.2L53.68 27.33L53.66 50.58Z" fill="black"/>
<path fill-rule="evenodd" clip-rule="evenodd" d="M29.9 23.3101C29.0964 23.1509 28.2792 23.0705 27.46 23.0701C26.2113 23.0114 24.9694 23.284 23.86 23.8601C23.1881 24.3699 22.6624 25.0479 22.3358 25.8256C22.0093 26.6033 21.8935 27.4533 22 28.2901C21.9774 29.7819 22.496 31.2313 23.46 32.3701C24.6959 33.3644 26.2442 33.8888 27.83 33.8501C27.8466 33.8487 27.8633 33.8507 27.879 33.8562C27.8947 33.8616 27.9092 33.8702 27.9214 33.8815C27.9336 33.8927 27.9434 33.9065 27.95 33.9217C27.9566 33.937 27.96 33.9534 27.96 33.9701V35.4401C27.96 35.4737 27.9667 35.5071 27.9799 35.5381C27.9931 35.5691 28.0124 35.5971 28.0367 35.6205C28.061 35.6438 28.0898 35.662 28.1212 35.674C28.1527 35.6859 28.1863 35.6914 28.22 35.6901C28.2656 35.704 28.3144 35.704 28.36 35.6901C29.05 35.0901 29.75 34.4801 30.41 33.8601C31.0978 33.2825 31.7244 32.6358 32.28 31.9301C33.2676 30.3103 33.58 28.3677 33.15 26.5201C33.0117 25.7125 32.6238 24.9685 32.0409 24.3927C31.4579 23.817 30.7092 23.4383 29.9 23.3101Z" fill="black"/>
</svg>
