<svg xmlns="http://www.w3.org/2000/svg" width="24" height="24"><path d="M3 12a9.01 9.01 0 0 1 9-9 9.01 9.01 0 0 1 9 9 9.01 9.01 0 0 1-9 9 9.01 9.01 0 0 1-9-9zm1.125 0c0 4.34 3.526 7.875 7.875 7.875 4.34 0 7.875-3.526 7.875-7.875 0-4.34-3.526-7.875-7.875-7.875-4.34 0-7.875 3.526-7.875 7.875zm3.567 1.52a.5.5 0 0 1 .704.068L8 13.905l.386-.318.002.003.012.015.054.062.218.23c.2.194.468.452.807.7.7.524 1.582 1 2.512 1 .936 0 1.843-.463 2.548-.973a6.78 6.78 0 0 0 .827-.7l.224-.225.07-.074v-.003a.5.5 0 1 1 .753.658l-.377-.33.377.33-.001.001h-.002l-.006.006-.02.022-.07.075-.258.26a8.88 8.88 0 0 1-.933.779c-.772.558-1.9 1.163-3.134 1.163-1.25 0-2.357-.626-3.116-1.202-.386-.293-.698-.584-.914-.803l-.252-.268-.068-.078-.02-.022-.007-.01c-.001-.001-.001-.001.385-.32l-.386.318a.5.5 0 0 1 .068-.704zm7.683-3.5c0-.466-.378-.844-.844-.844s-.844.378-.844.844.378.844.844.844.844-.378.844-.844zm-5.062 0c0-.466-.378-.844-.844-.844s-.844.378-.844.844.378.844.844.844.844-.378.844-.844z"/></svg>