<?xml version="1.0" encoding="UTF-8"?>
<svg width="171px" height="110px" viewBox="0 0 171 110" version="1.1" xmlns="http://www.w3.org/2000/svg" xmlns:xlink="http://www.w3.org/1999/xlink">
    <!-- Generator: Sketch 50.2 (55047) - http://www.bohemiancoding.com/sketch -->
    <title>BLiPDuplo</title>
    <desc>Created with Sketch.</desc>
    <defs></defs>
    <g id="BLiPDuplo" stroke="none" stroke-width="1" fill="none" fill-rule="evenodd">
        <g id="Group-3-Copy" transform="translate(0.000000, 1.000000)">
            <g id="Group-20-Copy-2">
                <g id="Group-19">
                    <g id="Group-12">
                        <g id="Group-2" fill="#0DE6EB">
                            <g id="Group">
                                <path d="M46.4005345,0 C35.449788,0 24.1006514,1.79260625 16.3669045,6.66625451 C3.82259778,14.5649258 0.152429439,29.9905063 0.580698744,44.1938553 C0.949209541,56.4772823 4.17118908,69.6671976 12.7315953,78.7422668 C20.8985913,87.3946475 37.690732,91.2854179 49.1394661,91.2854179 C49.6573732,91.2854179 50.2051595,91.6673653 50.2051595,92.3752411 L50.2051595,104.770706 C50.2051595,105.992937 51.1363962,106.94526 52.3315664,106.94526 C52.4012846,106.94526 52.466023,106.929982 52.5307614,106.924889 C52.9839301,106.884148 53.3823201,106.710998 53.7010322,106.441089 C59.472708,101.399384 65.239404,96.2660114 70.806905,90.9900453 C76.1453317,85.9279697 82.1909007,80.728393 86.3640365,74.6681617 C95.1684566,61.8856568 96.473184,43.811908 93.5549769,28.8293864 C90.7463271,14.4121469 80.7317971,5.0264272 66.6935277,2.03705256 C60.916872,0.809728393 53.7508309,0 46.4005345,0" id="Fill-20"></path>
                            </g>
                        </g>
                        <path d="M65.2336933,50.9913946 L66.3547669,51.7315395 L65.2541201,50.9607804 L65.2336933,50.9913946 L66.3547669,51.7315395 L65.2541201,50.9607804 L65.4722068,51.1138517 L65.2559225,50.9583792 L65.2541201,50.9607804 L65.4722068,51.1138517 L65.2559225,50.9583792 C65.2469107,50.9661829 64.374564,52.1913538 61.834425,53.4501404 C59.2936852,54.704725 55.0563153,55.9995283 48.2806087,56.0013292 C41.1720646,55.9995283 36.902252,54.5864699 34.4552354,53.2928671 C33.2308259,52.6439647 32.4570088,52.0214746 32.0064165,51.5946757 C31.7811203,51.3809762 31.6369308,51.2164995 31.5588281,51.1216553 L31.4909389,51.0334142 L31.4825278,51.039417 L31.4909389,51.0340145 L31.4909389,51.0334142 L31.4825278,51.039417 L31.4909389,51.0340145 L30.3488376,51.807775 L31.5119665,51.0664296 L31.4909389,51.0340145 L30.3488376,51.807775 L31.5119665,51.0664296 C30.887746,50.0879736 29.587637,49.8010399 28.6083498,50.4247306 C27.6296633,51.0490215 27.341885,52.3474265 27.9667063,53.3258825 C28.1295203,53.5876044 29.353329,55.350626 32.4864475,57.0055972 C35.6171627,58.6653706 40.6181365,60.2056884 48.2806087,60.2032872 C55.9454841,60.2056884 60.9861099,58.6521644 64.1522718,56.9851876 C67.320236,55.3224128 68.5794913,53.5593913 68.7423053,53.3078741 C69.3821464,52.3396229 69.1159965,51.0364156 68.1469227,50.3965174 C67.1778488,49.7572195 65.8735343,50.0231434 65.2336933,50.9913946" id="Fill-55" fill="#107D7F" opacity="0.709352355"></path>
                    </g>
                    <rect id="Rectangle-7" fill="#107D7F" x="57" y="34" width="17" height="4" rx="2"></rect>
                    <rect id="Rectangle-7-Copy-4" fill="#107D7F" x="19" y="34" width="17" height="4" rx="2"></rect>
                </g>
            </g>
            <g id="Group-20-Copy-3" opacity="0.423102679" transform="translate(75.000000, 0.000000)">
                <g id="Group-19">
                    <g id="Group-12">
                        <g id="Group-2" fill="#0DE6EB">
                            <g id="Group">
                                <path d="M46.4005345,0 C35.449788,0 24.1006514,1.79260625 16.3669045,6.66625451 C3.82259778,14.5649258 0.152429439,29.9905063 0.580698744,44.1938553 C0.949209541,56.4772823 4.17118908,69.6671976 12.7315953,78.7422668 C20.8985913,87.3946475 37.690732,91.2854179 49.1394661,91.2854179 C49.6573732,91.2854179 50.2051595,91.6673653 50.2051595,92.3752411 L50.2051595,104.770706 C50.2051595,105.992937 51.1363962,106.94526 52.3315664,106.94526 C52.4012846,106.94526 52.466023,106.929982 52.5307614,106.924889 C52.9839301,106.884148 53.3823201,106.710998 53.7010322,106.441089 C59.472708,101.399384 65.239404,96.2660114 70.806905,90.9900453 C76.1453317,85.9279697 82.1909007,80.728393 86.3640365,74.6681617 C95.1684566,61.8856568 96.473184,43.811908 93.5549769,28.8293864 C90.7463271,14.4121469 80.7317971,5.0264272 66.6935277,2.03705256 C60.916872,0.809728393 53.7508309,0 46.4005345,0" id="Fill-20"></path>
                            </g>
                        </g>
                        <path d="M65.2336933,50.9913946 L66.3547669,51.7315395 L65.2541201,50.9607804 L65.2336933,50.9913946 L66.3547669,51.7315395 L65.2541201,50.9607804 L65.4722068,51.1138517 L65.2559225,50.9583792 L65.2541201,50.9607804 L65.4722068,51.1138517 L65.2559225,50.9583792 C65.2469107,50.9661829 64.374564,52.1913538 61.834425,53.4501404 C59.2936852,54.704725 55.0563153,55.9995283 48.2806087,56.0013292 C41.1720646,55.9995283 36.902252,54.5864699 34.4552354,53.2928671 C33.2308259,52.6439647 32.4570088,52.0214746 32.0064165,51.5946757 C31.7811203,51.3809762 31.6369308,51.2164995 31.5588281,51.1216553 L31.4909389,51.0334142 L31.4825278,51.039417 L31.4909389,51.0340145 L31.4909389,51.0334142 L31.4825278,51.039417 L31.4909389,51.0340145 L30.3488376,51.807775 L31.5119665,51.0664296 L31.4909389,51.0340145 L30.3488376,51.807775 L31.5119665,51.0664296 C30.887746,50.0879736 29.587637,49.8010399 28.6083498,50.4247306 C27.6296633,51.0490215 27.341885,52.3474265 27.9667063,53.3258825 C28.1295203,53.5876044 29.353329,55.350626 32.4864475,57.0055972 C35.6171627,58.6653706 40.6181365,60.2056884 48.2806087,60.2032872 C55.9454841,60.2056884 60.9861099,58.6521644 64.1522718,56.9851876 C67.320236,55.3224128 68.5794913,53.5593913 68.7423053,53.3078741 C69.3821464,52.3396229 69.1159965,51.0364156 68.1469227,50.3965174 C67.1778488,49.7572195 65.8735343,50.0231434 65.2336933,50.9913946" id="Fill-55" fill="#107D7F" opacity="0.709352355"></path>
                    </g>
                    <rect id="Rectangle-7" fill="#107D7F" x="57" y="34" width="17" height="4" rx="2"></rect>
                    <rect id="Rectangle-7-Copy-4" fill="#107D7F" x="19" y="34" width="17" height="4" rx="2"></rect>
                </g>
            </g>
        </g>
    </g>
</svg>