<?xml version="1.0" encoding="UTF-8"?>
<svg width="118px" height="104px" viewBox="0 0 118 104" version="1.1" xmlns="http://www.w3.org/2000/svg" xmlns:xlink="http://www.w3.org/1999/xlink">
    <!-- Generator: Sketch 50 (54983) - http://www.bohemiancoding.com/sketch -->
    <title>zZZZ</title>
    <desc>Created with Sketch.</desc>
    <defs>
        <filter x="0.0%" y="0.0%" width="100.0%" height="100.0%" filterUnits="objectBoundingBox" id="filter-1">
            <feGaussianBlur stdDeviation="0" in="SourceGraphic"></feGaussianBlur>
        </filter>
    </defs>
    <g id="zZZZ" stroke="none" stroke-width="1" fill="none" fill-rule="evenodd">
        <g id="Group-Copy" transform="translate(5.000000, -20.000000)" fill="#0CC8CC">
            <path d="M27.712,60.904 C28.437337,60.904 28.9919981,61.0853315 29.376,61.448 C29.7600019,61.8106685 29.952,62.3119968 29.952,62.952 C29.952,63.5920032 29.7600019,64.0933315 29.376,64.456 C28.9919981,64.8186685 28.437337,65 27.712,65 L5.312,65 C4.58666304,65 3.98933568,64.7760022 3.52,64.328 C3.05066432,63.8799978 2.816,63.3360032 2.816,62.696 C2.816,62.0133299 3.07199744,61.3520032 3.584,60.712 L22.528,37.928 L4.992,37.928 C4.26666304,37.928 3.70133536,37.7466685 3.296,37.384 C2.89066464,37.0213315 2.688,36.5413363 2.688,35.944 C2.688,35.3039968 2.89066464,34.7920019 3.296,34.408 C3.70133536,34.0239981 4.26666304,33.832 4.992,33.832 L26.688,33.832 C27.4560038,33.832 28.0746643,34.0559978 28.544,34.504 C29.0133357,34.9520022 29.248,35.4959968 29.248,36.136 C29.248,36.8186701 28.9920026,37.4799968 28.48,38.12 L9.472,60.904 L27.712,60.904 Z" id="z"></path>
            <path d="M57.784,85.928 C58.3280027,85.928 58.7439986,86.0639986 59.032,86.336 C59.3200014,86.6080014 59.464,86.9839976 59.464,87.464 C59.464,87.9440024 59.3200014,88.3199986 59.032,88.592 C58.7439986,88.8640014 58.3280027,89 57.784,89 L40.984,89 C40.4399973,89 39.9920018,88.8320017 39.64,88.496 C39.2879982,88.1599983 39.112,87.7520024 39.112,87.272 C39.112,86.7599974 39.3039981,86.2640024 39.688,85.784 L53.896,68.696 L40.744,68.696 C40.1999973,68.696 39.7760015,68.5600014 39.472,68.288 C39.1679985,68.0159986 39.016,67.6560022 39.016,67.208 C39.016,66.7279976 39.1679985,66.3440014 39.472,66.056 C39.7760015,65.7679986 40.1999973,65.624 40.744,65.624 L57.016,65.624 C57.5920029,65.624 58.0559982,65.7919983 58.408,66.128 C58.7600018,66.4640017 58.936,66.8719976 58.936,67.352 C58.936,67.8640026 58.7440019,68.3599976 58.36,68.84 L44.104,85.928 L57.784,85.928 Z" id="z-copy" filter="url(#filter-1)"></path>
            <path d="M83.588,98.696 C83.996002,98.696 84.3079989,98.797999 84.524,99.002 C84.7400011,99.206001 84.848,99.4879982 84.848,99.848 C84.848,100.208002 84.7400011,100.489999 84.524,100.694 C84.3079989,100.898001 83.996002,101 83.588,101 L70.988,101 C70.579998,101 70.2440013,100.874001 69.98,100.622 C69.7159987,100.369999 69.584,100.064002 69.584,99.704 C69.584,99.3199981 69.7279986,98.9480018 70.016,98.588 L80.672,85.772 L70.808,85.772 C70.399998,85.772 70.0820011,85.670001 69.854,85.466 C69.6259989,85.261999 69.512,84.9920017 69.512,84.656 C69.512,84.2959982 69.6259989,84.0080011 69.854,83.792 C70.0820011,83.5759989 70.399998,83.468 70.808,83.468 L83.012,83.468 C83.4440022,83.468 83.7919987,83.5939987 84.056,83.846 C84.3200013,84.0980013 84.452,84.4039982 84.452,84.764 C84.452,85.1480019 84.3080014,85.5199982 84.02,85.88 L73.328,98.696 L83.588,98.696 Z" id="z-copy-2"></path>
            <path d="M103.392,110.464 C103.664001,110.464 103.871999,110.531999 104.016,110.668 C104.160001,110.804001 104.232,110.991999 104.232,111.232 C104.232,111.472001 104.160001,111.659999 104.016,111.796 C103.871999,111.932001 103.664001,112 103.392,112 L94.992,112 C94.7199986,112 94.4960009,111.916001 94.32,111.748 C94.1439991,111.579999 94.056,111.376001 94.056,111.136 C94.056,110.879999 94.151999,110.632001 94.344,110.392 L101.448,101.848 L94.872,101.848 C94.5999986,101.848 94.3880008,101.780001 94.236,101.644 C94.0839992,101.507999 94.008,101.328001 94.008,101.104 C94.008,100.863999 94.0839992,100.672001 94.236,100.528 C94.3880008,100.383999 94.5999986,100.312 94.872,100.312 L103.008,100.312 C103.296001,100.312 103.527999,100.395999 103.704,100.564 C103.880001,100.732001 103.968,100.935999 103.968,101.176 C103.968,101.432001 103.872001,101.679999 103.68,101.92 L96.552,110.464 L103.392,110.464 Z" id="z-copy-3"></path>
        </g>
    </g>
</svg>