<?xml version="1.0" standalone="no"?>
<svg width="512px" height="512px" version="1.1" xmlns="http://www.w3.org/2000/svg">
<path transform="scale(1, -1) translate(0, -512)" glyph-name="attach" unicode="&#104;" d="M157 0c-43 0-89 16-118 51-46 55-52 121-15 181 16 26 121 131 222 230 13 12 21 20 23 23 23 23 93 48 150-2 51-50 42-114 8-151-9-10-100-103-188-191l-23-24c-11-11-32-24-55-23-17 0-33 7-46 21-34 39-9 81 9 98l195 186c7 8 20 7 28-1 7-8 7-20-1-28l-194-186c-4-4-23-24-7-42 5-6 10-8 17-8 0 0 0 0 0 0 10 0 21 6 25 11l24 24c48 49 176 179 187 190 15 16 32 57-6 95-42 36-89 8-94 3-2-3-11-11-24-24-50-48-201-196-216-221-27-46-23-93 11-135 37-43 113-47 151-19 0 0 1 0 1 0 30 19 145 140 216 217 7 8 20 9 28 1 8-7 8-20 1-28-18-20-178-194-223-223-23-16-54-25-86-25"/>
</svg>