<?xml version="1.0" standalone="no"?>
<svg width="512px" height="512px" version="1.1" xmlns="http://www.w3.org/2000/svg">
<path transform="scale(1, -1) translate(0, -512)" glyph-name="barlist" unicode="&#106;" d="M283 499c0 7-6 13-13 13l-236 0c-7 0-13-6-13-13l0-116c0-7 6-13 13-13l236 0c7 0 13 6 13 13z m-236-103l0 91 211 0 0-91z m437-66c7 0 13-6 13-12l0-117c0-7-6-13-13-13l-450 0c-7 0-13 6-13 13l0 116c0 7 6 13 13 13z m-12-25l-425 0 0-91 425 0z m-451-286l0 0 0 117c0 7 6 12 13 12l303 0c7 0 13-5 13-12l0-117c0-7-6-12-13-12l-303 0c-7 0-13 5-13 12z m304 104l-278 0 0-91 278 0z"/>
</svg>