<?xml version="1.0" standalone="no"?>
<svg width="512px" height="512px" version="1.1" xmlns="http://www.w3.org/2000/svg">
<path transform="scale(1, -1) translate(0, -512)" glyph-name="botmessage" unicode="&#108;" d="M473 171c0-2-2-4-6-4l-230 0c-1 0-1 0-1 0-1 0-2 0-2 0-1 0-2-1-2-1-1 0-1 0-2 0-1 0-1-1-2-1 0 0-1 0-1-1-1 0-2 0-2-1 0 0-1 0-1 0l-111-92 0 77c0 10-8 19-19 19l-49 0c-4 0-6 2-6 4l0 277c0 1 2 4 6 4l422 0c4 0 6-3 6-4z m-6 320l-422 0c-25 0-45-19-45-43l0-277c0-24 20-43 45-43l30 0 0-99c0-7 4-14 11-17 2-2 5-2 8-2 4 0 9 1 12 4l138 114 223 0c25 0 45 19 45 43l0 277c0 24-20 43-45 43z"/>
</svg>