<?xml version="1.0" standalone="no"?>
<svg width="512px" height="512px" version="1.1" xmlns="http://www.w3.org/2000/svg">
<path transform="scale(1, -1) translate(0, -512)" glyph-name="broadcast" unicode="&#109;" d="M252 189c-42-1-73-34-74-36-6-6-5-17 1-23 4-3 8-5 12-5 4 0 9 2 12 6 0 0 22 24 50 25 32 0 53-24 53-24 6-7 16-8 24-2 7 6 8 16 2 23-1 2-32 38-80 36m7 106c-105 0-164-72-167-75-6-7-5-18 3-23 7-6 17-5 23 2 1 1 52 63 141 63 87 0 132-60 134-62 3-5 8-7 14-7 3 0 6 1 9 3 8 5 9 16 4 23-2 4-56 76-161 76m235-1c-4 4-81 108-238 110-1 0-3 0-4 0-155 0-237-105-241-110-6-7-4-18 3-23 7-6 18-5 24 3 0 1 76 97 214 97 1 0 2 0 4-1 140-1 208-92 210-96 4-4 9-7 14-7 3 0 7 1 10 3 7 6 9 16 4 24"/>
</svg>