<?xml version="1.0" standalone="no"?>
<svg width="512px" height="512px" version="1.1" xmlns="http://www.w3.org/2000/svg">
<path transform="scale(1, -1) translate(0, -512)" glyph-name="calendar" unicode="&#110;" d="M469 65c0-22-14-26-23-26 0 0-347 0-362 0-6 0-12 1-16 5-5 6-8 16-8 30 0 13 0 142 0 233l410 0c0-87 0-212-1-242z m-409 331c0 20 8 28 26 29 1 0 15 0 37 0l0-29c0-10 8-19 19-19 11 0 19 9 19 19l0 29c9 0 17 0 27 0 56 0 125 0 177 0l0-29c0-10 9-19 19-19 11 0 20 9 20 19l0 29c23 0 38 0 38 0 10-1 16-3 21-8 6-6 7-17 7-20 0-1 0-1 0-1 0-1 0-21 0-50l-410 0c0 30 0 50 0 50z m448-1c0 5 0 29-16 48-8 9-23 19-49 20-3 0-17 0-39 0l0 30c0 10-9 19-20 19-10 0-19-9-19-19l0-30c-61 0-144 0-204 0l0 30c0 10-8 19-19 19-11 0-19-9-19-19l0-30c-22 0-36 0-37 0-31 0-65-18-65-67 0-4 0-302 0-322 0-25 7-44 20-57 11-11 26-17 43-17 0 0 0 0 0 0 16 0 362 0 362 0 0 0 0 0 0 0 25 0 62 17 62 64 0 48 0 318 0 331z"/>
</svg>