<?xml version="1.0" standalone="no"?>
<svg width="512px" height="512px" version="1.1" xmlns="http://www.w3.org/2000/svg">
<path transform="scale(1, -1) translate(0, -512)" glyph-name="clock" unicode="&#111;" d="M349 236l-93 0c-11 0-20 9-20 20l0 143c0 11 9 20 20 20 11 0 20-9 20-20l0-123 73 0c11 0 20-9 20-20 0-11-9-20-20-20m-93 236c-119 0-216-97-216-216 0-119 97-216 216-216 119 0 216 97 216 216 0 119-97 216-216 216z m0-472c-141 0-256 115-256 256 0 141 115 256 256 256 141 0 256-115 256-256 0-141-115-256-256-256z"/>
</svg>