<?xml version="1.0" standalone="no"?>
<svg width="512px" height="512px" version="1.1" xmlns="http://www.w3.org/2000/svg">
<path transform="scale(1, -1) translate(0, -512)" glyph-name="configsimple" unicode="&#114;" d="M439 231c1 8 2 16 2 25 0 9-1 17-2 25l54 42c5 4 6 11 3 17l-51 88c-3 6-10 8-15 6l-64-26c-14 11-28 19-43 25l-10 68c-1 6-6 11-13 11l-102 0c-7 0-12-5-13-11l-9-68c-16-6-30-15-44-25l-63 26c-6 2-13 0-16-6l-51-88c-4-6-2-13 3-17l54-42c-1-8-2-17-2-25 0-8 1-17 2-25l-54-42c-5-4-6-11-3-17l51-88c3-6 10-8 16-6l63 26c14-11 28-19 44-25l9-68c1-6 6-11 13-11l102 0c7 0 12 5 13 11l10 68c15 6 29 15 43 25l64-26c5-2 12 0 15 6l51 88c3 6 2 13-3 17z m-190-65c-49 0-90 41-90 90 0 49 41 90 90 90 49 0 90-41 90-90 0-49-41-90-90-90z"/>
</svg>