<?xml version="1.0" standalone="no"?>
<svg width="512px" height="512px" version="1.1" xmlns="http://www.w3.org/2000/svg">
<path transform="scale(1, -1) translate(0, -512)" glyph-name="config-1" unicode="&#89;" d="M256 186c-39 0-70 31-70 70 0 39 31 70 70 70 39 0 70-31 70-70 0-39-31-70-70-70z m196 21l-33 19c2 9 3 20 3 30 0 10-1 21-3 30l33 19c13 8 17 25 10 39l-28 48c-8 13-25 18-38 10l-33-19c-15 13-32 24-52 31l0 24c0 15-12 27-27 27l-56 0c-15 0-27-12-27-27l0-24c-20-7-37-18-52-31l-33 19c-13 8-30 3-38-10l-28-48c-7-14-3-31 10-39l33-19c-2-9-3-20-3-30 0-10 1-21 3-30l-33-19c-13-8-17-25-10-39l28-48c8-13 25-18 38-10l33 19c15-13 32-24 52-31l0-24c0-15 12-27 27-27l56 0c15 0 27 12 27 27l0 24c20 7 37 18 52 31l33-19c13-8 30-3 38 10l28 48c7 14 3 31-10 39z m-196 96c-26 0-47-21-47-47 0-26 21-47 47-47 26 0 47 21 47 47 0 26-21 47-47 47z"/>
</svg>