<?xml version="1.0" standalone="no"?>
<svg width="512px" height="512px" version="1.1" xmlns="http://www.w3.org/2000/svg">
<path transform="scale(1, -1) translate(0, -512)" glyph-name="connect" unicode="&#115;" d="M311 336l-125-124c-8-8-8-22-1-30 4-5 10-7 15-7 5 0 10 2 14 6l125 124c8 8 8 21 1 30-8 8-21 9-29 1m156 130c-49 52-133 51-186-2l-69-73c-8-8-8-21 0-30 8-8 21-8 28 0l70 73c36 37 94 38 129 2 16-17 24-40 24-65 0-25-10-49-26-66l-76-75c-9-9-9-22-1-31 4-4 9-6 14-6 5 0 10 2 14 5l77 76c24 24 38 60 39 97 0 36-13 71-37 95m-180-311l-69-72c-37-37-95-38-130-3-16 17-24 40-24 65 0 26 10 50 26 66l77 76c8 8 8 21 1 30-8 9-21 9-29 1l-76-76c-25-24-39-59-39-96-1-37 12-72 36-96 24-26 57-38 90-38 35 0 69 13 96 40l69 73c8 8 8 22 0 30-8 8-20 8-28 0"/>
</svg>