<?xml version="1.0" standalone="no"?>
<svg width="512px" height="512px" version="1.1" xmlns="http://www.w3.org/2000/svg">
<path transform="scale(1, -1) translate(0, -512)" glyph-name="delete" unicode="&#118;" d="M182 355c11 0 20-9 20-20l0-237c0-11-9-20-20-20-10 0-19 9-19 20l0 237c0 11 9 20 19 20z m77 0c10 0 19-9 19-20l0-237c0-11-9-20-19-20-11 0-20 9-20 20l0 237c0 11 9 20 20 20z m57-20c0 11 8 20 19 20 11 0 19-9 19-20l0-237c0-11-8-20-19-20-11 0-19 9-19 20z m80-289c0-3-3-6-7-6l-260 0c-3 0-6 3-6 6l0 354 273 0z m-194 420c0 3 3 6 6 6l101 0c4 0 7-3 7-6l0-26-114 0z m257-26l-105 0 0 26c0 25-20 46-45 46l-101 0c-25 0-45-21-45-46l0-26-101 0c-11 0-19-9-19-20 0-11 8-20 19-20l22 0 0-354c0-25 21-46 45-46l260 0c25 0 45 21 45 46l0 354 25 0c10 0 19 9 19 20 0 11-9 20-19 20z"/>
</svg>