<?xml version="1.0" standalone="no"?>
<svg width="512px" height="512px" version="1.1" xmlns="http://www.w3.org/2000/svg">
<path transform="scale(1, -1) translate(0, -512)" glyph-name="integration" unicode="&#71;" d="M451 268l-37 0 0 98c0 27-21 48-48 48l-98 0 0 37c0 34-27 61-61 61-33 0-61-27-61-61l0-37-97 0c-27 0-49-21-49-48l0-93 37 0c36 0 65-29 65-66 0-36-29-66-65-66l-37 0 0-92c0-27 22-49 49-49l92 0 0 37c0 36 30 65 66 65 37 0 66-29 66-65l0-37 93 0c27 0 48 22 48 49l0 97 37 0c34 0 61 28 61 61 0 34-27 61-61 61z"/>
</svg>