<?xml version="1.0" standalone="no"?>
<svg width="512px" height="512px" version="1.1" xmlns="http://www.w3.org/2000/svg">
<path transform="scale(1, -1) translate(0, -512)" glyph-name="layer-copy" unicode="&#56;" d="M471 192c0-4-3-7-6-7l-267 0c-3 0-6 3-6 7l0 272c0 3 3 7 6 7l267 0c3 0 6-4 6-7z m-151-147c0-2-1-4-3-4l-273 0c-2 0-3 2-3 4l0 279c0 2 1 3 3 3l107 0 0-135c0-27 21-49 47-49l122 0z m145 467l-267 0c-26 0-47-22-47-48l0-95-107 0c-24 0-44-20-44-45l0-279c0-25 20-45 44-45l273 0c24 0 44 20 44 45l0 98 104 0c26 0 47 22 47 49l0 272c0 26-21 48-47 48z m-99-235l-78 0 0 16 48 48c3 4 6 8 9 12 3 4 4 8 4 14 0 3-1 6-2 8-1 3-2 5-4 7-2 2-5 3-7 4-3 1-6 1-8 1-7 0-12-2-16-5-4-4-6-9-7-16l-16 3c0 5 2 9 4 13 2 4 5 7 8 10 4 3 8 5 12 7 5 1 10 2 15 2 5 0 9-1 14-2 5-1 9-4 12-6 4-3 7-7 9-11 2-5 3-9 3-15 0-4-1-8-2-11-1-3-2-6-4-9-2-3-4-6-6-9-2-2-5-5-8-8l-39-38 59 0z"/>
</svg>