<?xml version="1.0" standalone="no"?>
<svg width="512px" height="512px" version="1.1" xmlns="http://www.w3.org/2000/svg">
<path transform="scale(1, -1) translate(0, -512)" glyph-name="list" unicode="&#75;" d="M74 364c29 0 52 24 52 53 0 29-23 52-52 52-29 0-53-23-53-52 0-29 24-53 53-53z m0 81c15 0 28-13 28-28 0-16-13-28-28-28-16 0-28 12-28 28 0 15 12 28 28 28z m0-243c-29 0-53 23-53 52 0 29 24 53 53 53 29 0 52-24 52-53 0-29-23-52-52-52z m0 80c-16 0-28-12-28-28 0-15 12-28 28-28 15 0 28 13 28 28 0 16-13 28-28 28z m0-243c-29 0-53 24-53 53 0 29 24 52 53 52 29 0 52-23 52-52 0-29-23-53-52-53z m0 81c-16 0-28-13-28-28 0-16 12-28 28-28 15 0 28 12 28 28 0 15-13 28-28 28z m123 284c-7 0-12 6-12 13 0 7 5 12 12 12l301 0c6 0 12-5 12-12 0-7-6-13-12-13z m0-162c-7 0-12 5-12 12 0 7 5 12 12 12l301 0c6 0 12-5 12-12 0-7-6-12-12-12z m0-163c-7 0-12 6-12 13 0 6 5 12 12 12l301 0c6 0 12-6 12-12 0-7-6-13-12-13z"/>
</svg>