<?xml version="1.0" standalone="no"?>
<svg width="512px" height="512px" version="1.1" xmlns="http://www.w3.org/2000/svg">
<path transform="scale(1, -1) translate(0, -512)" glyph-name="pie" unicode="&#79;" d="M299 286l200 0c7 0 13 6 13 13 0 118-95 213-213 213-7 0-13-6-13-13l0-200c0-7 6-13 13-13z m13 200c93-6 168-81 174-174l-174 0z m-79-486c-129 0-233 104-233 233 0 128 104 232 233 232 7 0 13-5 13-12l0-207 207 0c7 0 12-6 12-13 0-129-104-233-232-233z m-13 439c-108-6-194-96-194-206 0-115 93-207 207-207 110 0 200 86 206 194l-206 0c-7 0-13 6-13 13z"/>
</svg>