<?xml version="1.0" standalone="no"?>
<svg width="512px" height="512px" version="1.1" xmlns="http://www.w3.org/2000/svg">
<path transform="scale(1, -1) translate(0, -512)" glyph-name="refresh" unicode="&#80;" d="M256 512c-141 0-256-115-256-256 0-141 115-256 256-256 118 0 218 83 256 192l-64 0c-38-74-109-128-192-128-106 0-192 86-192 192 0 106 86 192 192 192 54 0 99-22 128-64l-60-60c-8-8-8-21 0-30 4-4 10-6 16-6l151 0c11 0 21 10 21 21l0 151c0 12-10 22-21 22-6 0-11-2-15-6l-28-28c-58 32-122 64-192 64z"/>
</svg>