<?xml version="1.0" standalone="no"?>
<svg width="512px" height="512px" version="1.1" xmlns="http://www.w3.org/2000/svg">
<path transform="scale(1, -1) translate(0, -512)" glyph-name="router" unicode="&#81;" d="M185 435l0-116c0-7 6-13 13-13l45 0 0-35-172 0c-7 0-13-6-13-13l0-46-45 0c-7 0-13-6-13-13l0-117c0-7 6-12 13-12l116 0c7 0 13 5 13 12l0 117c0 7-6 13-13 13l-45 0 0 33 159 0 0-33-45 0c-7 0-13-6-13-13l0-117c0-7 6-12 13-12l116 0c7 0 13 5 13 12l0 117c0 7-6 13-13 13l-45 0 0 33 159 0 0-33-45 0c-7 0-13-6-13-13l0-117c0-7 6-12 13-12l116 0c7 0 13 5 13 12l0 117c0 7-6 13-13 13l-45 0 0 46c0 7-6 13-13 13l-172 0 0 35 45 0c7 0 13 6 13 13l0 116c0 7-6 13-13 13l-116 0c-7 0-13-6-13-13z m-69-339l-90 0 0 90 90 0z m185 0l-90 0 0 90 90 0z m185 0l-90 0 0 90 90 0 0-90z m-275 326l90 0 0-90-90 0z"/>
</svg>