<?xml version="1.0" standalone="no"?>
<svg width="512px" height="512px" version="1.1" xmlns="http://www.w3.org/2000/svg">
<path transform="scale(1, -1) translate(0, -512)" glyph-name="warning" unicode="&#54;" d="M248 328c-9 0-15-6-15-15l0-110c0-9 6-15 15-15 10 0 16 6 16 15l0 110c0 9-6 15-16 15z m12-196c-7 6-17 6-23 0-4-3-4-8-4-11 0-6 0-9 4-11 3-3 10-3 13-3 3 0 10 0 7 3 3 2 7 8 7 11 0 5 0 8-4 11z m241 1l-179 304c-12 24-39 38-66 38-27 0-51-14-66-38l-179-304c-15-23-15-53 0-76 12-24 40-39 67-39l356 0c30 0 55 15 67 39 15 23 15 53 0 76z m-24-65c-7-14-22-23-40-23l-359 0c-15 0-30 9-39 23-10 15-10 33 0 48l178 303c6 15 21 24 39 24 18 0 33-9 42-24l179-303c9-15 9-33 0-48z"/>
</svg>