<?xml version="1.0" encoding="UTF-8"?>
<svg width="13px" height="13px" viewBox="0 0 13 13" version="1.1" xmlns="http://www.w3.org/2000/svg" xmlns:xlink="http://www.w3.org/1999/xlink">
    <!-- Generator: Sketch 50 (54983) - http://www.bohemiancoding.com/sketch -->
    <title>Tag</title>
    <desc>Created with Sketch.</desc>
    <defs></defs>
    <g id="Tag" stroke="none" stroke-width="1" fill="none" fill-rule="evenodd">
        <g id="Group-9" transform="translate(0.000000, 1.000000)" fill="#738192" fill-rule="nonzero">
            <g id="tag">
                <path d="M10.8727969,0 L7.49121025,0 C6.87120132,0 6.0053128,0.358650224 5.56694606,0.797040498 L0.32877506,6.03520127 C-0.109591687,6.47356905 -0.109591687,7.19095949 0.32877506,7.62932727 L4.37069061,11.6712073 C4.80905736,12.1095976 5.52640113,12.1095976 5.96479037,11.6712073 L11.2029614,6.43304652 C11.6413281,5.99465625 12,5.12874321 12,4.50880032 L12,1.1272057 C11.9999775,0.507240317 11.4927609,0 10.8727969,0 Z M9.37499701,3.75000984 C8.75368308,3.75000984 8.24999895,3.24634703 8.24999895,2.62500914 C8.24999895,2.00369375 8.75368308,1.50000844 9.37499701,1.50000844 C9.99631094,1.50000844 10.4999951,2.00369375 10.4999951,2.62500914 C10.4999951,3.24632453 9.99631094,3.75000984 9.37499701,3.75000984 Z" id="Shape"></path>
            </g>
        </g>
    </g>
</svg>