<?xml version="1.0" encoding="UTF-8"?>
<svg width="45px" height="45px" viewBox="0 0 45 45" version="1.1" xmlns="http://www.w3.org/2000/svg" xmlns:xlink="http://www.w3.org/1999/xlink">
    <!-- Generator: Sketch 48 (47235) - http://www.bohemiancoding.com/sketch -->
    <title>BLiPAtendimento</title>
    <desc>Created with Sketch.</desc>
    <defs>
        <linearGradient x1="35.0979478%" y1="8.38386194%" x2="89.0158594%" y2="118.843281%" id="linearGradient-1">
            <stop stop-color="#25DDE0" offset="0%"></stop>
            <stop stop-color="#22C6CA" offset="66.2039494%"></stop>
            <stop stop-color="#0AC1FF" offset="100%"></stop>
            <stop stop-color="#0AC8FF" offset="100%"></stop>
        </linearGradient>
    </defs>
    <g id="Page-1" stroke="none" stroke-width="1" fill="none" fill-rule="evenodd">
        <g id="BLiPAtendimento">
            <g id="Group">
                <circle id="Oval-4-Copy" fill="url(#linearGradient-1)" cx="22.5" cy="22.5" r="22.5"></circle>
                <path d="M22.1253483,8.73134328 C19.0869399,8.73134328 15.9379937,9.22677243 13.7921782,10.5737204 C10.3116185,12.7567051 9.29328884,17.0199292 9.412117,20.9453608 C9.51436448,24.3401764 10.4083391,27.9855215 12.7835206,30.4936316 C15.049546,32.8849217 19.7087152,33.9602282 22.8852959,33.9602282 C23.028995,33.9602282 23.1809845,34.0657884 23.1809845,34.2614266 L23.1809845,37.6872065 C23.1809845,38.0249991 23.4393667,38.2881959 23.7709802,38.2881959 C23.7903243,38.2881959 23.8082867,38.2839735 23.8262491,38.282566 C23.9519859,38.2713063 24.0625237,38.2234523 24.1509539,38.1488564 C25.7523706,36.755462 27.3524056,35.336733 28.8971717,33.878595 C30.3783785,32.4795706 32.05579,31.0425446 33.2136737,29.3676563 C35.6565596,25.8349087 36.0185709,20.8398006 35.2088814,16.6990263 C34.4295897,12.714481 31.6509452,10.1205154 27.7558687,9.29433095 C26.1530703,8.95513088 24.1647712,8.73134328 22.1253483,8.73134328 M22.1253483,10.1655544 C23.9506041,10.1655544 25.8477095,10.3541552 27.4698521,10.6975777 C30.9213956,11.4294617 33.1791306,13.6603003 33.8285403,16.9791126 C34.2250948,19.0072757 34.2969443,21.1128496 34.0371805,23.0678243 C33.7497821,25.2226596 33.0851735,27.0636292 32.0626986,28.5414719 C31.1866864,29.8096016 29.9237917,30.9820234 28.7023488,32.1164436 C28.4453483,32.3543059 28.1897296,32.5921681 27.9396378,32.8272155 C26.8052434,33.899707 25.6570318,34.9327894 24.5875783,35.8757937 L24.5875783,34.2614266 C24.5875783,33.3043475 23.8248674,32.5274246 22.8852959,32.5274246 C19.8703768,32.5274246 15.6602674,31.4647853 13.7963234,29.4985509 C11.4764108,27.0481471 10.8960873,23.4703604 10.8187108,20.9017292 C10.7440978,18.4161387 11.126835,13.9291269 14.5313999,11.7939962 C16.2046662,10.7440242 18.9017891,10.1655544 22.1253483,10.1655544" id="Fill-20-Copy" stroke="#FFFFFF" stroke-width="0.5" fill="#FFFFFF"></path>
            </g>
        </g>
    </g>
</svg>