<svg xmlns="http://www.w3.org/2000/svg" width="45" height="45" viewBox="0 0 45 45">
  <g fill="none" fill-rule="evenodd" transform="translate(2 2)">
    <path fill="#FFF" fill-rule="nonzero" stroke="#00AFF0" stroke-width="2.5" d="M38.2347777,20.5487444 C38.2347777,10.455 30.0516333,2.27231111 19.9574333,2.27231111 C19.0135222,2.27231111 18.0942111,2.36342222 17.1885666,2.50236667 C15.3668,0.947099996 13.0070222,0 10.4226555,0 C4.66762222,0 0,4.6658 0,10.4240222 C0,12.7724111 0.787655555,14.9331111 2.10011111,16.6760667 C1.83178889,17.9261111 1.681,19.2185223 1.681,20.5487444 C1.681,30.6447667 9.86232222,38.8279112 19.9574333,38.8279112 C21.2548555,38.8279112 22.5194778,38.6862334 23.7399111,38.4288445 C25.5703333,40.0278445 27.9592667,41 30.5773444,41 C36.3337444,41 41,36.3342001 41,30.5787111 C41,27.7319444 39.8583777,25.1557778 38.0074555,23.2766112 C38.1423,22.3819 38.2347777,21.4771666 38.2347777,20.5487444"/>
    <path fill="#00AFF0" d="M28.4858888,28.5077555 C27.7665666,29.5300223 26.7128666,30.3331666 25.3252444,30.9099 C23.9385333,31.4921 22.2944333,31.7809222 20.3929445,31.7809222 C18.1124334,31.7809222 16.2328111,31.3855001 14.7499778,30.5937444 C13.7012889,30.0243 12.8466666,29.2621556 12.1893,28.3114111 C11.5337556,27.3615777 11.2053,26.4358889 11.2053,25.5361666 C11.2053,25.0159222 11.4016444,24.5690222 11.7957,24.1986555 C12.1893,23.8246444 12.6917778,23.6392333 13.3004,23.6392333 C13.7942222,23.6392333 14.2133333,23.7831889 14.5536334,24.0747444 C14.8962111,24.3649334 15.1877667,24.7927 15.4278444,25.3635111 C15.7230444,26.0391 16.0401111,26.6049 16.3826889,27.0577222 C16.7229889,27.5119111 17.2049667,27.8872889 17.8226999,28.1811222 C18.4436222,28.4740444 19.2586111,28.6230111 20.2667556,28.6230111 C21.6530111,28.6230111 22.7805111,28.3278111 23.6474333,27.7319444 C24.5134445,27.1401778 24.9489556,26.3971667 24.9489556,25.5083778 C24.9489556,24.8040889 24.7138889,24.2300889 24.2469445,23.7932111 C23.7786334,23.3526889 23.1745667,23.0174 22.4338333,22.7859777 C21.6931,22.5531889 20.7031777,22.3067334 19.4622444,22.0466112 C17.8022,21.6912778 16.4127555,21.2708 15.2948222,20.7938334 C14.1764334,20.3150444 13.2871889,19.6640556 12.6316445,18.8385889 C11.9742778,18.0113 11.6467333,16.9853889 11.6467333,15.7604 C11.6467333,14.5905333 11.9920445,13.5532333 12.6872222,12.6462222 C13.3801222,11.7378444 14.3823444,11.0394778 15.6975333,10.5515778 C17.0109,10.0636778 18.5547778,9.82086669 20.3305334,9.82086669 C21.7482222,9.82086669 22.9754888,9.98350003 24.0100556,10.3051222 C25.0446222,10.6290223 25.9019778,11.0595222 26.5853111,11.5952556 C27.2686444,12.1319 27.7688445,12.6936 28.0827222,13.2830889 C28.3984222,13.8698445 28.5560445,14.4479444 28.5560445,15.0046333 C28.5560445,15.5162222 28.3597,15.9804334 27.9651889,16.3895222 C27.5720444,16.7999778 27.0809556,17.0068 26.4928333,17.0068 C25.9552778,17.0068 25.5480111,16.8824334 25.2701222,16.6359778 C24.9917778,16.3895222 24.6888333,15.9868111 24.3644778,15.4264778 C23.9435445,14.6256111 23.4410667,13.9996778 22.8502111,13.5518666 C22.2616333,13.1013222 21.3177222,12.8776444 20.0139222,12.8776444 C18.8076111,12.8776444 17.8322666,13.1190889 17.0915333,13.6083556 C16.3503444,14.0948889 15.9799777,14.6830112 15.9799777,15.3686222 C15.9799777,15.7913777 16.1075333,16.1608333 16.359,16.4697 C16.6091,16.7799333 16.9571444,17.0427889 17.3994889,17.2655556 C17.8391,17.4869556 18.286,17.6609778 18.7374555,17.7885333 C19.1893667,17.9138111 19.9351111,18.0964889 20.9774222,18.3379334 C22.2784889,18.6181 23.4570111,18.9283334 24.5134445,19.2649889 C25.5694222,19.6039222 26.4677777,20.0143778 27.2085111,20.4949889 C27.9492444,20.9792445 28.5278,21.5910555 28.9423555,22.3304222 C29.3569111,23.0675111 29.5655555,23.9736111 29.5655555,25.0455333 C29.5655555,26.3292889 29.2038444,27.4832112 28.4858888,28.5077555"/>
  </g>
</svg>
