<svg xmlns="http://www.w3.org/2000/svg" xmlns:xlink="http://www.w3.org/1999/xlink" width="45" height="45" viewBox="0 0 45 45">
  <defs>
    <polygon id="infobip-a" points="0 0 130.452 0 130.452 215.738 0 215.738"/>
    <linearGradient id="infobip-b" x1="50%" x2="27.283%" y1="100%" y2="18.633%">
      <stop offset="0%" stop-color="#EB6405"/>
      <stop offset="100%" stop-color="#FF8D00"/>
    </linearGradient>
  </defs>
  <g fill="none" fill-rule="evenodd">
    <mask id="infobip-c" fill="#fff">
      <use xlink:href="#infobip-a"/>
    </mask>
    <circle cx="22.5" cy="22.5" r="22.5" fill="url(#infobip-b)" mask="url(#infobip-c)"/>
    <path fill="#FFF" d="M28.7450076,7.78160885 C28.5325333,9.25573456 28.3381505,10.733669 28.0809233,12.2004493 C28.0538539,12.35484 27.6571988,12.5444618 27.4297615,12.5475904 C25.4584568,12.5750679 23.4866079,12.5622814 21.5150311,12.5641857 C20.2575965,12.565274 20.0279828,12.7770682 19.8680149,14.021172 C19.7583771,14.8736539 19.637857,15.7250475 19.5056387,16.5744008 C19.3647146,17.4787089 19.5486233,17.7186607 20.4948278,17.7241018 C22.4891211,17.7358002 24.4834145,17.7285907 26.4778439,17.7291348 C26.7210603,17.7292709 26.9641408,17.7291348 27.2961829,17.7291348 C27.1028884,19.1646288 26.9316303,20.5046318 26.7407843,21.8417783 C26.222385,25.4711174 25.6969123,29.0995043 25.1715756,32.7278912 C24.9901154,33.9821972 24.8174971,35.2382714 24.5978133,36.486048 C24.5636705,36.6802947 24.3005941,36.9824109 24.1402181,36.9843153 C21.8975393,37.0119288 19.6541803,36.9965578 17.4109573,36.9873079 C17.3505613,36.9870359 17.2904373,36.9367058 17.1401274,36.8692364 C17.3047202,35.7074289 17.469585,34.5261695 17.6397549,33.3458624 C18.3473679,28.4384126 19.0578375,23.5316429 19.7639542,18.6240571 C19.878625,17.8259861 19.7087272,17.624394 18.844683,17.619361 C16.5331745,17.6060303 14.2215299,17.6139199 11.9098853,17.6133758 C11.6413678,17.6133758 11.3728503,17.6133758 11,17.6133758 C11.1874453,16.2762294 11.3627843,15.009817 11.5432922,13.7440848 C11.7005396,12.6403609 11.7029881,12.640633 12.7974621,12.640633 C15.0863902,12.640497 17.3755903,12.6217252 19.6642463,12.6517872 C20.3471024,12.660765 20.6620051,12.3911593 20.7486544,11.7370049 C20.9094384,10.5247314 21.0823288,9.31341005 21.2892261,8.10834595 C21.3192881,7.9339592 21.5646809,7.66353732 21.7122704,7.66231308 C23.9773937,7.64299723 26.242789,7.66081678 28.5080484,7.67292319 C28.5484484,7.67319525 28.5887124,7.70829024 28.7450076,7.78160885" mask="url(#infobip-c)"/>
  </g>
</svg>
