<?xml version="1.0" encoding="UTF-8"?>
<svg width="45px" height="45px" viewBox="0 0 45 45" version="1.1" xmlns="http://www.w3.org/2000/svg" xmlns:xlink="http://www.w3.org/1999/xlink">
    <!-- Generator: Sketch 48 (47235) - http://www.bohemiancoding.com/sketch -->
    <title>Skype</title>
    <desc>Created with Sketch.</desc>
    <defs></defs>
    <g id="SDK-/-Publicações" stroke="none" stroke-width="1" fill="none" fill-rule="evenodd">
        <g id="Skype" fill="#00AFF0">
            <g id="Skype-Copy">
                <path d="M31.2039355,31.2485953 C30.4159775,32.3691465 29.2617363,33.2495081 27.7417109,33.8816907 C26.2226836,34.5198656 24.421708,34.8364562 22.3387842,34.8364562 C19.8406729,34.8364562 17.7817021,34.4030167 16.1573809,33.5351388 C15.0086289,32.9109459 14.0724609,32.0755261 13.3523701,31.0333736 C12.6342754,29.9922198 12.2744795,28.9775318 12.2744795,27.991307 C12.2744795,27.4210444 12.4895586,26.9311778 12.9212139,26.5252027 C13.3523701,26.1152328 13.902793,25.9119956 14.5694883,25.9119956 C15.1104297,25.9119956 15.5695312,26.0697916 15.9423018,26.3893783 C16.3175674,26.7074671 16.6369424,27.1763608 16.8999277,27.8020517 C17.2232949,28.5425942 17.5706152,29.1627923 17.9458809,29.6591505 C18.3186514,30.1570068 18.8466182,30.5684747 19.5232939,30.8905583 C20.2034629,31.2116431 21.0962158,31.374932 22.2005547,31.374932 C23.719083,31.374932 24.954166,31.0513504 25.9038076,30.3981949 C26.8524512,29.7495336 27.3295176,28.9350867 27.3295176,27.9608464 C27.3295176,27.1888446 27.0720215,26.5596582 26.5605225,26.0807774 C26.0475264,25.5979017 25.3858213,25.2303769 24.5744092,24.9767049 C23.7629971,24.7215349 22.6786191,24.4513842 21.3192793,24.1662529 C19.5008379,23.7767565 17.9788164,23.3158524 16.7542129,22.7930285 C15.5291104,22.268207 14.5550166,21.5546297 13.8369219,20.6497997 C13.1168311,19.7429722 12.7580332,18.6184262 12.7580332,17.2756624 C12.7580332,15.9933205 13.136293,14.8562907 13.8978027,13.8620762 C14.6568174,12.8663637 15.7546689,12.1008535 17.1953496,11.566045 C18.6340342,11.0312365 20.3252246,10.7650807 22.270418,10.7650807 C23.8233789,10.7650807 25.167748,10.9433502 26.3010303,11.2958943 C27.4343125,11.6509353 28.3734746,12.1228251 29.1220098,12.7100658 C29.8705449,13.2983052 30.4184727,13.9140091 30.7622998,14.5601736 C31.108123,15.203342 31.2807852,15.8370226 31.2807852,16.4472336 C31.2807852,17.0080085 31.0657061,17.5168506 30.6335518,17.9652708 C30.2028945,18.415189 29.6649473,18.6418959 29.020708,18.6418959 C28.4318604,18.6418959 27.9857334,18.5055722 27.6813291,18.2354215 C27.3764258,17.9652708 27.0445752,17.5238415 26.6892705,16.9096357 C26.2281729,16.0317708 25.67775,15.345658 25.0305166,14.8547926 C24.3857783,14.3609312 23.3518018,14.1157482 21.9235967,14.1157482 C20.6021826,14.1157482 19.5337734,14.380406 18.7223613,14.9167126 C17.9104502,15.450023 17.5047441,16.0946895 17.5047441,16.8462177 C17.5047441,17.3096185 17.6444707,17.7145949 17.9199316,18.0531571 C18.1938955,18.3932174 18.5751494,18.6813449 19.0597012,18.9255292 C19.5412588,19.1682154 20.0308008,19.3589687 20.525333,19.4987879 C21.0203643,19.6361104 21.8372656,19.8363515 22.9790312,20.1010093 C24.4042422,20.4081122 25.6952158,20.7481725 26.8524512,21.1171953 C28.0091875,21.4887149 28.9932617,21.9386332 29.8046738,22.465452 C30.6160859,22.9962657 31.2498457,23.6668985 31.703957,24.4773506 C32.1580684,25.2853059 32.3866211,26.2785217 32.3866211,27.4535024 C32.3866211,28.8606829 31.9903965,30.1255475 31.2039355,31.2485953 M41.8830371,22.5243758 C41.8830371,11.4601819 32.9190791,2.4907794 21.8617178,2.4907794 C20.8277412,2.4907794 19.8207119,2.59065027 18.8286533,2.74295334 C16.8330586,1.03815765 14.2481172,0 11.4171572,0 C5.11299414,0 0,5.11438706 0,11.4262258 C0,14.0003974 0.862811523,16.368835 2.30049805,18.2793647 C2.00657324,19.6495929 1.84139648,21.0662612 1.84139648,22.5243758 C1.84139648,33.5910665 10.8033584,42.5609684 21.8617178,42.5609684 C23.2829365,42.5609684 24.6682256,42.4056692 26.0051094,42.123534 C28.0101855,43.8762677 30.6270645,44.9418898 33.4949521,44.9418898 C39.8006123,44.9418898 44.9121094,39.8275028 44.9121094,33.5186601 C44.9121094,30.3981949 43.6615566,27.5743462 41.6340244,25.5145096 C41.7817354,24.5337776 41.8830371,23.5420599 41.8830371,22.5243758" id="Fill-12"></path>
            </g>
        </g>
    </g>
</svg>