<?xml version="1.0" encoding="UTF-8"?>
<svg width="45px" height="45px" viewBox="0 0 45 45" version="1.1" xmlns="http://www.w3.org/2000/svg" xmlns:xlink="http://www.w3.org/1999/xlink">
    <!-- Generator: Sketch 48 (47235) - http://www.bohemiancoding.com/sketch -->
    <title>Whatsapp</title>
    <desc>Created with Sketch.</desc>
    <defs>
        <linearGradient x1="50%" y1="0%" x2="50%" y2="100%" id="linearGradient-1">
            <stop stop-color="#5CFB7A" offset="0%"></stop>
            <stop stop-color="#00B824" offset="100%"></stop>
        </linearGradient>
    </defs>
    <g id="SDK-/-Publicações" stroke="none" stroke-width="1" fill="none" fill-rule="evenodd">
        <g id="Whatsapp">
            <path d="M10.6389258,39.2222088 C5.54630861,41.0740696 3,42 3,42 C3,42 4.01175503,39.5717879 6.0352651,34.7153638 C3.50001286,31.3037716 2,27.0770592 2,22.5 C2,11.1781626 11.1781626,2 22.5,2 C33.8218374,2 43,11.1781626 43,22.5 C43,33.8218374 33.8218374,43 22.5,43 C18.0801005,43 13.9869016,41.6012287 10.6389258,39.2222088 Z" id="Combined-Shape" fill="url(#linearGradient-1)"></path>
            <g id="whatsapp-logo" fill="#FFFFFF" fill-rule="nonzero">
                <path d="M45,21.9205 C45,34.027 35.1105,43.841 22.909,43.841 C19.0355,43.841 15.3965,42.851 12.2305,41.1135 L0,45 L3.9875,33.239 C1.976,29.936 0.8175,26.062 0.8175,21.9205 C0.8175,9.814 10.708,0 22.909,0 C35.1115,0 45,9.814 45,21.9205 Z M22.909,3.491 C12.667,3.491 4.336,11.7585 4.336,21.9205 C4.336,25.953 5.6505,29.6875 7.874,32.7255 L5.5535,39.57 L12.691,37.3015 C15.6235,39.227 19.1365,40.35 22.9095,40.35 C33.15,40.35 41.4825,32.0835 41.4825,21.9215 C41.4825,11.7595 33.1505,3.491 22.909,3.491 Z M34.0645,26.969 C33.928,26.7455 33.5675,26.6105 33.0265,26.342 C32.4845,26.0735 29.8215,24.773 29.3265,24.5945 C28.83,24.4155 28.468,24.3255 28.1075,24.863 C27.747,25.401 26.709,26.6105 26.3925,26.969 C26.0765,27.3285 25.761,27.3735 25.219,27.1045 C24.678,26.836 22.9335,26.268 20.865,24.438 C19.2555,23.014 18.1685,21.256 17.8525,20.7175 C17.537,20.18 17.8195,19.8895 18.09,19.622 C18.334,19.381 18.632,18.9945 18.9025,18.681 C19.174,18.367 19.264,18.1435 19.4435,17.7845 C19.625,17.426 19.5345,17.1125 19.3985,16.843 C19.2635,16.5745 18.1795,13.9305 17.7285,12.8545 C17.2775,11.7795 16.827,11.9585 16.5105,11.9585 C16.195,11.9585 15.8335,11.9135 15.4725,11.9135 C15.1115,11.9135 14.5245,12.048 14.028,12.5855 C13.532,13.1235 12.1335,14.4235 12.1335,17.067 C12.1335,19.711 14.073,22.2655 14.3445,22.6235 C14.615,22.9815 18.0895,28.5835 23.5945,30.735 C29.1,32.8855 29.1,32.168 30.093,32.078 C31.085,31.9885 33.296,30.7785 33.749,29.5245 C34.199,28.2685 34.199,27.193 34.0645,26.969 Z" id="WhatsApp"></path>
            </g>
        </g>
    </g>
</svg>